<?xml version="1.0" encoding="UTF-8"?><svg xmlns="http://www.w3.org/2000/svg" viewBox="0 0 87.32 83.49"><g id="a"/><g id="b"/><g id="c"/><g id="d"/><g id="e"/><g id="f"/><g id="g"/><g id="h"/><g id="i"/><g id="j"/><g id="k"/><g id="l"/><g id="m"><g id="n"><circle cx="43.66" cy="41.74" r="38.57" style="fill:#7b1245;"/><g><path d="M51.49,51.39h-7.46v-4.32c.17,.16,.37,.26,.41,.41,.31,.99,.57,1.28,1.6,1.33,1.36,.06,2.72,.01,4.09,.01q.17-.8-.59-1.06c-3.08-1.01-5.03-4.04-4.97-7.47,.06-3.78,3.05-7.31,7.09-7.81,2.15-.27,4.24-.12,6.19,.92,2.83,1.52,4.22,3.97,4.12,7.24-.11,3.47-1.81,5.84-4.94,7.08-.56,.22-.72,.54-.67,1.14,.2,0,.39,.03,.59,.03,1.25-.02,2.5-.02,3.75-.07,.75-.03,1.21-.48,1.36-1.25,.05-.28,.11-.56,.53-.37v4.16h-7.41c.06-.81,.17-1.6,.16-2.38-.02-1.13,.29-1.87,1.41-2.35,.94-.4,1.48-1.38,1.79-2.4,.73-2.38,.76-4.78-.08-7.13-1.06-2.97-4.16-4.52-6.85-3.43-2.08,.84-3.11,2.6-3.57,4.74-.45,2.08-.22,4.12,.46,6.11,.41,1.19,1.21,2.02,2.3,2.54,.31,.15,.45,.33,.47,.7,.05,1.19,.14,2.37,.22,3.62Z" style="fill:#fefafd;"/><path d="M42.6,51.38h-6.7l-.1-.13c.11-.12,.2-.29,.34-.36,.16-.08,.36-.05,.54-.09,.71-.16,1.09-.66,.86-1.4-.42-1.35-.93-2.66-1.42-3.98-.05-.12-.28-.23-.43-.23-2-.01-4-.01-6.01,0-.15,0-.38,.11-.43,.23-.51,1.29-1.03,2.58-1.45,3.9-.24,.75,.04,1.17,.77,1.39,.36,.11,.74,.16,1.31,.28-.2,.2-.33,.44-.46,.44-1.69,.02-3.38,.02-5.05,.02-.18-.38-.07-.56,.26-.61,.83-.13,1.39-.67,1.72-1.45,.9-2.13,1.78-4.27,2.65-6.42,1.34-3.35,2.66-6.71,4-10.06,.09-.23,.31-.41,.48-.61,.15,.2,.34,.37,.43,.59,1.94,4.98,3.87,9.97,5.81,14.96,.18,.47,.4,.92,.61,1.38,.41,.9,1.04,1.48,2,1.62,.15,.02,.28,.24,.42,.37l-.14,.17Zm-6.93-7.25l-2.93-7.5-3,7.5h5.93Z" style="fill:#fefafd;"/></g></g></g><g id="o"/><g id="p"/><g id="q"/><g id="r"/><g id="s"/><g id="t"/><g id="u"><g id="v"/></g><g id="w"/><g id="x"/><g id="y"/><g id="a`"/><g id="aa"/><g id="ab"/><g id="ac"/><g id="ad"/><g id="ae"/><g id="af"/><g id="ag"/><g id="ah"/><g id="ai"/><g id="aj"/><g id="ak"/><g id="al"/><g id="am"/><g id="an"/><g id="ao"><g id="ap"/><g id="aq"/><g id="ar"/></g><g id="as"/><g id="at"/><g id="au"><g id="av"/></g><g id="aw"/></svg>