<?xml version="1.0" encoding="UTF-8"?><svg xmlns="http://www.w3.org/2000/svg" viewBox="0 0 87.32 83.49"><g id="a"/><g id="b"/><g id="c"/><g id="d"/><g id="e"/><g id="f"/><g id="g"/><g id="h"/><g id="i"/><g id="j"/><g id="k"/><g id="l"/><g id="m"/><g id="n"/><g id="o"/><g id="p"><g><circle cx="43.66" cy="41.74" r="38.57" style="fill:#7b1245;"/><path d="M42.25,49.84c-.4,.09-.97,.6-1.38,1.25-.58,.92-.8,1.94-.6,2.81,.01,.04,.02,.1,.03,.17,0,.04,.01,.08,.02,.12h0s.02,.09,.03,.13v.04s.03,.07,.04,.11l.02,.06s.02,.07,.03,.11c0,.02,.02,.05,.02,.07,.01,.04,.02,.08,.04,.11,0,.03,.02,.06,.03,.08,.01,.04,.03,.08,.05,.12,.01,.03,.03,.06,.04,.09,.02,.04,.04,.08,.06,.12,.02,.03,.03,.06,.05,.1,.02,.04,.05,.09,.07,.13,.02,.03,.04,.07,.06,.1,.03,.04,.06,.09,.09,.13,.02,.04,.05,.07,.07,.11,.03,.05,.07,.09,.1,.14,.03,.04,.06,.07,.09,.11,.04,.05,.08,.1,.12,.14,.03,.04,.06,.08,.1,.11,.04,.05,.09,.1,.14,.15,.04,.04,.07,.08,.11,.11,.05,.05,.11,.1,.17,.16,.04,.04,.08,.07,.12,.11,.06,.06,.13,.11,.2,.17,.04,.04,.09,.07,.13,.11,.08,.06,.16,.12,.24,.18,.04,.03,.08,.06,.13,.09l.03,.02v-7.71h-.03c-.14,.04-.28,.07-.43,.1Z" style="fill:none;"/><path d="M44.63,49.82h0v7.55h0c.05-.04,.1-.08,.15-.12,.07-.05,.13-.1,.19-.15,.05-.04,.09-.08,.14-.12,.06-.05,.12-.1,.17-.15,.04-.04,.08-.08,.12-.12,.05-.05,.1-.1,.15-.15,.04-.04,.07-.08,.11-.12,.04-.05,.09-.09,.13-.14,.03-.04,.06-.08,.1-.11,.04-.05,.07-.09,.11-.14,.03-.04,.06-.08,.08-.11,.03-.04,.06-.09,.09-.13,.02-.04,.05-.07,.07-.11,.03-.04,.05-.08,.08-.13,.02-.04,.04-.07,.06-.11,.02-.04,.04-.08,.06-.12,.02-.03,.03-.07,.05-.1,.02-.04,.04-.08,.05-.11,.01-.03,.03-.06,.04-.1,.02-.04,.03-.07,.04-.11,.01-.03,.02-.06,.03-.09,.01-.03,.02-.07,.03-.1,0-.03,.02-.05,.03-.08,0-.03,.02-.06,.03-.09,0-.02,.01-.05,.02-.07,0-.03,.01-.06,.02-.09v-.06s.03-.05,.03-.08v-.05s.02-.08,.03-.11c.01-.07,.02-.13,.03-.17,.2-.87-.02-1.89-.6-2.81-.08-.13-.18-.26-.27-.38-.08-.1-.16-.19-.24-.28h0c-.15-.17-.3-.3-.45-.4-.05-.03-.08-.04-.13-.06-.1-.05-.2-.12-.28-.13-.1-.02-.19-.04-.28-.06Z" style="fill:none;"/><path d="M44.63,47.98l.02-.02c.15-.1,.29-.2,.43-.32,.02-.01,.03-.03,.05-.04,.13-.12,.26-.25,.38-.38,.02-.03,.04-.05,.07-.08,.12-.14,.23-.29,.35-.45,.02-.03,.04-.06,.06-.08,.12-.17,.24-.35,.36-.55,1.31-2.07,.65-4.6,.64-4.62-.06-.21-.13-.4-.21-.59-.03-.06-.06-.12-.09-.18-.06-.12-.11-.24-.17-.35-.04-.07-.08-.13-.12-.19-.06-.09-.12-.19-.18-.28-.05-.06-.09-.12-.14-.18-.06-.08-.12-.16-.19-.23-.05-.06-.1-.11-.15-.17-.06-.07-.13-.14-.19-.2-.05-.05-.1-.1-.16-.15-.06-.06-.13-.12-.19-.18-.05-.05-.1-.09-.16-.14-.06-.05-.12-.11-.18-.16-.05-.04-.11-.09-.16-.13l-.06-.05v9.7Z" style="fill:none;"/><path d="M42.69,38.2h0c-.35,.28-.78,.62-1.19,1.05-.03,.03-.05,.07-.08,.1-.38,.42-.75,.91-1.02,1.53-.08,.19-.16,.39-.22,.6,0,.02-.66,2.55,.64,4.62,.08,.12,.16,.24,.23,.36,.03,.04,.05,.08,.08,.11,.05,.07,.1,.15,.15,.21,.03,.04,.06,.08,.09,.12,.05,.06,.09,.12,.14,.18,.03,.04,.07,.08,.1,.12,.05,.05,.09,.11,.14,.16,.03,.04,.07,.07,.1,.11,.05,.05,.1,.1,.15,.14,.04,.03,.07,.06,.11,.1,.06,.05,.12,.09,.18,.14,.03,.03,.07,.05,.1,.08,.08,.05,.16,.1,.24,.15,.02,.01,.04,.03,.06,.04h0v-9.94h-.01v.02Z" style="fill:none;"/><polygon points="43.37 58.43 43.37 58.43 43.51 58.51 43.37 58.43 43.37 58.43" style="fill:none;"/><path d="M49.4,26.52h0l-.03-.02,.03,.02Z" style="fill:none;"/><path d="M37.77,26.48h0s.07-.05,.11-.08c-.04,.02-.07,.05-.11,.08Z" style="fill:none;"/><path d="M44.62,37.08c.35-.15,.68-.26,1.07-.39,.53-.17,1.12-.36,1.9-.72,2.68-1.23,4.86-4.32,3.88-7.37-.23-.71-.75-1.38-1.55-2.01h0l-.02-.02c-.02-.45-.45-1.03-1.12-1.48-.89-.6-1.8-.72-2.11-.26-.17,.24-.13,.59,.11,.96,.2,.32,.53,.64,.92,.9,.51,.34,1.04,.54,1.46,.54h.03c.73,.54,1.19,1.09,1.37,1.66,.82,2.54-1.07,5.16-3.37,6.21-.72,.33-1.29,.51-1.79,.67-.26,.09-.52,.17-.78,.27h0l-.24,.09v-12.3s0,.03,0,.04c0-.07,.01-.14,.01-.22,0-.12-.01-.24-.03-.35h0c-.09-.5-.36-.86-.68-.86-.38,0-.68,.5-.71,1.12h0v12.6l-.24-.11v.02c-.32-.13-.63-.24-.95-.34l-.07,.23,.07-.23c-.5-.16-1.07-.34-1.78-.67-2.3-1.06-4.19-3.67-3.37-6.21,.18-.56,.64-1.12,1.37-1.66h.03c.42,0,.95-.19,1.46-.54,.39-.27,.72-.59,.92-.9,.24-.37,.27-.72,.11-.96-.17-.24-.49-.33-.93-.26-.37,.07-.79,.25-1.18,.52-.67,.46-1.1,1.03-1.12,1.48h-.02v.02c-.8,.62-1.32,1.3-1.55,2.01-.98,3.05,1.21,6.14,3.88,7.37,.77,.35,1.36,.55,1.9,.72,.43,.14,.8,.26,1.2,.44-.18,.13-.37,.26-.57,.42-.83,.65-2.22,1.75-2.8,3.73,0,.03-.81,2.88,.74,5.33,.62,.99,1.2,1.7,2.07,2.23h-.06c-.65,.15-1.41,.79-1.96,1.67-.71,1.12-.97,2.39-.71,3.5,0,.03,.01,.07,.02,.12,.11,.63,.45,2.51,3.2,4.23h.01l-.02,.02,.11,.06v.39h0v.53l-.05,.02,.05-.02v1.73h1.9v-1.68h0v-.53h0v-.5h0v-.02h0c2.68-1.71,3.01-3.51,3.13-4.19,0-.05,.02-.09,.02-.12,.26-1.1,0-2.38-.71-3.5-.56-.88-1.31-1.51-1.96-1.65-.05-.01-.1-.02-.15-.03,.92-.54,1.51-1.26,2.16-2.28,1.53-2.43,.75-5.31,.74-5.33-.58-1.98-1.97-3.07-2.8-3.73-.16-.12-.3-.23-.44-.33h0v-.07Zm4.7-10.34l-.03-.02,.03,.02h0Zm-6.6,22.91v7.61l-.03-.02s-.08-.06-.13-.09c-.08-.06-.16-.12-.24-.18-.04-.04-.09-.07-.13-.11-.07-.05-.13-.11-.2-.16-.04-.04-.08-.07-.12-.11-.06-.05-.11-.1-.16-.16-.04-.04-.07-.08-.11-.11-.05-.05-.1-.1-.14-.15-.03-.04-.07-.08-.1-.11-.04-.05-.08-.1-.12-.14-.03-.04-.06-.07-.09-.11-.03-.05-.07-.09-.1-.14-.03-.04-.05-.07-.07-.11-.03-.04-.06-.09-.08-.13-.02-.03-.04-.07-.06-.1-.03-.04-.05-.09-.07-.13-.02-.03-.03-.06-.05-.1-.02-.04-.04-.08-.06-.12-.01-.03-.03-.06-.04-.09-.02-.04-.03-.08-.05-.12-.01-.03-.02-.06-.03-.08-.01-.04-.03-.08-.04-.11,0-.02-.02-.05-.02-.07-.01-.04-.02-.07-.03-.11l-.02-.06s-.02-.08-.03-.11v-.04s-.03-.09-.04-.13h0s-.01-.08-.02-.12c-.01-.07-.02-.12-.03-.17-.2-.86,.01-1.87,.59-2.77,.41-.64,.96-1.15,1.36-1.23,.15-.03,.29-.06,.43-.1h.03Zm0-1.6h0s-.04-.03-.06-.04c-.08-.05-.16-.1-.24-.15-.03-.02-.07-.05-.1-.08-.06-.04-.12-.09-.17-.14-.04-.03-.07-.06-.11-.09-.05-.05-.1-.09-.15-.14-.03-.03-.07-.07-.1-.11-.05-.05-.09-.1-.14-.15-.03-.04-.07-.08-.1-.12-.05-.06-.09-.12-.14-.18-.03-.04-.06-.08-.09-.12-.05-.07-.1-.14-.15-.21-.03-.04-.05-.07-.08-.11-.08-.11-.15-.23-.23-.35-1.29-2.04-.64-4.54-.63-4.56,.06-.21,.13-.41,.22-.6,.27-.61,.63-1.1,1-1.51,.03-.03,.05-.07,.08-.1,.41-.43,.83-.76,1.17-1.04h.01v9.79Zm.66,10.17h0l.14,.08-.14-.08Zm.77-20.83l-.02-.02h0l-.03-.03,.06,.04h0Zm0-.62l-.04,.02h0l.05-.02h0Zm1.03,13.15s.08,.03,.13,.06c.14,.1,.29,.23,.44,.38h0c.08,.09,.16,.19,.24,.29,.09,.12,.18,.24,.27,.37,.57,.91,.79,1.92,.59,2.77-.01,.04-.02,.1-.03,.17,0,.03-.01,.07-.02,.11v.05s-.02,.05-.03,.08v.06s-.03,.06-.03,.09c0,.02-.01,.05-.02,.07,0,.03-.02,.06-.03,.09,0,.03-.02,.05-.03,.08-.01,.03-.02,.07-.03,.1-.01,.03-.02,.06-.03,.09-.01,.03-.03,.07-.04,.11-.01,.03-.03,.06-.04,.09-.02,.04-.03,.07-.05,.11-.02,.03-.03,.07-.05,.1-.02,.04-.04,.08-.06,.12-.02,.03-.04,.07-.06,.1-.02,.04-.05,.08-.08,.12-.02,.04-.05,.07-.07,.11-.03,.04-.06,.09-.09,.13-.03,.04-.05,.07-.08,.11-.03,.04-.07,.09-.11,.13-.03,.04-.06,.08-.09,.11-.04,.05-.08,.09-.13,.14-.04,.04-.07,.08-.11,.12-.05,.05-.1,.1-.15,.14-.04,.04-.08,.08-.12,.12-.05,.05-.11,.1-.17,.15-.04,.04-.09,.08-.13,.12-.06,.05-.13,.1-.19,.15-.05,.04-.1,.08-.15,.12h0v-7.45h0c.09,.02,.18,.04,.28,.06,.08,.02,.18,.08,.28,.13Zm-.5-11.53c.05,.04,.1,.08,.16,.13,.06,.05,.12,.1,.18,.15,.05,.04,.1,.09,.15,.13,.06,.06,.12,.11,.19,.17,.05,.05,.1,.1,.15,.15,.06,.06,.13,.13,.19,.2,.05,.05,.1,.11,.15,.16,.06,.07,.12,.15,.19,.23,.05,.06,.09,.12,.14,.18,.06,.09,.12,.18,.18,.27,.04,.06,.08,.12,.12,.19,.06,.11,.12,.22,.17,.34,.03,.06,.06,.12,.09,.18,.08,.18,.15,.38,.21,.58,0,.03,.66,2.52-.63,4.56-.12,.19-.24,.37-.36,.54-.02,.03-.04,.06-.06,.08-.11,.16-.23,.3-.34,.44-.02,.03-.04,.05-.07,.08-.12,.14-.24,.26-.37,.38-.02,.01-.03,.03-.05,.04-.13,.11-.27,.22-.42,.31l-.02,.02v-9.57l.06,.05Z" style="fill:#fff;"/><path d="M44.11,36.7l.04-.02h0l-.05,.02h0Z"/><path d="M44.12,37.29h0l.02,.02h0l-.06-.04,.03,.02Z"/><polygon points="43.14 63.72 43.14 63.72 43.14 63.72 43.13 63.71 43.14 63.72"/></g></g><g id="q"/><g id="r"/><g id="s"/><g id="t"><g id="u"/></g><g id="v"/><g id="w"/><g id="x"/><g id="y"/><g id="a`"/><g id="aa"/><g id="ab"/><g id="ac"/><g id="ad"/><g id="ae"/><g id="af"/><g id="ag"/><g id="ah"/><g id="ai"/><g id="aj"/><g id="ak"/><g id="al"/><g id="am"/><g id="an"><g id="ao"/><g id="ap"/><g id="aq"/></g><g id="ar"/><g id="as"/><g id="at"><g id="au"/></g><g id="av"/></svg>