<?xml version="1.0" encoding="UTF-8"?><svg xmlns="http://www.w3.org/2000/svg" viewBox="0 0 87.32 83.49"><g id="a"/><g id="b"/><g id="c"/><g id="d"/><g id="e"/><g id="f"/><g id="g"/><g id="h"/><g id="i"/><g id="j"/><g id="k"/><g id="l"/><g id="m"/><g id="n"/><g id="o"/><g id="p"/><g id="q"/><g id="r"/><g id="s"/><g id="t"><g id="u"/></g><g id="v"/><g id="w"/><g id="x"/><g id="y"/><g id="a`"/><g id="aa"/><g id="ab"/><g id="ac"/><g id="ad"/><g id="ae"/><g id="af"/><g id="ag"/><g id="ah"/><g id="ai"/><g id="aj"/><g id="ak"/><g id="al"><g><circle cx="43.66" cy="41.74" r="38.57" style="fill:#7b1245;"/><path d="M46.55,37.04h-1.33c.87-.6,1.5-1.72,1.5-3.34,0-3.22-1.9-4.24-2.42-8.05-1.37,1.75-1.9,4.09-1.9,6.14-.42-.88-.42-1.61-.53-2.78-1.05,1.9-1.26,2.93-1.26,4.68,0,1.6,.66,2.73,1.52,3.34h-1.35c-.25,0-.44,.22-.44,.48v23.07c0,.27,.2,.48,.44,.48h5.77c.25,0,.44-.21,.44-.48v-23.07c0-.27-.2-.48-.44-.48Zm-1.8,0h-.05c.04-.06,.09-.11,.13-.18-.02,.07-.05,.12-.08,.18Z" style="fill:#fff;"/></g></g><g id="am"/><g id="an"><g id="ao"/><g id="ap"/><g id="aq"/></g><g id="ar"/><g id="as"/><g id="at"><g id="au"/></g><g id="av"/></svg>