<?xml version="1.0" encoding="UTF-8"?><svg xmlns="http://www.w3.org/2000/svg" viewBox="0 0 87.32 83.49"><g id="a"/><g id="b"/><g id="c"/><g id="d"/><g id="e"/><g id="f"/><g id="g"/><g id="h"/><g id="i"/><g id="j"/><g id="k"/><g id="l"/><g id="m"/><g id="n"/><g id="o"/><g id="p"/><g id="q"/><g id="r"/><g id="s"/><g id="t"><g id="u"/></g><g id="v"/><g id="w"/><g id="x"/><g id="y"/><g id="a`"/><g id="aa"/><g id="ab"/><g id="ac"/><g id="ad"/><g id="ae"/><g id="af"/><g id="ag"/><g id="ah"/><g id="ai"/><g id="aj"/><g id="ak"/><g id="al"/><g id="am"/><g id="an"><g id="ao"/><g id="ap"/><g id="aq"/></g><g id="ar"><g><circle cx="43.66" cy="41.74" r="38.57" style="fill:#7b1245;"/><path d="M44.89,49.36c-.39,.34-.62,.71-.78,1.26-.37,1.17-.74,2.09-1.22,3.04,.99,.2,2.09-.23,2.66-1.06h0c.17-.24,.29-.48,.37-.74,.28-.98,.54-2.19,.68-3.15-.38,0-.76,.08-1.15,.26-.2,.1-.39,.23-.56,.39Z" style="fill:#fefafd;"/><path d="M51.57,40.01h.04c.16,.06,.32,.09,.48,.11h.09l.04,.02c.47,.03,1-.08,1.52-.18,.31-.06,.6-.12,.89-.15h.03c.05-.01,.07-.02,.09-.02,.15-.03,.3-.05,.45-.07l.81-.12s.07,0,.09,0l.11-.02h0c-.24-.64-.81-1.15-1.52-1.39h-.05c-.16-.07-.33-.1-.5-.12h-.03c-.26-.03-.53-.02-.8,.04-.37,.07-.74,.15-1.08,.22l-.14,.03c-.65,.15-1.26,.29-1.92,.47,.28,.56,.78,.99,1.41,1.19h.01Z" style="fill:#fefafd;"/><path d="M41.61,50.69c-.51,.15-.9,.38-1.23,.74l-.07,.08c-.21,.29-.39,.58-.58,.88-.22,.35-.44,.71-.74,1.1-.3,.39-.63,.77-.96,1.14,.42,.2,.89,.29,1.33,.26,.68-.08,1.21-.29,1.57-.63h0c.5-.44,.77-1.04,1.05-1.67,.06-.14,.13-.28,.19-.42,.2-.42,.38-.9,.58-1.5-.15-.03-.3-.04-.44-.04-.29,0-.51,.01-.7,.06Z" style="fill:#fefafd;"/><path d="M47.79,47.81c-.13,1.2-.3,2.23-.54,3.23,.45,0,.88-.13,1.25-.36,.25-.15,.47-.32,.65-.52,.18-.2,.32-.43,.44-.67,.34-1.02,.34-2.02,.34-3.08,0-.31,0-.62,0-.95-1.15,.19-2.05,1.15-2.15,2.34Z" style="fill:#fefafd;"/><path d="M57.67,41.34c-.62-.53-1.4-.73-2.09-.53-.06,0-.09,0-.12,.01l-1.23,.15c-.32,.04-.63,.09-.94,.15,.19,.58,.5,1.1,.9,1.47l.04,.03c.11,.1,.24,.2,.39,.29,.12,.07,.24,.12,.35,.17v-.02l.17,.07c.66,.1,1.4,.05,2.1,0,.48-.03,.98-.07,1.47-.05-.17-.69-.54-1.3-1.05-1.73Z" style="fill:#fefafd;"/><path d="M28.7,39.61c.13-.07,.25-.15,.38-.24,.07-.05,.11-.08,.14-.1,.01-.02,.05-.04,.09-.05,.07-.07,.15-.16,.22-.24,.31-.37,.43-.87,.49-1.28,.03-.23,.02-.48-.02-.74-.17-1.2-.2-2.12-.11-3.3-.99,.2-1.86,1.08-2.05,2.11h0c-.06,.3-.07,.57-.02,.81,.19,1.06,.42,2.16,.88,3.02Z" style="fill:#fefafd;"/><path d="M27.79,47.18c.59,.06,1.14,.06,1.66,.02-.02-.99-.45-1.84-1.33-2.33h0c-.23-.12-.46-.22-.64-.29-.3-.11-.56-.22-.79-.33-.79-.41-1.51-.9-2.19-1.54-.31,.56-.41,1.24-.29,1.86,.05,.34,.15,.62,.34,.96,.15,.29,.36,.56,.63,.78h0c.25,.23,.53,.39,.83,.48,.52,.18,1.11,.31,1.78,.4Z" style="fill:#fefafd;"/><path d="M52.97,45.58c.12-.89-.07-1.81-.25-2.7-.06-.28-.11-.56-.16-.84-.81,.31-1.39,.95-1.56,1.75h0v.03c-.06,.63,0,1.24,.06,1.89,.05,.54,.1,1.09,.09,1.68,.15-.04,.3-.09,.44-.16,.7-.34,1.21-.95,1.38-1.65Z" style="fill:#fefafd;"/><path d="M33.21,35.58c.21-.48,.39-1,.58-1.54,.25-.74,.52-1.51,.92-2.26-.17-.03-.35-.04-.53-.04-.26,.01-.55,.07-.88,.18h0c-.55,.18-1.06,.55-1.42,1.05-.39,.57-.5,1.21-.6,1.89-.03,.21-.07,.43-.11,.64-.05,.46-.08,.93-.1,1.4,.4-.03,.77-.14,1.15-.34,.45-.22,.76-.62,1.01-.98Z" style="fill:#fefafd;"/><path d="M38.53,35.33c.37,.18,.78,.29,1.22,.31,.23,0,.49-.02,.74-.09,.54-.13,.95-.37,1.39-.81,.88-.89,1.61-1.57,2.54-2.36-.86-.6-2.05-.68-2.99-.17-1.01,.65-1.77,1.66-2.51,2.65-.12,.17-.25,.33-.37,.49Z" style="fill:#fefafd;"/><path d="M34.34,35.48c1.21,.42,2.58,0,3.35-1.06,.69-.89,1.62-1.93,2.43-2.73-.45-.25-.94-.39-1.43-.38-.33,0-.64,.03-.95,.11-.29,.09-.58,.22-.85,.4-1.05,.82-1.76,2.15-2.38,3.32-.06,.11-.12,.22-.18,.33Z" style="fill:#fefafd;"/><path d="M25.49,41.32c.47,.75,1.08,1.48,1.73,2.05,.21,.17,.42,.34,.62,.49,.68-.86,.83-1.72,.49-2.67h.01c-.34-.75-.82-1.44-1.07-2.22-.2-.55-.29-1.14-.41-1.73-.35,.14-.68,.31-.95,.6-.63,.69-.95,1.68-.78,2.59,.08,.36,.17,.62,.34,.89Z" style="fill:#fefafd;"/><path d="M30.26,50.36c.53-.2,1.02-.49,1.51-.75-.13-.23-.29-.43-.46-.59-.07-.06-.11-.1-.12-.14-.43-.47-1.04-.7-1.7-.74h0c-.22,0-.44,0-.71,.03-.56,.08-1.14,.1-1.74,.07-.29-.02-.6-.05-.91-.1-.28-.05-.57-.11-.87-.19,0,.31,.05,.61,.15,.9,.14,.37,.3,.65,.49,.87,.42,.53,1.02,.91,1.65,1.05,.9,.2,1.92-.16,2.71-.42Z" style="fill:#fefafd;"/><path d="M34.52,51.32c-.45-.42-1.01-.78-1.61-.82-.37-.06-.72-.04-1.1,.07-.82,.26-1.5,.78-2.34,1.08-.54,.21-1.1,.4-1.68,.56,.27,.53,.73,.99,1.26,1.27,1.01,.45,1.86,.44,2.71-.04,.86-.49,1.48-1,2.17-1.56,.2-.18,.4-.38,.59-.57Z" style="fill:#fefafd;"/><path d="M58.84,50.35c-.08-.29-.2-.52-.37-.72-.67-.84-1.39-1.7-2.21-2.24-.08,.12-.15,.25-.22,.39-.04,.08-.06,.12-.08,.16,0,.02-.03,.06-.05,.08-.03,.1-.06,.21-.08,.32-.1,.47,.04,.97,.17,1.36,.08,.21,.21,.43,.37,.64,.72,.97,1.19,1.77,1.66,2.85,.77-.65,1.12-1.84,.8-2.83h0Z" style="fill:#fefafd;"/><path d="M59.89,45.87c-.09-.14-.18-.27-.28-.39-.1-.1-.21-.2-.33-.3h0c-.4-.35-.96-.46-1.46-.56l-.19-.04c-.29-.04-.58-.07-.87-.09-.38-.04-.93-.01-1.37,.03,.12,.87,.52,1.45,1.28,1.84l.08,.04c.17,.07,.34,.14,.53,.2,.5,.15,1.03,.37,1.64,.71,.46,.27,.88,.55,1.26,.86,.16-.45,.18-.95,.07-1.43-.07-.33-.19-.62-.35-.87Z" style="fill:#fefafd;"/><path d="M56.14,51.62c-.33-.25-.62-.35-.99-.41-.92,.14-2.6,.6-3.07,2.16-.02,.07,0,.15,.05,.2,.05,.06,.13,.08,.2,.06,0,0,.14-.04,.34-.07-.19,.32-.41,.8-.4,1.37,0,0,0,.02,0,.02,0,.06,.04,.11,.09,.14,.06,.04,.13,.04,.19,.02,.1-.04,.32-.13,.51-.19-.01,.31,0,.82,.2,1.22,.03,.07,.1,.11,.17,.12,.07,0,.15-.03,.19-.09,.12-.18,.27-.36,.38-.49,.09,.5,.34,1.36,1.01,1.55,.06,.02,.12,0,.17-.03,.05-.03,.08-.09,.09-.15,0-.02,.21-2.01,1.08-3.02,.41-.48,.49-1.01,.48-1.39,0-.01-.02-.02-.02-.03-.04-.43-.31-.73-.67-1Z" style="fill:#fefafd;"/><path d="M56.68,33.92h0c.1,.34,.34,.6,.55,.83l.08,.09c.13,.12,.26,.24,.4,.35,.17,.15,.45,.33,.68,.45,.2-.54,.17-1.01-.09-1.5l-.03-.05c-.06-.1-.13-.2-.2-.3-.2-.26-.39-.57-.6-.97-.15-.31-.27-.62-.37-.93-.21,.2-.37,.48-.45,.8-.06,.21-.09,.42-.08,.62,0,.11,0,.22,.02,.32,.02,.09,.04,.19,.08,.29Z" style="fill:#fefafd;"/><path d="M62.26,29.14c-.06-.05-.14-.05-.21-.02,0,0-.14,.06-.32,.13,.13-.35,.27-.86,.16-1.41,0,0,0-.02,0-.02-.02-.06-.06-.1-.12-.13-.07-.03-.14-.02-.19,.02-.09,.06-.29,.18-.47,.27-.04-.31-.15-.81-.4-1.17-.04-.06-.12-.09-.19-.09-.07,0-.14,.05-.17,.12-.09,.2-.2,.4-.29,.55-.18-.48-.57-1.28-1.26-1.35-.06,0-.12,.01-.17,.06-.04,.04-.07,.1-.06,.16,0,.02,.14,2.01-.54,3.16-.32,.54-.31,1.08-.24,1.45,0,.01,.02,.02,.03,.03,.11,.42,.44,.67,.84,.87,.37,.19,.67,.24,1.05,.24,.88-.29,2.46-1.04,2.65-2.66,0-.07-.02-.15-.08-.19Z" style="fill:#fefafd;"/><path d="M38.74,51.61c-.55-.29-1.18-.48-1.77-.36-.37,.04-.71,.15-1.04,.36-.72,.47-1.24,1.15-1.97,1.66-.47,.34-.96,.67-1.47,.99,.4,.44,.96,.76,1.55,.89,1.09,.16,1.91-.07,2.6-.75,.7-.7,1.17-1.35,1.68-2.09,.15-.23,.29-.47,.42-.71Z" style="fill:#fefafd;"/><path d="M42.45,36.37c.33,.25,.71,.42,1.13,.51,.22,.04,.47,.05,.72,.01,.53-.05,.95-.25,1.43-.64,.95-.8,1.74-1.4,2.73-2.09-.75-.76-1.88-1.02-2.85-.64-1.05,.53-1.91,1.47-2.74,2.39-.14,.15-.28,.31-.42,.46Z" style="fill:#fefafd;"/><path d="M46.32,37.6c.28,.27,.61,.47,1,.61,.21,.07,.44,.11,.68,.12,.51,.03,.94-.08,1.46-.37,1.03-.58,1.86-1,2.91-1.47-.6-.78-1.64-1.18-2.61-.97-1.08,.32-2.04,1.04-2.96,1.73-.16,.12-.31,.23-.47,.35Z" style="fill:#fefafd;"/><path d="M55.62,36.34h0v.02c.19,.44,.44,.82,.71,1.23,.22,.34,.45,.68,.65,1.08,.09-.08,.16-.17,.24-.26,.34-.47,.47-1.06,.33-1.58-.23-.63-.68-1.17-1.12-1.7-.14-.17-.27-.33-.4-.5-.43,.49-.59,1.12-.42,1.71h0Z" style="fill:#fefafd;"/></g></g><g id="as"/><g id="at"><g id="au"/></g><g id="av"/></svg>