<?xml version="1.0" encoding="UTF-8"?><svg xmlns="http://www.w3.org/2000/svg" viewBox="0 0 87.32 83.49"><g id="a"/><g id="b"/><g id="c"/><g id="d"/><g id="e"/><g id="f"/><g id="g"/><g id="h"/><g id="i"/><g id="j"/><g id="k"/><g id="l"/><g id="m"/><g id="n"/><g id="o"/><g id="p"/><g id="q"/><g id="r"/><g id="s"/><g id="t"><g id="u"/></g><g id="v"/><g id="w"/><g id="x"/><g id="y"/><g id="a`"/><g id="aa"/><g id="ab"><g id="ac"><circle cx="43.66" cy="41.74" r="38.57" style="fill:#7b1245;"/><path d="M50.99,56.27c-2.12-2.76-4.42-5.88-6.84-9.08v-.63c3.02-3.8,3.95-4.93,5.45-6.72,2.01-2.38,2.85-2.69,6.34-3.08v-1.09h-10.63v1.09c3.08,.31,3.41,.78,2.29,2.46-.92,1.37-2.12,2.98-3.44,4.71v-10.56l1.99,.53c.17,.03,.46,.06,.78,.06,2.73,0,6.33-1.74,6.33-6.04,0-1.94-.78-3.33-1.9-4.19-1.18-.88-2.82-1.27-4.86-1.27h-7.42v.83c2.27,.24,2.59,.3,2.59,2.92v17.72c-2.03-2.63-2.12-3.31-3.4-5.45-.66-1.11-.65-1.48,2.24-1.72v-1.09h-10.59v1.2c2.87,.32,5.16,.7,6.96,3.05,1.54,2.07,2.36,3.37,4.79,6.65v.58s-.03,.04-.04,.06c-3.77,4.92-6.64,8.69-8.3,10.49-1.35,1.44-1.71,2.03-4.51,2.26v1.09h7.33l-.03-.9c-2.46-.1-.44-2.04,.03-2.76,1.53-2.3,3.33-4.57,5.53-7.42v7.36c0,2.45-.6,2.64-3.07,2.91v.81h8.42v-.83c-2.65-.3-2.85-.35-2.85-2.83v-7.42c2.34,3.01,4.33,5.33,5.24,6.63,.42,.65,2.92,3.45,.46,3.52v.92h7.68v-1.09c-3.36-.27-4.29-.7-6.53-3.67Zm-6.84-31.09c0-.8,.09-1.15,.32-1.36,.17-.21,.78-.35,1.61-.35,2.42,0,4.49,1.3,4.49,4.54,0,3.72-2.39,4.72-4.32,4.72-.98,0-1.75-.21-2.1-.38v-7.16Z" style="fill:#fefafd;"/></g></g><g id="ad"/><g id="ae"/><g id="af"/><g id="ag"/><g id="ah"/><g id="ai"/><g id="aj"/><g id="ak"/><g id="al"/><g id="am"/><g id="an"/><g id="ao"><g id="ap"/><g id="aq"/><g id="ar"/></g><g id="as"/><g id="at"/><g id="au"><g id="av"/></g><g id="aw"/></svg>