<?xml version="1.0" encoding="UTF-8"?><svg xmlns="http://www.w3.org/2000/svg" viewBox="0 0 87.32 83.49"><g id="a"/><g id="b"/><g id="c"/><g id="d"/><g id="e"><g><circle cx="43.66" cy="41.74" r="38.57" style="fill:#7b1245;"/><g><path d="M62.36,44.81c-.62-.51-1.36-.9-2.07-1.32-.13-.08-.36-.05-.52,0-1.35,.45-2.73,.51-4.13,.42-.78-.05-1.57-.1-2.53-.17,.31,.16,.46,.24,.62,.32,1,.5,2.01,.96,2.99,1.5,.98,.55,1.91,1.21,2.41,2.21,.37,.74,.87,.86,1.59,.7,.12-.03,.25-.02,.37-.04,.86-.19,1.67-.48,2-1.35,.33-.9-.04-1.69-.73-2.27Z" style="fill:#fff;"/><path d="M41.63,52.7c-.05-1.12,.11-2.24,.18-3.37l-.09-.04c-.09,.19-.18,.37-.27,.56-.61,1.23-1.19,2.48-1.85,3.68-.6,1.08-1.38,2.06-2.48,2.61-.69,.34-.79,.81-.69,1.48,.04,.26,.05,.53,.1,.78,.41,2.25,2.25,3.08,3.8,1.6,.75-.71,1.23-1.75,1.8-2.66,.09-.14,0-.4-.02-.6-.16-1.35-.41-2.69-.47-4.04Z" style="fill:#fff;"/><path d="M50.36,55.65c-.73-.94-1.55-1.82-2.19-2.82-.67-1.04-1.17-2.18-1.83-3.45,.08,1.11,.16,2.04,.21,2.97,.1,1.77,.12,3.58-.85,5.11-.59,.94-.33,1.52,.26,2.19,.26,.3,.54,.59,.85,.83,1.26,.97,2.69,.65,3.43-.77,.59-1.13,.55-2.35,.45-3.57-.01-.18-.21-.34-.34-.5Z" style="fill:#fff;"/><path d="M38.23,47.42l-.08-.08c-.9,.54-1.8,1.1-2.72,1.63-1.43,.82-2.93,1.49-4.65,1.58-1.29,.06-1.39,.1-1.83,1.23-.16,.39-.28,.81-.32,1.23-.14,1.32,.77,2.23,2.22,2.26,1.44,.03,2.61-.58,3.72-1.33,.14-.09,.19-.29,.27-.45,.55-1.2,1.03-2.44,1.66-3.6,.48-.87,1.15-1.64,1.74-2.46Z" style="fill:#fff;"/><path d="M56.64,50.92c-.66-.26-1.4-.38-2.02-.72-1.29-.7-2.53-1.49-3.95-2.34,.43,.63,.78,1.12,1.11,1.63,.34,.53,.68,1.05,1,1.6,.62,1.08,1.18,2.22,1.1,3.47-.06,.96,.37,1.33,1.13,1.57,.41,.13,.83,.28,1.26,.33,1.35,.14,2.26-.71,2.27-2.05,0-1.14-.48-2.09-1.13-2.97-.17-.23-.48-.4-.77-.51Z" style="fill:#fff;"/><path d="M56.5,37.53c-1,.56-2.06,1.04-3.09,1.55-.16,.08-.32,.17-.64,.33,.99-.06,1.8-.12,2.61-.17,1.45-.1,2.88-.03,4.27,.43,.16,.05,.41,.08,.54,0,.73-.43,1.49-.83,2.14-1.36,.72-.6,1.1-1.41,.76-2.35-.33-.91-1.18-1.21-2.07-1.4-.13-.03-.26-.02-.38-.04-.74-.16-1.26-.05-1.64,.72-.52,1.03-1.48,1.72-2.5,2.29Z" style="fill:#fff;"/><path d="M37.16,27.26c1.11,.54,1.9,1.52,2.51,2.6,.68,1.19,1.26,2.44,1.88,3.66,.09,.18,.18,.37,.27,.56l.09-.04c-.07-1.12-.24-2.24-.19-3.35,.06-1.35,.32-2.68,.48-4.03,.03-.2,.11-.46,.02-.6-.58-.91-1.06-1.94-1.82-2.65-1.57-1.47-3.44-.64-3.86,1.6-.05,.26-.06,.52-.1,.78-.1,.66,0,1.14,.7,1.47Z" style="fill:#fff;"/><path d="M46.58,30.51c-.05,.87-.12,1.73-.19,2.76,.62-1.18,1.08-2.24,1.7-3.2,.59-.92,1.35-1.75,2.03-2.62,.12-.15,.3-.3,.31-.47,.09-1.13,.13-2.26-.42-3.31-.69-1.31-2.01-1.62-3.18-.71-.29,.22-.55,.5-.79,.77-.55,.61-.79,1.16-.24,2.03,.89,1.43,.88,3.1,.79,4.74Z" style="fill:#fff;"/><path d="M26.66,40.11c.09,.07,.33,.06,.44-.01,1.64-1.1,3.48-1.16,5.36-1.06,.8,.04,1.6,.11,2.39,.16v-.08c-.87-.44-1.8-.8-2.62-1.33-1.01-.66-1.94-1.45-2.9-2.18-.13-.1-.27-.24-.41-.25-1.1-.09-2.2-.12-3.22,.4-1.22,.61-1.6,1.87-.75,2.93,.45,.57,1.13,.98,1.72,1.43Z" style="fill:#fff;"/><path d="M29.27,30.88c.41,1.11,.49,1.15,1.66,1.21,1.56,.08,2.92,.74,4.22,1.55,.83,.52,1.64,1.06,2.46,1.6l.07-.08c-.53-.8-1.15-1.56-1.58-2.41-.58-1.14-1.01-2.35-1.51-3.52-.07-.16-.12-.35-.24-.44-1-.74-2.06-1.34-3.37-1.31-1.31,.03-2.13,.92-2.01,2.21,.04,.41,.15,.82,.29,1.2Z" style="fill:#fff;"/><path d="M54.39,33.29c.61-.33,1.34-.45,2-.71,.28-.11,.59-.27,.76-.5,.64-.87,1.12-1.82,1.12-2.95,0-1.33-.91-2.17-2.25-2.03-.42,.04-.84,.19-1.24,.32-.75,.24-1.18,.61-1.12,1.56,.08,1.24-.48,2.37-1.09,3.44-.31,.54-.65,1.06-.99,1.58-.32,.5-.67,.98-1.09,1.61,1.4-.84,2.63-1.63,3.91-2.32Z" style="fill:#fff;"/><path d="M46.65,41.67c0-1.42-1.16-2.57-2.59-2.57s-2.59,1.15-2.59,2.57,1.16,2.57,2.59,2.57,2.59-1.15,2.59-2.57Z" style="fill:#fff;"/><path d="M30.06,47.35c1.08-.77,2.11-1.61,3.24-2.31,.85-.52,1.82-.86,2.74-1.28l-.03-.11c-1.06,.03-2.11,.07-3.17,.08-1.65,.01-3.29-.14-4.83-.91-1.15-.58-1.25-.6-2.21,.17-.33,.27-.65,.57-.89,.91-.78,1.08-.44,2.32,.8,3.05,1.24,.73,2.56,.78,3.9,.67,.16-.01,.31-.16,.46-.26Z" style="fill:#fff;"/><path d="M46.83,45.29c-.36-.47-.68-.6-.74-.56-.26,.16,.09,1.18,.19,1.44,.3,.81,.46,1.11,.61,1.47,.38,.88,.14,.34,.76,1.8,.79,1.84,1.34,2.31,1.9,2.56,.15,.07,.51,.22,.74,.06,.1-.07,.29-.26,.21-.97-.15-1.44-.12-1.54-1.67-3.37-.48-.57-1.2-1.38-2.01-2.44Z" style="fill:#fff;"/><path d="M53.88,47.56c.17-.02,.55-.08,.66-.33,.05-.11,.11-.37-.33-.93-.89-1.15-.92-1.25-3.2-2.01-.71-.23-1.75-.55-3-1.03-.55-.21-.89-.16-.92-.09-.14,.27,.7,.96,.92,1.13,.69,.54,.97,.71,1.3,.93,.79,.55,.3,.21,1.6,1.14,1.64,1.16,2.36,1.28,2.97,1.2Z" style="fill:#fff;"/><path d="M50.3,30.82c-.24-.15-.59,0-.74,.06-.57,.25-1.12,.72-1.9,2.56-.62,1.46-.38,.91-.76,1.8-.16,.36-.31,.66-.61,1.47-.1,.26-.45,1.28-.19,1.44,.06,.04,.38-.09,.74-.56,.81-1.06,1.53-1.87,2.01-2.44,1.55-1.83,1.52-1.93,1.67-3.37,.07-.71-.11-.9-.21-.97Z" style="fill:#fff;"/><path d="M43.34,34.97c.06,.39,.08,.72,.24,1.57,.05,.27,.28,1.33,.59,1.33,.08,0,.28-.27,.34-.86,.14-1.32,.34-2.39,.45-3.12,.37-2.36,.29-2.43-.33-3.74-.31-.64-.56-.71-.68-.72-.28-.01-.5,.3-.6,.43-.36,.5-.58,1.19-.3,3.17,.23,1.57,.15,.98,.28,1.93Z" style="fill:#fff;"/><path d="M44.51,45.87c-.06-.58-.27-.86-.34-.86-.3,0-.53,1.06-.59,1.33-.16,.85-.19,1.18-.24,1.57-.13,.95-.06,.36-.28,1.93-.29,1.98-.06,2.67,.29,3.17,.1,.14,.32,.45,.6,.43,.12,0,.38-.07,.68-.72,.62-1.31,.7-1.38,.33-3.74-.12-.73-.31-1.8-.45-3.12Z" style="fill:#fff;"/><path d="M48.12,39.92c1.25-.48,2.29-.8,3-1.03,2.28-.75,2.31-.86,3.2-2.01,.44-.56,.38-.82,.33-.93-.12-.25-.5-.31-.66-.33-.61-.08-1.33,.03-2.97,1.2-1.3,.92-.81,.58-1.6,1.14-.33,.23-.61,.4-1.3,.93-.22,.17-1.06,.86-.92,1.13,.03,.07,.37,.12,.92-.09Z" style="fill:#fff;"/><path d="M56.29,42.15c.65-.3,.72-.55,.73-.68,.01-.28-.3-.5-.43-.6-.51-.36-1.2-.58-3.19-.31-1.58,.22-.99,.14-1.94,.27-.4,.05-.73,.07-1.59,.23-.27,.05-1.34,.27-1.34,.58,0,.07,.27,.28,.86,.35,1.33,.15,2.4,.35,3.14,.47,2.37,.38,2.45,.3,3.77-.31Z" style="fill:#fff;"/><path d="M37.7,52.07c.23,.15,.59,0,.74-.06,.57-.25,1.12-.72,1.9-2.56,.62-1.46,.38-.91,.76-1.8,.16-.36,.31-.66,.61-1.47,.1-.26,.45-1.28,.19-1.44-.06-.04-.38,.09-.74,.56-.81,1.06-1.53,1.87-2.01,2.44-1.55,1.83-1.52,1.93-1.67,3.37-.07,.71,.11,.9,.21,.97Z" style="fill:#fff;"/><path d="M33.79,46.29c-.44,.56-.38,.82-.33,.93,.12,.25,.5,.31,.66,.33,.61,.08,1.33-.03,2.97-1.2,1.3-.92,.81-.58,1.6-1.14,.33-.23,.61-.4,1.3-.93,.22-.17,1.06-.86,.92-1.13-.03-.07-.37-.12-.92,.09-1.25,.48-2.29,.8-3,1.03-2.28,.75-2.31,.86-3.2,2.01Z" style="fill:#fff;"/><path d="M41.73,36.71c-.3-.81-.46-1.11-.61-1.47-.38-.88-.14-.34-.76-1.8-.79-1.84-1.34-2.31-1.9-2.56-.15-.07-.51-.22-.74-.06-.1,.07-.29,.26-.21,.97,.15,1.44,.12,1.54,1.67,3.37,.48,.57,1.2,1.38,2.01,2.44,.36,.47,.68,.6,.74,.56,.26-.16-.09-1.18-.19-1.44Z" style="fill:#fff;"/><path d="M40.81,40.01c.14-.27-.7-.96-.92-1.13-.69-.54-.97-.71-1.3-.93-.79-.55-.3-.21-1.6-1.14-1.64-1.16-2.36-1.28-2.97-1.2-.17,.02-.55,.08-.66,.33-.05,.11-.11,.37,.33,.93,.89,1.15,.92,1.25,3.2,2.01,.71,.23,1.75,.55,3,1.03,.55,.21,.89,.16,.92,.09Z" style="fill:#fff;"/><path d="M31.42,40.88c-.14,.1-.45,.32-.43,.6,0,.12,.08,.38,.73,.68,1.32,.61,1.4,.69,3.77,.31,.74-.12,1.81-.32,3.14-.47,.59-.07,.86-.27,.86-.35,0-.3-1.07-.52-1.34-.58-.86-.16-1.19-.18-1.59-.23-.96-.13-.36-.05-1.94-.27-2-.27-2.69-.05-3.19,.31Z" style="fill:#fff;"/></g></g></g><g id="f"/><g id="g"/><g id="h"/><g id="i"/><g id="j"/><g id="k"/><g id="l"/><g id="m"/><g id="n"/><g id="o"/><g id="p"/><g id="q"/><g id="r"/><g id="s"/><g id="t"><g id="u"/></g><g id="v"/><g id="w"/><g id="x"/><g id="y"/><g id="a`"/><g id="aa"/><g id="ab"/><g id="ac"/><g id="ad"/><g id="ae"/><g id="af"/><g id="ag"/><g id="ah"/><g id="ai"/><g id="aj"/><g id="ak"/><g id="al"/><g id="am"/><g id="an"><g id="ao"/><g id="ap"/><g id="aq"/></g><g id="ar"/><g id="as"/><g id="at"><g id="au"/></g><g id="av"/></svg>