<?xml version="1.0" encoding="UTF-8"?><svg xmlns="http://www.w3.org/2000/svg" viewBox="0 0 87.32 83.49"><g id="a"/><g id="b"/><g id="c"/><g id="d"/><g id="e"/><g id="f"/><g id="g"/><g id="h"/><g id="i"/><g id="j"/><g id="k"/><g id="l"/><g id="m"/><g id="n"/><g id="o"/><g id="p"/><g id="q"/><g id="r"/><g id="s"/><g id="t"><g id="u"/></g><g id="v"/><g id="w"/><g id="x"/><g id="y"/><g id="a`"/><g id="aa"/><g id="ab"/><g id="ac"/><g id="ad"/><g id="ae"/><g id="af"/><g id="ag"><g><circle cx="43.66" cy="41.74" r="38.57" style="fill:#7b1245;"/><g><path d="M55.53,36.52c.27,.45,.62,.98,1.17,1.29,.55,.3,1.13,.33,1.6,.26,.47-.07,.8-.22,.8-.22,0,0-.02-.11-.07-.29-.06-.18-.16-.42-.29-.68-.13-.26-.29-.55-.49-.8-.2-.25-.47-.47-.75-.61-.57-.28-1.16-.21-1.62-.08-.45,.13-.77,.32-.77,.32,0,0,.13,.38,.41,.82h0Zm.64,4.62c.17,.52,.32,1.14,.78,1.6,.45,.46,1.07,.67,1.57,.75,.5,.08,.89,.04,.89,.04,0,0,.03-.47-.06-1.06-.05-.3-.11-.62-.23-.92-.14-.31-.33-.59-.58-.82-.49-.45-1.12-.57-1.63-.58s-.89,.08-.89,.08c0,0,.01,.41,.15,.92h0Zm-.31,5.27c0,.31,.04,.62,.16,.92,.23,.61,.69,1.04,1.1,1.3,.41,.27,.77,.38,.77,.38,0,0,.07-.1,.13-.29,.07-.18,.15-.44,.23-.74,.07-.29,.13-.63,.15-.96,0-.33-.07-.69-.2-.99-.27-.61-.79-.95-1.23-1.15-.45-.2-.82-.26-.82-.26,0,0-.14,.38-.21,.92-.02,.27-.06,.56-.07,.86h0Zm-1.99,3.72c-.08,.28-.12,.58-.12,.87,.02,.59,.33,1.13,.64,1.5,.31,.38,.63,.59,.63,.59,0,0,.35-.32,.71-.8,.33-.5,.62-1.18,.56-1.8-.09-.64-.51-1.11-.9-1.41-.39-.31-.74-.46-.74-.46,0,0-.06,.08-.14,.21-.09,.13-.18,.34-.32,.55-.12,.22-.24,.47-.32,.75h0Zm6.88-13.23c.31-.59,.38-1.42,.3-2.08-.08-.66-.24-1.17-.24-1.17,0,0-.37,.02-.81,.2-.44,.18-.94,.52-1.22,1.12-.15,.3-.21,.63-.26,.97-.05,.34-.06,.68-.05,.98s.04,.56,.07,.75c.02,.19,.04,.31,.04,.31,0,0,.37,.02,.82-.1,.45-.12,1.02-.38,1.34-.98h0Zm.88,5.95c.49-.52,.81-1.33,.88-2,.09-.68,.07-1.21,.07-1.21,0,0-.39-.06-.89,.03-.5,.08-1.12,.31-1.57,.84-.23,.26-.39,.58-.51,.9-.14,.32-.25,.66-.32,.96-.15,.6-.17,1.07-.17,1.07,0,0,.38,.1,.89,.09,.51-.02,1.14-.15,1.64-.67h0Zm-1.52,6.37c.32-.16,.61-.42,.88-.71,.27-.29,.49-.61,.65-.93,.33-.62,.49-1.15,.49-1.15,0,0-.33-.19-.82-.27-.48-.09-1.12-.08-1.72,.28-.31,.18-.55,.43-.79,.69-.25,.26-.46,.54-.63,.8-.17,.26-.31,.5-.4,.68-.09,.18-.15,.28-.15,.28,0,0,.3,.23,.77,.4,.47,.17,1.09,.26,1.73-.07h0Zm-2.93,4.6c.39-.06,.76-.24,1.1-.46,.34-.22,.65-.48,.92-.72,.28-.24,.46-.5,.6-.68,.14-.18,.21-.3,.21-.3,0,0-.29-.25-.76-.43-.47-.19-1.12-.31-1.8-.11-.73,.17-1.37,.63-1.85,1.04-.52,.38-.85,.73-.85,.73,0,0,.24,.29,.65,.56,.42,.27,1.02,.51,1.79,.38h0Z" style="fill:#fff;"/><path d="M50.95,52.59c-.39,.34-.86,.78-1.07,1.38-.2,.6-.13,1.17,.02,1.62,.14,.45,.36,.75,.36,.75,0,0,.11-.04,.28-.12,.16-.09,.39-.23,.62-.4,.24-.17,.49-.38,.7-.62,.21-.24,.38-.54,.47-.84,.18-.61,0-1.18-.2-1.61-.21-.42-.45-.7-.45-.7,0,0-.35,.19-.74,.54h0Zm-4.44,1.43c-.48,.25-1.06,.51-1.44,1.05-.38,.52-.47,1.17-.47,1.67,0,.51,.12,.88,.12,.88,0,0,.47-.05,1.03-.24,.28-.1,.59-.21,.87-.39,.28-.2,.53-.43,.71-.71,.36-.56,.36-1.21,.29-1.71s-.23-.86-.23-.86c0,0-.4,.08-.88,.31h0Zm-5.25,.61c-.3,.05-.6,.15-.88,.31-.56,.33-.9,.86-1.09,1.3-.19,.45-.24,.83-.24,.83,0,0,.11,.05,.3,.08,.19,.04,.46,.08,.76,.1,.3,.02,.64,.02,.97-.02,.33-.05,.66-.18,.94-.36,.55-.37,.8-.94,.92-1.41,.12-.47,.11-.85,.11-.85,0,0-.4-.07-.94-.05-.27,.02-.57,.03-.86,.08h0Zm-4.01-1.32c-.29-.03-.59-.02-.88,.03-.58,.12-1.05,.52-1.37,.89-.32,.37-.47,.72-.47,.72,0,0,.37,.29,.91,.56,.55,.23,1.27,.4,1.87,.24,.62-.2,1-.69,1.24-1.13,.24-.43,.33-.81,.33-.81,0,0-.09-.05-.23-.1-.15-.06-.36-.12-.59-.22-.23-.08-.51-.16-.79-.19h0Zm14.22,4.5c.64,.21,1.46,.13,2.11-.06,.64-.19,1.11-.43,1.11-.43,0,0-.09-.36-.34-.76-.26-.4-.68-.84-1.32-1.01-.32-.09-.66-.09-1-.08-.34,0-.68,.06-.97,.12s-.55,.14-.73,.2c-.19,.06-.3,.09-.3,.09,0,0,.05,.36,.24,.79,.2,.42,.55,.94,1.19,1.15h0Zm-5.71,1.89c.6,.39,1.45,.57,2.13,.52,.68-.03,1.21-.14,1.21-.14,0,0,0-.39-.18-.88-.17-.48-.5-1.05-1.1-1.41-.3-.18-.64-.29-.98-.35-.34-.08-.69-.14-1-.15-.62-.04-1.09,.02-1.09,.02,0,0-.04,.39,.07,.89,.1,.5,.34,1.1,.94,1.5h0Zm-6.53-.39c.22,.29,.52,.53,.85,.74,.33,.21,.69,.38,1.02,.48,.67,.21,1.22,.29,1.22,.29,0,0,.13-.36,.13-.85,0-.49-.12-1.12-.57-1.65-.23-.27-.51-.47-.81-.66-.3-.2-.61-.36-.9-.49-.29-.13-.55-.21-.74-.27-.19-.05-.31-.1-.31-.1,0,0-.17,.34-.26,.82-.08,.49-.07,1.12,.37,1.69h0Zm-5.04-2.09c.13,.37,.36,.71,.64,1,.27,.3,.58,.56,.87,.78,.28,.23,.57,.36,.77,.47,.2,.1,.33,.16,.33,.16,0,0,.19-.33,.29-.83,.1-.5,.11-1.16-.2-1.8-.3-.69-.86-1.24-1.34-1.64-.46-.44-.86-.71-.86-.71,0,0-.25,.28-.44,.74-.19,.46-.33,1.09-.06,1.83h0Z" style="fill:#fff;"/><path d="M40.01,29.37c.49-.18,1.08-.44,1.47-.93,.4-.49,.52-1.05,.54-1.53,.02-.47-.08-.83-.08-.83,0,0-.12,0-.3,.02-.19,.03-.44,.08-.72,.16-.28,.08-.59,.19-.87,.34-.28,.15-.54,.38-.73,.63-.38,.51-.41,1.11-.37,1.58,.05,.47,.18,.81,.18,.81,0,0,.39-.06,.88-.26h0Zm4.75,.04c.54-.07,1.17-.11,1.71-.49,.53-.36,.85-.93,1.01-1.41,.17-.48,.19-.87,.19-.87,0,0-.46-.11-1.05-.13-.3,0-.63,0-.95,.07-.33,.09-.64,.22-.91,.43-.53,.41-.76,1.01-.86,1.5s-.08,.89-.08,.89c0,0,.4,.06,.93,.01h0Zm5.1,1.04c.3,.06,.62,.07,.93,0,.64-.12,1.14-.5,1.47-.85,.34-.35,.51-.7,.51-.7,0,0-.09-.08-.26-.18-.17-.1-.41-.23-.68-.35-.28-.12-.6-.24-.92-.31-.33-.07-.69-.05-1.01,.02-.65,.16-1.08,.61-1.35,1.01-.27,.4-.4,.76-.4,.76,0,0,.35,.21,.86,.37,.26,.07,.54,.16,.84,.22h0Zm3.68,2.82c.26,.12,.55,.22,.84,.27,.59,.09,1.17-.12,1.59-.36,.42-.24,.69-.51,.69-.51,0,0-.25-.4-.66-.84-.44-.41-1.06-.82-1.67-.87-.65-.02-1.18,.31-1.55,.63-.37,.33-.59,.65-.59,.65,0,0,.07,.07,.18,.18,.12,.11,.3,.24,.48,.41,.19,.16,.42,.32,.68,.45h0Zm-12.22-8.98c-.53-.41-1.33-.62-2-.67-.66-.04-1.19,.03-1.19,.03,0,0-.04,.37,.06,.83,.1,.46,.35,1.02,.89,1.4,.27,.2,.59,.31,.91,.42,.33,.11,.66,.18,.95,.22s.56,.06,.75,.06c.2,.01,.31,.02,.31,.02,0,0,.08-.36,.04-.83-.04-.46-.2-1.07-.73-1.49h0Zm6.1,.03c-.42-.58-1.17-1.04-1.82-1.22-.65-.21-1.18-.28-1.18-.28,0,0-.13,.37-.13,.89,0,.51,.11,1.16,.55,1.7,.22,.27,.5,.49,.8,.66,.3,.19,.6,.36,.88,.49,.56,.25,1.03,.36,1.03,.36,0,0,.17-.36,.24-.86,.07-.5,.05-1.15-.37-1.74h0Zm5.96,2.42c-.11-.34-.3-.68-.54-.99-.24-.31-.51-.59-.8-.8-.55-.43-1.04-.69-1.04-.69,0,0-.24,.29-.41,.76-.17,.46-.27,1.09-.03,1.74,.12,.33,.32,.62,.54,.9,.21,.29,.45,.55,.68,.76,.23,.22,.44,.39,.6,.51,.16,.12,.25,.2,.25,.2,0,0,.28-.26,.52-.68,.25-.43,.44-1.03,.23-1.71h0Zm4.38,3.91c0-.4-.1-.79-.26-1.16-.16-.37-.35-.73-.55-1.03-.19-.31-.41-.54-.56-.71-.16-.17-.26-.26-.26-.26,0,0-.3,.24-.56,.67-.27,.43-.5,1.05-.43,1.76,.04,.75,.38,1.46,.69,2,.28,.58,.57,.96,.57,.96,0,0,.33-.18,.67-.54,.34-.36,.69-.91,.68-1.69h0Z" style="fill:#fff;"/><path d="M30.81,43.74c-.12-.51-.3-1.13-.73-1.58-.43-.46-.98-.66-1.45-.73-.46-.08-.83-.03-.83-.03,0,0-.02,.11-.02,.3,0,.19,.02,.45,.07,.74,.04,.29,.11,.61,.22,.91,.12,.3,.3,.59,.53,.81,.46,.44,1.04,.55,1.51,.57,.47,.01,.83-.07,.83-.07,0,0-.01-.4-.14-.9h0Zm.7-4.68c0-.54,.04-1.18-.26-1.76-.29-.58-.81-.96-1.27-1.19-.45-.23-.84-.31-.84-.31,0,0-.17,.44-.26,1.03-.05,.3-.08,.62-.06,.95,.04,.34,.14,.67,.3,.96,.33,.58,.9,.88,1.38,1.04s.87,.19,.87,.19c0,0,.11-.39,.13-.92h0Zm1.7-4.94c.09-.29,.15-.61,.13-.92-.04-.65-.35-1.2-.65-1.57-.31-.38-.62-.6-.62-.6,0,0-.09,.08-.21,.23-.12,.15-.28,.37-.44,.63-.16,.26-.32,.56-.43,.87-.11,.32-.14,.67-.11,1,.07,.66,.46,1.15,.83,1.47,.37,.32,.71,.49,.71,.49,0,0,.25-.32,.48-.81,.1-.25,.23-.52,.33-.8h0Zm3.28-3.28c.16-.25,.29-.52,.38-.8,.16-.57,.03-1.17-.15-1.62-.18-.45-.42-.75-.42-.75,0,0-.43,.2-.92,.54-.46,.38-.95,.94-1.08,1.54-.11,.64,.15,1.21,.43,1.62,.27,.41,.56,.67,.56,.67,0,0,.08-.06,.2-.16,.12-.1,.28-.27,.47-.43,.18-.17,.37-.38,.53-.62h0Zm-10.54,10.95c-.48,.47-.79,1.24-.92,1.89-.12,.65-.13,1.18-.13,1.18,0,0,.36,.09,.83,.05,.47-.04,1.06-.22,1.51-.7,.23-.24,.39-.54,.54-.85,.15-.31,.26-.63,.34-.92s.13-.55,.16-.74c.04-.19,.06-.3,.06-.3,0,0-.34-.13-.82-.15-.46-.02-1.09,.06-1.57,.53h0Zm.87-6.02c-.63,.35-1.18,1.02-1.44,1.64-.29,.62-.43,1.14-.43,1.14,0,0,.35,.17,.86,.24,.5,.07,1.16,.04,1.76-.33,.29-.18,.55-.43,.76-.7,.23-.27,.44-.55,.6-.81,.32-.53,.49-.97,.49-.97,0,0-.33-.21-.82-.35-.49-.14-1.13-.2-1.77,.14h0Zm3.18-5.62c-.35,.06-.71,.21-1.05,.41-.34,.19-.66,.43-.89,.69-.5,.49-.82,.95-.82,.95,0,0,.26,.28,.7,.51,.44,.23,1.05,.41,1.72,.26,.34-.08,.65-.24,.97-.41,.31-.17,.6-.38,.85-.57,.24-.2,.44-.39,.58-.53,.14-.14,.23-.23,.23-.23,0,0-.22-.31-.61-.61-.4-.3-.96-.57-1.67-.45h0Zm4.44-3.83c-.39-.06-.79,0-1.18,.1-.39,.11-.77,.26-1.1,.41-.34,.15-.59,.34-.77,.47-.18,.13-.29,.22-.29,.22,0,0,.2,.32,.6,.64,.39,.32,.97,.64,1.69,.65,.75,.05,1.49-.19,2.08-.43,.61-.2,1.03-.44,1.03-.44,0,0-.14-.35-.45-.73-.32-.38-.82-.8-1.59-.9h0Z" style="fill:#fff;"/><path d="M34.83,50.63c-.46-.28-.98-.66-1.63-.71-.64-.06-1.24,.18-1.68,.45-.43,.26-.7,.55-.7,.55,0,0,.28,.37,.73,.77,.23,.2,.48,.4,.78,.55,.31,.14,.64,.24,.97,.25,.67,.02,1.22-.3,1.62-.62s.63-.64,.63-.64c0,0-.27-.3-.71-.6h0Zm-3.29-4.06c-.2-.23-.44-.45-.72-.6-.57-.31-1.2-.34-1.68-.28-.49,.06-.84,.21-.84,.21,0,0,.02,.12,.09,.3,.07,.18,.17,.44,.3,.71,.13,.27,.31,.57,.51,.83,.21,.26,.5,.48,.79,.63,.6,.29,1.22,.21,1.69,.08,.47-.14,.79-.34,.79-.34,0,0-.14-.38-.43-.83-.16-.22-.31-.47-.51-.7h0Zm-1.98,6.29c-.04,.71,.24,1.54,.63,2.09,.37,.57,.74,.97,.74,.97,0,0,.33-.21,.66-.6,.33-.39,.65-.96,.65-1.66,0-.35-.08-.69-.19-1.02-.1-.34-.23-.66-.37-.94-.28-.55-.57-.93-.57-.93,0,0-.36,.17-.73,.51-.38,.34-.77,.85-.82,1.58h0Zm-3.08-5.67c-.14,.33-.2,.72-.21,1.11-.02,.39,.02,.79,.11,1.12,.16,.68,.37,1.19,.37,1.19,0,0,.37-.07,.8-.32,.43-.25,.9-.67,1.13-1.33,.12-.33,.14-.68,.16-1.04,.02-.36,0-.71-.04-1.02-.04-.31-.09-.58-.14-.77-.05-.19-.07-.31-.07-.31,0,0-.38,.02-.84,.2-.47,.18-1,.51-1.27,1.17h0Z" style="fill:#fff;"/></g></g></g><g id="ah"/><g id="ai"/><g id="aj"/><g id="ak"/><g id="al"/><g id="am"/><g id="an"><g id="ao"/><g id="ap"/><g id="aq"/></g><g id="ar"/><g id="as"/><g id="at"><g id="au"/></g><g id="av"/></svg>