<?xml version="1.0" encoding="UTF-8"?><svg xmlns="http://www.w3.org/2000/svg" viewBox="0 0 87.32 83.49"><g id="a"/><g id="b"/><g id="c"/><g id="d"/><g id="e"/><g id="f"/><g id="g"/><g id="h"/><g id="i"/><g id="j"/><g id="k"/><g id="l"/><g id="m"/><g id="n"/><g id="o"/><g id="p"/><g id="q"/><g id="r"/><g id="s"/><g id="t"><g id="u"/></g><g id="v"/><g id="w"/><g id="x"/><g id="y"/><g id="a`"/><g id="aa"/><g id="ab"/><g id="ac"/><g id="ad"/><g id="ae"/><g id="af"/><g id="ag"/><g id="ah"/><g id="ai"><g><circle cx="43.66" cy="41.74" r="38.57" style="fill:#7b1245;"/><path d="M42.67,35.83c2.16,.36,3.92,.11,5.05-.19,.07-.02,.13-.04,.2-.05-.32-1.23-1.85-2.16-3.7-2.16-1.71,0-3.15,.8-3.61,1.89,.13,.04,.27,.09,.4,.13,.55,.16,1.1,.29,1.66,.39Z" style="fill:#fefafd;"/><path d="M61.81,37.51c.35-.26,.57-.64,.69-1,1.05-1.71,.09-3.37,.09-3.37,.05,.17,0,.95-.83,1.23s-.86,1.12-.86,1.12c-.14-.43-.01-.41,.48-1.68,.5-1.26-.5-1.84-.5-1.84,.08,.2,.17,.8-.55,1.43-.71,.62-.91,1.21-.91,1.21,.19-.78-.57-1.31-.57-1.31,.34,.47-.32,.92-.32,.92,0,0-2.06,1.26-1.17,2.92,.07,.13,.15,.23,.22,.33-.41,.13-.8,.29-1.14,.49-.21,.13-.12,.12-.69,.29-.28,.08-2.04-.08-3.33-.53-.3-.15-.6-.3-.92-.43h0c-.06-.04-.08-.05-.07-.03-.92-.39-1.93-.72-3.01-.96-.16,.05-.34,.11-.55,.17-.77,.21-1.86,.42-3.19,.42-.67,0-1.4-.05-2.18-.18-.71-.12-1.41-.29-2.11-.52-.12-.04-.24-.08-.36-.12-.36,.06-.71,.13-1.06,.2-1.15,.25-2.23,.59-3.2,1.01,.25-.67,.39-1.4,.39-2.16,0-1.08-.28-2.1-.76-2.98-.6-1.08-1.51-1.95-2.61-2.48-.76-.37-1.6-.57-2.5-.57-3.5,0-5.8,3.23-5.88,6.03-.02,.66,.09,1.26,.26,1.79v-.02c.07,.36,.32,1.04,.5,1.35,1.1,1.96,2.38,3.93,3.74,5.72,.95,1.24,2.05,2.36,2.97,3.34,.93,1.01,2.23,1.88,3.78,2.56,1.09,.47,2.3,.85,3.61,1.12-.5,.12-.79,.27-.79,.42,0,.17,.35,.33,.95,.46-1.29,.42-2.09,1.01-2.12,1.66h14.35c-.03-.69-.93-1.3-2.35-1.73,.42-.12,.65-.25,.65-.39,0-.21-.54-.41-1.43-.55,3.5-.82,6.27-2.48,7.58-4.55,2.04-2.08,2.78-2.5,3.01-2.7,1.53-1.33,1.62-1.16,2.51-2.17,.17-.19,1.74-1.99,1.2-3.11-.17-.35-.53-.61-1-.81Zm-31.54-.78c-1.27,0-2.31-1.03-2.31-2.3s1.03-2.3,2.31-2.3,2.31,1.03,2.31,2.3-1.03,2.3-2.31,2.3Z" style="fill:#fefafd;"/></g></g><g id="aj"/><g id="ak"/><g id="al"/><g id="am"/><g id="an"><g id="ao"/><g id="ap"/><g id="aq"/></g><g id="ar"/><g id="as"/><g id="at"><g id="au"/></g><g id="av"/></svg>