<?xml version="1.0" encoding="UTF-8"?><svg xmlns="http://www.w3.org/2000/svg" viewBox="0 0 87.32 83.49"><g id="a"/><g id="b"/><g id="c"/><g id="d"/><g id="e"/><g id="f"/><g id="g"/><g id="h"/><g id="i"/><g id="j"/><g id="k"/><g id="l"/><g id="m"/><g id="n"/><g id="o"/><g id="p"/><g id="q"/><g id="r"/><g id="s"/><g id="t"><g id="u"/></g><g id="v"/><g id="w"/><g id="x"/><g id="y"/><g id="a`"/><g id="aa"><g><circle cx="43.66" cy="41.74" r="38.57" style="fill:#7b1245;"/><path d="M52.98,32.05c.13,.24,.23,.43,.34,.62,1.31,2.24,2.55,4.51,3.45,6.95,.68,1.84,1.15,3.73,1.22,5.7,.13,3.5-1.18,6.39-3.67,8.8-1.36,1.31-2.89,2.35-4.62,3.09-.14,.06-.28,.12-.42,.19,.37,1.44-.33,2.37-1.43,3.08-1.25,.81-2.67,1.09-4.14,1.1-1.35,0-2.64-.23-3.84-.87-.6-.32-1.13-.72-1.51-1.29-.34-.51-.52-1.08-.36-1.69,.08-.31-.05-.39-.29-.49-2.35-.99-4.32-2.49-5.93-4.47-1.98-2.44-2.69-5.25-2.39-8.35,.28-2.84,1.27-5.46,2.55-7.98,.69-1.37,1.47-2.7,2.21-4.04,.05-.1,.1-.19,.18-.34-.16-.01-.27-.03-.38-.03-.63,0-1.27,0-1.91,0-.37,0-.65-.19-.8-.54-.14-.34-.08-.68,.2-.9,.18-.15,.45-.24,.68-.25,.95-.03,1.91-.02,2.86,0,.24,0,.41-.06,.47-.3,.16-.61,.36-1.22,.46-1.84,.08-.51-.1-1-.48-1.38-.19-.18-.33-.24-.57-.02-.72,.68-1.76,.77-2.59,.28-.83-.49-1.25-1.46-1.03-2.41,.21-.92,1-1.6,1.96-1.68,.49-.04,.93,.08,1.35,.32,.19,.11,.41,.2,.63,.23,1.83,.28,2.99,1.46,3.28,3.32,.15,.97,.1,1.92-.04,2.88-.03,.18-.05,.36-.08,.58h10.62c-.05-.39-.1-.77-.14-1.14-.1-.88-.1-1.75,.09-2.62,.38-1.75,1.56-2.81,3.33-3.03,.15-.02,.32-.08,.45-.17,.97-.64,2.23-.46,2.96,.44,.71,.88,.63,2.17-.19,2.96-.83,.8-2.13,.84-2.98,.05-.25-.23-.39-.18-.59,.02-.32,.32-.46,.72-.49,1.16-.03,.78,.2,1.5,.54,2.18,.05,.1,.25,.16,.38,.16,.99,.02,1.97,0,2.96,.01,.45,0,.76,.27,.84,.68,.08,.37-.11,.77-.47,.92-.16,.07-.34,.09-.51,.09-.58,.01-1.16,0-1.74,0-.11,0-.23,.01-.41,.02h-.02Zm-14.36,19.88c.05-.07,.06-.08,.07-.11,.01-.04,.02-.09,.02-.13,.15-1.1,.62-2.05,1.41-2.83,.19-.19,.26-.37,.26-.63,0-2.69,0-5.38,0-8.07s0-5.18,0-7.77c0-.29-.08-.38-.37-.37-.45,.02-.9,0-1.35,0-.75,0-.73,0-.99,.69-.78,2.03-1.58,4.04-2.36,6.07-.65,1.72-1.2,3.47-1.24,5.33-.05,2.56,.75,4.79,2.66,6.55,.56,.51,1.19,.93,1.89,1.26h0Zm10.03,.03c.17-.08,.29-.14,.4-.2,2.93-1.69,4.21-4.3,4.18-7.61-.02-1.86-.57-3.61-1.22-5.33-.83-2.2-1.68-4.38-2.53-6.57-.04-.1-.22-.2-.34-.2-.6-.02-1.21,0-1.81-.02-.29,0-.39,.06-.39,.38,.01,5.3,0,10.6,.02,15.9,0,.17,.1,.38,.22,.5,.69,.72,1.16,1.54,1.37,2.51,.04,.19,.07,.38,.12,.63h0Zm-7.94-3.65c.31-.17,.53-.34,.78-.42,.38-.11,.44-.35,.44-.71-.01-4.78,0-9.57,0-14.35,0-.53-.26-.8-.79-.8-.29,0-.43,.15-.43,.44v15.83h0Zm5.89-.02v-15.41c0-.86,0-.84-.84-.85-.31,0-.39,.09-.39,.39,.01,2.2,0,4.39,0,6.58,0,2.78,0,5.57,0,8.36,0,.13,.04,.31,.13,.36,.33,.2,.68,.36,1.09,.56h0Zm-4.33-.73c.31-.05,.56-.12,.81-.12,.37,0,.41-.18,.41-.49,0-4.72,0-9.43,0-14.15,0-.51-.25-.76-.76-.76-.3,0-.45,.15-.45,.44v15.07h0Zm2.77,0v-14.77c0-.49-.25-.74-.74-.75-.31,0-.47,.15-.47,.46v13.85c0,.28-.01,.55,0,.82,0,.08,.1,.21,.16,.22,.32,.07,.65,.1,1.04,.16h0Z" style="fill:#fff;"/></g></g><g id="ab"/><g id="ac"/><g id="ad"/><g id="ae"/><g id="af"/><g id="ag"/><g id="ah"/><g id="ai"/><g id="aj"/><g id="ak"/><g id="al"/><g id="am"/><g id="an"><g id="ao"/><g id="ap"/><g id="aq"/></g><g id="ar"/><g id="as"/><g id="at"><g id="au"/></g><g id="av"/></svg>