<?xml version="1.0" encoding="UTF-8"?><svg xmlns="http://www.w3.org/2000/svg" viewBox="0 0 87.32 83.49"><g id="a"/><g id="b"/><g id="c"/><g id="d"/><g id="e"/><g id="f"/><g id="g"><g id="h"><circle cx="43.66" cy="41.74" r="38.57" style="fill:#7b1245;"/><g><path d="M40.29,53.34h0" style="fill:none; stroke:#010101; stroke-linecap:round; stroke-linejoin:round; stroke-width:0px;"/><path d="M40.26,53.35s.02,0,.03-.01" style="fill:none; stroke:#010101; stroke-linecap:round; stroke-linejoin:round; stroke-width:0px;"/><path d="M51.74,50.04c-1.24-3.03-3.11-5.75-5.47-7.98h-1.07l-.02,8.28c2.02,.85,2.02,3.13,2,3.33-.19,2.13-1.78,3.38-3.35,3.33-2.75-.08-3.61-2.34-3.59-3.44,0-.08,.01-.14,.02-.21,.11-1.9,1.27-2.68,1.83-2.95l.08-8.35h-1.08c-.23,.21-.45,.43-.67,.65-2.23,2.29-3.97,5.04-5.1,8.07-1.92,4.86,1.64,10.51,6.75,10.68,1.12,.06,2.25,.06,3.37,0,5.47-.29,8.75-6.45,6.29-11.41Z" style="fill:#fefafd;"/><path d="M42.67,42.29h0v7.88c.2-.06,.41-.11,.63-.13v-7.67h0v-14.47h.59c0,2.38,0,11.99,0,14.39h0v7.75c.22,.01,.43,.05,.63,.1v-7.6h0v-14.63h.99v-4.94h-3.7v4.94h.86v14.39Z" style="fill:#fefafd;"/></g></g></g><g id="i"/><g id="j"/><g id="k"/><g id="l"/><g id="m"/><g id="n"/><g id="o"/><g id="p"/><g id="q"/><g id="r"/><g id="s"/><g id="t"/><g id="u"><g id="v"/></g><g id="w"/><g id="x"/><g id="y"/><g id="a`"/><g id="aa"/><g id="ab"/><g id="ac"/><g id="ad"/><g id="ae"/><g id="af"/><g id="ag"/><g id="ah"/><g id="ai"/><g id="aj"/><g id="ak"/><g id="al"/><g id="am"/><g id="an"/><g id="ao"><g id="ap"/><g id="aq"/><g id="ar"/></g><g id="as"/><g id="at"/><g id="au"><g id="av"/></g><g id="aw"/></svg>