<?xml version="1.0" encoding="UTF-8"?><svg xmlns="http://www.w3.org/2000/svg" viewBox="0 0 87.32 83.49"><g id="a"/><g id="b"/><g id="c"/><g id="d"/><g id="e"/><g id="f"/><g id="g"/><g id="h"/><g id="i"/><g id="j"/><g id="k"/><g id="l"/><g id="m"/><g id="n"/><g id="o"/><g id="p"/><g id="q"/><g id="r"/><g id="s"/><g id="t"><g id="u"/></g><g id="v"/><g id="w"/><g id="x"/><g id="y"/><g id="a`"/><g id="aa"/><g id="ab"/><g id="ac"/><g id="ad"/><g id="ae"/><g id="af"><g><circle cx="43.66" cy="41.74" r="38.57" style="fill:#7b1245;"/><g><path d="M35.57,38.39c2.11-.2,4.17-1.03,6.73-1.74-2.04-1.68-3.52-3.09-5.21-4.2-.69-.45-2.41-.6-2.63-.24-.83,1.31-1.56,2.88-1.62,4.38-.02,.6,1.83,1.89,2.73,1.81Z" style="fill:#fff;"/><path d="M50.9,30.19c.26-.37,.51-.73,.77-1.1-.95-1.19-1.9-2.39-2.95-3.72-1.31,.98-2.28,1.7-3.84,2.86,2.4,.78,4.21,1.37,6.02,1.96Z" style="fill:#fff;"/><path d="M56.91,53.24c-5.45-2.51-7.42,3.04-11.65,4.76,7.28,2.72,9.52,1.68,11.65-4.76Z" style="fill:#fff;"/><path d="M42.58,28.1c-1.81-1.14-2.83-1.77-4.01-2.52-.97,1.33-1.77,2.42-2.57,3.51,.17,.37,.33,.75,.5,1.12,1.81-.63,3.62-1.25,6.08-2.11Z" style="fill:#fff;"/><path d="M47.71,24.66c-3.69-2.85-4.89-2.77-7.57,.33,1.13,.79,2.25,1.57,3.49,2.44,1.32-.89,2.55-1.73,4.08-2.77Z" style="fill:#fff;"/><path d="M45.62,36.5c2.95,.14,5.66,4.32,8.47,.59,.68-.91,.16-4.04-.74-4.57-3.96-2.32-4.87,2.79-7.73,3.98Z" style="fill:#fff;"/><path d="M46.3,48.84c5.52,3.21,7.78,2.68,10.45-3.64,.55-1.3-.39-3.22-.65-4.86-1.31,.45-2.99,.54-3.87,1.42-2.17,2.17-3.98,4.7-5.94,7.08Z" style="fill:#fff;"/><path d="M43.68,47.97c2.91-2.6,5.55-4.95,8.4-7.49-5.94-3.46-11.18-3.45-16.76,.02,2.75,2.45,5.39,4.82,8.37,7.47Z" style="fill:#fff;"/><path d="M49.27,61.24c-4.17-2.39-7.25-2.67-10.87,0h10.87Z" style="fill:#fff;"/><path d="M49.03,31.35c-3.56-2.72-7.13-2.8-10.96,.14,5.62,5.18,6.6,5.15,10.96-.14Z" style="fill:#fff;"/><path d="M50.64,52.42c-4.65-3.37-9.28-3.87-13.89,.08,6.97,6.31,6.84,6.34,13.89-.08Z" style="fill:#fff;"/><path d="M40.84,48.89c-1.74-2.23-3.45-4.8-5.59-6.96-.92-.93-2.71-1-4.11-1.45-.17,1.65-1.01,3.62-.4,4.91,2.94,6.22,5.36,6.72,10.1,3.5Z" style="fill:#fff;"/><path d="M42.04,57.91c-4.31-1.62-6.17-7.33-11.64-4.65,2.18,6.64,4.34,7.61,11.64,4.65Z" style="fill:#fff;"/><path d="M52.08,40.48c-2.85,2.54-5.49,4.9-8.4,7.49-2.97-2.65-5.62-5.01-8.37-7.47,5.58-3.48,10.83-3.48,16.76-.02Z" style="fill:#fff;"/><path d="M46.3,48.84c1.96-2.39,3.76-4.92,5.94-7.08,.88-.88,2.55-.97,3.87-1.42,.26,1.64,1.2,3.56,.65,4.86-2.68,6.32-4.93,6.85-10.45,3.64Z" style="fill:#fff;"/><path d="M40.84,48.89c-4.74,3.22-7.16,2.72-10.1-3.5-.61-1.29,.23-3.26,.4-4.91,1.4,.46,3.19,.52,4.11,1.45,2.13,2.16,3.84,4.73,5.59,6.96Z" style="fill:#fff;"/><path d="M50.64,52.42c-7.05,6.41-6.92,6.39-13.89,.08,4.61-3.95,9.24-3.45,13.89-.08Z" style="fill:#fff;"/><path d="M45.26,57.99c4.23-1.72,6.2-7.27,11.65-4.76-2.13,6.44-4.37,7.48-11.65,4.76Z" style="fill:#fff;"/><path d="M42.04,57.91c-7.3,2.97-9.46,1.99-11.64-4.65,5.46-2.69,7.33,3.02,11.64,4.65Z" style="fill:#fff;"/><path d="M38.08,31.5c3.82-2.95,7.4-2.87,10.96-.14-4.36,5.3-5.34,5.32-10.96,.14Z" style="fill:#fff;"/><path d="M45.62,36.5c2.86-1.19,3.77-6.3,7.73-3.98,.9,.53,1.42,3.66,.74,4.57-2.81,3.73-5.52-.44-8.47-.59Z" style="fill:#fff;"/><path d="M42.3,36.64c-2.56,.71-4.62,1.54-6.73,1.74-.9,.08-2.76-1.2-2.73-1.81,.06-1.5,.79-3.07,1.62-4.38,.23-.36,1.95-.21,2.63,.24,1.69,1.11,3.17,2.52,5.21,4.2Z" style="fill:#fff;"/><path d="M47.71,24.66c-1.53,1.03-2.76,1.87-4.08,2.77l-3.49-2.44c2.67-3.1,3.88-3.18,7.57-.33Z" style="fill:#fff;"/><path d="M49.27,61.24h-10.87c3.63-2.67,6.7-2.39,10.87,0Z" style="fill:#fff;"/><path d="M50.9,30.19c-1.81-.59-3.62-1.18-6.02-1.96,1.56-1.16,2.52-1.88,3.84-2.86,1.06,1.33,2,2.53,2.95,3.72l-.77,1.1Z" style="fill:#fff;"/><path d="M36,29.09c.8-1.09,1.6-2.18,2.57-3.51,1.18,.74,2.2,1.38,4.01,2.52l-6.08,2.11-.5-1.12Z" style="fill:#fff;"/></g></g></g><g id="ag"/><g id="ah"/><g id="ai"/><g id="aj"/><g id="ak"/><g id="al"/><g id="am"/><g id="an"><g id="ao"/><g id="ap"/><g id="aq"/></g><g id="ar"/><g id="as"/><g id="at"><g id="au"/></g><g id="av"/></svg>