<?xml version="1.0" encoding="UTF-8"?><svg xmlns="http://www.w3.org/2000/svg" viewBox="0 0 87.32 83.49"><g id="a"/><g id="b"/><g id="c"/><g id="d"/><g id="e"/><g id="f"/><g id="g"/><g id="h"/><g id="i"/><g id="j"/><g id="k"/><g id="l"/><g id="m"/><g id="n"/><g id="o"/><g id="p"/><g id="q"/><g id="r"/><g id="s"/><g id="t"><g id="u"/></g><g id="v"/><g id="w"/><g id="x"/><g id="y"/><g id="a`"/><g id="aa"/><g id="ab"/><g id="ac"/><g id="ad"/><g id="ae"/><g id="af"/><g id="ag"/><g id="ah"/><g id="ai"/><g id="aj"/><g id="ak"/><g id="al"/><g id="am"/><g id="an"><g id="ao"/><g id="ap"/><g id="aq"/></g><g id="ar"/><g id="as"/><g id="at"><g id="au"/><g><circle cx="43.66" cy="41.74" r="38.57" style="fill:#7b1245;"/><g><path d="M49.31,41.46c0-3.08-2.5-5.58-5.58-5.58s-5.58,2.5-5.58,5.58,2.5,5.58,5.58,5.58,5.58-2.5,5.58-5.58Zm-5.64,2.23c-1.23,0-2.23-1-2.23-2.23s1-2.23,2.23-2.23,2.23,1,2.23,2.23-1,2.23-2.23,2.23Z" style="fill:none;"/><g><path d="M43.67,39.23c-1.23,0-2.23,1-2.23,2.23s1,2.23,2.23,2.23,2.23-1,2.23-2.23-1-2.23-2.23-2.23Z" style="fill:#fefafd;"/><path d="M60.46,41.22c0-.23,0-.45-.02-.68l2.53-1.04-.63-3.19h-2.62c-.23-.77-.52-1.51-.86-2.22l1.84-1.84-1.79-2.7-2.33,.96c-.54-.64-1.12-1.25-1.75-1.8l.95-2.3-2.7-1.79-1.71,1.71c-.75-.39-1.53-.72-2.34-.99v-2.37l-3.14-.63-.9,2.19c-.41-.03-.82-.05-1.24-.05-.44,0-.88,.02-1.31,.06l-.94-2.2-3.19,.63v2.42c-.79,.27-1.56,.6-2.29,.99l-1.76-1.76-2.71,1.79,.99,2.4c-.6,.54-1.16,1.13-1.68,1.75l-2.45-1.01-1.79,2.7,1.94,1.94c-.32,.68-.59,1.39-.81,2.11h-2.78l-.63,3.14,2.69,1.11c0,.22-.02,.44-.02,.67,0,.49,.03,.98,.07,1.46l-2.74,1.17,.63,3.19h3.08c.23,.62,.5,1.23,.8,1.82l-2.24,2.24,1.79,2.7,3.03-1.25c.43,.47,.89,.91,1.37,1.32l-1.26,3.06,2.7,1.79,2.37-2.37c.55,.26,1.11,.49,1.69,.68v3.32l3.14,.63,1.27-3.08c.34,.02,.68,.03,1.03,.03,.26,0,.53,0,.79-.02l1.26,3.06,3.19-.63v-3.26c.6-.2,1.19-.43,1.75-.69l2.3,2.3,2.7-1.79-1.21-2.93c.51-.43,1-.9,1.46-1.39l2.89,1.19,1.79-2.7-2.11-2.11c.33-.63,.62-1.28,.87-1.95h2.88l.63-3.14-2.55-1.05c.05-.53,.08-1.08,.08-1.62Zm-22.3,.25c0-3.08,2.5-5.58,5.58-5.58s5.58,2.5,5.58,5.58-2.5,5.58-5.58,5.58-5.58-2.5-5.58-5.58Z" style="fill:#fefafd;"/></g></g></g></g><g id="av"/></svg>