<?xml version="1.0" encoding="UTF-8"?><svg xmlns="http://www.w3.org/2000/svg" viewBox="0 0 87.32 83.49"><g id="a"/><g id="b"/><g id="c"/><g id="d"/><g id="e"/><g id="f"/><g id="g"/><g id="h"/><g id="i"/><g id="j"/><g id="k"/><g id="l"/><g id="m"/><g id="n"/><g id="o"/><g id="p"/><g id="q"/><g id="r"/><g id="s"/><g id="t"><g id="u"/></g><g id="v"/><g id="w"/><g id="x"/><g id="y"/><g id="a`"/><g id="aa"/><g id="ab"/><g id="ac"/><g id="ad"/><g id="ae"/><g id="af"/><g id="ag"/><g id="ah"/><g id="ai"/><g id="aj"/><g id="ak"><g id="al"><circle cx="43.66" cy="41.74" r="38.57" style="fill:#7b1245;"/><path d="M43.52,22.68c-.05,0-.1,0-.15,0h-.03s-.02,0-.03,0h-.02c-5.69,.01-10.26,.51-10.26,1.13,0,.28,.98,.54,2.58,.74,1.46,.87,2.41,1.49,3.49,3.26,.44,.66,1.19,1.93,1.49,2.7,.4,1.06,.39,1,.77,2.18,.16,.51,.3,.94,.41,1.34,.2,1.12,.46,2.27,.52,3.33v22.79h-.88l.83,1.58h2.25l.82-1.58h-.88v-22.79c.06-1.07,.32-2.22,.52-3.35,.11-.39,.24-.82,.4-1.32,.38-1.17,.37-1.12,.77-2.18,.29-.77,1.05-2.04,1.49-2.7,1.06-1.74,1.99-2.37,3.4-3.21,1.87-.2,3.03-.48,3.03-.79,0-.62-4.7-1.13-10.49-1.13Z" style="fill:#fff;"/></g></g><g id="am"/><g id="an"/><g id="ao"><g id="ap"/><g id="aq"/><g id="ar"/></g><g id="as"/><g id="at"/><g id="au"><g id="av"/></g><g id="aw"/></svg>