<?xml version="1.0" encoding="UTF-8"?><svg xmlns="http://www.w3.org/2000/svg" viewBox="0 0 87.32 83.49"><g id="a"/><g id="b"/><g id="c"/><g id="d"/><g id="e"/><g id="f"/><g id="g"/><g id="h"/><g id="i"/><g id="j"/><g id="k"/><g id="l"/><g id="m"/><g id="n"/><g id="o"/><g id="p"/><g id="q"/><g id="r"/><g id="s"/><g id="t"><g id="u"/></g><g id="v"/><g id="w"/><g id="x"><g><circle cx="43.66" cy="41.74" r="38.57" style="fill:#7b1245;"/><g><ellipse cx="43.45" cy="44.92" rx="2.45" ry="3.13" transform="translate(-19.04 45.8) rotate(-46.76)" style="fill:#fff;"/><ellipse cx="45.95" cy="25.57" rx="2.45" ry="3.13" transform="translate(-4.16 41.53) rotate(-46.76)" style="fill:#fff;"/><g><path d="M46.45,26.35c.37,.24,.83,.6,1.21,1.11,1.06,1.43,.81,3.04,.71,3.55" style="fill:#fff;"/><path d="M48.9,31.13l-.88-.17c.13-.67,.04-2.01-.8-3.16-.28-.38-.64-.71-1.06-.98l.59-.91c.54,.34,1,.77,1.35,1.25,1.09,1.48,.97,3.13,.81,3.98Z" style="fill:#fff;"/></g><g><path d="M48.82,30.81c.27-.46,.42-.78,.42-.78h0l-.65-.29c-1.02,2.41-2.57,4.44-4.21,6.58l-.37,.48c-.43,.56-.82,1.15-1.19,1.74,.02,.1,.03,.16,.03,.16l.76-1.15c.37,.23,.82,.32,1.3,.31,.06-.07,.1-.15,.16-.23l.37-.48c1.41-1.84,2.86-3.74,3.94-5.9-.13-.15-.28-.29-.44-.39-.04-.02-.08-.03-.11-.05Z" style="fill:#fff;"/><path d="M41.3,61.33c.13,0,.25,.01,.37,.03,.04,0,.08,0,.12,0,.08,0,.15,0,.22,.01,.1-.01,.2-.02,.3-.02,.08,0,.15,0,.22,.01-.76-2.1-1.28-4.17-1.59-6.19-.48-.06-.93,.06-1.31,.3,.3,1.92,.79,3.89,1.47,5.88,.06,0,.12,0,.18,0Z" style="fill:#fff;"/><path d="M42.13,39.72c-2.19,4.01-3.12,8.59-2.74,13.5,.04-.14,.06-.35,0-.64-.06-.33,0-1.21,.06-1.97,.39,.05,.81-.01,1.21-.21,.1-3.7,1.02-7.16,2.75-10.24h0c-.37-.25-.82-.41-1.27-.44Z" style="fill:#fff;"/><path d="M39.45,50.61c-.07,.76-.12,1.63-.06,1.97,.05,.29,.03,.49,0,.64,.06,.74,.15,1.49,.27,2.25,.38-.23,.83-.35,1.31-.3-.25-1.62-.35-3.22-.3-4.77-.4,.2-.81,.26-1.21,.21Z" style="fill:#fff;"/><path d="M42.85,38.71s0-.06-.03-.16c-.24,.39-.48,.78-.69,1.18,.45,.03,.9,.19,1.27,.45h0c.44-.8,.95-1.57,1.5-2.31-.48,.01-.92-.08-1.3-.31l-.76,1.15Z" style="fill:#fff;"/><path d="M49.24,30.03h0s-.16,.33-.42,.79c.04,.02,.08,.03,.11,.05,.17,.1,.31,.24,.44,.39,.16-.32,.31-.64,.45-.97l-.58-.25Z" style="fill:#fff;"/></g><path d="M40.33,54.5c1.67-.94,10.65-1.02,15.41-7.33-6.47-1.14-15.98,4.3-15.41,7.33Z" style="fill:#fff;"/><path d="M40.31,56.21c-1.34-1.06-4.85-8.12-11.39-10.14,1.62,5.41,9.34,11.42,11.39,10.14Z" style="fill:#fff;"/><path d="M43.12,39.79c-1.07-1.13-3.3-7.96-8.92-10.67,.75,5.09,6.91,11.54,8.92,10.67Z" style="fill:#fff;"/><path d="M43.81,38.28c1.54,0,7.96,3.05,13.76,.77-4.15-2.95-13-2.85-13.76-.77Z" style="fill:#fff;"/><path d="M48.59,31.25c1.08-.98,7.82-2.49,10.21-8.07-5.08,.16-11.2,5.85-10.21,8.07Z" style="fill:#fff;"/></g></g></g><g id="y"/><g id="a`"/><g id="aa"/><g id="ab"/><g id="ac"/><g id="ad"/><g id="ae"/><g id="af"/><g id="ag"/><g id="ah"/><g id="ai"/><g id="aj"/><g id="ak"/><g id="al"/><g id="am"/><g id="an"><g id="ao"/><g id="ap"/><g id="aq"/></g><g id="ar"/><g id="as"/><g id="at"><g id="au"/></g><g id="av"/></svg>