<?xml version="1.0" encoding="UTF-8"?><svg xmlns="http://www.w3.org/2000/svg" viewBox="0 0 120.67 120.08"><g id="a"/><g id="b"/><g id="c"/><g id="d"/><g id="e"/><g id="f"/><g id="g"/><g id="h"/><g id="i"/><g id="j"/><g id="k"/><g id="l"><g id="m"/><g id="n"/><g id="o"/></g><g id="p"/><g id="q"/><g id="r"/><g id="s"/><g id="t"/><g id="u"/><g id="v"><g id="w"/></g><g id="x"/><g id="y"/><g id="a`"/><g id="aa"/><g id="ab"/><g id="ac"/><g id="ad"/><g id="ae"/><g id="af"/><g id="ag"/><g id="ah"/><g id="ai"/><g id="aj"/><g id="ak"/><g id="al"/><g id="am"/><g id="an"/><g id="ao"/><g id="ap"/><g id="aq"><g id="ar"><ellipse cx="60.57" cy="60" rx="52.21" ry="52.06" style="fill:#42B5E8;"/><path d="M81.49,40.36c-.85-.7-1.82-1.06-2.89-1.21-.22-.03-.44-.08-.71-.13,.17-.17,.26-.26,.36-.35,.45-.42,.42-.72-.12-1.01-.19-.1-.4-.18-.61-.24-1.64-.48-3.14-.22-4.52,.79-.53,.39-1.06,.79-1.63,1.1-.27,.15-.65,.1-.98,.14l-.04-.19c.23-.2,.47-.4,.7-.6,.81-.71,1.32-1.56,1.2-2.69-.05-.42-.22-.79-.7-.86-2.39-.35-4.76-.31-7.01,.7-3.12,1.4-5.46,3.46-5.98,6.96-.22-.17-.5-.25-.87-.24-.21-.61-.42-1.22-.7-1.78-.57-1.11-1.22-1.28-2.28-.64-1.9,1.14-3.12,2.78-3.49,5-.18,1.08-.09,2.12,.18,3.15v-.04s0,.05,.01,.08v-.04c-.14,.64-.18,1.3-.18,1.97-.49-.55-.92-1.14-1.47-1.62-.38-.33-.7-.44-.95-.35,0,0,.02,0,.03,0-.02,0-.04,0-.05,.01,0,0,.02-.01,.03-.01-.23,.02-.46,.18-.7,.52-.65,.94-1.26,1.94-1.67,3-1.03,2.68-1.03,5.47-.62,8.28,.12,.82,.21,1.64,.32,2.46l-.22,.07c-.19-.3-.4-.59-.56-.9-.32-.61-.59-1.26-.95-1.85-.14-.23-.49-.51-.7-.48-.22,.04-.46,.4-.54,.66-.38,1.17-.24,2.35,.12,3.5,.21,.67,.46,1.32,.69,1.98l-.14,.09c-.32-.31-.63-.64-.96-.94-.51-.47-.88-.36-1.05,.32-.04,.16-.06,.32-.07,.49-.19,2.28,.43,4.33,1.88,6.08,2.08,2.51,3.53,5.32,4.39,8.45,.51,1.83,1.06,3.65,1.6,5.47,.13,.43,.35,.78,.86,.78,.54,0,.8-.38,.87-.83,.16-1.1,.47-2.14,1.06-3.08,.1-.16,.13-.38,.18-.57,.36-1.32,.1-2.61-.13-3.91-.32-1.79-.2-3.62,.39-5.27-.34-.23-.69-.45-1.05-.66,.29,.17,.58,.35,.86,.54,.09,.06,.22,.02,.26-.08,.85-2.19,2.58-4.05,5.36-5.06,.62-.23,1.25-.51,1.82-.85,1.27-.78,1.18-1.81-.21-2.36-.54-.21-1.12-.36-1.68-.54-.22-.07-.44-.12-.66-.18l-.04-.24c.27-.11,.53-.26,.81-.32,1.6-.29,3.13-.74,4.51-1.64,.64-.42,1.22-.9,1.66-1.5h0c.15-.24,.47-.77,.57-1.06,.21-.58,.12-1.22-.13-1.66h0c-.11-.16-.25-.31-.43-.45-.38-.3-.83-.61-1.29-.68-.82-.13-1.66-.09-2.5-.1-.44,0-.88,.02-1.31,.03l-.07-.22c.28-.21,.55-.46,.85-.61,1.12-.55,2.31-.67,3.53-.44,.94,.18,1.09,.28,1.92,.69,.08,.04,.8,.15,1.26-.51,.57-.81,.64-.99,.69-2,.04-.92-.55-1.75-1.43-2.02-.41-.13-.86-.22-1.26-.14-.81,.16-1.59,.48-2.38,.75-.41,.14-.82,.31-1.23,.47l-.14-.19c.2-.29,.36-.61,.6-.86,.87-.9,1.94-1.42,3.17-1.61,1.62-.26,3.2,.01,4.79,.31,1.24,.23,2.49,.38,3.75,.46,.82,.05,1.64-.12,2.29-.73,.29-.28,.35-.57,.03-.84-.41-.36-.82-.73-1.29-1.01l-.15-.02c-.12,.03-.23,.06-.35,.09,.14-.04,.29-.07,.43-.12,.2-.06,.39-.11,.59-.17,.26-.08,.52-.13,.78-.17,.75,.16,1.5,.22,2.25,.18,.9-.05,1.81-.27,2.71-.69,2.58-1.19,2.94-4.19,.76-5.99Zm-7.57,5.95s-.04-.02-.07-.03c-.17-.07-.34-.12-.51-.18,.16,.05,.33,.11,.49,.17l.16-.02s-.04,.04-.07,.06Z" style="fill:#fff;"/></g></g></svg>