<?xml version="1.0" encoding="UTF-8"?><svg xmlns="http://www.w3.org/2000/svg" viewBox="0 0 87.32 83.49"><g id="a"/><g id="b"/><g id="c"/><g id="d"/><g id="e"/><g id="f"/><g id="g"/><g id="h"/><g id="i"/><g id="j"/><g id="k"/><g id="l"/><g id="m"/><g id="n"/><g id="o"><g><circle cx="43.66" cy="41.74" r="38.57" style="fill:#7b1245;"/><path d="M59.07,27.26c-.62-.51-1.34-.78-2.13-.89-.16-.02-.32-.06-.52-.09,.13-.12,.19-.19,.26-.26,.33-.31,.31-.53-.09-.74-.14-.08-.3-.13-.45-.18-1.21-.35-2.31-.16-3.33,.59-.39,.29-.78,.58-1.2,.81-.2,.11-.48,.07-.72,.1l-.03-.14c.17-.15,.35-.29,.52-.44,.6-.52,.97-1.15,.88-1.98-.03-.31-.16-.58-.52-.64-1.76-.26-3.5-.23-5.16,.51-2.3,1.03-4.02,2.55-4.4,5.12-.16-.13-.37-.18-.64-.18-.16-.45-.31-.9-.52-1.31-.42-.82-.9-.94-1.68-.47-1.4,.84-2.3,2.05-2.57,3.68-.13,.8-.06,1.56,.13,2.32v-.03s0,.04,0,.06v-.03c-.1,.47-.14,.95-.13,1.45-.36-.4-.68-.84-1.08-1.2-.28-.24-.51-.33-.7-.26,0,0,.01,0,.02,0-.01,0-.03,0-.04,0,0,0,.01,0,.02-.01-.17,.01-.34,.13-.51,.38-.48,.69-.93,1.43-1.23,2.21-.76,1.97-.76,4.03-.46,6.09,.09,.6,.16,1.21,.23,1.81l-.16,.05c-.14-.22-.29-.43-.41-.66-.24-.45-.44-.93-.7-1.36-.1-.17-.36-.38-.51-.35-.16,.03-.34,.29-.4,.49-.28,.86-.17,1.73,.09,2.58,.15,.49,.34,.97,.51,1.46l-.1,.06c-.24-.23-.47-.47-.71-.69-.38-.35-.65-.26-.78,.24-.03,.12-.04,.24-.05,.36-.14,1.68,.32,3.19,1.38,4.48,1.53,1.85,2.6,3.92,3.23,6.22,.37,1.35,.78,2.69,1.18,4.03,.09,.32,.26,.57,.63,.58,.4,0,.59-.28,.64-.61,.12-.81,.34-1.57,.78-2.27,.08-.12,.09-.28,.13-.42,.26-.97,.07-1.92-.1-2.88-.23-1.32-.15-2.66,.29-3.88-.25-.17-.51-.33-.77-.48,.22,.13,.43,.26,.64,.4,.07,.05,.16,.02,.19-.06,.63-1.61,1.9-2.98,3.94-3.72,.46-.17,.92-.37,1.34-.63,.94-.57,.87-1.33-.16-1.74-.4-.16-.83-.26-1.24-.4-.16-.05-.32-.09-.49-.13l-.03-.17c.2-.08,.39-.19,.59-.23,1.18-.21,2.31-.54,3.32-1.21,.47-.31,.9-.66,1.23-1.1h0c.11-.18,.34-.57,.42-.78,.15-.42,.08-.9-.1-1.22h0c-.08-.12-.18-.23-.32-.33-.28-.22-.61-.45-.95-.5-.6-.09-1.22-.07-1.84-.08-.32,0-.65,.01-.97,.02l-.05-.17c.21-.15,.4-.34,.63-.45,.82-.41,1.7-.5,2.6-.33,.69,.13,.8,.2,1.42,.51,.06,.03,.59,.11,.93-.37,.42-.59,.47-.73,.5-1.47,.03-.67-.41-1.29-1.05-1.48-.3-.09-.64-.16-.93-.11-.6,.12-1.17,.35-1.75,.55-.31,.1-.6,.23-.9,.35l-.1-.14c.14-.21,.26-.45,.44-.64,.64-.66,1.43-1.04,2.33-1.19,1.19-.19,2.36,0,3.53,.22,.91,.17,1.84,.28,2.76,.34,.61,.04,1.21-.09,1.69-.54,.22-.2,.26-.42,.02-.62-.3-.26-.6-.54-.95-.74h-.11c-.09,.01-.17,.03-.26,.06,.11-.03,.21-.05,.31-.09,.14-.04,.29-.08,.43-.13,.19-.06,.39-.1,.58-.12,.55,.11,1.1,.16,1.65,.13,.67-.04,1.33-.2,2-.51,1.9-.88,2.17-3.09,.56-4.41Zm-5.57,4.38l-.05-.02c-.12-.05-.25-.09-.38-.13,.12,.04,.24,.08,.36,.12l.12-.02s-.03,.03-.05,.04Z" style="fill:#fff;"/></g></g><g id="p"/><g id="q"/><g id="r"/><g id="s"/><g id="t"><g id="u"/></g><g id="v"/><g id="w"/><g id="x"/><g id="y"/><g id="a`"/><g id="aa"/><g id="ab"/><g id="ac"/><g id="ad"/><g id="ae"/><g id="af"/><g id="ag"/><g id="ah"/><g id="ai"/><g id="aj"/><g id="ak"/><g id="al"/><g id="am"/><g id="an"><g id="ao"/><g id="ap"/><g id="aq"/></g><g id="ar"/><g id="as"/><g id="at"><g id="au"/></g><g id="av"/></svg>