<?xml version="1.0" encoding="UTF-8"?><svg xmlns="http://www.w3.org/2000/svg" viewBox="0 0 87.32 83.49"><g id="a"/><g id="b"/><g id="c"/><g id="d"/><g id="e"/><g id="f"/><g id="g"/><g id="h"/><g id="i"/><g id="j"/><g id="k"/><g id="l"/><g id="m"/><g id="n"/><g id="o"/><g id="p"/><g id="q"/><g id="r"/><g id="s"/><g id="t"><g id="u"/></g><g id="v"/><g id="w"/><g id="x"/><g id="y"/><g id="a`"/><g id="aa"/><g id="ab"/><g id="ac"/><g id="ad"/><g id="ae"/><g id="af"/><g id="ag"/><g id="ah"/><g id="ai"/><g id="aj"/><g id="ak"/><g id="al"/><g id="am"/><g id="an"><g id="ao"/><g id="ap"/><g id="aq"/></g><g id="ar"/><g id="as"><g><circle cx="43.66" cy="41.74" r="38.57" style="fill:#7b1245;"/><g><path d="M32.59,41.22h0c.14,.06,.17,.07,0,0Z" style="fill:#fff;"/><path d="M34.17,28.52h0c.08,.05,.1,.05,0,0Z" style="fill:#fff;"/><path d="M53.48,25.78c-.27,.14-1.34,.86-1.64,1.06-.12,.12-.31,.31-.55,.51-.67,.55-.87,.5-1.24,.93-.38,.44-.24,.59-.64,1.01-.34,.37-.64,.46-.76,.83-.04,.13-.05,.25-.15,.42-.11,.19-.25,.29-.3,.32-.28,.21-.92,.82-1.16,1.33-.3,.64,.14,.87-.12,1.56-.3,.8-1,.77-1.3,1.61-.19,.53,.01,.75-.26,1.41-.15,.36-.3,.53-.51,.82-.14,.19-.47,.77-.65,1.31-.02-.67-.05-1.42-.06-2.25-.01-.59-.17-1.2-.34-1.77-.23-1.36,0-2.64,.67-3.8h0c.12,0,.44-.06,.45-.06,.1-.06,.84-.21,1.3-.85,.32-.44,.08-1.23-.52-1.61-.6-.38-1.34-.28-1.66,.23-.15,.25-.24,.29-.44,.86-.12,.8-.06,.91,.15,1.11l.02,.02c-.43,.76-.69,1.56-.78,2.39-.57-.89-1.39-2.05-1.51-2.17v.05c-.28-.62-.43-1.3-.46-2.03,.05-.04,.11-.1,.18-.17,.09-.1,.31-.4,.31-.4,.03-.13,.5-.83,.38-1.71-.08-.61-.89-1.05-1.67-.88s-1.29,.84-1.15,1.49c.07,.32,.04,.42,.32,1.04,.47,.66,.63,.76,.88,.77,.04,.79,.21,1.52,.52,2.2,.15,.34,.31,.6,.47,.84v.05c.3,.28,.89,1.71,1.1,2.32,.24,.68,.34,1.43,.35,2.08,.03,1.27,.06,2.33,.1,3.24-.2-.31-.42-.6-.66-.86-.37-.4-.7-.65-.98-.87-.27-.21-.52-.4-.78-.69,.63-.14-.17-1.41-.39-1.68-.17-.2-.3-.31-.43-.56-.23-.46-.05-.64-.2-1.01-.25-.59-.84-.51-1.09-1.07-.21-.49,.17-.69-.08-1.13-.2-.35-.73-.75-.97-.88-.04-.02-.16-.08-.25-.21-.08-.12-.09-.2-.12-.29-.1-.26-.35-.3-.64-.54-.33-.28-.21-.4-.53-.69-.31-.28-.48-.23-1.04-.58-.2-.13-.36-.25-.46-.33-.26-.13-1.16-.57-1.39-.65-.21-.07-1.42-.3-1.81-.35,0,.22,.12,.33,.31,.63,.08,.12,.22,.37,.47,1.03,.36,.95,.25,.95,.48,1.35,.24,.42,.38,.47,.62,.95,.23,.46,.13,.47,.29,.76,.38,.68,.94,.65,1.59,1.46,.19,.24,.29,.36,.37,.51,.19,.33,.22,.53,.4,.63,.15,.08,.22-.02,.36,.07,.21,.12,.12,.4,.32,.69,.32,.47,.94,.29,1.22,.77,.06,.11,.1,.24,.24,.35,.13,.1,.22,.08,.37,.15,.23,.11,.36,.32,.41,.38,.13,.16,.22,.13,.96,.19,.1,.15,.2,.29,.31,.43,.37,.44,.7,.7,1.02,.94,.28,.21,.56,.43,.89,.79,.54,.58,.97,1.31,1.29,2.15v.17c.04,.65,.07,1.23,.09,1.79,.07,2.07,.02,3.21-.06,4.8-.05,.92-.1,1.98-.13,3.44-.04,1.61-.04,2.83-.02,3.95-.35-.58-.71-1.06-.89-1.3-.27-.36-.49-.55-.67-1.03-.34-.9,0-1.33-.22-2.06-.36-1.15-1.42-.78-1.78-1.88-.31-.95,.4-1.51,.03-2.36-.3-.68-1.2-1.32-1.6-1.51-.07-.03-.26-.12-.41-.36-.13-.21-.13-.4-.18-.58-.14-.51-.58-.52-1.06-.92-.55-.47-.32-.76-.84-1.27-.5-.49-.82-.32-1.77-.86-.34-.2-.61-.4-.77-.54-.44-.18-1.97-.79-2.37-.88-.36-.07-1.55-.33-2.24-.3,.23,.27,.55,.69,.84,1.27,.12,.23,.34,.71,.69,2.01,.51,1.87,.31,1.91,.66,2.68,.36,.8,.6,.85,.96,1.79,.33,.88,.16,.95,.4,1.5,.57,1.3,1.58,1.03,2.61,2.51,.31,.44,.46,.66,.59,.94,.29,.63,.31,1.05,.62,1.19,.26,.12,.4-.11,.63,.01,.36,.19,.16,.8,.46,1.34,.5,.88,1.63,.28,2.05,1.2,.1,.21,.14,.47,.37,.65,.21,.16,.38,.09,.64,.18,.39,.15,.59,.54,.67,.65,.24,.36,.43,.15,2.65-.04,.02,.42,.04,.84,.06,1.28,.03,.57,.05,1.19,.08,1.88h1.43c-.03-.72-.06-1.36-.08-1.94-.07-1.47-.12-2.69-.13-4.18,.02-.02,.05-.05,.08-.09,.06-.09,.26-.42,.45-.47,.12-.03,.16,.09,.29-.01,.14-.11,.24-.36,.34-.54,.45-.8,.66,.09,1.13-.65,.28-.45,.41-1.1,.6-1.19,.12-.06,.1,.2,.23,.15,.16-.06,.3-.47,.61-1.01,.14-.24,.26-.41,.52-.76,.85-1.18,1.13-.66,1.76-1.79,.27-.48,.22-.59,.63-1.37,.44-.84,.54-.82,.93-1.51,.37-.67,.32-.75,1.1-2.46,.55-1.18,.78-1.59,.9-1.79,.29-.49,.54-.82,.71-1.03-.24-.21-.75-.27-.9-.29-.17-.02-.92,.18-1.14,.24-.1,.09-.26,.22-.45,.33-.52,.29-.57,.04-.92,.39-.35,.36-.36,.71-.71,1.03-.3,.27-.46,.17-.68,.63-.08,.16-.13,.34-.25,.52-.13,.2-.23,.23-.26,.25-.21,.08-.74,.48-1.07,1.07-.41,.74-.34,1.47-.76,2.33-.48,.99-.75,.35-1.25,1.38-.32,.66-.34,1.18-.75,1.97-.22,.43-.36,.55-.58,.84-.11,.14-.3,.4-.52,.72,.04-1.36,.08-2.38,.13-3.26,.08-1.62,.14-2.8,.06-4.92,0-.07,0-.15,0-.23,.15-.58,.2-1.06,.24-1.46,.02-.24,.04-.44,.08-.63,.13-.59,.32-1.09,.53-1.55,1.14-.23,1.26-.17,1.43-.44,.06-.09,.21-.39,.48-.57,.18-.12,.29-.1,.44-.25,.16-.16,.21-.34,.28-.5,.33-.7,1.06-.53,1.44-1.21,.23-.42,.14-.78,.39-.98,.16-.13,.24,0,.42-.14,.21-.16,.25-.44,.48-.92,.1-.21,.22-.39,.45-.74,.78-1.19,1.44-1.22,1.9-2.2,.19-.41,.08-.42,.36-1.08,.29-.7,.46-.78,.75-1.39,.27-.58,.15-.57,.59-1.91,.31-.93,.49-1.29,.58-1.47,.23-.44,.36-.6,.37-.91-.46,.11-1.89,.58-2.13,.7Zm-9.13,14.19c-.03,.09-.07,.17-.1,.26,0-.1,0-.21-.01-.32,.04,.02,.07,.06,.12,.06Z" style="fill:#fff;"/><path d="M52.4,40.39h0c-.09,.02-.08,.02,0,0Z" style="fill:#fff;"/></g></g></g><g id="at"><g id="au"/></g><g id="av"/></svg>