<?xml version="1.0" encoding="UTF-8"?><svg xmlns="http://www.w3.org/2000/svg" viewBox="0 0 120.67 120.08"><g id="a"/><g id="b"/><g id="c"/><g id="d"/><g id="e"/><g id="f"/><g id="g"/><g id="h"/><g id="i"/><g id="j"/><g id="k"/><g id="l"><g id="m"/><g id="n"/><g id="o"/></g><g id="p"/><g id="q"/><g id="r"/><g id="s"/><g id="t"/><g id="u"/><g id="v"><g id="w"/></g><g id="x"/><g id="y"/><g id="a`"/><g id="aa"/><g id="ab"/><g id="ac"/><g id="ad"/><g id="ae"/><g id="af"/><g id="ag"/><g id="ah"/><g id="ai"/><g id="aj"/><g id="ak"/><g id="al"/><g id="am"/><g id="an"/><g id="ao"/><g id="ap"/><g id="aq"><g id="ar"><ellipse cx="61.6" cy="58.71" rx="52.22" ry="51.91" style="fill:#42B5E8;"/><g><g><path d="M59.18,76.01c-.37-.49-.67-.73-.91-1.39-.46-1.2,.01-1.79-.3-2.77-.48-1.55-1.93-1.05-2.41-2.53-.41-1.28,.54-2.04,.04-3.18-.41-.91-1.62-1.78-2.17-2.04-.09-.04-.36-.16-.56-.48-.18-.29-.17-.54-.24-.78-.19-.69-.79-.7-1.43-1.24-.75-.63-.43-1.02-1.14-1.71-.68-.66-1.11-.42-2.39-1.16-.47-.27-.82-.54-1.05-.72-.59-.24-2.67-1.07-3.21-1.18-.48-.1-2.1-.45-3.03-.4,.32,.37,.74,.93,1.14,1.71,.16,.32,.46,.96,.94,2.7,.69,2.52,.43,2.56,.89,3.6,.48,1.08,.81,1.14,1.3,2.42,.45,1.19,.22,1.28,.55,2.02,.77,1.75,2.13,1.39,3.54,3.38,.42,.59,.62,.88,.8,1.26,.4,.85,.42,1.41,.84,1.61,.35,.16,.54-.15,.85,.02,.48,.25,.22,1.08,.63,1.8,.67,1.18,2.21,.37,2.77,1.62,.13,.29,.19,.64,.5,.87,.29,.22,.51,.11,.86,.25,.53,.2,.8,.73,.9,.88,.36,.54,.63,.13,4.66-.14-.39-1.79-1.87-3.74-2.36-4.4Z" style="fill:#fff;"/><path d="M46.61,58h.01c.2,.09,.23,.1-.01,0Z" style="fill:#fff;"/></g><g><path d="M48.75,40.92h0c.11,.06,.13,.07,0,0Z" style="fill:#fff;"/><path d="M56.63,50.76c-.23-.27-.41-.42-.58-.75-.31-.62-.06-.86-.28-1.36-.34-.79-1.14-.69-1.47-1.44-.29-.65,.23-.93-.1-1.52-.27-.48-1-1.01-1.32-1.18-.05-.03-.21-.11-.34-.28-.11-.16-.12-.27-.17-.4-.14-.35-.48-.41-.87-.73-.45-.37-.28-.53-.72-.93-.42-.38-.65-.31-1.41-.78-.28-.17-.49-.34-.63-.45-.35-.17-1.57-.77-1.88-.87-.28-.09-1.92-.4-2.45-.47,0,.29,.16,.44,.41,.85,.1,.17,.3,.5,.64,1.39,.49,1.28,.34,1.27,.65,1.82,.32,.57,.51,.63,.84,1.28,.31,.61,.18,.63,.39,1.02,.51,.92,1.27,.87,2.15,1.96,.26,.32,.39,.48,.51,.68,.26,.45,.3,.72,.54,.85,.21,.11,.3-.02,.49,.09,.29,.17,.17,.54,.43,.92,.43,.63,1.28,.39,1.65,1.04,.09,.15,.13,.33,.32,.47,.17,.13,.3,.1,.5,.2,.31,.15,.49,.42,.55,.51,.23,.3,.37,.12,2.66,.37,.9-.17-.21-1.91-.52-2.27Z" style="fill:#fff;"/></g><path d="M62.47,82.13c-.14-3.13-.24-5.39-.14-9.65,.05-1.94,.12-3.35,.18-4.58,.11-2.18,.18-3.76,.08-6.62-.03-.77-.06-1.56-.11-2.44-.08-1.74-.19-3.9-.26-6.96-.03-1.17-.46-2.41-.81-3.4-.2-.58-2.54-3.96-2.8-4.19l-.3,1.71c.42,.38,1.21,2.31,1.5,3.13,.32,.91,.46,1.93,.48,2.8,.07,3.09,.17,5.27,.26,7.01,.04,.87,.08,1.65,.11,2.41,.1,2.78,.02,4.33-.08,6.46-.06,1.24-.13,2.67-.18,4.63-.11,4.33,0,6.62,.14,9.78,.03,.76,.07,1.6,.11,2.53h1.93c-.04-.96-.08-1.83-.11-2.61Z" style="fill:#fff;"/><path d="M59.19,38.56c-.11-.82-1.21-1.41-2.26-1.18-1.05,.23-1.75,1.13-1.56,2,.1,.43,.05,.57,.43,1.4,.71,1,.9,1.05,1.34,1.04,.56,0,.72,0,1.11-.42,.13-.14,.42-.53,.42-.54,.04-.18,.68-1.12,.52-2.3Z" style="fill:#fff;"/><path d="M65.06,43.16c.44-.59,.11-1.65-.71-2.16-.81-.51-1.82-.37-2.24,.31-.21,.33-.32,.39-.6,1.16-.17,1.08-.08,1.23,.2,1.5,.36,.35,.46,.45,.97,.42,.17,0,.6-.08,.61-.08,.14-.09,1.13-.29,1.76-1.15Z" style="fill:#fff;"/><g><path d="M57.52,40.69c-.07,.98-.02,2.41,.65,3.89,.61,1.34,1.29,1.78,2.01,3.18,.44,.86,.93,2.17,1.04,4.02" style="fill:#fff;"/><path d="M60.84,51.8c-.08-1.43-.42-2.73-1-3.87-.33-.64-.65-1.07-.97-1.49-.35-.47-.72-.96-1.05-1.7-.55-1.22-.78-2.59-.68-4.07l.75,.05c-.09,1.35,.12,2.6,.62,3.71,.3,.67,.63,1.1,.97,1.56,.33,.44,.68,.9,1.03,1.6,.63,1.23,.99,2.63,1.08,4.17l-.75,.04Z" style="fill:#fff;"/></g><g><path d="M55.01,49.82c.21,.91,.63,2.19,1.6,3.34,.88,1.05,1.58,1.24,2.57,2.31,.61,.65,1.38,1.7,1.97,3.35" style="fill:#fff;"/><path d="M60.79,58.95c-.45-1.27-1.09-2.36-1.89-3.22-.45-.49-.84-.79-1.22-1.08-.43-.33-.87-.67-1.36-1.25-.8-.96-1.37-2.13-1.68-3.5l.73-.17c.29,1.25,.8,2.32,1.52,3.19,.43,.52,.83,.82,1.24,1.14,.4,.31,.82,.63,1.32,1.16,.87,.94,1.56,2.11,2.05,3.48l-.71,.25Z" style="fill:#fff;"/></g><g><path d="M74.16,38.82h0c-.14,.1-.16,.12,0,0Z" style="fill:#fff;"/><path d="M63.21,53.15c.29-.39,.49-.62,.69-1.11,.38-.89,.09-1.19,.36-1.9,.41-1.13,1.35-1.09,1.76-2.16,.35-.93-.25-1.24,.16-2.1,.33-.69,1.19-1.51,1.57-1.79,.06-.05,.25-.18,.4-.43,.14-.23,.15-.39,.21-.56,.17-.49,.57-.62,1.03-1.11,.54-.57,.35-.77,.86-1.36,.5-.58,.77-.51,1.67-1.25,.33-.27,.58-.52,.75-.69,.41-.28,1.86-1.25,2.22-1.43,.33-.16,2.26-.79,2.88-.95-.02,.41-.2,.62-.51,1.22-.13,.24-.37,.73-.79,1.98-.6,1.81-.43,1.79-.8,2.57-.39,.82-.61,.92-1.01,1.87-.37,.88-.22,.89-.48,1.45-.62,1.32-1.51,1.35-2.57,2.96-.31,.48-.47,.71-.61,1-.32,.65-.36,1.02-.65,1.24-.25,.18-.35,0-.57,.18-.34,.27-.21,.76-.52,1.32-.52,.92-1.51,.69-1.95,1.63-.1,.22-.16,.46-.38,.68-.21,.2-.35,.18-.59,.34-.37,.24-.58,.64-.66,.76-.27,.43-.43,.21-3.12,.84-1.07-.15,.28-2.67,.66-3.18Z" style="fill:#fff;"/></g><g><path d="M66.91,52.37c-1.25,.2-1.86,.48-2.62,1.69-.69,1.1-1.39,2.29-1.77,4-.18,.81-.07,1.95-.68,3.6" style="fill:#fff;"/><path d="M62.19,61.78l-.7-.26c.39-1.07,.47-1.92,.54-2.6,.03-.36,.06-.67,.13-.95,.39-1.75,1.08-2.95,1.82-4.12,.83-1.33,1.56-1.64,2.88-1.86l.12,.74c-1.18,.19-1.69,.44-2.37,1.52-.7,1.11-1.35,2.25-1.72,3.88-.06,.25-.08,.53-.11,.85-.07,.73-.15,1.64-.58,2.79Z" style="fill:#fff;"/></g><g><path d="M63.07,72.9c-.63,1.13-1.26,2.36-1.56,4.09" style="fill:#fff;"/><path d="M61.88,77.05l-.74-.12c.3-1.77,.95-3.05,1.6-4.21l.65,.37c-.64,1.15-1.23,2.31-1.51,3.97Z" style="fill:#fff;"/></g><g><path d="M62.3,44.03c-.85,1.41-1.67,3.64-.76,6.74" style="fill:#fff;"/><path d="M61.17,50.88c-.75-2.54-.48-4.91,.8-7.04l.64,.39c-1.17,1.94-1.41,4.11-.72,6.44l-.72,.21Z" style="fill:#fff;"/></g><g><path d="M63.05,71.32c.29-.39,.48-.55,.78-1.13,.56-1.07,.58-1.76,1.01-2.65,.68-1.39,1.04-.53,1.69-1.86,.57-1.15,.47-2.14,1.02-3.13,.44-.79,1.16-1.33,1.44-1.44,.05-.02,.18-.07,.36-.33,.16-.24,.24-.48,.34-.7,.29-.62,.51-.48,.92-.85,.48-.43,.49-.89,.97-1.38,.46-.47,.54-.13,1.24-.52,.26-.14,.47-.32,.61-.44,.29-.08,1.31-.36,1.54-.33,.21,.03,.9,.1,1.22,.39-.23,.28-.57,.72-.97,1.38-.16,.27-.48,.82-1.22,2.41-1.07,2.3-.99,2.41-1.5,3.31-.53,.94-.66,.91-1.25,2.04-.55,1.05-.5,1.2-.85,1.84-.85,1.52-1.22,.82-2.38,2.41-.34,.47-.51,.71-.7,1.03-.42,.73-.61,1.28-.82,1.36-.18,.07-.15-.29-.31-.2-.26,.13-.43,1.01-.81,1.61-.63,.99-.92-.2-1.53,.87-.14,.25-.28,.58-.46,.73-.18,.14-.22-.02-.39,.02-.26,.06-.53,.51-.61,.63-.31,.44-.27-.04-1.63-1.34,.72-1.66,1.89-3.19,2.29-3.71Z" style="fill:#fff;"/><path d="M73.45,56.89h0c-.1,.03-.11,.04,0,0Z" style="fill:#fff;"/></g></g></g></g></svg>