<?xml version="1.0" encoding="UTF-8"?><svg xmlns="http://www.w3.org/2000/svg" viewBox="0 0 120.67 120.08"><g id="a"/><g id="b"/><g id="c"/><g id="d"/><g id="e"/><g id="f"/><g id="g"/><g id="h"/><g id="i"/><g id="j"/><g id="k"/><g id="l"><g id="m"/><g id="n"/><g id="o"/></g><g id="p"/><g id="q"/><g id="r"/><g id="s"/><g id="t"/><g id="u"/><g id="v"><g id="w"/></g><g id="x"/><g id="y"/><g id="a`"/><g id="aa"/><g id="ab"/><g id="ac"/><g id="ad"/><g id="ae"/><g id="af"/><g id="ag"/><g id="ah"/><g id="ai"/><g id="aj"/><g id="ak"/><g id="al"/><g id="am"/><g id="an"/><g id="ao"/><g id="ap"/><g id="aq"><g id="ar"><circle cx="60.9" cy="59.69" r="52.39" style="fill:#F7C325;"/><g><path d="M71.23,73.18h-10.13v-5.87c.23,.22,.5,.35,.56,.56,.42,1.35,.77,1.74,2.18,1.8,1.84,.08,3.69,.02,5.55,.02q.24-1.09-.81-1.43c-4.18-1.38-6.83-5.49-6.75-10.15,.09-5.14,4.15-9.93,9.63-10.61,2.92-.36,5.76-.17,8.41,1.26,3.84,2.07,5.74,5.39,5.6,9.84-.15,4.71-2.46,7.94-6.71,9.62-.77,.3-.97,.73-.91,1.55,.27,.01,.53,.04,.8,.04,1.7-.02,3.39-.02,5.09-.1,1.02-.05,1.65-.65,1.85-1.7,.07-.38,.15-.77,.71-.5v5.66h-10.06c.08-1.09,.24-2.17,.22-3.24-.02-1.53,.39-2.55,1.92-3.19,1.28-.54,2.01-1.88,2.43-3.26,.99-3.23,1.04-6.49-.1-9.69-1.44-4.04-5.64-6.14-9.3-4.67-2.83,1.14-4.22,3.53-4.85,6.44-.61,2.82-.3,5.6,.62,8.31,.55,1.61,1.64,2.74,3.12,3.46,.42,.2,.61,.45,.64,.95,.07,1.61,.19,3.22,.29,4.91Z" style="fill:#fff;"/><path d="M59.16,73.17h-9.1l-.14-.18c.15-.17,.28-.4,.46-.49,.22-.11,.49-.07,.73-.13,.97-.21,1.48-.9,1.17-1.9-.57-1.83-1.26-3.62-1.93-5.4-.06-.16-.38-.31-.58-.31-2.72-.02-5.44-.02-8.16,0-.2,0-.51,.15-.58,.32-.69,1.75-1.39,3.51-1.97,5.3-.33,1.01,.06,1.59,1.04,1.88,.5,.15,1.01,.22,1.78,.38-.28,.28-.45,.59-.62,.59-2.3,.03-4.59,.02-6.87,.02-.24-.52-.1-.75,.35-.82,1.13-.17,1.89-.91,2.34-1.97,1.22-2.89,2.42-5.8,3.59-8.72,1.82-4.55,3.61-9.12,5.43-13.67,.13-.32,.43-.55,.65-.83,.2,.27,.47,.5,.59,.81,2.64,6.77,5.26,13.54,7.9,20.31,.25,.63,.54,1.25,.82,1.87,.56,1.22,1.41,2.01,2.71,2.2,.21,.03,.38,.33,.57,.5l-.19,.23Zm-9.41-9.85l-3.98-10.19-4.07,10.19h8.05Z" style="fill:#fff;"/></g></g></g></svg>