<?xml version="1.0" encoding="UTF-8"?><svg xmlns="http://www.w3.org/2000/svg" viewBox="0 0 120.67 120.08"><g id="a"/><g id="b"/><g id="c"/><g id="d"/><g id="e"/><g id="f"/><g id="g"/><g id="h"/><g id="i"/><g id="j"/><g id="k"/><g id="l"><g id="m"/><g id="n"/><g id="o"/></g><g id="p"/><g id="q"/><g id="r"/><g id="s"/><g id="t"/><g id="u"/><g id="v"><g id="w"/></g><g id="x"/><g id="y"/><g id="a`"/><g id="aa"/><g id="ab"/><g id="ac"/><g id="ad"/><g id="ae"/><g id="af"/><g id="ag"/><g id="ah"/><g id="ai"/><g id="aj"/><g id="ak"/><g id="al"/><g id="am"/><g id="an"/><g id="ao"/><g id="ap"/><g id="aq"><g id="ar"><g><circle cx="61.03" cy="59.36" r="52.25" style="fill:#245E8A;"/><path d="M82.26,68.9c.33,.3,.32,.67,.31,.86-.04,.37-.95,.45-1.24,.48-.62,.06-1.04-.02-1.64,0-1.73,7.08-6.37,9.74-12.71,12.08-1.17,.43-2.15,1.43-3.18,2.22-2.55,1.98-2.56,2.03-5.06,.14-1.59-1.2-3.25-2.14-5.19-2.74-3.06-.95-5.67-2.71-7.85-5.09-1.7-1.85-2.85-3.99-3.3-6.6-.8,.02-1.46,.07-2.12,.04-.21-.01-.52-.2-.59-.37-.07-.18,.06-.53,.22-.66,1.35-1.18,2.71-2.36,4.12-3.47,.2-.16,.79-.06,1.05,.13,1.27,.93,2.51,1.91,3.72,2.92,.23,.2,.65,.5,.46,.9-.27,.31-.57,.3-.87,.35-.5,.07-1.01,.04-1.52,.06,.12,.9,.65,1.82,1.43,2.69,1.67,1.67,2.9,1.77,5.02,1.61,.69-.05,2.27-.28,3.24-1.4,.52-.59,.71-1.25,.8-1.67l.13-.38c.16-4.14,.32-8.29,.47-12.49-2.47-.25-4.88-.49-7.29-.73-.15-.02-.3-.01-.44-.02-1.58-.14-2.29-1.28-1.66-2.8,.11-.27,.62-.47,.98-.55,1.41-.28,2.84-.5,4.27-.72,1.42-.22,2.84-.44,4.37-.67,.08-2.34,.18-4.64,.21-6.94,0-.26-.35-.59-.62-.77-2.42-1.55-3.45-4.24-2.62-6.92,.83-2.69,3.24-4.43,6.06-4.41,2.69,.02,4.99,1.86,5.67,4.54,.63,2.46-.35,5.02-2.59,6.54-.55,.37-.72,.7-.67,1.35,.16,2.11,.23,4.23,.35,6.43,2.04,.63,6.88,.99,9.38,1.67,1.13,.31,.59,1.84,.54,2.04-.08,.3-.5,.91-.88,.98-2.7,.46-5.92,.53-8.8,.97,.18,3.53,.38,9,.56,12.49,.46,.87,.82,1.49,2.28,2.65,.53,.43,1.92,1.03,3.39,.84,.77-.1,1.35-.46,1.7-.72l.5-.3c1.45-1.19,2.06-1.73,2.29-3.2-.62,.02-.97,.03-1.57,0-.22-.01-.74-.3-.8-.47-.07-.17-.32-.66,.63-1.37,1.46-1.09,1.01-.72,2.48-1.75,.5-.35,1.56-1.05,1.9-.87,1.5,.79,3.42,1.95,4.71,3.12Zm-18.51-28.93c0-1.65-1.22-2.91-2.83-2.86-1.56,.04-2.83,1.32-2.84,2.86-.02,1.62,1.27,2.92,2.85,2.87,1.58-.03,2.82-1.3,2.83-2.87Z" style="fill:#fff;"/></g></g></g></svg>