<?xml version="1.0" encoding="UTF-8"?><svg xmlns="http://www.w3.org/2000/svg" viewBox="0 0 87.32 83.49"><g id="a"/><g id="b"/><g id="c"/><g id="d"/><g id="e"/><g id="f"/><g id="g"/><g id="h"/><g id="i"/><g id="j"/><g id="k"/><g id="l"/><g id="m"/><g id="n"><g><circle cx="43.66" cy="41.74" r="38.57" style="fill:#7b1245;"/><path d="M58.88,48.28c.24,.22,.24,.49,.23,.63-.03,.28-.7,.34-.91,.35-.46,.04-.77-.01-1.21,0-1.27,5.22-4.7,7.19-9.38,8.91-.86,.32-1.59,1.06-2.35,1.64-1.88,1.46-1.89,1.5-3.74,.11-1.17-.89-2.4-1.58-3.83-2.02-2.26-.7-4.19-2-5.79-3.76-1.25-1.36-2.1-2.94-2.43-4.87-.59,.02-1.07,.05-1.56,.03-.16,0-.38-.15-.43-.28-.05-.13,.05-.39,.16-.49,.99-.87,2-1.74,3.04-2.56,.15-.12,.58-.05,.77,.09,.94,.69,1.85,1.41,2.75,2.15,.17,.15,.48,.37,.34,.66-.2,.23-.42,.22-.64,.26-.37,.05-.74,.03-1.12,.04,.09,.66,.48,1.35,1.06,1.98,1.23,1.24,2.14,1.31,3.7,1.19,.51-.04,1.67-.21,2.39-1.04,.38-.44,.52-.92,.59-1.24l.1-.28c.12-3.06,.23-6.12,.35-9.22-1.82-.18-3.6-.36-5.38-.54-.11-.01-.22,0-.33-.02-1.17-.11-1.69-.94-1.23-2.07,.08-.2,.46-.35,.72-.4,1.04-.2,2.1-.37,3.15-.53,1.05-.17,2.1-.32,3.22-.49,.06-1.73,.14-3.43,.15-5.12,0-.19-.26-.44-.46-.57-1.78-1.14-2.54-3.13-1.93-5.11,.61-1.98,2.39-3.27,4.47-3.26,1.98,.02,3.68,1.38,4.19,3.35,.46,1.82-.26,3.71-1.91,4.83-.4,.28-.53,.52-.5,.99,.12,1.56,.17,3.12,.26,4.75,1.5,.47,5.08,.73,6.93,1.24,.84,.23,.44,1.36,.4,1.5-.06,.22-.37,.67-.65,.72-1.99,.34-4.37,.39-6.5,.71,.13,2.61,.28,6.64,.41,9.22,.34,.64,.61,1.1,1.68,1.96,.39,.32,1.42,.76,2.5,.62,.57-.07,1-.34,1.25-.53l.37-.22c1.07-.88,1.52-1.28,1.69-2.36-.46,.02-.71,.02-1.16,0-.16,0-.55-.22-.59-.35-.05-.13-.24-.49,.47-1.01,1.08-.8,.75-.53,1.83-1.29,.37-.26,1.15-.78,1.4-.64,1.1,.58,2.52,1.44,3.47,2.3Zm-13.66-21.35c0-1.22-.9-2.14-2.09-2.11-1.15,.03-2.09,.97-2.1,2.11-.01,1.19,.94,2.15,2.1,2.12,1.16-.02,2.08-.96,2.09-2.12Z" style="fill:#fefafd;"/></g></g><g id="o"/><g id="p"/><g id="q"/><g id="r"/><g id="s"/><g id="t"><g id="u"/></g><g id="v"/><g id="w"/><g id="x"/><g id="y"/><g id="a`"/><g id="aa"/><g id="ab"/><g id="ac"/><g id="ad"/><g id="ae"/><g id="af"/><g id="ag"/><g id="ah"/><g id="ai"/><g id="aj"/><g id="ak"/><g id="al"/><g id="am"/><g id="an"><g id="ao"/><g id="ap"/><g id="aq"/></g><g id="ar"/><g id="as"/><g id="at"><g id="au"/></g><g id="av"/></svg>