<?xml version="1.0" encoding="UTF-8"?><svg xmlns="http://www.w3.org/2000/svg" viewBox="0 0 87.32 83.49"><g id="a"/><g id="b"/><g id="c"/><g id="d"/><g id="e"/><g id="f"/><g id="g"/><g id="h"/><g id="i"/><g id="j"/><g id="k"/><g id="l"/><g id="m"/><g id="n"/><g id="o"/><g id="p"><g id="q"><circle cx="43.66" cy="41.74" r="38.57" style="fill:#7b1245;"/><path d="M62.05,32.72c.36-.74,.35-1.72,.38-2.6,.02-.48-.38-.68-.79-.38-.56,.41-1.09,.86-1.6,1.33-.74,.67-1.46,1.38-2.19,2.07-.05-.05-.11-.11-.16-.16,.24-.35,.51-.69,.73-1.06,.8-1.39,1.75-2.72,2.33-4.21,.48-1.25,.57-2.68,.72-4.05,.04-.35-.29-.95-.59-1.08-.24-.1-.73,.28-1.01,.56-.35,.35-.57,.83-.88,1.22-1.26,1.64-2.44,3.36-3.8,4.88-3.2,3.57-7.05,6.26-10.9,8.96-.36,.25-.71,.51-1.07,.76,.04-.06,.07-.12,.12-.18,0-.99-.14-2.59-.71-3.11-1.15-1.03-.87-2.08-1.17-3.53-.71-3.41-3.57-5.01-6.57-3.78-.79,.32-1.61,.55-2.49,.85-.14,.16-.36,.45-.6,.71-.75,.77-.74,1.45,.03,2.21,.13,.13,.23,.33,.27,.51,.17,.8,.12,1.55-.41,2.22-.14,.18-.2,.56-.13,.8,.2,.66,.56,1.27,.71,1.93,.28,1.26,.24,1.26,1.42,1.18,.46-.03,.98-.23,1.17,.51,.21,.8,.51,1.65-.44,2.21-1.86,1.1-3.1,2.92-3.48,5.04-.09,.5-.25,.72-.4,.96l-1.39,11.87h.03c0,.61,.01,1.12,0,1.62h14.52c-.34-1.26-.61-2.56-.78-3.9-.05-.38-.08-.76-.1-1.14,.07,.04,.13,.08,.2,.13,2.6,1.72,5.86,2.11,8.82,1.15,.34-.11,.69-.22,1.03-.34,.41-.14,.75-.51,1.12-.77l-.08-.38c-.91-.13-1.82-.26-2.83-.41,.29-.18,.51-.3,.72-.44,1.58-1.07,3.17-2.12,4.73-3.22,.41-.29,.76-.73,1.07-1.15,.36-.51,.21-.94-.38-1.08-.32-.08-.68-.1-1-.03-.68,.15-1.35,.37-2.02,.57,.6-.53,1.28-.91,1.86-1.43,1.06-.95,2.1-1.92,3.06-2.99,.58-.65,.76-1.53,.39-2.55-1.57,.28-2.66,1.54-4.03,2.18,.17-.24,.37-.41,.57-.61,1.31-1.3,2.65-2.56,3.9-3.92,.5-.55,.9-1.27,1.16-1.98,.16-.44-.02-1.02-.05-1.54-.42,.11-.89,.13-1.26,.35-.74,.45-1.42,1-2.13,1.52,.63-1.06,1.42-1.92,2.12-2.86,.81-1.09,1.66-2.17,2.26-3.39Z" style="fill:#fefafd;"/></g></g><g id="r"/><g id="s"/><g id="t"/><g id="u"><g id="v"/></g><g id="w"/><g id="x"/><g id="y"/><g id="a`"/><g id="aa"/><g id="ab"/><g id="ac"/><g id="ad"/><g id="ae"/><g id="af"/><g id="ag"/><g id="ah"/><g id="ai"/><g id="aj"/><g id="ak"/><g id="al"/><g id="am"/><g id="an"/><g id="ao"><g id="ap"/><g id="aq"/><g id="ar"/></g><g id="as"/><g id="at"/><g id="au"><g id="av"/></g><g id="aw"/></svg>