<?xml version="1.0" encoding="UTF-8"?><svg xmlns="http://www.w3.org/2000/svg" viewBox="0 0 120.67 120.08"><g id="a"/><g id="b"/><g id="c"/><g id="d"/><g id="e"/><g id="f"/><g id="g"/><g id="h"/><g id="i"/><g id="j"/><g id="k"/><g id="l"><g id="m"/><g id="n"/><g id="o"/></g><g id="p"/><g id="q"/><g id="r"/><g id="s"/><g id="t"/><g id="u"/><g id="v"><g id="w"/></g><g id="x"/><g id="y"/><g id="a`"/><g id="aa"/><g id="ab"/><g id="ac"/><g id="ad"/><g id="ae"/><g id="af"/><g id="ag"/><g id="ah"/><g id="ai"/><g id="aj"/><g id="ak"/><g id="al"/><g id="am"/><g id="an"/><g id="ao"/><g id="ap"/><g id="aq"><g id="ar"><ellipse cx="60.33" cy="58.96" rx="52.49" ry="52.24" style="fill:#F7C325;"/><g><g><path d="M85.62,47.32c.49-1,.48-2.34,.52-3.53,.02-.65-.52-.92-1.07-.52-.76,.55-1.48,1.17-2.18,1.8-1.01,.91-1.99,1.86-2.98,2.8-.07-.07-.14-.15-.22-.22,.33-.48,.7-.93,.99-1.44,1.09-1.88,2.38-3.68,3.17-5.7,.66-1.69,.78-3.64,.98-5.49,.05-.48-.4-1.29-.8-1.46-.32-.14-1,.38-1.38,.76-.47,.47-.78,1.12-1.19,1.66-1.71,2.22-3.31,4.55-5.17,6.62-4.35,4.84-9.6,8.48-14.83,12.14-3.38,2.36-6.73,4.8-9.94,7.41-2.46,2-3.88,4.75-4.46,8.09-.3,1.75-.78,3.47-1.28,5.18,.81-.22,1.64-.37,2.48-.43,4.06-.28,7.95,1.62,11.48,3.95,3.53,2.33,7.98,2.86,12.01,1.56,.47-.15,.93-.3,1.4-.46,.56-.19,1.02-.69,1.53-1.05l-.1-.52c-1.24-.18-2.48-.35-3.85-.55,.4-.24,.69-.41,.98-.6,2.15-1.45,4.31-2.87,6.43-4.36,.56-.4,1.04-.98,1.46-1.56,.5-.69,.28-1.27-.51-1.46-.44-.11-.93-.14-1.36-.04-.93,.2-1.84,.51-2.75,.77,.82-.72,1.75-1.23,2.53-1.94,1.44-1.28,2.86-2.61,4.16-4.05,.79-.88,1.04-2.07,.53-3.45-2.13,.38-3.62,2.08-5.49,2.95,.23-.32,.51-.56,.77-.82,1.78-1.76,3.61-3.47,5.31-5.31,.68-.74,1.22-1.71,1.58-2.69,.22-.6-.03-1.39-.07-2.09-.58,.15-1.22,.18-1.71,.48-1.01,.61-1.94,1.36-2.9,2.05,.85-1.43,1.93-2.6,2.88-3.88,1.1-1.47,2.26-2.95,3.07-4.6Z" style="fill:#fff;"/><path d="M59.4,77.13c-.09-.07-.18-.14-.27-.2,.07-.15,.14-.31,.21-.46-.33-1.5-.41-3.05-.24-4.59-.07,.39-.13,.77-.19,1.17,.08-.64,.17-1.28,.25-1.91,.15-.52,.3-1.64,.36-1.77,.02-.72,.05-1.43,.02-2.15-.07-1.98-.27-3.96-.35-5.94-.1-2.44-.37-4.05,.97-5.77,0-1.34-.18-3.51-.97-4.21-1.56-1.39-1.18-2.82-1.59-4.78-.97-4.62-4.86-6.79-8.94-5.12-1.07,.44-2.2,.75-3.39,1.15-.19,.22-.48,.61-.82,.96-1.03,1.05-1.01,1.96,.04,2.99,.18,.17,.32,.44,.37,.69,.24,1.08,.16,2.09-.56,3.01-.2,.25-.27,.76-.18,1.08,.27,.89,.76,1.72,.96,2.62,.38,1.7,.33,1.71,1.94,1.6,.63-.04,1.34-.31,1.6,.69,.28,1.08,.69,2.24-.61,3-2.53,1.5-4.22,3.95-4.73,6.83-.12,.67-.33,.98-.55,1.3l-1.89,16.08h.04c0,.83,.02,1.51,0,2.19h19.77c-.46-1.71-.83-3.47-1.06-5.28-.14-1.05-.16-2.11-.2-3.17Z" style="fill:#fff;"/></g><path d="M57.29,59.41c-.11,.09-.22,.18-.33,.28,.1-.03,.27-.19,.48-.4-.05,.04-.11,.08-.15,.12Z"/><path d="M56,76.94c.09,.06,.18,.13,.27,.2,0-.24-.02-.48-.03-.72-.08,.17-.16,.35-.24,.52Z"/></g></g></g></svg>