<?xml version="1.0" encoding="UTF-8"?><svg xmlns="http://www.w3.org/2000/svg" viewBox="0 0 120.67 120.08"><g id="a"/><g id="b"/><g id="c"/><g id="d"/><g id="e"/><g id="f"/><g id="g"/><g id="h"/><g id="i"/><g id="j"/><g id="k"/><g id="l"><g id="m"/><g id="n"/><g id="o"/></g><g id="p"/><g id="q"/><g id="r"/><g id="s"/><g id="t"/><g id="u"/><g id="v"><g id="w"/></g><g id="x"/><g id="y"/><g id="a`"/><g id="aa"/><g id="ab"/><g id="ac"/><g id="ad"/><g id="ae"/><g id="af"/><g id="ag"/><g id="ah"/><g id="ai"/><g id="aj"/><g id="ak"/><g id="al"/><g id="am"/><g id="an"/><g id="ao"/><g id="ap"/><g id="aq"><g><ellipse cx="60.7" cy="59.36" rx="52.46" ry="52.16" style="fill:#245E8A;"/><g><polyline points="85.8 48.73 81.79 44.53 65.07 60.32 60.89 64.28 54.82 57.93 54.45 57.54 51.55 54.51 51.16 54.09 41.08 43.56 36.86 47.55 48.92 60.17 49.32 60.58 51.57 62.94 51.94 63.33 60.72 72.52 64.95 68.53" style="fill:#fff;"/><polygon points="48.95 61.59 48.55 61.17 39.7 85.24 40.06 85.37 40.19 85.42 40.2 85.37 40.21 85.35 51.46 64.23 51.09 63.84 48.95 61.59" style="fill:#fff;"/><path d="M51.84,53.72l3.04,3.01,.38,.38,9.22-17.3,.13-.24h0c.3-.59,.47-1.24,.47-1.94,0-2.37-1.91-4.3-4.28-4.34-.03,0-.06,0-.09,0s-.06,0-.09,0c-2.37,.05-4.28,1.97-4.28,4.34,0,.56,.11,1.09,.3,1.58l-5.19,14.12,.4,.4Z" style="fill:#fff;"/><polygon points="71.5 63.73 73.07 62.3 81.65 85.33 81.32 85.38 81.18 85.38 81.18 85.38 81.17 85.37 70.24 64.86 70.86 64.31 71.5 63.73" style="fill:#fff;"/><g><path d="M66.55,57.86l3.7-3.68-.31-.84-.06-.16-.47-1.29h0l-4.66-12.68c.19-.49,.3-1.02,.3-1.58,0-2.37-1.91-4.3-4.28-4.34-.03,0-.06,0-.09,0s-.06,0-.09,0c-2.37,.05-4.28,1.97-4.28,4.34,0,.7,.18,1.36,.47,1.94h0l.13,.24,8.4,15.76,.52,.98,.3,.56" style="fill:#fff;"/><polyline points="69.41 51.9 69.41 51.9 69.88 53.19" style="fill:#fff;"/></g></g></g></g></svg>