<?xml version="1.0" encoding="UTF-8"?><svg xmlns="http://www.w3.org/2000/svg" viewBox="0 0 87.32 83.49"><g id="a"/><g id="b"/><g id="c"/><g id="d"/><g id="e"/><g id="f"/><g id="g"/><g id="h"/><g id="i"/><g id="j"/><g id="k"/><g id="l"/><g id="m"/><g id="n"/><g id="o"/><g id="p"/><g id="q"/><g id="r"/><g id="s"/><g id="t"><g id="u"/></g><g id="v"/><g id="w"/><g id="x"/><g id="y"/><g id="a`"/><g id="aa"/><g id="ab"/><g id="ac"/><g id="ad"/><g id="ae"/><g id="af"/><g id="ag"/><g id="ah"/><g id="ai"/><g id="aj"><g><circle cx="43.66" cy="41.74" r="38.57" style="fill:#7b1245;"/><g><polyline points="61.85 33.82 58.9 30.71 46.62 42.39 43.54 45.32 39.08 40.62 38.8 40.33 36.67 38.09 36.38 37.79 28.98 29.99 25.87 32.95 34.74 42.28 35.03 42.58 36.69 44.33 36.96 44.62 43.42 51.41 46.52 48.46" style="fill:#fefafd;"/><polygon points="34.76 43.33 34.47 43.02 27.96 60.82 28.22 60.91 28.32 60.95 28.33 60.91 28.33 60.9 36.61 45.28 36.33 44.99 34.76 43.33" style="fill:#fefafd;"/><path d="M36.89,37.51l2.23,2.23,.28,.28,6.78-12.79,.09-.18h0c.22-.44,.35-.92,.35-1.44,0-1.75-1.4-3.18-3.15-3.21-.02,0-.04,0-.06,0s-.04,0-.06,0c-1.75,.03-3.15,1.46-3.15,3.21,0,.41,.08,.8,.22,1.17l-3.82,10.44,.29,.29Z" style="fill:#fefafd;"/><polygon points="51.34 44.91 52.5 43.85 58.8 60.88 58.56 60.92 58.45 60.92 58.45 60.92 58.45 60.91 50.42 45.75 50.87 45.34 51.34 44.91" style="fill:#fefafd;"/><g><path d="M47.7,40.57l2.72-2.72-.23-.62-.04-.11-.35-.95h0l-3.43-9.38c.14-.36,.22-.75,.22-1.17,0-1.75-1.4-3.18-3.15-3.21-.02,0-.04,0-.06,0s-.04,0-.06,0c-1.74,.03-3.15,1.46-3.15,3.21,0,.52,.13,1,.35,1.44h0l.09,.18,6.17,11.65,.38,.73,.22,.42" style="fill:#fefafd;"/><polyline points="49.8 36.16 49.8 36.16 50.15 37.12" style="fill:#fefafd;"/></g></g></g></g><g id="ak"/><g id="al"/><g id="am"/><g id="an"><g id="ao"/><g id="ap"/><g id="aq"/></g><g id="ar"/><g id="as"/><g id="at"><g id="au"/></g><g id="av"/></svg>