<?xml version="1.0" encoding="UTF-8"?><svg xmlns="http://www.w3.org/2000/svg" viewBox="0 0 120.67 120.08"><g id="a"/><g id="b"/><g id="c"/><g id="d"/><g id="e"/><g id="f"/><g id="g"/><g id="h"/><g id="i"/><g id="j"/><g id="k"/><g id="l"><g id="m"/><g id="n"/><g id="o"/></g><g id="p"/><g id="q"/><g id="r"/><g id="s"/><g id="t"/><g id="u"/><g id="v"><g id="w"/></g><g id="x"/><g id="y"/><g id="a`"/><g id="aa"/><g id="ab"/><g id="ac"/><g id="ad"/><g id="ae"/><g id="af"/><g id="ag"/><g id="ah"/><g id="ai"/><g id="aj"/><g id="ak"/><g id="al"/><g id="am"/><g id="an"/><g id="ao"/><g id="ap"/><g id="aq"><g><ellipse cx="60.5" cy="59.44" rx="52.26" ry="52.17" style="fill:#E96A1D;"/><path d="M61.45,69.96c1.83,.94-.26,1.84-.26,1.84-.25,.11-.42,.09-.48,.23-.16,.33,.47,1.16,1.28,1.42,.94,.3,1.8-.26,1.87-.31,.48-.33,.6-.7,.74-.65,.23,.08-.03,1.11-.2,2.69-.23,2.13-.04,2.83-.68,3.57-.13,.16-.54,.62-1.11,.65-.52,.03-.73-.34-1.36-.62-.66-.3-1.59-.44-2.33-.17-.99,.36-.74,1.11-1.96,1.76-.44,.23-.49,.14-1.85,.71-.82,.34-1.03,.47-1.19,.71-.27,.39-.12,.62-.51,1.25-.17,.27-.29,.37-.37,.65-.1,.32-.08,.65-.03,.79,.19,.59,1.65,.51,3.43,.6,2.32,.12,4.89,.5,5.88-.14,.06-.04,.23-.15,.48-.26,.55-.21,1-.16,1.48-.14,.3,0,1.07,.03,1.67-.14,.91-.26,.93-.8,1.73-1.25,1.46-.81,2.85,.17,3.29-.45,.38-.53-.57-1.33-.82-2.66-.14-.74-.06-1.58,2.1-5.24,1.63-2.76,2.83-4.4,3.15-6.83,.08-.59,.1-1.23-.28-1.6-.6-.59-1.49,.16-3.62,.04-1.01-.06-1.17-.25-3.24-.47-.61-.07-1.11-.1-1.45-.13,.84-.41,1.28-.6,1.49-.68,.04-.01,.1-.04,.17-.09,.24-.18,.36-.37,.38-.5,.06-.45,.04-.36,.04-.42,0-.1-.13-.37,.12-.58,.19-.16,.66,.28,.85,.13,.3-.24-.51-1.57-.23-1.79,.16-.12,.52,.21,.67,.07,.17-.15-.18-.66,0-.84,.16-.16,.48-.07,.71-.04s.32,0,.4-.22c.05-.13,.14-.2,.15-.4s-.41-.81-.4-1.2c.02-.84,2.17-1.36,2.88-1.62,3.76-1.34,5.19-8.6,4.9-13.39-.14-2.24-.3-4.87-2.26-7.14-1.51-1.76-3.36-2.45-5.45-3.23-1.52-.57-2.42-.66-3.28-.38-.25,.08-1.71,.59-1.96,1.83-.13,.65,.05,1.57,.68,1.87,.6,.29,.69,.11,.86-.1,.09-.11,.06-.28,0-.54-.07-.25,.29-.67,.64-.68,.43-.01,.73,.57,.81,.72,.77,1.48-.69,3.74-.94,4.12-.22,.35-.41,.87-3.01,3.32-3.96,3.73-3.5,3.24-3.57,3.32-.64,.73-1.28,1.09-1.81,.97-.6-.14-1.08-1.37-1.08-1.37l-.08-.38-.13-1.57h0s.51-.68,.81-1.45c.22-.55,.4-1.03,.21-1.49-.13-.32-.35-.4-.34-.64,.02-.33,.44-.51,.77-.72,.78-.5,1.4-1.4,1.49-2.13,.09-.69-.31-1.21-1.11-2.25-.61-.8-1.2-1.58-2.26-1.87-.4-.11-.99-.27-1.53,0-.66,.33-.83,1.1-1.28,1.06-.19-.02-.19-.15-.5-.34-.52-.32-1.08-.3-1.36-.29-.63,.03-1.1,.26-1.37,.39-.66,.33-1,.73-1.12,.64-.14-.11,.27-.63,.04-.99-.12-.18-.36-.26-.54-.24-.42,.03-.6,.53-.62,.57-.05,.14-.04,.23-.02,.55,.05,1.05-.02,1.19-.11,1.25-.14,.11-.26-.04-.47,.04-.22,.09-.31,.34-.53,1.32-.21,.92-.24,1.21-.11,1.3,.14,.08,.34-.12,.49-.02,.09,.06,.08,.18,.09,.6,0,.64,.05,.87,.09,1.04,.05,.2,.06,.15,.09,.3,.1,.51-.06,1.04-.19,1.49-.06,.21-.12,.36-.04,.45,.09,.11,.25,0,.45,.11,.07,.04,.17,.2,.36,.51,0,0,0,.01,.17,.28h0s.16-.02,.17,0c0,.01-.06,.03-.11,.08-.08,.08-.12,.24-.06,.34,.07,.13,.26,.1,.31,.23,.03,.06,0,.12,0,.16-.06,.23-.06,.69,.04,.87,.18,.35,1.07,.31,2.21,.26,.36-.02,.47-.04,.62,.04,.56,.26,.64,1.21,.67,1.71,.06,.94,.18,2.84-1.09,4.36-1.23,1.47-2.25,.76-3.96,2.46-.47,.46-1.64,1.64-1.65,3.17,0,.75,.27,.93,.6,2.18,.41,1.6,.2,2.22,.37,3.2,.44,2.55,2.88,4.16,3.78,4.76,1.8,1.2,3.48,1.46,5.25,1.73,2.08,.32,4.02,.62,4.37-.06" style="fill:#fff;"/></g></g></svg>