<?xml version="1.0" encoding="UTF-8"?><svg xmlns="http://www.w3.org/2000/svg" viewBox="0 0 87.32 83.49"><g id="a"/><g id="b"/><g id="c"/><g id="d"/><g id="e"/><g id="f"/><g id="g"/><g id="h"/><g id="i"/><g id="j"/><g id="k"/><g id="l"/><g id="m"/><g id="n"/><g id="o"/><g id="p"/><g id="q"/><g id="r"/><g id="s"/><g id="t"><g id="u"/></g><g id="v"/><g id="w"/><g id="x"/><g id="y"/><g id="a`"><g><ellipse cx="43.66" cy="41.74" rx="38.31" ry="38.57" style="fill:#7b1245;"/><path d="M44.35,49.52c1.34,.69-.19,1.36-.19,1.36-.18,.08-.3,.07-.35,.17-.12,.24,.34,.86,.94,1.05,.69,.22,1.32-.2,1.37-.23,.35-.24,.44-.52,.54-.48,.17,.06-.02,.82-.15,1.99-.17,1.57-.03,2.09-.5,2.64-.1,.12-.4,.46-.81,.48-.38,.02-.54-.25-1-.46-.48-.22-1.16-.32-1.71-.13-.72,.26-.54,.82-1.44,1.3-.32,.17-.36,.11-1.35,.52-.6,.25-.75,.35-.87,.52-.2,.29-.09,.46-.37,.92-.12,.2-.21,.28-.27,.48-.07,.24-.06,.48-.02,.59,.14,.43,1.21,.37,2.52,.44,1.7,.09,3.59,.37,4.31-.1,.04-.03,.17-.11,.35-.19,.4-.16,.73-.11,1.08-.1,.22,0,.78,.02,1.23-.1,.67-.19,.68-.59,1.27-.92,1.07-.6,2.09,.12,2.41-.34,.28-.39-.42-.98-.6-1.97-.1-.54-.04-1.17,1.54-3.88,1.19-2.04,2.08-3.25,2.31-5.05,.06-.44,.07-.91-.21-1.18-.44-.44-1.09,.12-2.65,.03-.74-.04-.86-.18-2.37-.35-.45-.05-.82-.08-1.06-.09,.62-.3,.94-.45,1.09-.5,.03-.01,.07-.03,.12-.06,.17-.13,.27-.27,.28-.37,.04-.33,.03-.27,.03-.31,0-.07-.1-.27,.09-.43,.14-.12,.49,.21,.62,.09,.22-.17-.38-1.16-.17-1.32,.12-.09,.38,.15,.49,.05,.12-.11-.13-.49,0-.62,.12-.12,.35-.05,.52-.03s.23,0,.29-.16c.04-.1,.1-.15,.11-.29s-.3-.6-.29-.88c.02-.62,1.59-1.01,2.11-1.19,2.75-.99,3.81-6.36,3.59-9.9-.1-1.66-.22-3.6-1.65-5.28-1.11-1.3-2.46-1.81-4-2.39-1.12-.42-1.77-.49-2.4-.28-.18,.06-1.25,.43-1.44,1.35-.1,.48,.04,1.16,.5,1.38,.44,.21,.5,.08,.63-.07,.06-.08,.05-.21,0-.4-.05-.19,.21-.49,.47-.5,.31-.01,.53,.42,.59,.53,.57,1.09-.5,2.76-.69,3.05-.16,.26-.3,.64-2.21,2.45-2.91,2.76-2.57,2.4-2.62,2.45-.47,.54-.94,.81-1.33,.72-.44-.1-.79-1.01-.79-1.01l-.06-.28-.09-1.16h0s.37-.5,.59-1.07c.16-.41,.3-.76,.16-1.1-.1-.24-.26-.29-.25-.47,.01-.24,.32-.38,.56-.53,.57-.37,1.03-1.04,1.09-1.57,.06-.51-.23-.89-.81-1.67-.45-.59-.88-1.17-1.65-1.38-.3-.08-.73-.2-1.12,0-.48,.25-.61,.82-.94,.79-.14-.01-.14-.11-.37-.25-.38-.24-.79-.22-1-.21-.46,.02-.81,.19-1.01,.29-.48,.25-.73,.54-.82,.47-.1-.08,.2-.46,.03-.73-.09-.13-.26-.19-.4-.18-.31,.02-.44,.39-.45,.42-.04,.1-.03,.17-.02,.41,.04,.78-.01,.88-.08,.93-.11,.08-.19-.03-.34,.03-.16,.06-.23,.25-.39,.97-.15,.68-.18,.9-.08,.96,.1,.06,.25-.09,.36-.02,.07,.05,.06,.13,.06,.44,0,.47,.03,.64,.06,.77,.03,.15,.04,.11,.06,.22,.07,.38-.04,.77-.14,1.1-.05,.15-.09,.26-.03,.33,.07,.08,.18,0,.33,.08,.05,.03,.12,.14,.27,.38l.12,.2h0s.12-.02,.12,0c0,.01-.04,.02-.08,.06-.06,.06-.09,.18-.05,.25,.05,.1,.19,.07,.23,.17,.02,.05,0,.09,0,.12-.05,.17-.04,.51,.03,.64,.14,.26,.78,.23,1.62,.19,.26-.01,.34-.03,.45,.03,.41,.19,.47,.9,.49,1.26,.04,.7,.13,2.1-.8,3.22-.9,1.09-1.65,.56-2.9,1.82-.34,.34-1.2,1.21-1.21,2.35,0,.55,.2,.69,.44,1.61,.3,1.18,.14,1.64,.27,2.37,.33,1.88,2.11,3.08,2.77,3.52,1.32,.89,2.55,1.08,3.85,1.28,1.52,.24,2.95,.46,3.2-.04" style="fill:#fff;"/></g></g><g id="aa"/><g id="ab"/><g id="ac"/><g id="ad"/><g id="ae"/><g id="af"/><g id="ag"/><g id="ah"/><g id="ai"/><g id="aj"/><g id="ak"/><g id="al"/><g id="am"/><g id="an"><g id="ao"/><g id="ap"/><g id="aq"/></g><g id="ar"/><g id="as"/><g id="at"><g id="au"/></g><g id="av"/></svg>