<?xml version="1.0" encoding="UTF-8"?><svg xmlns="http://www.w3.org/2000/svg" viewBox="0 0 120.67 120.08"><g id="a"/><g id="b"/><g id="c"/><g id="d"/><g id="e"/><g id="f"/><g id="g"/><g id="h"/><g id="i"/><g id="j"/><g id="k"/><g id="l"><g id="m"/><g id="n"/><g id="o"/></g><g id="p"/><g id="q"/><g id="r"/><g id="s"/><g id="t"/><g id="u"/><g id="v"><g id="w"/></g><g id="x"/><g id="y"/><g id="a`"/><g id="aa"/><g id="ab"/><g id="ac"/><g id="ad"/><g id="ae"/><g id="af"/><g id="ag"/><g id="ah"/><g id="ai"/><g id="aj"/><g id="ak"/><g id="al"/><g id="am"/><g id="an"/><g id="ao"/><g id="ap"/><g id="aq"><g><ellipse cx="60.96" cy="59.46" rx="52.18" ry="52.15" style="fill:#245E8A;"/><path d="M59.06,70.41c-.54,.12-1.31,.81-1.86,1.69-.79,1.24-1.08,2.63-.81,3.8,.01,.06,.03,.14,.04,.23,0,.05,.02,.1,.03,.16h0c.01,.06,.02,.12,.04,.18,0,.02,0,.04,.01,.06,.01,.05,.02,.1,.04,.15,0,.03,.01,.05,.02,.08,.01,.05,.03,.1,.04,.15,0,.03,.02,.07,.03,.1,.02,.05,.03,.1,.05,.15,.01,.04,.03,.07,.04,.11,.02,.05,.04,.11,.06,.16,.02,.04,.04,.08,.06,.12,.03,.06,.05,.11,.08,.17,.02,.04,.05,.09,.07,.13,.03,.06,.06,.12,.1,.18,.03,.05,.05,.09,.08,.14,.04,.06,.08,.12,.12,.18,.03,.05,.07,.1,.1,.15,.04,.06,.09,.13,.14,.19,.04,.05,.08,.1,.12,.15,.05,.06,.11,.13,.16,.2,.04,.05,.09,.1,.13,.16,.06,.07,.13,.14,.19,.2,.05,.05,.1,.1,.15,.16,.07,.07,.15,.14,.23,.21,.06,.05,.11,.1,.17,.15,.08,.07,.18,.15,.27,.22,.06,.05,.12,.1,.18,.15,.1,.08,.21,.16,.33,.24,.06,.04,.11,.09,.17,.13,.01,0,.03,.02,.04,.03v-10.43h-.04c-.19,.05-.38,.1-.58,.14Z" style="fill:none;"/><path d="M62.28,70.38h0v10.21h.01c.07-.06,.14-.11,.21-.17,.09-.07,.18-.14,.26-.2,.06-.05,.12-.11,.18-.16,.08-.07,.16-.14,.23-.2,.06-.05,.11-.11,.16-.16,.07-.07,.14-.13,.2-.2,.05-.05,.1-.11,.15-.16,.06-.06,.12-.13,.17-.19,.05-.05,.09-.1,.13-.16,.05-.06,.1-.12,.15-.18,.04-.05,.08-.1,.11-.15,.04-.06,.09-.12,.12-.18,.03-.05,.07-.1,.1-.15,.04-.06,.07-.11,.1-.17,.03-.05,.06-.1,.08-.14,.03-.05,.06-.11,.09-.16,.02-.05,.05-.09,.07-.14,.02-.05,.05-.1,.07-.15,.02-.04,.04-.09,.06-.13,.02-.05,.04-.1,.06-.14,.02-.04,.03-.08,.04-.12,.02-.05,.03-.09,.05-.14,.01-.04,.02-.07,.03-.11,.01-.04,.02-.09,.04-.13,0-.03,.02-.07,.03-.1,.01-.04,.02-.08,.03-.12,0-.03,.01-.06,.02-.08,0-.04,.02-.07,.02-.11,0-.02,0-.05,.01-.07,.01-.05,.02-.1,.03-.15,.02-.09,.03-.17,.04-.23,.27-1.18-.02-2.56-.81-3.8-.11-.18-.24-.35-.37-.51-.11-.13-.21-.26-.33-.38h-.01c-.2-.22-.41-.4-.6-.54-.06-.04-.11-.05-.17-.08-.13-.07-.26-.16-.38-.18-.13-.03-.26-.06-.38-.09Z" style="fill:none;"/><path d="M62.28,67.9l.03-.02c.21-.13,.4-.28,.58-.43,.02-.02,.04-.04,.06-.05,.18-.16,.35-.33,.51-.52,.03-.03,.06-.07,.09-.1,.16-.19,.32-.39,.47-.61,.03-.04,.05-.08,.08-.11,.16-.23,.32-.47,.49-.74,1.77-2.8,.88-6.22,.87-6.25-.08-.28-.18-.54-.29-.79-.04-.09-.08-.16-.12-.24-.08-.16-.15-.32-.24-.47-.05-.09-.11-.17-.16-.26-.08-.13-.16-.26-.24-.37-.06-.09-.13-.17-.19-.25-.08-.11-.17-.22-.25-.32-.07-.08-.14-.15-.2-.23-.09-.09-.17-.19-.26-.27-.07-.07-.14-.14-.21-.2-.09-.08-.17-.16-.26-.24-.07-.06-.14-.12-.21-.18-.08-.07-.17-.14-.25-.21-.07-.06-.15-.12-.22-.17-.03-.02-.05-.04-.08-.06v13.12Z" style="fill:none;"/><path d="M59.65,54.67h0c-.47,.38-1.05,.83-1.61,1.42-.04,.04-.07,.09-.11,.14-.52,.57-1.01,1.24-1.37,2.07-.11,.26-.21,.53-.3,.82,0,.03-.9,3.45,.87,6.25,.11,.17,.21,.33,.31,.48,.04,.05,.07,.1,.11,.15,.07,.1,.14,.2,.2,.29,.04,.06,.08,.11,.13,.17,.06,.08,.13,.16,.19,.24,.04,.05,.09,.11,.13,.16,.06,.07,.13,.14,.19,.21,.05,.05,.09,.1,.14,.15,.07,.07,.14,.13,.21,.19,.05,.04,.1,.09,.15,.13,.08,.06,.16,.13,.24,.19,.05,.03,.09,.07,.14,.1,.1,.07,.21,.14,.33,.21,.03,.02,.05,.04,.08,.05h0v-13.44h-.02v.02Z" style="fill:none;"/><polygon points="60.56 82.02 60.56 82.02 60.75 82.13 60.56 82.02 60.56 82.02" style="fill:none;"/><path d="M68.73,38.87h0l-.05-.03,.04,.03Z" style="fill:none;"/><path d="M53,38.82h0s.1-.07,.15-.1c-.05,.03-.1,.07-.15,.1Z" style="fill:none;"/><path d="M62.28,53.04c.48-.2,.94-.36,1.47-.53,.72-.23,1.54-.49,2.6-.98,3.67-1.68,6.67-5.92,5.32-10.1-.31-.97-1.03-1.89-2.12-2.75h0l-.03-.03c-.03-.62-.61-1.41-1.54-2.03-1.23-.83-2.47-.98-2.9-.36-.23,.33-.17,.8,.15,1.32,.27,.43,.72,.87,1.26,1.24,.7,.47,1.43,.74,2.01,.74,.01,0,.03,0,.04,0,1,.74,1.63,1.5,1.88,2.27,1.12,3.49-1.47,7.07-4.63,8.51-.98,.45-1.76,.7-2.46,.92-.36,.12-.72,.24-1.07,.37v-.02l-.33,.14-.12,.05h0c-.07,.03-.13,.06-.2,.09-.24,.11-.48,.22-.71,.35h-.01c-.19-.1-.38-.2-.56-.29-.06-.03-.12-.07-.19-.1h0l-.13-.06-.33-.15v.02c-.43-.17-.86-.32-1.31-.47l-.1,.31,.09-.31c-.69-.22-1.47-.47-2.45-.92-3.15-1.45-5.75-5.03-4.63-8.51,.25-.77,.88-1.53,1.88-2.27,.01,0,.03,0,.04,0,.57,0,1.31-.27,2.01-.74,.54-.36,.99-.8,1.26-1.24,.32-.51,.38-.98,.15-1.32-.23-.33-.68-.46-1.28-.35-.51,.09-1.08,.34-1.62,.71-.92,.62-1.51,1.41-1.54,2.03l-.03,.02h0c-1.09,.86-1.81,1.78-2.12,2.76-1.34,4.18,1.65,8.42,5.32,10.1,1.05,.48,1.87,.75,2.6,.98,.58,.19,1.1,.36,1.65,.61-.25,.17-.5,.36-.78,.58-1.14,.9-3.04,2.4-3.84,5.11-.01,.04-1.1,3.95,1.02,7.31,.86,1.35,1.64,2.33,2.84,3.05-.03,0-.05,.01-.08,.02-.9,.19-1.93,1.06-2.69,2.27-.97,1.53-1.33,3.28-.98,4.8,.01,.04,.02,.1,.03,.16,.15,.86,.62,3.44,4.39,5.8h.02l-.02,.02,.15,.09v.54h0v.72s-.04,.02-.07,.03c.02,0,.04-.02,.07-.03v2.37h.65v-2.67h0c.2-.09,.39-.19,.58-.29h0c.23,.12,.47,.23,.71,.35h0v2.61h.65v-2.31h0v-.73h0v-.69h.01v-.02h0c3.68-2.36,4.13-4.82,4.29-5.75,.01-.06,.02-.12,.03-.16,.35-1.51,0-3.26-.98-4.8-.76-1.2-1.79-2.07-2.69-2.27-.07-.01-.13-.03-.2-.05,1.27-.73,2.07-1.73,2.96-3.13,2.1-3.32,1.03-7.27,1.02-7.31-.8-2.71-2.7-4.21-3.84-5.11-.21-.17-.41-.31-.6-.45h0v-.1Zm6.45-14.17l-.04-.03,.05,.03h0Zm-15.73-.06s.1-.07,.15-.1c-.05,.03-.1,.07-.15,.1h0Zm2.9,37.95s0-.03-.01-.05c0,.01,0,.03,.01,.05h0Zm3.78-6.5v10.43s-.03-.02-.04-.03c-.06-.04-.12-.09-.17-.13-.11-.08-.22-.16-.33-.24-.06-.05-.12-.1-.18-.15-.09-.08-.18-.15-.27-.22-.06-.05-.11-.1-.17-.15-.08-.07-.15-.14-.23-.21-.05-.05-.1-.1-.15-.16-.07-.07-.13-.14-.19-.2-.05-.05-.09-.1-.13-.16-.06-.07-.11-.13-.16-.2-.04-.05-.08-.1-.12-.15-.05-.06-.09-.13-.14-.19-.03-.05-.07-.1-.1-.15-.04-.06-.08-.12-.12-.18-.03-.05-.06-.09-.08-.14-.03-.06-.07-.12-.1-.18-.02-.04-.05-.09-.07-.13-.03-.06-.05-.11-.08-.17-.02-.04-.04-.08-.06-.12-.02-.05-.04-.11-.06-.16-.01-.04-.03-.08-.04-.11-.02-.05-.04-.1-.05-.15-.01-.03-.02-.07-.03-.1-.02-.05-.03-.1-.04-.15,0-.03-.02-.05-.02-.08-.01-.05-.03-.1-.04-.15,0-.02,0-.04-.01-.06-.01-.06-.03-.12-.04-.18h0c-.01-.06-.02-.12-.03-.16-.02-.09-.03-.17-.04-.23-.27-1.18,.02-2.56,.81-3.8,.56-.88,1.32-1.57,1.86-1.69,.2-.04,.4-.09,.58-.13h.04Zm0-2.19h0s-.05-.04-.08-.06c-.11-.07-.22-.14-.33-.21-.05-.03-.09-.07-.14-.1-.08-.06-.16-.12-.24-.19-.05-.04-.1-.09-.15-.13-.07-.06-.14-.13-.21-.19-.05-.05-.09-.1-.14-.15-.06-.07-.13-.14-.19-.21-.05-.05-.09-.1-.13-.16-.06-.08-.13-.16-.19-.24-.04-.05-.08-.11-.13-.17-.07-.09-.14-.19-.2-.29-.04-.05-.07-.1-.11-.15-.1-.15-.21-.31-.31-.48-1.77-2.79-.88-6.22-.87-6.25,.08-.29,.18-.56,.3-.82,.36-.84,.86-1.51,1.37-2.07,.04-.04,.07-.1,.11-.14,.56-.59,1.14-1.05,1.61-1.42h.01l.02-.03v13.45Zm.52,14.48h0Zm.36-.55h0l.19,.1-.19-.1Zm1.06-11.81v10.82c-.09,.06-.18,.12-.29,.18l-.05,.03c-.12,.07-.25,.14-.38,.22-.2-.11-.39-.22-.58-.34v-11.03h0c.15-.04,.3-.09,.45-.13h0c.14,.05,.29,.09,.45,.14l.06,.02c.11,.03,.22,.06,.33,.09h0Zm-.84-.93h0Zm.84-1.03c-.09,.04-.17,.08-.27,.12-.03,.01-.07,.03-.1,.04-.15,.06-.3,.12-.47,.17-.16-.06-.31-.12-.46-.18v-14.25s.06-.04,.1-.07c.12-.09,.25-.17,.37-.25,.03-.02,.07-.04,.1-.07,.04,.02,.07,.05,.11,.07,.16,.11,.33,.22,.5,.35,.04,.03,.07,.05,.11,.08v13.97Zm0-14.78l-.03-.02h-.01l-.04-.04,.08,.06h0Zm0-.85l-.06,.03h0l.06-.03h0Zm3.78,19.77h0Zm-2.37-1.75c.06,.03,.11,.04,.17,.08,.2,.14,.4,.31,.6,.52h.01c.11,.13,.22,.26,.33,.39,.13,.16,.25,.33,.37,.51,.79,1.24,1.08,2.63,.81,3.8-.01,.06-.03,.14-.04,.23,0,.04-.02,.09-.03,.15,0,.02,0,.05-.01,.07,0,.04-.01,.07-.02,.11,0,.03-.01,.06-.02,.08,0,.04-.02,.08-.03,.12,0,.03-.02,.06-.03,.1-.01,.04-.02,.08-.04,.13-.01,.04-.02,.07-.03,.11-.01,.04-.03,.09-.05,.14-.01,.04-.03,.08-.04,.12-.02,.05-.04,.1-.06,.14-.02,.04-.04,.09-.06,.13-.02,.05-.05,.1-.07,.15-.02,.04-.04,.09-.07,.14-.03,.05-.06,.11-.09,.16-.03,.05-.05,.09-.08,.14-.03,.06-.07,.11-.1,.17-.03,.05-.06,.1-.1,.15-.04,.06-.08,.12-.12,.18-.04,.05-.07,.1-.11,.15-.05,.06-.1,.12-.15,.18-.04,.05-.08,.1-.13,.16-.05,.06-.11,.13-.17,.19-.05,.05-.1,.1-.15,.16-.06,.07-.13,.13-.2,.2-.05,.05-.11,.11-.16,.16-.07,.07-.15,.13-.23,.2-.06,.05-.12,.11-.18,.16-.08,.07-.17,.14-.26,.2-.07,.05-.13,.11-.21,.16h-.01v-10.21h0c.12,.03,.25,.06,.38,.08,.11,.02,.25,.11,.38,.18Zm-.68-15.8c.07,.06,.14,.11,.22,.17,.08,.07,.17,.14,.25,.21,.07,.06,.14,.12,.21,.18,.09,.08,.17,.16,.26,.24,.07,.07,.14,.13,.21,.2,.09,.09,.17,.18,.26,.27,.07,.07,.14,.15,.2,.23,.09,.1,.17,.21,.25,.32,.06,.08,.13,.16,.19,.25,.08,.12,.16,.25,.24,.37,.05,.09,.11,.17,.16,.26,.08,.15,.16,.31,.24,.47,.04,.08,.08,.16,.12,.24,.11,.25,.21,.51,.29,.79,0,.03,.9,3.45-.87,6.25-.17,.27-.33,.51-.49,.74-.03,.04-.05,.08-.08,.11-.16,.22-.31,.42-.47,.61-.03,.04-.06,.07-.09,.1-.16,.19-.33,.36-.51,.52-.02,.02-.04,.04-.06,.05-.18,.15-.37,.3-.58,.43l-.03,.02v-13.12s.05,.04,.08,.06Z" style="fill:#fff;"/><path d="M60.14,51.94c.06,.02,.13,.05,.19,.08,.19,.07,.38,.15,.56,.24h.01c.24-.11,.47-.2,.71-.29,.07-.02,.13-.05,.2-.08h0l.12-.04v-16.94s0,.04-.01,.05c.01-.1,.02-.2,.02-.3,0-.17-.02-.32-.05-.48v-.02c-.12-.67-.49-1.16-.93-1.16-.52,0-.94,.68-.97,1.53h0v17.35l.13,.05h0Z" style="fill:#fff;"/><path d="M61.62,83.29h0c-.25-.12-.49-.23-.71-.35h0c-.19,.1-.38,.19-.58,.28h0v2.68h1.29v-2.61Z" style="fill:#fff;"/><path d="M61.01,53.85s-.08-.05-.11-.07c-.03,.02-.07,.04-.1,.07-.12,.08-.25,.16-.37,.25-.03,.02-.06,.04-.1,.07v14.25c.15,.06,.3,.13,.46,.18,.16-.06,.32-.11,.47-.17,.04-.01,.07-.03,.1-.04,.09-.04,.18-.08,.27-.12v-13.97s-.07-.05-.11-.08c-.18-.13-.34-.25-.5-.35Z" style="fill:#fff;"/><path d="M61.23,70.11c-.16-.04-.31-.09-.45-.14h0c-.14,.04-.29,.09-.45,.13h0v11.03c.18,.11,.38,.23,.58,.34,.13-.07,.26-.15,.38-.22l.05-.03c.1-.06,.19-.12,.29-.18v-10.82h0c-.12-.03-.23-.06-.33-.09l-.06-.02Z" style="fill:#fff;"/><path d="M61.56,52.65l.06-.03h0l-.06,.03h0Z"/><path d="M61.58,53.45h.01l.03,.03h0l-.08-.06,.04,.03Z"/><polygon points="60.25 89.17 60.25 89.17 60.25 89.17 60.24 89.17 60.25 89.17"/></g></g></svg>