<?xml version="1.0" encoding="UTF-8"?><svg xmlns="http://www.w3.org/2000/svg" viewBox="0 0 120.67 120.08"><g id="a"/><g id="b"/><g id="c"/><g id="d"/><g id="e"/><g id="f"/><g id="g"/><g id="h"/><g id="i"/><g id="j"/><g id="k"/><g id="l"><g id="m"/><g id="n"/><g id="o"/></g><g id="p"/><g id="q"/><g id="r"/><g id="s"/><g id="t"/><g id="u"/><g id="v"><g id="w"/></g><g id="x"/><g id="y"/><g id="a`"/><g id="aa"/><g id="ab"/><g id="ac"/><g id="ad"/><g id="ae"/><g id="af"/><g id="ag"/><g id="ah"/><g id="ai"/><g id="aj"/><g id="ak"/><g id="al"/><g id="am"/><g id="an"/><g id="ao"/><g id="ap"/><g id="aq"><g><g><ellipse cx="60.7" cy="59.28" rx="52.46" ry="52.08" style="fill:#245E8A;"/><path d="M64.63,52.93h-3.32v-3.24c0-.36-.27-.65-.6-.65s-.6,.29-.6,.65v3.24h-3.32c-.33,0-.6,.29-.6,.65v31.15c0,.36,.27,.65,.6,.65h7.85c.33,0,.61-.29,.61-.65v-31.15c0-.36-.27-.65-.6-.65Z" style="fill:#fff;"/></g><path d="M61.56,37.56c-1.86,2.37-2.58,5.53-2.58,8.3-.57-1.19-.57-2.18-.72-3.75-1.43,2.57-1.72,3.95-1.72,6.32,0,2.64,1.33,4.35,2.87,4.94-.02-.04-.04-.08-.06-.12,.37,.39,.79,.63,1.26,.63,.65,0,1.25-.46,1.68-1.2-.09,.25-.18,.48-.3,.69,1.59-.58,2.87-2.28,2.87-4.94,0-4.35-2.58-5.73-3.3-10.86Z" style="fill:#fff;"/></g></g></svg>