<?xml version="1.0" encoding="UTF-8"?><svg xmlns="http://www.w3.org/2000/svg" viewBox="0 0 120.67 120.08"><g id="a"/><g id="b"/><g id="c"/><g id="d"/><g id="e"/><g id="f"/><g id="g"/><g id="h"/><g id="i"/><g id="j"/><g id="k"/><g id="l"><g id="m"/><g id="n"/><g id="o"/></g><g id="p"/><g id="q"/><g id="r"/><g id="s"/><g id="t"/><g id="u"/><g id="v"><g id="w"/></g><g id="x"/><g id="y"/><g id="a`"/><g id="aa"/><g id="ab"/><g id="ac"/><g id="ad"/><g id="ae"/><g id="af"/><g id="ag"/><g id="ah"/><g id="ai"/><g id="aj"/><g id="ak"/><g id="al"/><g id="am"/><g id="an"/><g id="ao"/><g id="ap"/><g id="aq"><g><ellipse cx="60.7" cy="59.41" rx="52.46" ry="52.21" style="fill:#245E8A;"/><g><g><rect x="43.47" y="34.55" width="33.3" height="4.31" style="fill:#fff;"/><rect x="43.62" y="79.99" width="33.3" height="4.31" style="fill:#fff;"/></g><path d="M82.32,48.57c-.04-.15-.13-.43-.27-.49-.11-.05-.33,.13-.46,.25-.16,.16-.26,.37-.4,.55-.57,.74-1.1,1.52-1.72,2.21-1.45,1.61-3.2,2.83-4.94,4.05-1.13,.79-2.24,1.6-3.31,2.47-.82,.67-1.71,1.09-1.9,2.2-.1,.58,.76,1.21,1.28,1.55,.72,.47,1.46,.88,1.52,.92,1.56,.9,1.08,.59,1.85,.93,1.29,.57,2.66,.95,4,.52,.16-.05,.31-.1,.47-.15,.19-.06,.34-.23,.51-.35l-.03-.17c-.41-.06-.83-.12-1.28-.18,.13-.08,.23-.14,.33-.2,.72-.48,1.44-.96,2.14-1.45,.19-.13,.35-.33,.49-.52l1.14-2.05c.16-.38-.1-.88-.27-1.34-.71,.13-1.21,.69-1.83,.98,.08-.11,.44,.32,.53,.23,.59-.59,.18,.21,.75-.4,.23-.25,.73,.8,.84,.48,.07-.2,.92-3.78,.9-4.01-.19,.05-.9,.13-1.07,.23-.34,.2-.65,.45-.97,.68,.28-.48,.64-.87,.96-1.29,.37-.49,.63-.91,.9-1.46,.16-.33,.27-1.16,.28-1.56,0,0,0,0,0-.02,.04-.68-.19-1.78-.42-2.6Z" style="fill:#fff;"/><path d="M37.79,51.16s0,0,0,.02c.01,.4,.12,1.23,.28,1.56,.27,.55,.53,.97,.9,1.46,.32,.42,.68,.82,.96,1.29-.32-.23-.63-.48-.97-.68-.17-.1-.87-.18-1.07-.23-.01,.23,.83,3.81,.9,4.01,.12,.32,.62-.72,.84-.48,.57,.61,.16-.18,.75,.4,.09,.09,.45-.34,.53-.23-.62-.29-1.12-.85-1.83-.98-.17,.46-.44,.96-.27,1.34l1.14,2.05c.14,.19,.3,.39,.49,.52,.71,.5,1.43,.97,2.14,1.45,.09,.06,.19,.12,.33,.2-.46,.07-.87,.12-1.28,.18l-.03,.17c.17,.12,.32,.29,.51,.35,.16,.05,.31,.1,.47,.15,1.34,.43,2.71,.05,4-.52,.77-.34,.29-.03,1.85-.93,.06-.03,.8-.45,1.52-.92,.52-.34,1.38-.96,1.28-1.55-.19-1.11-1.08-1.54-1.9-2.2-1.07-.87-2.19-1.68-3.31-2.47-1.74-1.22-3.49-2.43-4.94-4.05-.62-.69-1.15-1.47-1.72-2.21-.14-.18-.24-.4-.4-.55-.13-.13-.35-.3-.46-.25-.13,.06-.22,.33-.27,.49-.22,.82-.46,1.92-.42,2.6Z" style="fill:#fff;"/></g><path d="M70.97,51.63c2.57-3.3,3.47-7.25,3.58-11.06h-28.32c.15,5.45,1.81,8.85,3.58,11.06,3.17,3.96,7.05,4.92,7.05,7.8s-3.94,3.8-7.05,7.8c-2.47,3.16-3.46,7.02-3.58,11.06h28.33c-.12-4.04-1.12-7.9-3.58-11.06-3.12-4-7.05-4.92-7.05-7.8s3.94-3.8,7.05-7.8h0Z" style="fill:#fff;"/></g></g></svg>