<?xml version="1.0" encoding="UTF-8"?><svg xmlns="http://www.w3.org/2000/svg" viewBox="0 0 87.32 83.49"><g id="a"/><g id="b"/><g id="c"/><g id="d"/><g id="e"/><g id="f"/><g id="g"/><g id="h"/><g id="i"/><g id="j"/><g id="k"/><g id="l"/><g id="m"/><g id="n"/><g id="o"/><g id="p"/><g id="q"><g><circle cx="43.66" cy="41.74" r="38.57" style="fill:#7b1245;"/><g><rect x="30.37" y="22.51" width="25.71" height="3.34" style="fill:#fefafd;"/><rect x="30.48" y="57.76" width="25.71" height="3.34" style="fill:#fefafd;"/><path d="M59.04,38.75c.22-.37,.5-.67,.74-1,.28-.38,.48-.71,.69-1.13,.13-.26,.21-.9,.22-1.21,0,0,0,0,0-.01,.03-.53-.15-1.38-.32-2.02-.03-.12-.1-.33-.21-.38-.08-.04-.26,.1-.35,.2-.12,.12-.2,.29-.31,.43-.44,.57-.85,1.18-1.33,1.71-1.12,1.25-2.47,2.19-3.82,3.14-.87,.61-1.73,1.24-2.56,1.92-.63,.52-1.32,.84-1.47,1.71-.08,.45,.59,.94,.99,1.2,.56,.36,1.12,.68,1.17,.71,1.2,.7,.83,.46,1.43,.72,1,.44,2.05,.74,3.09,.4,.12-.04,.24-.08,.36-.12,.14-.05,.26-.18,.39-.27l-.03-.13c-.32-.05-.64-.09-.99-.14,.1-.06,.18-.1,.25-.15,.55-.37,1.11-.74,1.66-1.13,.15-.1,.27-.25,.37-.4l.88-1.59s0-.02,0-.04h0c.06-.16,.71-2.94,.7-3.12-.15,.04-.7,.1-.82,.18-.26,.16-.5,.35-.75,.53Z" style="fill:#fefafd;"/><path d="M34.19,44.01s.62-.35,1.17-.71c.4-.26,1.07-.75,.99-1.2-.15-.86-.84-1.19-1.47-1.71-.83-.68-1.69-1.31-2.56-1.92-1.35-.95-2.7-1.89-3.82-3.14-.48-.53-.89-1.14-1.33-1.71-.11-.14-.19-.31-.31-.43-.1-.1-.27-.23-.35-.2-.1,.04-.17,.26-.21,.38-.17,.64-.35,1.49-.32,2.02,0,0,0,0,0,.01,.01,.31,.09,.95,.22,1.21,.21,.43,.41,.75,.69,1.13,.25,.33,.52,.63,.74,1-.25-.18-.49-.37-.75-.53-.13-.08-.67-.14-.82-.18-.01,.18,.64,2.96,.7,3.11h0s0,.03,0,.04l.88,1.59c.11,.15,.23,.3,.37,.4,.55,.39,1.1,.75,1.66,1.13,.07,.05,.15,.09,.25,.15-.35,.05-.67,.1-.99,.14l-.03,.13c.13,.09,.25,.22,.39,.27,.12,.04,.24,.08,.36,.12,1.04,.34,2.09,.04,3.09-.4,.6-.26,.23-.02,1.43-.72Z" style="fill:#fefafd;"/></g><path d="M51.6,35.75c1.99-2.56,2.68-5.62,2.77-8.58h-21.87c.11,4.23,1.4,6.87,2.76,8.58,2.45,3.07,5.45,3.82,5.45,6.05s-3.04,2.95-5.45,6.05c-1.9,2.45-2.67,5.45-2.77,8.58h21.87c-.09-3.13-.86-6.13-2.77-8.58-2.41-3.11-5.45-3.82-5.45-6.05s3.04-2.95,5.45-6.05h0Z" style="fill:#fefafd;"/></g></g><g id="r"/><g id="s"/><g id="t"><g id="u"/></g><g id="v"/><g id="w"/><g id="x"/><g id="y"/><g id="a`"/><g id="aa"/><g id="ab"/><g id="ac"/><g id="ad"/><g id="ae"/><g id="af"/><g id="ag"/><g id="ah"/><g id="ai"/><g id="aj"/><g id="ak"/><g id="al"/><g id="am"/><g id="an"><g id="ao"/><g id="ap"/><g id="aq"/></g><g id="ar"/><g id="as"/><g id="at"><g id="au"/></g><g id="av"/></svg>