<?xml version="1.0" encoding="UTF-8"?><svg xmlns="http://www.w3.org/2000/svg" viewBox="0 0 120.67 120.08"><g id="a"/><g id="b"/><g id="c"/><g id="d"/><g id="e"/><g id="f"/><g id="g"/><g id="h"/><g id="i"/><g id="j"/><g id="k"/><g id="l"><g id="m"/><g id="n"/><g id="o"/></g><g id="p"/><g id="q"/><g id="r"/><g id="s"/><g id="t"/><g id="u"/><g id="v"><g id="w"/></g><g id="x"/><g id="y"/><g id="a`"/><g id="aa"/><g id="ab"/><g id="ac"/><g id="ad"/><g id="ae"/><g id="af"/><g id="ag"/><g id="ah"/><g id="ai"/><g id="aj"/><g id="ak"/><g id="al"/><g id="am"/><g id="an"/><g id="ao"/><g id="ap"/><g id="aq"><g id="ar"><g><g><circle cx="61.06" cy="59.43" r="52.23" style="fill:#E96A1D;"/><g><path d="M85.23,62.85c.14-.36,0-6.12,0-6.52,0-1.68-1.26-3.07-2.89-3.27l-16.33,19.44,19.22-9.64Z" style="fill:#fff;"/><path d="M79.22,50.41c-.29-1.53-1.07-5.71-5.91-6.64-.63-.12-1.24,.19-1.75,.51l-7.82,26.46,15.48-20.33Z" style="fill:#fff;"/><path d="M34.96,67.92c0,1.76,1.38,3.2,3.12,3.29l-.08,1.93h0v.05c-.22,.81-.55,1.91-.55,1.91,.89,.52,1.94,1.06,2.89,1.35,.68,.21,1.31,.28,1.81,.13,.37-.11,.53-.31,.67-.45,.87-.88,2.78-1.23,4.33-1.4,.54-.06,1.03-.09,1.43-.12,1.58-.11,2.95-.07,4.14,.05h.1c.62,.07,1.2,.15,1.73,.24l-18.8-9.1c-.48,.57-.78,1.31-.78,2.12Z" style="fill:#fff;"/><path d="M86.29,65.66l-18.92,9.3c1.61-.28,3.67-.53,6.34-.34,.35,.03,.78,.06,1.25,.1,1.59,.16,3.61,.49,4.51,1.41,.14,.14,.3,.34,.67,.45,.46,.14,1.04,.08,1.66-.09,.99-.28,2.1-.85,3.04-1.4,0,0-.54-1.8-.73-2.48l-.02-1.42c1.73-.1,3.1-1.53,3.1-3.29,0-.88-.34-1.67-.9-2.26Z" style="fill:#fff;"/><path d="M36.92,62.83c-.14-.36,0-6.12,0-6.52,0-1.68,1.26-3.07,2.89-3.27l16.33,19.44-19.22-9.64Z" style="fill:#fff;"/><path d="M42.93,50.38c.29-1.53,1.07-5.71,5.91-6.64,.63-.12,1.24,.19,1.75,.51l7.82,26.46-15.48-20.33Z" style="fill:#fff;"/><path d="M61.1,69.81l6.26-27.18c-.21-.33-.94-.7-1.83-1.04-1.27-.64-3.57-1.15-4.46-1.15-.24,0-.63,.06-1.1,.15-.85,.15-1.89,.42-2.74,.75-1.16,.4-2.19,.86-2.44,1.26l6.21,26.95,.08,.41v-.03h.01l.02-.12Z" style="fill:#fff;"/></g></g><ellipse cx="60.81" cy="72.47" rx="7.81" ry="4.39" style="fill:#fff;"/></g></g></g></svg>