<?xml version="1.0" encoding="UTF-8"?><svg xmlns="http://www.w3.org/2000/svg" viewBox="0 0 87.32 83.49"><g id="a"/><g id="b"/><g id="c"/><g id="d"/><g id="e"/><g id="f"/><g id="g"/><g id="h"/><g id="i"/><g id="j"/><g id="k"/><g id="l"/><g id="m"/><g id="n"/><g id="o"/><g id="p"/><g id="q"/><g id="r"/><g id="s"/><g id="t"><g id="u"/></g><g id="v"/><g id="w"/><g id="x"/><g id="y"/><g id="a`"/><g id="aa"/><g id="ab"/><g id="ac"/><g id="ad"/><g id="ae"/><g id="af"/><g id="ag"/><g id="ah"/><g id="ai"/><g id="aj"/><g id="ak"/><g id="al"/><g id="am"/><g id="an"><g id="ao"/><g id="ap"/><g id="aq"/><g><g><circle cx="43.66" cy="41.74" r="38.57" style="fill:#7b1245;"/><g><path d="M61.51,44.27c.1-.27,0-4.52,0-4.82,0-1.24-.93-2.27-2.14-2.42l-12.06,14.35,14.19-7.12Z" style="fill:#fff;"/><path d="M57.07,35.08c-.21-1.13-.79-4.21-4.37-4.91-.47-.09-.92,.14-1.29,.37l-5.77,19.54,11.43-15.01Z" style="fill:#fff;"/><path d="M24.39,48.02c0,1.3,1.02,2.36,2.3,2.43l-.06,1.43h0v.04c-.16,.6-.4,1.41-.4,1.41,.66,.39,1.43,.78,2.14,1,.5,.15,.97,.21,1.34,.1,.28-.08,.39-.23,.49-.33,.64-.65,2.05-.91,3.2-1.03,.4-.04,.76-.07,1.06-.09,1.17-.08,2.18-.05,3.06,.03h.07c.46,.05,.88,.11,1.27,.18l-13.89-6.72c-.36,.42-.57,.97-.57,1.56Z" style="fill:#fff;"/><path d="M62.29,46.35l-13.98,6.87c1.19-.2,2.71-.39,4.68-.25,.26,.02,.58,.04,.92,.08,1.17,.12,2.66,.36,3.33,1.04,.1,.1,.22,.25,.49,.33,.34,.1,.77,.06,1.23-.07,.73-.2,1.55-.62,2.25-1.03,0,0-.4-1.33-.54-1.83v-1.05c1.26-.07,2.28-1.13,2.28-2.43,0-.65-.25-1.23-.66-1.67Z" style="fill:#fff;"/><path d="M25.84,44.26c-.1-.27,0-4.52,0-4.82,0-1.24,.93-2.27,2.14-2.42l12.06,14.35-14.19-7.12Z" style="fill:#fff;"/><path d="M30.27,35.07c.21-1.13,.79-4.21,4.37-4.91,.47-.09,.92,.14,1.29,.37l5.77,19.54-11.43-15.01Z" style="fill:#fff;"/><path d="M43.69,49.41l4.62-20.07c-.16-.24-.69-.52-1.35-.77-.94-.47-2.64-.85-3.29-.85-.18,0-.47,.04-.81,.11-.63,.11-1.4,.31-2.02,.55-.86,.29-1.61,.64-1.8,.93l4.58,19.9,.06,.3v-.03h0l.02-.09Z" style="fill:#fff;"/></g></g><ellipse cx="43.48" cy="51.38" rx="5.77" ry="3.24" style="fill:#fff;"/></g></g><g id="ar"/><g id="as"/><g id="at"><g id="au"/></g><g id="av"/></svg>