<?xml version="1.0" encoding="UTF-8"?><svg xmlns="http://www.w3.org/2000/svg" viewBox="0 0 120.67 120.08"><g id="a"/><g id="b"/><g id="c"/><g id="d"/><g id="e"/><g id="f"/><g id="g"/><g id="h"/><g id="i"/><g id="j"/><g id="k"/><g id="l"><g id="m"/><g id="n"/><g id="o"/></g><g id="p"/><g id="q"/><g id="r"/><g id="s"/><g id="t"/><g id="u"/><g id="v"><g id="w"/></g><g id="x"/><g id="y"/><g id="a`"/><g id="aa"/><g id="ab"/><g id="ac"/><g id="ad"/><g id="ae"/><g id="af"/><g id="ag"/><g id="ah"/><g id="ai"/><g id="aj"/><g id="ak"/><g id="al"/><g id="am"/><g id="an"/><g id="ao"/><g id="ap"/><g id="aq"><g><ellipse cx="60.6" cy="59.57" rx="52.46" ry="52.08" style="fill:#245E8A;"/><path d="M62.67,65.95c-.52,.45-.84,.96-1.07,1.7-.5,1.57-1.01,2.83-1.66,4.11,1.34,.27,2.85-.31,3.62-1.43h0c.23-.32,.4-.65,.5-1,.38-1.33,.74-2.95,.93-4.25-.52,0-1.03,.11-1.57,.35-.28,.13-.53,.31-.76,.52Z" style="fill:#fff;"/><path d="M71.74,53.32h.06c.21,.08,.43,.12,.65,.14l.12,.02h.05c.64,.04,1.36-.1,2.07-.24,.42-.08,.82-.16,1.21-.2h.04c.07-.02,.1-.02,.12-.03,.21-.04,.41-.07,.61-.09l1.11-.16c.06,0,.09,0,.12-.01l.15-.02h0c-.33-.86-1.1-1.56-2.06-1.87l-.07-.02c-.22-.07-.44-.12-.68-.14h-.04c-.35-.04-.72-.02-1.09,.05-.51,.1-1.01,.2-1.48,.29l-.2,.04c-.88,.2-1.72,.39-2.61,.63,.38,.76,1.06,1.34,1.92,1.61h.02Z" style="fill:#fff;"/><path d="M58.21,67.74c-.69,.2-1.22,.52-1.67,1l-.09,.1c-.29,.39-.54,.78-.79,1.19-.29,.47-.6,.96-1.01,1.49-.41,.52-.85,1.04-1.31,1.54,.57,.27,1.22,.4,1.81,.35,.92-.11,1.64-.39,2.13-.85h0c.68-.6,1.04-1.41,1.43-2.26,.09-.19,.17-.38,.26-.56,.27-.57,.52-1.22,.79-2.02-.21-.04-.41-.06-.6-.06-.39-.01-.69,.01-.95,.08Z" style="fill:#fff;"/><path d="M66.61,63.85c-.17,1.62-.41,3.01-.73,4.36,.61-.01,1.2-.18,1.7-.49,.34-.2,.64-.44,.89-.7,.24-.27,.44-.58,.59-.91,.47-1.37,.46-2.72,.46-4.15,0-.42,0-.84,0-1.28-1.56,.25-2.79,1.55-2.92,3.16Z" style="fill:#fff;"/><path d="M80.05,55.12c-.85-.71-1.91-.98-2.84-.72-.09,0-.12,0-.16,.02l-1.67,.2c-.43,.06-.86,.13-1.28,.2,.25,.79,.68,1.48,1.23,1.99l.05,.04c.15,.14,.32,.26,.53,.39,.17,.09,.32,.17,.48,.23v-.03l.23,.1c.9,.13,1.9,.06,2.86,0,.66-.05,1.33-.09,2-.07-.23-.94-.73-1.76-1.43-2.34Z" style="fill:#fff;"/><path d="M40.65,52.79c.17-.09,.34-.2,.51-.32,.1-.07,.15-.11,.19-.14,.02-.02,.07-.05,.12-.07,.1-.1,.2-.21,.3-.33,.42-.49,.58-1.18,.67-1.73,.04-.31,.03-.65-.03-1-.23-1.62-.28-2.86-.15-4.45-1.35,.27-2.53,1.46-2.79,2.85h0c-.09,.41-.1,.76-.02,1.1,.26,1.43,.57,2.91,1.2,4.08Z" style="fill:#fff;"/><path d="M39.4,63.01c.81,.08,1.55,.09,2.26,.02-.03-1.33-.61-2.49-1.81-3.14h.01c-.32-.16-.63-.29-.87-.39-.41-.15-.76-.3-1.08-.45-1.08-.55-2.05-1.22-2.98-2.08-.42,.76-.56,1.67-.4,2.51,.06,.45,.2,.83,.46,1.3,.2,.39,.49,.75,.85,1.05h0c.34,.31,.72,.52,1.13,.65,.71,.24,1.5,.42,2.42,.53Z" style="fill:#fff;"/><path d="M73.65,60.85c.16-1.2-.09-2.44-.34-3.64-.08-.38-.16-.76-.22-1.13-1.11,.41-1.89,1.28-2.13,2.37h0v.04c-.08,.85,0,1.67,.08,2.55,.07,.72,.14,1.47,.12,2.27,.2-.05,.4-.12,.6-.21,.95-.46,1.65-1.29,1.88-2.23Z" style="fill:#fff;"/><path d="M46.78,47.34c.29-.65,.53-1.34,.78-2.08,.35-1,.7-2.03,1.25-3.05-.24-.04-.48-.05-.73-.05-.35,.01-.75,.09-1.19,.25h0c-.75,.24-1.44,.74-1.93,1.41-.54,.77-.67,1.64-.82,2.56-.05,.29-.09,.58-.15,.87-.07,.62-.11,1.26-.13,1.89,.54-.04,1.05-.19,1.56-.46,.62-.29,1.04-.83,1.37-1.32Z" style="fill:#fff;"/><path d="M54.01,47.01c.5,.25,1.06,.39,1.66,.42,.32,.01,.66-.03,1.01-.13,.73-.17,1.29-.5,1.89-1.1,1.19-1.2,2.18-2.12,3.45-3.19-1.17-.81-2.79-.92-4.07-.24-1.37,.88-2.41,2.25-3.42,3.57-.17,.22-.34,.45-.51,.66Z" style="fill:#fff;"/><path d="M48.31,47.21c1.64,.56,3.51,0,4.56-1.42,.94-1.2,2.2-2.6,3.31-3.68-.61-.34-1.28-.52-1.94-.52-.44,0-.87,.05-1.29,.15-.4,.12-.79,.3-1.16,.54-1.42,1.11-2.39,2.9-3.24,4.49-.08,.15-.16,.3-.24,.44Z" style="fill:#fff;"/><path d="M36.28,55.09c.63,1.01,1.47,2,2.36,2.77,.28,.24,.57,.46,.85,.66,.93-1.16,1.13-2.32,.66-3.6h.02c-.46-1.01-1.12-1.94-1.45-3-.27-.75-.39-1.55-.56-2.33-.47,.19-.93,.41-1.29,.81-.86,.93-1.29,2.26-1.06,3.49,.1,.48,.23,.83,.47,1.2Z" style="fill:#fff;"/><path d="M42.76,67.3c.72-.27,1.38-.67,2.05-1.02-.18-.31-.39-.58-.63-.8-.1-.09-.15-.13-.16-.18-.58-.63-1.42-.95-2.31-1h.01c-.3-.01-.6,0-.97,.04-.76,.11-1.55,.14-2.37,.09-.4-.03-.82-.07-1.24-.13-.38-.07-.78-.15-1.18-.25,0,.42,.06,.82,.2,1.22,.2,.5,.41,.88,.66,1.18,.57,.71,1.39,1.23,2.24,1.42,1.22,.27,2.61-.22,3.69-.57Z" style="fill:#fff;"/><path d="M48.56,68.59c-.62-.57-1.38-1.05-2.2-1.1-.5-.08-.98-.06-1.49,.1-1.11,.35-2.04,1.05-3.18,1.46-.73,.28-1.5,.53-2.29,.76,.37,.71,.99,1.33,1.71,1.71,1.37,.6,2.52,.59,3.69-.05,1.17-.66,2.02-1.34,2.96-2.11,.28-.25,.55-.51,.81-.77Z" style="fill:#fff;"/><path d="M81.63,67.28c-.11-.39-.28-.71-.5-.97-.92-1.14-1.9-2.29-3-3.02-.11,.16-.2,.34-.3,.53-.05,.11-.08,.17-.11,.21,0,.03-.04,.08-.07,.11-.04,.13-.08,.28-.11,.43-.14,.64,.05,1.31,.23,1.84,.11,.29,.29,.59,.5,.87,.98,1.31,1.61,2.39,2.26,3.84,1.05-.88,1.53-2.48,1.09-3.83h0Z" style="fill:#fff;"/><path d="M83.07,61.24c-.12-.2-.25-.37-.38-.53-.13-.13-.29-.28-.46-.41h-.01c-.54-.47-1.31-.62-1.99-.75l-.26-.05c-.39-.05-.79-.1-1.18-.13-.52-.05-1.27-.02-1.86,.04,.16,1.18,.71,1.95,1.74,2.49l.11,.06c.23,.1,.47,.19,.72,.27,.69,.2,1.4,.51,2.23,.96,.62,.36,1.2,.75,1.72,1.16,.21-.6,.25-1.29,.1-1.93-.1-.44-.26-.84-.48-1.17Z" style="fill:#fff;"/><path d="M77.96,69c-.45-.33-.84-.47-1.35-.56-1.25,.18-3.53,.8-4.18,2.92-.03,.1,0,.2,.07,.28,.07,.07,.17,.1,.28,.08,0,0,.2-.05,.46-.09-.26,.43-.56,1.08-.55,1.84,0,.01,0,.02,0,.03,.01,.08,.06,.15,.12,.2,.08,.05,.18,.06,.26,.02,.13-.06,.43-.18,.7-.26-.02,.42,0,1.11,.27,1.65,.04,.09,.13,.15,.23,.16,.1,0,.2-.04,.26-.12,.17-.24,.36-.48,.52-.66,.12,.68,.47,1.83,1.37,2.09,.08,.02,.17,0,.24-.04,.07-.05,.11-.12,.12-.2,0-.03,.28-2.71,1.47-4.07,.56-.64,.67-1.36,.66-1.87,0-.02-.03-.03-.03-.05-.05-.58-.43-.99-.92-1.35Z" style="fill:#fff;"/><path d="M78.71,45.1h0c.13,.46,.46,.81,.75,1.11l.11,.12c.17,.16,.36,.33,.54,.48,.24,.21,.62,.44,.92,.61,.27-.73,.22-1.36-.13-2.02l-.04-.07c-.09-.13-.17-.27-.27-.4-.28-.35-.54-.77-.81-1.31-.2-.42-.37-.84-.5-1.25-.28,.27-.5,.65-.61,1.08-.08,.29-.12,.57-.11,.84,0,.15,.01,.3,.03,.43,.02,.12,.06,.26,.1,.39Z" style="fill:#fff;"/><path d="M86.29,38.65c-.08-.06-.19-.07-.28-.03,0,0-.19,.08-.44,.17,.18-.47,.36-1.16,.22-1.91,0-.01,0-.02,0-.03-.03-.08-.08-.14-.16-.17-.09-.04-.19-.03-.26,.02-.12,.08-.39,.25-.64,.37-.06-.42-.2-1.09-.55-1.58-.06-.08-.16-.13-.25-.12-.1,0-.19,.07-.23,.16-.12,.27-.27,.54-.4,.74-.24-.65-.78-1.72-1.71-1.82-.08,0-.17,.02-.23,.08-.06,.06-.09,.14-.08,.22,0,.03,.19,2.72-.74,4.26-.44,.73-.42,1.46-.32,1.96,.01,.01,.03,.02,.04,.04,.15,.56,.59,.9,1.14,1.17,.5,.25,.91,.32,1.43,.32,1.2-.4,3.34-1.4,3.61-3.59,.01-.1-.03-.2-.11-.26Z" style="fill:#fff;"/><path d="M54.29,68.98c-.74-.39-1.61-.65-2.41-.49-.51,.05-.96,.2-1.41,.49-.98,.63-1.69,1.55-2.68,2.25-.63,.46-1.31,.91-2,1.34,.55,.59,1.31,1.03,2.11,1.2,1.48,.22,2.59-.09,3.54-1.02,.95-.94,1.59-1.83,2.29-2.82,.2-.31,.39-.64,.57-.95Z" style="fill:#fff;"/><path d="M59.35,48.41c.45,.33,.96,.56,1.54,.68,.31,.06,.64,.07,.98,.02,.72-.07,1.3-.33,1.95-.87,1.29-1.08,2.36-1.89,3.71-2.82-1.02-1.02-2.56-1.38-3.88-.86-1.43,.71-2.6,1.99-3.73,3.23-.19,.21-.38,.42-.57,.62Z" style="fill:#fff;"/><path d="M64.61,50.07c.38,.36,.83,.64,1.35,.82,.28,.1,.59,.15,.93,.16,.7,.04,1.28-.11,1.98-.5,1.39-.78,2.53-1.35,3.95-1.98-.82-1.05-2.22-1.59-3.55-1.31-1.46,.43-2.77,1.4-4.03,2.34-.21,.16-.42,.32-.63,.47Z" style="fill:#fff;"/><path d="M77.26,48.36h0v.02c.26,.59,.6,1.11,.97,1.66,.3,.46,.61,.92,.89,1.46,.12-.11,.22-.22,.32-.35,.46-.63,.64-1.43,.45-2.14-.32-.85-.93-1.59-1.52-2.29-.19-.22-.37-.45-.55-.67-.59,.66-.8,1.51-.57,2.32h0Z" style="fill:#fff;"/></g></g></svg>