<?xml version="1.0" encoding="UTF-8"?><svg xmlns="http://www.w3.org/2000/svg" viewBox="0 0 120.67 120.08"><g id="a"/><g id="b"/><g id="c"/><g id="d"/><g id="e"/><g id="f"/><g id="g"/><g id="h"/><g id="i"/><g id="j"/><g id="k"/><g id="l"><g id="m"/><g id="n"/><g id="o"/></g><g id="p"/><g id="q"/><g id="r"/><g id="s"/><g id="t"/><g id="u"/><g id="v"><g id="w"/></g><g id="x"/><g id="y"/><g id="a`"/><g id="aa"/><g id="ab"/><g id="ac"/><g id="ad"/><g id="ae"/><g id="af"/><g id="ag"/><g id="ah"/><g id="ai"/><g id="aj"/><g id="ak"/><g id="al"/><g id="am"/><g id="an"/><g id="ao"/><g id="ap"/><g id="aq"><g id="ar"><circle cx="60.75" cy="59.7" r="52.39" style="fill:#F7C325;"/><path d="M72.07,79.42c-2.88-3.74-6-7.98-9.3-12.34v-.86c4.1-5.16,5.36-6.7,7.4-9.12,2.72-3.23,3.87-3.66,8.62-4.19v-1.48h-14.45v1.48c4.18,.42,4.63,1.06,3.1,3.34-1.25,1.86-2.88,4.05-4.67,6.4v-14.34l2.7,.72c.23,.04,.63,.08,1.06,.08,3.71,0,8.6-2.36,8.6-8.21,0-2.64-1.06-4.53-2.58-5.69-1.6-1.2-3.83-1.72-6.61-1.72h-10.08v1.12c3.09,.32,3.52,.4,3.52,3.97v24.07c-2.76-3.57-2.89-4.5-4.61-7.41-.9-1.51-.89-2.01,3.04-2.33v-1.48h-14.39v1.62c3.89,.43,7.01,.95,9.45,4.14,2.09,2.81,3.21,4.58,6.51,9.03v.78s-.04,.05-.06,.08c-5.13,6.68-9.02,11.8-11.27,14.24-1.84,1.96-2.33,2.76-6.13,3.08v1.48h9.95l-.04-1.22c-3.34-.13-.6-2.77,.04-3.75,2.08-3.12,4.53-6.21,7.51-10.07v10c0,3.32-.81,3.59-4.17,3.95v1.09h11.44v-1.12c-3.6-.4-3.87-.48-3.87-3.84v-10.07c3.18,4.09,5.88,7.25,7.11,9,.58,.88,3.96,4.69,.62,4.78v1.26h10.44v-1.48c-4.56-.37-5.83-.95-8.87-4.98Zm-9.3-42.24c0-1.08,.12-1.56,.43-1.84,.23-.28,1.06-.48,2.19-.48,3.28,0,6.1,1.76,6.1,6.17,0,5.05-3.24,6.41-5.86,6.41-1.33,0-2.38-.28-2.85-.52v-9.73Z" style="fill:#fff;"/></g></g></svg>