<?xml version="1.0" encoding="UTF-8"?><svg xmlns="http://www.w3.org/2000/svg" viewBox="0 0 120.67 120.08"><g id="a"/><g id="b"/><g id="c"/><g id="d"/><g id="e"/><g id="f"/><g id="g"/><g id="h"/><g id="i"/><g id="j"/><g id="k"/><g id="l"><g id="m"/><g id="n"/><g id="o"/></g><g id="p"/><g id="q"/><g id="r"/><g id="s"/><g id="t"/><g id="u"/><g id="v"><g id="w"/></g><g id="x"/><g id="y"/><g id="a`"/><g id="aa"/><g id="ab"/><g id="ac"/><g id="ad"/><g id="ae"/><g id="af"/><g id="ag"/><g id="ah"/><g id="ai"/><g id="aj"/><g id="ak"/><g id="al"/><g id="am"/><g id="an"/><g id="ao"/><g id="ap"/><g id="aq"><g><circle cx="61.16" cy="58.87" r="52.18" style="fill:#42B5E8;"/><g><g><path d="M85.7,62.69c-.84-.7-1.83-1.23-2.78-1.79-.17-.1-.49-.07-.7,0-1.81,.61-3.68,.7-5.57,.57-1.06-.07-2.11-.14-3.4-.22,.41,.22,.62,.33,.83,.43,1.34,.68,2.71,1.3,4.02,2.04,1.32,.74,2.58,1.64,3.25,3,.5,1.01,1.18,1.16,2.14,.95,.16-.04,.34-.02,.5-.06,1.16-.26,2.26-.65,2.69-1.84,.45-1.23-.05-2.3-.99-3.08Z" style="fill:#fff;"/><path d="M57.76,73.4c-.07-1.52,.15-3.05,.25-4.57l-.12-.05c-.12,.25-.24,.51-.36,.76-.83,1.67-1.6,3.37-2.5,5-.81,1.47-1.86,2.8-3.34,3.54-.93,.46-1.07,1.1-.93,2.01,.05,.35,.07,.71,.13,1.06,.55,3.05,3.03,4.18,5.13,2.18,1.01-.97,1.66-2.38,2.42-3.62,.12-.19,0-.54-.03-.82-.22-1.83-.56-3.65-.64-5.49Z" style="fill:#fff;"/><path d="M69.53,77.4c-.99-1.27-2.08-2.47-2.95-3.83-.9-1.41-1.57-2.96-2.47-4.68,.11,1.51,.21,2.77,.28,4.04,.14,2.4,.16,4.86-1.14,6.94-.8,1.28-.45,2.07,.35,2.97,.36,.4,.73,.8,1.15,1.13,1.7,1.32,3.62,.88,4.62-1.04,.8-1.54,.74-3.2,.61-4.85-.02-.24-.29-.46-.46-.68Z" style="fill:#fff;"/><path d="M48.65,61.41l-.02-.09c-.89,.06-1.78,.14-2.67,.18-2.09,.11-4.14,.04-5.96-1.19-.12-.08-.39-.09-.49-.01-.66,.51-1.41,.97-1.92,1.61-.94,1.19-.52,2.6,.84,3.29,1.14,.58,2.36,.55,3.59,.44,.16-.01,.32-.18,.46-.29,1.08-.82,2.1-1.71,3.23-2.45,.91-.6,1.95-1.01,2.93-1.5Z" style="fill:#fff;"/><path d="M53.08,66.12c-1.22,.74-2.42,1.5-3.66,2.21-1.93,1.12-3.94,2.03-6.27,2.14-1.74,.08-1.87,.13-2.47,1.67-.21,.53-.38,1.1-.43,1.66-.18,1.8,1.04,3.03,2.99,3.07,1.94,.04,3.52-.79,5.01-1.81,.18-.13,.26-.4,.36-.61,.74-1.63,1.38-3.31,2.24-4.88,.64-1.18,1.55-2.23,2.34-3.34l-.11-.11Z" style="fill:#fff;"/><path d="M77.99,70.98c-.89-.35-1.88-.52-2.72-.97-1.74-.95-3.41-2.03-5.32-3.18,.58,.86,1.05,1.53,1.49,2.21,.46,.71,.92,1.43,1.34,2.17,.84,1.46,1.59,3.02,1.48,4.72-.08,1.3,.5,1.8,1.53,2.13,.55,.18,1.12,.38,1.69,.44,1.82,.2,3.05-.96,3.05-2.79,0-1.54-.65-2.84-1.52-4.04-.23-.32-.65-.54-1.03-.69Z" style="fill:#fff;"/><path d="M85.66,53.85c-.87,.72-1.9,1.27-2.88,1.85-.18,.11-.5,.07-.73,0-1.87-.63-3.8-.72-5.76-.59-1.09,.08-2.18,.14-3.52,.23,.43-.22,.64-.34,.86-.45,1.39-.7,2.81-1.35,4.16-2.11,1.37-.77,2.67-1.7,3.36-3.1,.52-1.05,1.22-1.2,2.22-.98,.17,.04,.35,.02,.52,.06,1.2,.27,2.33,.67,2.79,1.9,.47,1.27-.05,2.38-1.02,3.19Z" style="fill:#fff;"/><path d="M57.91,43.5c-.07,1.51,.15,3.04,.25,4.56l-.12,.05c-.12-.25-.24-.5-.37-.75-.84-1.66-1.62-3.36-2.53-4.98-.83-1.47-1.89-2.79-3.39-3.53-.94-.46-1.08-1.1-.95-2,.05-.35,.07-.71,.14-1.06,.56-3.04,3.08-4.16,5.2-2.17,1.03,.96,1.68,2.37,2.45,3.6,.12,.19,0,.54-.03,.82-.22,1.82-.56,3.64-.65,5.47Z" style="fill:#fff;"/><path d="M69.21,39.12c-.92,1.18-1.93,2.3-2.73,3.55-.83,1.31-1.46,2.74-2.29,4.35,.1-1.4,.2-2.57,.26-3.75,.13-2.23,.15-4.51-1.06-6.44-.74-1.19-.41-1.92,.32-2.76,.33-.37,.68-.75,1.07-1.05,1.58-1.23,3.36-.82,4.29,.97,.74,1.43,.69,2.97,.57,4.5-.02,.22-.27,.43-.42,.63Z" style="fill:#fff;"/><path d="M48.66,54.96s-.01,.07-.02,.11c-1.08-.08-2.15-.16-3.23-.22-2.53-.14-5.01-.05-7.22,1.44-.14,.1-.47,.11-.59,.02-.8-.62-1.71-1.17-2.32-1.95-1.13-1.44-.63-3.15,1.02-3.98,1.38-.7,2.86-.66,4.34-.54,.19,.02,.38,.21,.56,.35,1.3,.99,2.55,2.07,3.91,2.96,1.11,.72,2.36,1.22,3.54,1.81Z" style="fill:#fff;"/><path d="M52.36,49.67c-1.1-.72-2.2-1.47-3.32-2.17-1.74-1.09-3.57-1.99-5.68-2.1-1.58-.08-1.69-.13-2.24-1.64-.19-.52-.34-1.08-.39-1.63-.17-1.76,.94-2.97,2.71-3.01,1.76-.04,3.19,.77,4.54,1.77,.17,.12,.24,.39,.33,.6,.67,1.6,1.25,3.24,2.03,4.79,.58,1.16,1.41,2.19,2.12,3.27l-.1,.11Z" style="fill:#fff;"/><path d="M77.66,46.07c-.89,.35-1.86,.51-2.69,.96-1.72,.94-3.37,2.01-5.27,3.15,.58-.85,1.04-1.51,1.48-2.19,.46-.71,.91-1.42,1.33-2.15,.83-1.45,1.58-2.99,1.47-4.67-.08-1.29,.5-1.79,1.51-2.11,.55-.18,1.11-.38,1.68-.44,1.8-.19,3.02,.95,3.03,2.76,0,1.53-.65,2.81-1.51,4-.23,.31-.65,.53-1.02,.68Z" style="fill:#fff;"/><circle cx="61.04" cy="58.41" r="3.49" style="fill:#fff;"/><path d="M50.19,61.1c-1.42,.04-2.85,.1-4.27,.11-2.23,.02-4.43-.19-6.51-1.24-1.55-.79-1.69-.81-2.97,.23-.45,.36-.87,.77-1.2,1.23-1.05,1.47-.59,3.15,1.08,4.15,1.67,1,3.45,1.06,5.25,.9,.22-.02,.42-.22,.62-.36,1.45-1.05,2.84-2.19,4.36-3.14,1.14-.71,2.45-1.17,3.69-1.74l-.04-.15Z" style="fill:#fff;"/></g><path d="M63.78,62.58c-.35,.22,.13,1.6,.26,1.95,.41,1.1,.61,1.5,.83,2,.51,1.2,.19,.46,1.03,2.44,1.06,2.5,1.8,3.14,2.57,3.48,.21,.09,.68,.29,1,.09,.14-.09,.39-.35,.29-1.31-.2-1.95-.16-2.09-2.25-4.58-.65-.77-1.62-1.87-2.71-3.31-.48-.63-.91-.81-1-.76Z" style="fill:#fff;"/><path d="M65.13,60.45c-.18,.37,.94,1.3,1.24,1.53,.93,.73,1.31,.96,1.75,1.27,1.06,.75,.4,.29,2.15,1.54,2.21,1.58,3.18,1.73,4.01,1.62,.22-.03,.73-.11,.9-.45,.07-.15,.14-.5-.44-1.27-1.19-1.56-1.23-1.7-4.31-2.72-.95-.32-2.36-.75-4.04-1.4-.74-.29-1.2-.21-1.25-.12Z" style="fill:#fff;"/><path d="M63.78,53.63c-.35-.22,.13-1.6,.26-1.95,.41-1.1,.61-1.5,.83-2,.51-1.2,.19-.46,1.03-2.44,1.06-2.5,1.8-3.14,2.57-3.48,.21-.09,.68-.29,1-.09,.14,.09,.39,.35,.29,1.31-.2,1.95-.16,2.09-2.25,4.58-.65,.77-1.62,1.87-2.71,3.31-.48,.63-.91,.81-1,.76Z" style="fill:#fff;"/><path d="M61.19,53.26c-.41,0-.72-1.44-.79-1.8-.22-1.16-.25-1.6-.32-2.14-.18-1.29-.08-.49-.38-2.62-.39-2.69-.08-3.62,.4-4.31,.13-.19,.43-.6,.81-.59,.16,0,.51,.1,.92,.98,.84,1.78,.94,1.88,.44,5.08-.16,.99-.42,2.44-.61,4.24-.09,.79-.36,1.16-.46,1.16Z" style="fill:#fff;"/><path d="M61.19,62.96c-.41,0-.72,1.44-.79,1.8-.22,1.16-.25,1.6-.32,2.14-.18,1.29-.08,.49-.38,2.62-.39,2.69-.08,3.62,.4,4.31,.13,.19,.43,.6,.81,.59,.16,0,.51-.1,.92-.98,.84-1.78,.94-1.88,.44-5.08-.16-.99-.42-2.44-.61-4.24-.09-.79-.36-1.16-.46-1.16Z" style="fill:#fff;"/><path d="M65.26,56.17c-.18-.37,.94-1.3,1.24-1.53,.93-.73,1.31-.96,1.75-1.27,1.06-.75,.4-.29,2.15-1.54,2.21-1.58,3.18-1.73,4.01-1.62,.22,.03,.73,.11,.9,.45,.07,.15,.14,.5-.44,1.27-1.19,1.56-1.23,1.7-4.31,2.72-.95,.32-2.36,.75-4.04,1.4-.74,.29-1.2,.21-1.25,.12Z" style="fill:#fff;"/><path d="M67.05,58.39c0-.41,1.44-.71,1.81-.78,1.16-.21,1.6-.24,2.14-.31,1.29-.17,.49-.07,2.62-.37,2.69-.37,3.62-.06,4.3,.42,.18,.13,.6,.43,.59,.81,0,.16-.1,.51-.98,.92-1.78,.83-1.88,.93-5.08,.42-.99-.16-2.44-.43-4.23-.63-.79-.09-1.16-.37-1.16-.47Z" style="fill:#fff;"/><path d="M58.16,62.58c.35,.22-.13,1.6-.26,1.95-.41,1.1-.61,1.5-.83,2-.51,1.2-.19,.46-1.03,2.44-1.06,2.5-1.8,3.14-2.57,3.48-.21,.09-.68,.29-1,.09-.14-.09-.39-.35-.29-1.31,.2-1.95,.16-2.09,2.25-4.58,.65-.77,1.62-1.87,2.71-3.31,.48-.63,.91-.81,1-.76Z" style="fill:#fff;"/><path d="M56.8,60.45c.18,.37-.94,1.3-1.24,1.53-.93,.73-1.31,.96-1.75,1.27-1.06,.75-.4,.29-2.15,1.54-2.21,1.58-3.18,1.73-4.01,1.62-.22-.03-.73-.11-.9-.45-.07-.15-.14-.5,.44-1.27,1.19-1.56,1.23-1.7,4.31-2.72,.95-.32,2.36-.75,4.04-1.4,.74-.29,1.2-.21,1.25-.12Z" style="fill:#fff;"/><path d="M58.16,53.63c.35-.22-.13-1.6-.26-1.95-.41-1.1-.61-1.5-.83-2-.51-1.2-.19-.46-1.03-2.44-1.06-2.5-1.8-3.14-2.57-3.48-.21-.09-.68-.29-1-.09-.14,.09-.39,.35-.29,1.31,.2,1.95,.16,2.09,2.25,4.58,.65,.77,1.62,1.87,2.71,3.31,.48,.63,.91,.81,1,.76Z" style="fill:#fff;"/><path d="M56.67,56.17c.18-.37-.94-1.3-1.24-1.53-.93-.73-1.31-.96-1.75-1.27-1.06-.75-.4-.29-2.15-1.54-2.21-1.58-3.18-1.73-4.01-1.62-.22,.03-.73,.11-.9,.45-.07,.15-.14,.5,.44,1.27,1.19,1.56,1.23,1.7,4.31,2.72,.95,.32,2.36,.75,4.04,1.4,.74,.29,1.2,.21,1.25,.12Z" style="fill:#fff;"/><path d="M54.88,58.39c0-.41-1.44-.71-1.81-.78-1.16-.21-1.6-.24-2.14-.31-1.29-.17-.49-.07-2.62-.37-2.69-.37-3.62-.06-4.3,.42-.18,.13-.6,.43-.59,.81,0,.16,.1,.51,.98,.92,1.78,.83,1.88,.93,5.08,.42,.99-.16,2.44-.43,4.23-.63,.79-.09,1.16-.37,1.16-.47Z" style="fill:#fff;"/></g></g></g></svg>