<?xml version="1.0" encoding="UTF-8"?><svg xmlns="http://www.w3.org/2000/svg" viewBox="0 0 120.67 120.08"><g id="a"/><g id="b"/><g id="c"/><g id="d"/><g id="e"/><g id="f"/><g id="g"/><g id="h"/><g id="i"/><g id="j"/><g id="k"/><g id="l"><g id="m"/><g id="n"/><g id="o"/></g><g id="p"/><g id="q"/><g id="r"/><g id="s"/><g id="t"/><g id="u"/><g id="v"><g id="w"/></g><g id="x"/><g id="y"/><g id="a`"/><g id="aa"/><g id="ab"/><g id="ac"/><g id="ad"/><g id="ae"/><g id="af"/><g id="ag"/><g id="ah"/><g id="ai"/><g id="aj"/><g id="ak"/><g id="al"/><g id="am"/><g id="an"/><g id="ao"/><g id="ap"/><g id="aq"><g><ellipse cx="60.87" cy="59.49" rx="52.21" ry="52.06" style="fill:#42B5E8;"/><g><path d="M55.22,42.37c-.59-.35-1.22-.65-1.89-.9,.16-.25,.33-.52,.45-.69,.16-.21,.24-.31,.38-.48,.08-.1,.19-.22,.34-.41,.43-.52,.55-.89,.61-1.09l.03-.07c.21-.57,.03-1.09-.14-1.54-.35-.98-.99-1.6-1.38-1.98-.09-.09-.17-.17-.24-.26-.28-.31-.58-.63-1.4-1.03h0c-1.2,.36-2.04,.91-2.48,1.62-.1,.17-.18,.32-.25,.48-.13,.28-.26,.56-.59,.93-.16,.18-.54,.6-1.16,.87-.64,.28-1.24,.28-1.5,.28h-.06c-1.24,0-2.8,1.16-4.75,3.52h0c.64,1.83,1.77,2.66,2.44,3.16,.09,.07,.17,.12,.24,.18,.55,.43,1.62,.81,3.25,1.17,.14,.06,.5,.63,.71,.97,.32,.51,.53,.83,.7,.93,.49,.29,.88,.43,1.22,.56,.39,.14,.74,.27,1.19,.59,.04,.03,.1,.05,.18,.05,.04,0,.08-.01,.13-.03,.64-.25,2.66-2.33,2.84-3.16h0c.07-.26,.26-1.18-.08-2.08-.11-.28-.38-.94-.65-1.47,.44,.19,.87,.4,1.27,.64,1.01,.61,2.94,2.65,3.61,3.54l-.12-1.75c-.74-.99-1.81-1.86-2.93-2.53Z" style="fill:#fff;"/><path d="M61.57,55.3l-.62,3.15c.63-1.25,3.84-5.38,4.96-6.33,.44-.38,.93-.72,1.44-1.04-.21,.72-.4,1.6-.46,1.97-.21,1.2,.26,2.32,.41,2.63h0c.43,1,3.47,3.22,4.33,3.41,.07,.02,.13,.02,.18,.02,.11,0,.18-.05,.22-.09,.49-.49,.89-.71,1.35-.97,.4-.22,.85-.47,1.39-.93,.19-.16,.37-.6,.65-1.3,.19-.47,.5-1.25,.66-1.35,1.96-.76,3.21-1.45,3.8-2.09,.07-.08,.16-.17,.26-.27,.72-.75,1.94-2.01,2.29-4.42h0c-3.02-2.59-5.25-3.74-6.81-3.51h-.07c-.32,.06-1.07,.18-1.95-.05-.84-.22-1.42-.68-1.67-.87-.5-.4-.74-.73-.97-1.05-.13-.18-.26-.36-.43-.55-.73-.81-1.91-1.33-3.51-1.56h0c-.94,.67-1.23,1.13-1.5,1.57-.08,.12-.15,.24-.24,.37-.39,.54-1.04,1.45-1.25,2.75-.1,.6-.2,1.28,.2,1.96l.05,.09c.13,.24,.38,.68,1.04,1.24,.24,.2,.4,.34,.53,.44,.23,.19,.35,.29,.6,.53,.19,.18,.47,.49,.73,.78-.78,.44-1.5,.94-2.15,1.5-1.24,1.06-2.76,2.62-3.46,4Z" style="fill:#fff;"/><path d="M60.65,59.98c.57,6.57-.29,10.76-1.28,15.61-.67,3.25-1.24,6.46-1.58,10.81,1.36-.04,2.19,.02,3.26,0,.32-3.87,.94-6.79,1.55-9.79,1.03-5.02,1.89-9.75,1.37-17.09-.2-2.9,.02-1.03-.45-5.45-.15-1.37-.43-1.98-.62-2.68-1.32-.34-2.32,.85-3.56,1.23,.14,.68,.28,1.28,.41,1.84,.38,1.66,.68,2.96,.9,5.51Z" style="fill:#fff;"/><path d="M61.08,33.92c-.48,.01-.56-.02-.89,0l-.93,.03c-.47,.02-.7,0-1.12,0-.51,5.41-.52,4.61-.36,7.63,.21,3.96,.44,7.45,1.63,11.24l3.51-1.35c-1.07-3.44-1.71-6.99-1.9-10.57-.12-2.36-.29-4.38,.06-6.97Z" style="fill:#fff;"/><path d="M65.42,72.38c.43,.1,.89,.17,1.35,.19-.05,.19-.1,.39-.15,.52-.06,.16-.09,.24-.14,.37-.03,.08-.07,.18-.13,.32-.16,.4-.17,.66-.17,.8v.05c-.02,.4,.2,.68,.39,.93,.41,.54,.93,.8,1.24,.96,.07,.04,.14,.07,.2,.11,.24,.14,.48,.28,1.07,.37h0c.68-.46,1.09-.96,1.23-1.49,.03-.12,.05-.24,.06-.35,.02-.2,.05-.4,.18-.69,.07-.14,.22-.48,.55-.77,.34-.3,.72-.42,.88-.47h.03c.77-.26,1.51-1.28,2.26-3.13h0c-.75-1.01-1.62-1.31-2.13-1.49-.07-.02-.13-.04-.18-.06-.43-.16-1.17-.19-2.25-.09-.1-.01-.43-.29-.63-.46-.3-.25-.49-.41-.62-.44-.36-.09-.63-.1-.87-.11-.27-.01-.51-.02-.85-.13-.03,0-.07-.01-.12,0-.02,0-.05,.02-.08,.05-.35,.28-1.2,1.97-1.15,2.52h0c0,.18,.07,.79,.46,1.28,.12,.15,.42,.51,.69,.79-.31-.03-.62-.07-.92-.15-.75-.18-1.43-.49-2.02-.91l-.42,.47c.66,.47,1.41,.81,2.24,1.01Z" style="fill:#fff;"/><path d="M59.86,80.08l.62,3.15c-.63-1.25-3.84-5.38-4.96-6.33-.44-.38-.93-.72-1.44-1.04,.21,.72,.4,1.6,.46,1.97,.21,1.2-.26,2.32-.41,2.63h0c-.43,1-3.47,3.22-4.33,3.41-.07,.02-.13,.02-.18,.02-.11,0-.18-.05-.22-.09-.49-.49-.89-.71-1.35-.97-.4-.22-.85-.47-1.39-.93-.19-.16-.37-.6-.65-1.3-.19-.47-.5-1.25-.66-1.35-1.96-.76-3.21-1.45-3.8-2.09-.07-.08-.16-.17-.26-.27-.72-.75-1.94-2.01-2.29-4.42h0c3.02-2.59,5.25-3.74,6.81-3.51h.07c.32,.06,1.07,.18,1.95-.05,.84-.22,1.42-.68,1.67-.87,.5-.4,.74-.73,.97-1.05,.13-.18,.26-.36,.43-.55,.73-.81,1.91-1.33,3.51-1.56h0c.94,.67,1.23,1.13,1.5,1.57,.08,.12,.15,.24,.24,.37,.39,.54,1.04,1.45,1.25,2.75,.1,.6,.2,1.28-.2,1.96l-.05,.09c-.13,.24-.38,.68-1.04,1.24-.24,.2-.4,.34-.53,.44-.23,.19-.35,.29-.6,.53-.19,.18-.47,.49-.73,.78,.78,.44,1.5,.94,2.15,1.5,1.24,1.06,2.76,2.62,3.46,4Z" style="fill:#fff;"/></g></g></g></svg>