<?xml version="1.0" encoding="UTF-8"?><svg xmlns="http://www.w3.org/2000/svg" viewBox="0 0 87.32 83.49"><g id="a"/><g id="b"/><g id="c"><g><circle cx="43.66" cy="41.74" r="38.57" style="fill:#7b1245;"/><path d="M59.86,32.59c-2.23-1.9-3.88-2.73-5.03-2.57h-.05c-.24,.05-.79,.13-1.44-.04-.62-.16-1.05-.5-1.23-.64-.37-.29-.55-.54-.71-.77-.09-.13-.19-.27-.31-.4-.54-.59-1.41-.98-2.59-1.14h0c-.69,.49-.9,.83-1.11,1.15-.06,.09-.11,.18-.18,.27-.29,.4-.77,1.06-.92,2.01-.07,.44-.15,.94,.15,1.44l.04,.06c.1,.17,.28,.5,.76,.91,.17,.15,.29,.25,.39,.33,.17,.14,.26,.21,.44,.39,.14,.14,.35,.36,.54,.57-.57,.32-1.11,.69-1.59,1.1-.4,.34-.84,.76-1.26,1.2-.1-.44-.21-.75-.3-1.08h0c-.79-2.52-1.27-5.12-1.4-7.75-.09-1.73-.21-3.21,.04-5.11-.35,0-.41-.01-.66,0l-.68,.02c-.35,.01-.52,0-.83,0-.38,3.96-.38,3.38-.27,5.59,.04,.78,.09,1.54,.14,2.29-.54-.66-1.27-1.25-2.03-1.7-.43-.26-.9-.48-1.39-.66,.12-.19,.24-.38,.33-.5,.12-.16,.17-.22,.28-.35,.06-.07,.14-.16,.25-.3,.31-.38,.41-.65,.45-.8l.02-.05c.16-.42,.02-.8-.1-1.13-.26-.72-.73-1.18-1.02-1.45-.07-.06-.12-.13-.18-.19-.21-.23-.42-.46-1.03-.76h0c-.89,.26-1.5,.66-1.83,1.19-.08,.12-.13,.24-.18,.35-.09,.2-.19,.41-.44,.68-.12,.13-.4,.44-.86,.64-.48,.21-.92,.2-1.11,.2h-.04c-.92,0-2.06,.85-3.51,2.58h0c.47,1.34,1.3,1.95,1.8,2.31,.07,.05,.12,.09,.18,.13,.41,.32,1.2,.6,2.4,.86,.1,.04,.37,.46,.53,.71,.24,.37,.39,.61,.52,.68,.36,.21,.65,.32,.9,.41,.29,.1,.54,.19,.88,.43,.03,.02,.07,.04,.14,.03,.03,0,.06,0,.1-.02,.47-.18,1.96-1.71,2.1-2.31h0c.05-.19,.19-.86-.06-1.53-.08-.21-.28-.69-.48-1.08,.33,.14,.65,.29,.94,.47,.71,.42,2.01,1.78,2.57,2.48,.16,1.5,.42,2.97,.9,4.5h-.01c.11,.51,.21,.95,.3,1.35,.28,1.21,.5,2.17,.67,4.04,.42,4.82-.22,7.89-.95,11.44-.15,.71-.28,1.41-.42,2.14-.54-.66-1.2-1.29-1.77-1.78-.48-.41-1.01-.77-1.59-1.1,.19-.21,.4-.43,.54-.57,.18-.17,.27-.25,.44-.39,.09-.08,.21-.18,.39-.33,.49-.41,.67-.74,.76-.91l.04-.06c.3-.5,.22-1,.15-1.44-.15-.95-.63-1.61-.92-2.01-.07-.09-.12-.18-.18-.27-.21-.32-.42-.66-1.11-1.15h0c-1.18,.16-2.05,.55-2.59,1.14-.13,.14-.22,.27-.31,.4-.17,.24-.34,.48-.71,.77-.18,.14-.61,.48-1.23,.64-.65,.17-1.2,.08-1.44,.04h-.05c-1.15-.18-2.8,.66-5.03,2.56h0c.26,1.77,1.16,2.69,1.69,3.24,.07,.07,.13,.14,.19,.2,.43,.47,1.35,.98,2.8,1.53,.12,.07,.35,.65,.49,.99,.21,.51,.34,.84,.48,.96,.4,.34,.73,.52,1.03,.68,.34,.19,.63,.35,.99,.71,.03,.03,.08,.06,.16,.07,.04,0,.08,0,.13-.01,.63-.14,2.88-1.77,3.2-2.5h0c.11-.23,.45-1.05,.3-1.93-.05-.27-.19-.92-.34-1.44,.38,.24,.74,.49,1.07,.76,.46,.39,1.38,1.48,2.19,2.53-.21,1.33-.39,2.77-.52,4.43,1-.03,1.62,.01,2.41,0,.24-2.84,.69-4.97,1.15-7.17,.25-1.23,.49-2.44,.68-3.7,.43,.26,.89,.47,1.4,.6,.32,.08,.66,.12,1,.14-.04,.14-.08,.29-.11,.38-.04,.12-.06,.17-.11,.27-.02,.06-.05,.13-.1,.23-.12,.3-.12,.48-.13,.58v.04c-.01,.29,.14,.5,.29,.68,.3,.39,.69,.59,.92,.7,.05,.03,.1,.05,.15,.08,.17,.1,.35,.2,.79,.27h0c.5-.34,.8-.71,.91-1.09,.02-.09,.03-.17,.04-.25,.02-.14,.04-.29,.14-.51,.05-.11,.16-.35,.41-.56,.25-.22,.53-.31,.65-.34h.03c.57-.19,1.12-.94,1.67-2.29h0c-.56-.74-1.2-.96-1.58-1.09-.05-.02-.1-.03-.14-.05-.32-.12-.86-.14-1.66-.07-.07,0-.32-.21-.47-.34-.22-.19-.36-.3-.46-.32-.27-.06-.46-.07-.64-.08-.2,0-.38-.02-.63-.1-.02,0-.05-.01-.09,0-.02,0-.04,.02-.06,.03-.26,.2-.89,1.44-.85,1.85h0c0,.13,.05,.58,.34,.94,.09,.11,.31,.37,.51,.58-.23-.02-.46-.05-.68-.11-.55-.13-1.04-.35-1.48-.66,.34-2.38,.49-4.99,.25-8.34-.14-2.01,0-.9-.28-3.51,.68-.84,1.35-1.62,1.72-1.93,.33-.28,.69-.53,1.07-.76-.16,.53-.29,1.17-.34,1.44-.15,.88,.19,1.7,.3,1.93h0c.32,.73,2.56,2.36,3.2,2.5,.05,.01,.09,.01,.13,.01,.08,0,.13-.04,.16-.07,.36-.36,.65-.52,.99-.71,.29-.16,.63-.34,1.03-.68,.14-.12,.28-.44,.48-.96,.14-.34,.37-.92,.49-.99,1.45-.56,2.37-1.06,2.8-1.53,.06-.06,.12-.13,.19-.2,.53-.55,1.43-1.47,1.69-3.24h0Z" style="fill:#fff;"/></g></g><g id="d"/><g id="e"/><g id="f"/><g id="g"/><g id="h"/><g id="i"/><g id="j"/><g id="k"/><g id="l"/><g id="m"/><g id="n"/><g id="o"/><g id="p"/><g id="q"/><g id="r"/><g id="s"/><g id="t"><g id="u"/></g><g id="v"/><g id="w"/><g id="x"/><g id="y"/><g id="a`"/><g id="aa"/><g id="ab"/><g id="ac"/><g id="ad"/><g id="ae"/><g id="af"/><g id="ag"/><g id="ah"/><g id="ai"/><g id="aj"/><g id="ak"/><g id="al"/><g id="am"/><g id="an"><g id="ao"/><g id="ap"/><g id="aq"/></g><g id="ar"/><g id="as"/><g id="at"><g id="au"/></g><g id="av"/></svg>