<?xml version="1.0" encoding="UTF-8"?><svg xmlns="http://www.w3.org/2000/svg" viewBox="0 0 120.67 120.08"><g id="a"/><g id="b"/><g id="c"/><g id="d"/><g id="e"/><g id="f"/><g id="g"/><g id="h"/><g id="i"/><g id="j"/><g id="k"/><g id="l"><g id="m"/><g id="n"/><g id="o"/></g><g id="p"/><g id="q"/><g id="r"/><g id="s"/><g id="t"/><g id="u"/><g id="v"><g id="w"/></g><g id="x"/><g id="y"/><g id="a`"/><g id="aa"/><g id="ab"/><g id="ac"/><g id="ad"/><g id="ae"/><g id="af"/><g id="ag"/><g id="ah"/><g id="ai"/><g id="aj"/><g id="ak"/><g id="al"/><g id="am"/><g id="an"/><g id="ao"/><g id="ap"/><g id="aq"><g id="ar"><g><circle cx="61.44" cy="58.76" r="52.24" style="fill:#42B5E8;"/><path d="M77.52,51.68c.36,.61,.84,1.33,1.59,1.74,.75,.41,1.53,.45,2.17,.36,.63-.09,1.09-.3,1.09-.3,0,0-.02-.16-.1-.4-.09-.24-.22-.57-.39-.93-.17-.36-.39-.74-.66-1.08-.27-.34-.63-.63-1.01-.82-.77-.38-1.57-.29-2.19-.11-.61,.18-1.04,.43-1.04,.43,0,0,.18,.51,.55,1.11h0Zm.86,6.26c.23,.7,.43,1.54,1.06,2.16,.61,.62,1.44,.9,2.13,1.02,.68,.11,1.21,.05,1.21,.05,0,0,.04-.63-.08-1.43-.06-.4-.15-.84-.32-1.25-.2-.42-.45-.81-.79-1.11-.67-.61-1.52-.77-2.21-.78s-1.21,.11-1.21,.11c0,0,.02,.55,.2,1.24h0Zm-.41,7.14c0,.41,.06,.84,.21,1.25,.31,.82,.94,1.4,1.49,1.76,.55,.36,1.05,.51,1.05,.51,0,0,.09-.14,.17-.39,.09-.25,.21-.6,.31-1,.1-.4,.18-.85,.2-1.31,.01-.45-.09-.93-.27-1.34-.36-.83-1.07-1.29-1.67-1.56-.6-.27-1.11-.35-1.11-.35,0,0-.19,.52-.28,1.24-.03,.37-.09,.76-.09,1.17h0Zm-2.69,5.04c-.1,.38-.16,.79-.16,1.18,.02,.8,.44,1.53,.86,2.03,.42,.51,.85,.8,.85,.8,0,0,.48-.43,.96-1.08,.44-.68,.84-1.6,.76-2.44-.13-.87-.69-1.5-1.21-1.91-.52-.42-1-.63-1-.63,0,0-.08,.11-.19,.29-.12,.18-.25,.46-.43,.74-.17,.29-.33,.64-.44,1.01h0Zm9.32-17.92c.42-.8,.51-1.92,.41-2.82-.11-.89-.32-1.58-.32-1.58,0,0-.5,.03-1.09,.28-.59,.25-1.28,.71-1.66,1.52-.2,.41-.28,.86-.35,1.31-.07,.46-.08,.92-.07,1.32,.02,.41,.06,.76,.1,1.02,.03,.26,.05,.42,.05,.42,0,0,.49,.02,1.12-.14,.61-.16,1.39-.52,1.81-1.32h0Zm1.19,8.06c.67-.7,1.1-1.8,1.19-2.71,.12-.92,.09-1.64,.09-1.64,0,0-.53-.08-1.21,.04-.68,.11-1.52,.42-2.13,1.14-.31,.36-.53,.78-.69,1.22-.19,.44-.34,.89-.44,1.29-.2,.81-.23,1.45-.23,1.45,0,0,.52,.14,1.2,.12,.69-.02,1.55-.2,2.23-.91h0Zm-2.05,8.63c.43-.22,.83-.56,1.19-.96,.36-.39,.67-.83,.87-1.25,.44-.84,.67-1.56,.67-1.56,0,0-.45-.25-1.11-.37-.66-.12-1.52-.1-2.33,.38-.41,.24-.74,.58-1.08,.93-.34,.35-.62,.73-.86,1.09-.23,.36-.41,.68-.54,.92-.12,.24-.2,.39-.2,.39,0,0,.41,.31,1.04,.54,.64,.23,1.47,.35,2.34-.1h0Zm-3.97,6.23c.53-.09,1.03-.32,1.49-.62,.46-.3,.89-.64,1.25-.98,.37-.33,.62-.68,.81-.92,.18-.25,.29-.41,.29-.41,0,0-.39-.34-1.03-.59-.64-.25-1.52-.42-2.44-.15-.99,.24-1.85,.86-2.51,1.4-.7,.51-1.15,.99-1.15,.99,0,0,.32,.4,.89,.76,.57,.36,1.38,.7,2.42,.51h0Z" style="fill:#fff;"/><path d="M71.31,73.45c-.53,.46-1.17,1.06-1.44,1.86-.28,.81-.18,1.58,.02,2.2,.2,.61,.48,1.02,.48,1.02,0,0,.15-.05,.37-.17,.22-.13,.53-.31,.84-.54,.32-.23,.66-.51,.95-.84,.29-.33,.51-.73,.64-1.14,.25-.83,.01-1.6-.27-2.18-.28-.57-.61-.95-.61-.95,0,0-.47,.26-1,.74h0Zm-6.02,1.93c-.65,.34-1.44,.69-1.95,1.42-.51,.71-.64,1.58-.63,2.27,0,.69,.16,1.2,.16,1.2,0,0,.63-.07,1.4-.32,.38-.13,.8-.29,1.18-.53,.38-.26,.72-.58,.96-.97,.49-.76,.49-1.63,.39-2.31-.1-.68-.31-1.17-.31-1.17,0,0-.54,.11-1.19,.42h0Zm-7.11,.82c-.41,.07-.82,.2-1.19,.42-.75,.45-1.22,1.17-1.48,1.77-.26,.61-.32,1.12-.32,1.12,0,0,.15,.06,.41,.1,.26,.05,.62,.1,1.03,.13,.41,.03,.87,.03,1.32-.03,.45-.07,.9-.25,1.27-.49,.75-.5,1.09-1.27,1.25-1.92,.16-.64,.15-1.16,.15-1.16,0,0-.55-.1-1.27-.07-.37,.03-.77,.04-1.17,.11h0Zm-5.43-1.78c-.39-.04-.81-.03-1.19,.05-.79,.16-1.43,.7-1.85,1.2-.43,.5-.64,.97-.64,.97,0,0,.51,.4,1.23,.76,.74,.32,1.72,.55,2.53,.33,.84-.28,1.36-.94,1.68-1.53,.32-.59,.45-1.1,.45-1.1,0,0-.12-.06-.32-.14-.2-.09-.49-.16-.8-.29-.32-.11-.68-.21-1.07-.25h0Zm19.26,6.09c.86,.28,1.98,.17,2.85-.08,.86-.26,1.5-.59,1.5-.59,0,0-.12-.49-.46-1.03-.35-.54-.92-1.13-1.78-1.37-.44-.12-.89-.13-1.35-.11-.47,.01-.92,.08-1.31,.16-.4,.09-.74,.19-.99,.27-.25,.08-.4,.12-.4,.12,0,0,.06,.49,.33,1.08,.26,.57,.75,1.28,1.62,1.56h0Zm-7.74,2.57c.81,.53,1.96,.78,2.88,.7,.92-.04,1.63-.2,1.63-.2,0,0-.01-.53-.25-1.19-.23-.65-.68-1.42-1.49-1.9-.41-.24-.86-.39-1.32-.47-.47-.11-.93-.18-1.35-.21-.83-.06-1.47,.02-1.47,.02,0,0-.05,.53,.09,1.21,.14,.68,.47,1.49,1.28,2.04h0Zm-8.85-.53c.29,.39,.7,.72,1.15,1,.45,.29,.93,.52,1.39,.64,.91,.29,1.65,.39,1.65,.39,0,0,.17-.49,.17-1.15,0-.67-.16-1.51-.77-2.23-.31-.37-.7-.63-1.1-.9-.4-.27-.83-.49-1.22-.66-.39-.17-.74-.29-1-.37-.26-.07-.41-.13-.41-.13,0,0-.24,.46-.35,1.11-.11,.67-.09,1.51,.5,2.29h0Zm-6.82-2.84c.18,.51,.49,.96,.87,1.36,.37,.4,.79,.76,1.18,1.06,.39,.31,.77,.49,1.05,.64,.28,.14,.45,.21,.45,.21,0,0,.26-.45,.4-1.12,.14-.67,.15-1.57-.28-2.43-.4-.93-1.16-1.67-1.81-2.23-.62-.6-1.17-.96-1.17-.96,0,0-.33,.38-.6,1-.26,.62-.45,1.48-.08,2.47h0Z" style="fill:#fff;"/><path d="M56.5,42c.66-.25,1.46-.6,2-1.25,.54-.66,.71-1.43,.73-2.07,.02-.64-.1-1.12-.1-1.12,0,0-.16,0-.41,.03-.25,.04-.6,.11-.98,.22-.38,.11-.8,.26-1.18,.46-.39,.21-.73,.51-.99,.85-.51,.69-.56,1.5-.5,2.13,.07,.63,.24,1.1,.24,1.1,0,0,.53-.08,1.19-.35h0Zm6.43,.05c.73-.1,1.59-.16,2.32-.66,.72-.49,1.14-1.26,1.37-1.91,.23-.65,.26-1.18,.26-1.18,0,0-.62-.15-1.42-.18-.41,0-.85,0-1.29,.09-.44,.12-.87,.3-1.23,.58-.72,.55-1.02,1.36-1.16,2.04s-.11,1.21-.11,1.21c0,0,.54,.08,1.26,.02h0Zm6.9,1.41c.41,.08,.84,.09,1.26,0,.86-.16,1.55-.68,2-1.15,.46-.48,.69-.94,.69-.94,0,0-.12-.11-.35-.24-.23-.13-.55-.31-.93-.48-.38-.17-.81-.33-1.25-.43-.44-.09-.93-.07-1.37,.03-.88,.21-1.46,.82-1.83,1.37-.37,.55-.54,1.04-.54,1.04,0,0,.48,.28,1.17,.5,.35,.1,.73,.22,1.14,.3h0Zm4.98,3.83c.36,.17,.75,.3,1.13,.37,.8,.12,1.58-.17,2.15-.49,.57-.32,.94-.69,.94-.69,0,0-.34-.55-.89-1.14-.59-.55-1.43-1.11-2.27-1.18-.88-.03-1.6,.42-2.1,.86-.5,.44-.8,.88-.8,.88,0,0,.09,.1,.25,.24,.16,.15,.41,.32,.65,.55,.26,.22,.57,.43,.92,.61h0Zm-16.55-12.16c-.72-.56-1.8-.84-2.71-.9-.9-.05-1.61,.04-1.61,.04,0,0-.06,.5,.08,1.13,.14,.63,.47,1.38,1.2,1.9,.37,.27,.79,.43,1.23,.57,.44,.15,.89,.24,1.29,.3,.4,.06,.76,.08,1.02,.09,.26,.02,.42,.02,.42,.02,0,0,.11-.48,.06-1.12-.05-.63-.27-1.46-.98-2.02h0Zm8.26,.05c-.57-.78-1.58-1.4-2.46-1.65-.88-.28-1.6-.38-1.6-.38,0,0-.17,.51-.18,1.2,0,.69,.15,1.57,.75,2.3,.3,.36,.68,.66,1.08,.9,.4,.26,.81,.49,1.2,.66,.76,.34,1.39,.48,1.39,.48,0,0,.23-.48,.33-1.16,.1-.68,.07-1.56-.5-2.35h0Zm8.08,3.28c-.14-.46-.41-.92-.73-1.34-.32-.42-.7-.8-1.08-1.08-.75-.58-1.41-.93-1.41-.93,0,0-.33,.4-.56,1.02-.23,.63-.37,1.48-.04,2.36,.16,.45,.44,.83,.73,1.22,.28,.39,.61,.74,.92,1.04,.31,.29,.6,.53,.81,.69,.22,.16,.34,.26,.34,.26,0,0,.38-.35,.71-.93,.33-.59,.6-1.39,.32-2.32h0Zm5.93,5.29c0-.54-.14-1.07-.35-1.57-.21-.5-.48-.99-.75-1.4-.26-.43-.56-.73-.76-.96-.21-.22-.35-.35-.35-.35,0,0-.4,.33-.76,.91-.36,.58-.68,1.42-.58,2.38,.06,1.01,.52,1.97,.94,2.72,.38,.78,.77,1.31,.77,1.31,0,0,.45-.24,.91-.74,.46-.49,.93-1.24,.93-2.29h0Z" style="fill:#fff;"/><path d="M44.03,61.46c-.16-.69-.4-1.52-.98-2.14-.59-.62-1.32-.89-1.96-1-.63-.11-1.13-.04-1.13-.04,0,0-.03,.15-.02,.41,0,.26,.03,.61,.09,1,.06,.39,.15,.82,.3,1.23,.16,.41,.41,.79,.71,1.09,.62,.6,1.41,.75,2.05,.77,.64,.02,1.12-.1,1.12-.1,0,0-.01-.54-.19-1.23h0Zm.95-6.34c0-.73,.05-1.6-.36-2.38-.4-.78-1.1-1.3-1.72-1.61-.61-.31-1.14-.41-1.14-.41,0,0-.23,.59-.36,1.39-.06,.4-.11,.84-.08,1.29,.06,.46,.19,.9,.41,1.3,.45,.79,1.22,1.19,1.87,1.41s1.18,.26,1.18,.26c0,0,.15-.53,.18-1.25h0Zm2.3-6.69c.13-.39,.2-.82,.17-1.25-.05-.88-.47-1.62-.88-2.13-.42-.51-.84-.81-.84-.81,0,0-.13,.11-.28,.32-.16,.21-.38,.51-.6,.86-.22,.35-.43,.76-.58,1.18-.15,.43-.19,.91-.15,1.36,.1,.9,.63,1.55,1.12,1.99,.5,.44,.96,.67,.96,.67,0,0,.34-.44,.65-1.1,.14-.34,.31-.7,.44-1.09h0Zm4.44-4.44c.21-.33,.39-.7,.51-1.08,.22-.77,.04-1.59-.21-2.2-.25-.61-.56-1.02-.56-1.02,0,0-.59,.27-1.24,.74-.63,.51-1.28,1.27-1.47,2.09-.14,.87,.21,1.64,.58,2.19,.37,.55,.77,.9,.77,.9,0,0,.11-.08,.27-.22,.17-.14,.37-.36,.63-.58,.25-.23,.51-.51,.72-.84h0Zm-14.28,14.83c-.65,.64-1.07,1.68-1.25,2.57-.16,.89-.17,1.6-.17,1.6,0,0,.49,.13,1.13,.07,.64-.06,1.43-.29,2.04-.95,.31-.33,.53-.73,.73-1.15,.21-.42,.36-.85,.46-1.24,.11-.39,.18-.74,.22-1,.05-.26,.08-.41,.08-.41,0,0-.46-.17-1.11-.2-.63-.03-1.48,.08-2.13,.71h0Zm1.18-8.15c-.85,.47-1.6,1.38-1.95,2.23-.39,.84-.58,1.54-.58,1.54,0,0,.48,.24,1.17,.33,.68,.1,1.57,.06,2.38-.44,.4-.25,.74-.59,1.03-.95,.31-.36,.59-.74,.81-1.1,.44-.71,.66-1.32,.66-1.32,0,0-.45-.29-1.11-.48-.66-.19-1.54-.27-2.4,.19h0Zm4.31-7.61c-.48,.08-.96,.29-1.42,.55-.46,.26-.89,.59-1.21,.93-.67,.67-1.11,1.28-1.11,1.28,0,0,.35,.38,.94,.69,.59,.31,1.42,.56,2.34,.35,.47-.1,.88-.33,1.31-.56,.43-.23,.82-.51,1.15-.78,.33-.27,.6-.52,.79-.72,.19-.2,.31-.31,.31-.31,0,0-.29-.42-.83-.82-.54-.41-1.3-.78-2.26-.62h0Zm6.02-5.19c-.53-.08-1.08,0-1.6,.14-.53,.14-1.04,.35-1.49,.56-.46,.2-.79,.46-1.05,.63-.25,.18-.4,.3-.4,.3,0,0,.27,.44,.81,.87,.53,.43,1.32,.86,2.28,.88,1.01,.07,2.02-.26,2.81-.58,.82-.28,1.39-.59,1.39-.59,0,0-.18-.47-.61-1-.43-.52-1.1-1.08-2.15-1.22h0Z" style="fill:#fff;"/><path d="M49.48,70.8c-.62-.38-1.33-.89-2.21-.96-.87-.08-1.69,.25-2.28,.6-.59,.36-.95,.74-.95,.74,0,0,.38,.51,.99,1.04,.31,.26,.65,.54,1.05,.75,.42,.19,.87,.32,1.32,.34,.91,.03,1.66-.4,2.19-.84s.85-.86,.85-.86c0,0-.37-.41-.96-.82h0Zm-4.46-5.49c-.27-.32-.59-.6-.97-.81-.77-.42-1.63-.46-2.27-.38-.66,.08-1.13,.29-1.13,.29,0,0,.02,.16,.12,.41,.09,.25,.23,.59,.41,.96,.18,.37,.41,.77,.7,1.12,.28,.35,.67,.65,1.07,.85,.81,.39,1.65,.29,2.28,.1,.63-.19,1.07-.46,1.07-.46,0,0-.19-.52-.59-1.13-.21-.3-.43-.64-.69-.95h0Zm-2.69,8.53c-.05,.97,.33,2.09,.85,2.84,.5,.78,1,1.31,1,1.31,0,0,.45-.28,.9-.81,.44-.53,.88-1.3,.89-2.25,0-.47-.1-.94-.26-1.38-.14-.46-.32-.9-.5-1.27-.37-.75-.77-1.26-.77-1.26,0,0-.48,.23-.99,.69-.51,.46-1.05,1.16-1.11,2.13h0Zm-4.17-7.69c-.19,.45-.27,.97-.28,1.5-.02,.53,.03,1.06,.15,1.52,.21,.93,.5,1.62,.5,1.62,0,0,.51-.1,1.08-.43,.58-.34,1.22-.91,1.53-1.8,.16-.45,.19-.92,.22-1.41,.03-.48,0-.96-.05-1.38-.05-.42-.13-.79-.19-1.05-.07-.26-.1-.42-.1-.42,0,0-.51,.03-1.14,.27-.63,.24-1.35,.69-1.72,1.59h0Z" style="fill:#fff;"/></g></g></g></svg>