<?xml version="1.0" encoding="UTF-8"?><svg xmlns="http://www.w3.org/2000/svg" viewBox="0 0 120.67 120.08"><g id="a"/><g id="b"/><g id="c"/><g id="d"/><g id="e"/><g id="f"/><g id="g"/><g id="h"/><g id="i"/><g id="j"/><g id="k"/><g id="l"><g id="m"/><g id="n"/><g id="o"/></g><g id="p"/><g id="q"/><g id="r"/><g id="s"/><g id="t"/><g id="u"/><g id="v"><g id="w"/></g><g id="x"/><g id="y"/><g id="a`"/><g id="aa"/><g id="ab"/><g id="ac"/><g id="ad"/><g id="ae"/><g id="af"/><g id="ag"/><g id="ah"/><g id="ai"/><g id="aj"/><g id="ak"/><g id="al"/><g id="am"/><g id="an"/><g id="ao"/><g id="ap"/><g id="aq"><g><ellipse cx="61.13" cy="58.94" rx="52.21" ry="52.06" style="fill:#42B5E8;"/><g><path d="M56.81,51.72c-.63-.76-1.35-1.43-2.15-2.02-.55,.12-1.33-.02-2.09-.43-1.2-.65-1.9-1.71-1.57-2.38s1.58-.69,2.78-.04c.57,.31,1.03,.72,1.32,1.13,1.12,.75,2.13,1.64,2.99,2.67,.65,.78,1.18,1.59,1.62,2.4-.14-4.91-1.86-9.25-5.11-12.9-1.63-1.83-3.59-3.41-5.83-4.7-1.1,1.86-1.79,3.86-2.04,5.98-.37,3.17,.25,6.43,1.84,9.7,.27-.01,.54-.01,.8,0h0c.43,.03,1.08,.1,1.79,.43l1.48,.68c.71,.33,.83,.38,1.07,.48,2.04,.83,4.12,2.64,5.59,4.57,.03-.14,.07-.29,.1-.43-.42-1.64-1.2-3.46-2.6-5.14Z" style="fill:#fff;"/><path d="M75.41,41.83c-.25-2.12-.93-4.12-2.04-5.98-2.24,1.29-4.2,2.87-5.83,4.7-3.15,3.54-4.86,7.73-5.09,12.46,.43-.8,.96-1.6,1.6-2.37,.86-1.03,1.87-1.92,2.99-2.67,.29-.41,.74-.82,1.32-1.13,1.2-.65,2.45-.63,2.78,.04,.33,.67-.37,1.74-1.57,2.38-.76,.41-1.54,.55-2.09,.43-.8,.59-1.52,1.26-2.15,2.02-1.44,1.73-2.07,3.47-2.48,5.15,.02,.12-.12,.38-.09,.5,1.47-2.03,3.65-3.96,5.78-4.83,.24-.1,.36-.15,1.09-.49l1.46-.67c.72-.33,1.37-.4,1.79-.43h0c.3-.02,.62-.01,.93,0,1.39-3.08,1.93-6.14,1.58-9.12Z" style="fill:#fff;"/><path d="M53.13,54.29c-.25-.1-.38-.16-1.14-.51l-1.48-.68c-.47-.22-.91-.27-1.23-.29-2.4-.13-5.75,1.16-6.13,1.3-3.7,1.47-6.06,2.65-8.31,4.92l-.36,.33c2.89,1.83,4.39,2.38,9.59,3.58l1.35,.31c.91,.21,1.67,.39,2.34,.53,2.17-2.73,5.1-5.08,7.9-5.14,1.11-.02,2.06,.11,2.86,.37-1.22-1.83-3.25-3.85-5.4-4.73Z" style="fill:#fff;"/><path d="M55.7,60.33c-3.42,.07-7.61,5.02-9.1,8.54-1.93,4.56-2.22,10.37-1.67,12.24,.61-.26,1.86-1.13,2.99-1.92,.81-.57,1.73-1.21,2.73-1.87,3.13-2.05,4.83-3.46,5.01-3.61,2.38-2,3.36-6.18,3.78-7.97,.06-.25,.11-.47,.15-.63,.44-1.67,.36-2.9-.24-3.66-.61-.78-1.83-1.16-3.64-1.12Z" style="fill:#fff;"/><path d="M66.11,60.27c-.08,0-.16,0-.24,0-1.67,0-2.81,.38-3.4,1.12-.6,.76-.68,2-.24,3.67,.04,.16,.09,.37,.15,.63,.42,1.79,1.39,5.97,3.78,7.97,.18,.15,1.89,1.56,5.01,3.61,1,.65,1.92,1.3,2.73,1.86,1.12,.79,2.38,1.67,2.99,1.92,.54-1.87,.26-7.67-1.67-12.24-1.49-3.52-5.68-8.47-9.1-8.54Z" style="fill:#fff;"/><path d="M73.99,63.65c.71-.15,1.53-.34,2.54-.57l1.35-.31c5.19-1.19,6.64-1.56,9.53-3.4l-.64-.63c-2.25-2.27-4.28-3.34-7.97-4.81-.37-.15-3.72-1.45-6.13-1.3-.33,.02-.76,.07-1.23,.29l-1.46,.67c-.77,.36-.9,.42-1.15,.52-2.19,.89-4.25,2.97-5.46,4.82,.79-.24,1.71-.36,2.79-.34,2.78,.06,5.68,2.37,7.84,5.06Z" style="fill:#fff;"/><polygon points="48.18 33.32 48.11 33.43 48.18 33.32 48.18 33.32"/><path d="M59.41,56.86c-.03,.14-.06,.29-.1,.43,.09,.12,.19,.24,.27,.36-.05-.26-.11-.52-.18-.8Z" style="fill:#fff;"/><path d="M60.27,54.2v-.28c0,.09,0,.18,0,.26v.02Z"/><polygon points="48.19 33.32 48.18 33.32 48.23 33.35 48.19 33.32"/><polygon points="73.65 33.72 73.64 33.73 73.72 33.84 73.65 33.72"/><polygon points="73.64 33.73 73.59 33.76 73.64 33.73 73.64 33.73"/><polygon points="62.99 59.53 62.99 59.53 62.99 59.54 62.99 59.53"/><path d="M60.27,53.12c0-.23-.02-.46-.03-.69l.02,1.49c0-.27,.02-.53,0-.8Z"/><path d="M61.08,55.5c.08-.23,.16-.47,.25-.7,.03-.55,.05-1.09,.04-1.64-.02-.69-.07-1.38-.14-2.05-.11,.81-.18,1.63-.2,2.47-.02,.64,0,1.28,.06,1.92Z"/><path d="M60.71,55.37c-.07-.22-.15-.44-.24-.66,.02,.54,.06,1.08,.13,1.62,.05-.32,.08-.63,.11-.95Z"/><path d="M61.33,54.79c-.09,.24-.17,.47-.25,.7,.02,.28,.05,.56,.09,.84,.07-.51,.13-1.03,.16-1.54Z"/><circle cx="60.98" cy="59.39" r="1.19" style="fill:#fff;"/><g><path d="M62.87,43.94c0-1.38-.84-2.49-1.87-2.49s-1.87,1.12-1.87,2.49c0,.96,.41,1.79,1.01,2.21v-.28l1.67-.02v.32c.62-.41,1.05-1.25,1.05-2.23Z" style="fill:#fff;"/><path d="M60.14,45.48l.04,5.04h0v1.4l.03,1.76-.08,5.56,1.64,.02,.08-5.96,.02-.17v-1.46l-.02-1.15h0l-.04-5.01c-.25,.11-.53,.17-.82,.17s-.6-.08-.85-.21Zm.44,5.94c-.1-.27-.22-.53-.35-.79,.13,.26,.24,.52,.35,.79Zm1.22-.78c-.14,.26-.27,.52-.39,.78,.12-.26,.25-.52,.39-.78Z" style="fill:#fff;"/></g></g></g></g></svg>