<?xml version="1.0" encoding="UTF-8"?><svg xmlns="http://www.w3.org/2000/svg" viewBox="0 0 87.32 83.49"><g id="a"/><g id="b"/><g id="c"/><g id="d"/><g id="e"/><g id="f"/><g id="g"/><g id="h"/><g id="i"/><g id="j"/><g id="k"/><g id="l"/><g id="m"/><g id="n"/><g id="o"/><g id="p"/><g id="q"/><g id="r"/><g id="s"/><g id="t"><g id="u"/></g><g id="v"/><g id="w"/><g id="x"/><g id="y"/><g id="a`"/><g id="aa"/><g id="ab"/><g id="ac"/><g id="ad"/><g id="ae"/><g id="af"/><g id="ag"/><g id="ah"><g><circle cx="43.66" cy="41.74" r="38.57" style="fill:#7b1245;"/><g><path d="M40.29,36.36c-.47-.56-1-1.05-1.58-1.48-.41,.09-.98-.01-1.54-.32-.89-.48-1.4-1.26-1.16-1.75s1.16-.51,2.05-.03c.42,.23,.76,.53,.97,.83,.83,.55,1.57,1.2,2.21,1.96,.48,.58,.87,1.17,1.19,1.77-.1-3.61-1.37-6.8-3.77-9.48-1.2-1.35-2.65-2.51-4.3-3.46-.81,1.36-1.32,2.84-1.5,4.4-.28,2.33,.18,4.73,1.36,7.13,.2,0,.4,0,.59,0h0c.31,.02,.79,.07,1.32,.32l1.09,.5c.52,.24,.61,.28,.79,.35,1.51,.61,3.04,1.94,4.12,3.36,.02-.11,.05-.21,.07-.32-.31-1.21-.88-2.54-1.92-3.78Z" style="fill:#fff;"/><path d="M54,29.09c-.18-1.56-.69-3.03-1.5-4.4-1.65,.95-3.09,2.11-4.3,3.46-2.32,2.6-3.58,5.68-3.75,9.16,.32-.59,.71-1.18,1.18-1.75,.63-.76,1.38-1.41,2.21-1.96,.21-.3,.55-.6,.97-.83,.89-.48,1.8-.46,2.05,.03s-.27,1.28-1.16,1.75c-.56,.3-1.13,.4-1.54,.32-.59,.43-1.12,.93-1.58,1.48-1.06,1.27-1.53,2.55-1.83,3.79,.02,.09-.08,.28-.07,.37,1.08-1.49,2.69-2.91,4.26-3.55,.18-.07,.26-.11,.8-.36l1.08-.5c.53-.24,1.01-.3,1.32-.31h0c.22-.01,.45-.01,.69,0,1.03-2.26,1.43-4.52,1.16-6.71Z" style="fill:#fff;"/><path d="M37.58,38.25c-.19-.08-.28-.12-.84-.38l-1.09-.5c-.35-.16-.67-.2-.91-.21-1.77-.1-4.24,.85-4.52,.96-2.73,1.08-4.47,1.95-6.13,3.62l-.27,.24c2.13,1.35,3.24,1.75,7.07,2.63l.99,.23c.67,.16,1.23,.28,1.72,.39,1.6-2,3.76-3.73,5.83-3.78,.82-.01,1.52,.08,2.11,.27-.9-1.34-2.4-2.83-3.98-3.47Z" style="fill:#fff;"/><path d="M39.47,42.69c-2.53,.05-5.61,3.69-6.71,6.28-1.43,3.36-1.63,7.62-1.23,9,.45-.19,1.37-.83,2.2-1.41,.6-.42,1.28-.89,2.01-1.37,2.31-1.51,3.56-2.54,3.69-2.65,1.76-1.47,2.48-4.55,2.78-5.86,.04-.19,.08-.34,.11-.46,.32-1.23,.26-2.13-.18-2.69-.45-.57-1.35-.85-2.68-.82Z" style="fill:#fff;"/><path d="M47.15,42.64c-.06,0-.12,0-.17,0-1.23,0-2.07,.28-2.51,.83-.44,.56-.5,1.47-.18,2.7,.03,.12,.07,.28,.11,.46,.31,1.31,1.03,4.39,2.78,5.86,.14,.11,1.39,1.15,3.69,2.65,.73,.48,1.41,.95,2.01,1.37,.83,.58,1.75,1.22,2.21,1.41,.4-1.37,.19-5.64-1.23-9-1.1-2.59-4.19-6.23-6.71-6.28Z" style="fill:#fff;"/><path d="M52.96,45.13c.52-.11,1.13-.25,1.87-.42l.99-.23c3.83-.88,4.89-1.15,7.03-2.5l-.47-.46c-1.66-1.67-3.15-2.45-5.88-3.53-.28-.11-2.74-1.07-4.52-.96-.24,.01-.56,.05-.91,.21l-1.07,.49c-.57,.26-.66,.31-.85,.38-1.61,.65-3.14,2.18-4.03,3.55,.58-.18,1.26-.27,2.06-.25,2.05,.04,4.19,1.74,5.78,3.72Z" style="fill:#fff;"/><polygon points="33.92 22.83 33.87 22.91 33.93 22.83 33.92 22.83" style="fill:#fff;"/><path d="M42.2,40.14c-.02,.11-.05,.21-.07,.32,.07,.09,.14,.18,.2,.27-.04-.19-.08-.39-.13-.59Z" style="fill:#fff;"/><path d="M42.84,38.18v-.21c0,.06,0,.13,0,.19h0Z" style="fill:#fff;"/><polygon points="33.93 22.83 33.93 22.83 33.96 22.85 33.93 22.83" style="fill:#fff;"/><polygon points="52.71 23.13 52.7 23.13 52.76 23.22 52.71 23.13" style="fill:#fff;"/><polygon points="52.7 23.13 52.66 23.15 52.7 23.13 52.7 23.13" style="fill:#fff;"/><polygon points="44.85 42.1 44.85 42.1 44.84 42.11 44.85 42.1" style="fill:#fff;"/><path d="M42.84,37.39c0-.17-.01-.34-.02-.51l.02,1.09c0-.2,.01-.39,0-.59Z" style="fill:#fff;"/><path d="M43.44,39.14c.06-.17,.12-.34,.18-.52,.02-.4,.04-.8,.03-1.2-.01-.51-.05-1.01-.1-1.51-.08,.59-.13,1.2-.15,1.82-.01,.47,0,.94,.04,1.41Z" style="fill:#fff;"/><path d="M43.17,39.04c-.05-.16-.11-.32-.18-.49,.01,.4,.05,.79,.09,1.19,.03-.23,.06-.47,.08-.7Z" style="fill:#fff;"/><path d="M43.62,38.62c-.07,.17-.13,.35-.18,.52,.02,.21,.04,.41,.06,.62,.05-.38,.09-.75,.12-1.13Z" style="fill:#fff;"/><circle cx="43.36" cy="42" r=".88" style="fill:#fff;"/><g><path d="M44.76,30.64c0-1.01-.62-1.83-1.38-1.83s-1.38,.82-1.38,1.83c0,.71,.31,1.32,.75,1.62v-.2l1.23-.02v.24c.46-.3,.78-.92,.78-1.64Z" style="fill:#fff;"/><path d="M42.74,31.77l.03,3.71h0v1.03l.02,1.3-.06,4.09,1.21,.02,.06-4.38,.02-.12v-1.08l-.02-.84h0l-.03-3.68c-.18,.08-.39,.13-.61,.12s-.44-.06-.63-.15Zm.32,4.37c-.08-.2-.16-.39-.26-.58,.09,.19,.18,.39,.26,.58Zm.9-.57c-.1,.19-.2,.38-.29,.57,.09-.19,.19-.38,.29-.57Z" style="fill:#fff;"/></g></g></g></g><g id="ai"/><g id="aj"/><g id="ak"/><g id="al"/><g id="am"/><g id="an"><g id="ao"/><g id="ap"/><g id="aq"/></g><g id="ar"/><g id="as"/><g id="at"><g id="au"/></g><g id="av"/></svg>