<?xml version="1.0" encoding="UTF-8"?><svg xmlns="http://www.w3.org/2000/svg" viewBox="0 0 120.67 120.08"><g id="a"/><g id="b"/><g id="c"/><g id="d"/><g id="e"/><g id="f"/><g id="g"/><g id="h"/><g id="i"/><g id="j"/><g id="k"/><g id="l"><g id="m"/><g id="n"/><g id="o"/></g><g id="p"/><g id="q"/><g id="r"/><g id="s"/><g id="t"/><g id="u"/><g id="v"><g id="w"/></g><g id="x"/><g id="y"/><g id="a`"/><g id="aa"/><g id="ab"/><g id="ac"/><g id="ad"/><g id="ae"/><g id="af"/><g id="ag"/><g id="ah"/><g id="ai"/><g id="aj"/><g id="ak"/><g id="al"/><g id="am"/><g id="an"/><g id="ao"/><g id="ap"/><g id="aq"><g><ellipse cx="60.95" cy="59.37" rx="52.21" ry="52.17" style="fill:#245E8A;"/><g><path d="M86.88,54.74c-.9-1.86-5.95-2.08-8.65-.46-.28,.17-.17,.17-.93,.39-.38,.11-2.76-.11-4.51-.71-.4-.21-.81-.4-1.24-.59h0c-.08-.06-.11-.07-.1-.04-1.25-.53-2.61-.97-4.07-1.3-.22,.07-.46,.15-.74,.23-1.05,.29-2.52,.57-4.32,.57-.91,0-1.89-.07-2.95-.25-.96-.16-1.91-.4-2.85-.71-.16-.05-.32-.11-.48-.17-.48,.08-.96,.17-1.43,.27-1.56,.34-3.01,.8-4.33,1.36,.34-.91,.53-1.9,.53-2.93,0-1.46-.38-2.84-1.04-4.03-.81-1.46-2.05-2.64-3.54-3.36-1.03-.49-2.17-.77-3.38-.77-4.73,0-7.85,4.36-7.95,8.16-.02,.89,.12,1.7,.35,2.43v-.02c.09,.48,.44,1.4,.68,1.83,1.48,2.65,3.22,5.31,5.07,7.73,1.28,1.68,2.77,3.19,4.02,4.52,1.26,1.36,3.01,2.54,5.12,3.46,1.47,.64,3.11,1.15,4.88,1.51-.68,.17-1.07,.36-1.07,.57,0,.23,.47,.44,1.28,.62-1.74,.57-2.83,1.37-2.86,2.24h19.42c-.04-.93-1.25-1.76-3.18-2.34,.56-.16,.88-.34,.88-.52,0-.29-.73-.55-1.93-.75,4.74-1.1,8.49-3.35,10.26-6.16,2.76-2.81,3.76-3.39,4.07-3.66,2.07-1.79,2.2-1.57,3.39-2.93,.23-.26,2.35-2.69,1.62-4.21Zm-44.05-2.14c-1.73,0-3.13-1.39-3.13-3.11s1.4-3.11,3.13-3.11,3.13,1.39,3.13,3.11-1.4,3.11-3.13,3.11Z" style="fill:#fff;"/><path d="M59.61,51.36c2.92,.49,5.31,.14,6.84-.26,.09-.02,.18-.05,.26-.07-.43-1.66-2.51-2.92-5.01-2.92-2.31,0-4.27,1.08-4.88,2.56,.18,.06,.36,.12,.54,.17,.74,.22,1.49,.4,2.24,.52Z" style="fill:#fff;"/></g><path d="M86.58,47.74c.07,.23,0,1.28-1.13,1.66s-1.17,1.51-1.17,1.51c-.18-.59-.01-.56,.66-2.27,.67-1.71-.68-2.49-.68-2.49,.11,.27,.23,1.09-.74,1.93-.97,.84-1.23,1.64-1.23,1.64,.26-1.05-.78-1.77-.78-1.77,.46,.63-.44,1.25-.44,1.25,0,0-2.79,1.7-1.59,3.95,.24,.45,.54,.78,.85,1.04v.29h.43c1.17,.65,2.45,.39,2.45,.39-.29-.12-.53-.25-.74-.39h1.71v-.36c.18-.01,.36-.04,.57-.09,.98-.26,1.47-1.03,1.71-1.74,1.42-2.32,.12-4.55,.12-4.55Z" style="fill:#fff;"/></g></g></svg>