<?xml version="1.0" encoding="UTF-8"?><svg xmlns="http://www.w3.org/2000/svg" viewBox="0 0 87.32 83.49"><g id="a"/><g id="b"/><g id="c"/><g id="d"/><g id="e"/><g id="f"/><g id="g"/><g id="h"/><g id="i"/><g id="j"/><g id="k"/><g id="l"/><g id="m"/><g id="n"/><g id="o"/><g id="p"/><g id="q"/><g id="r"/><g id="s"/><g id="t"><g id="u"/></g><g id="v"/><g id="w"/><g id="x"/><g id="y"/><g id="a`"/><g id="aa"/><g id="ab"/><g id="ac"/><g id="ad"/><g id="ae"><g><circle cx="43.66" cy="41.74" r="38.57" style="fill:#7b1245;"/><path d="M61.61,51.49c-1.06-1.32-2.29-2.51-3.44-3.76-1.11-1.21-2.24-2.4-3.32-3.63-.51-.59-.73-1.34-.72-2.13,0-.79,.36-1.29,1.15-1.41,.52-.08,5.06-1.18,5.92-1.22l.06,.03s-.01-.02-.02-.03h0c-.53-1.15-1.44-1.65-2.56-2.14l1.09-.1c-1.23-.77-2.35-.66-3.53-.42-.95,.11-1.86,.91-2.11,1.4-.84,1.66-.63,2.83-.57,4.46,.04,1.17,.75,2.19,1.53,3.06,1.23,1.36,2.52,2.66,3.8,3.97,1.26,1.29,2.49,2.58,2.81,4.47,.25,1.46-.24,2.78-1.46,3.62-1.37,.94-2.86,.8-4.45-.39-.33-.25-.45-.53-.46-.95-.01-.91,0-1.84-.16-2.73-.78-4.35-3.21-7.7-6.56-10.44-1.07-.88-1.98-1.87-2.68-3.06-.39-.66-.51-1.37-.56-2.14-.04-.81-.24-1.61-.39-2.41-.03-.17-.12-.34-.18-.5l.08-.05c.26,.23,.51,.46,.88,.79-.24-2.03-1.39-3.37-2.83-4.63,.8,0,1.5,.1,2.09-.4-1.44-.42-2.3-1.5-3.19-2.6-1.42-1.15-1.81-2.15-3.25-3.18-.8-.57-1.68-.9-2.68-.78-.42,.05-.83,.16-1.42,.28,.4-.37,.68-.63,1.03-.94-.15,0-.24-.02-.33-.01-.11,0-.22,.03-.33,.05-1.18,.25-2.04,.97-2.55,2.01-.36,.74-.87,1.16-1.62,1.4-.28,.09-.62,.29-.73,.53-.14,.32-.35,.39-.62,.46-.96,.24-1.82,.67-2.55,1.34-.13,.12-.28,.35-.25,.51,.1,.61,.19,1.25,.44,1.81,.24,.51,.26,.95,.14,1.48-.17,.81,.28,1.33,1.11,1.27,.53-.04,1.05-.24,1.58-.35,.16-.03,.45-.07,.48,0,.09,.18,.17,.45,.09,.61-.14,.3-.37,.55-.59,.81-.87,1.01-1.22,2.24-1.65,3.6,.37-.31,.62-.51,.87-.72-.42,1.36-.16,4.26,.53,6.17,.14,.64,.54,1.46,1.63,2.99,.02-.42,.04-.72,.05-.88,.61,.71,1.14,1.61,1.92,2.15,.85,.6,1.28,1.26,1.44,2.25,.18,1.06,.61,2.09,.71,3.15,.12,1.15,.17,2.36-.57,3.41-.24,.34-.45,.53-.95,.44-1.18-.21-2.01,.28-2.29,1.2-.18,.58-.05,.96,.54,1.07,.61,.11,1.24,.03,1.87,.03,.14,0,.34-.12,.42-.06,.82,.61,1.76,.43,2.66,.39,.99-.03,1.83-.43,2.3-1.35,.27-.53,.45-1.08,.97-1.47,.19-.14,.26-.48,.32-.75,.17-.69,.26-1.4,.45-2.08,.24-.86,.55-1.7,.83-2.55,.08,1.17,.42,2.22,.98,3.18,.55,.96,1.21,1.86,1.83,2.81-.24-.03-.46-.06-.68-.08-.92-.1-1.71,.27-2.05,.96-.49,1.01-.05,1.72,1.07,1.69,.19,0,.37-.03,.55-.07,1.38-.24,2.74-.6,4.13-.7,1.71-.13,3.44-.04,5.16-.05,.3,0,.6,0,.89-.04,.67-.12,.84-.41,.7-1.07-.04-.17-.04-.34-.07-.52,.87,.32,1.64,.7,2.46,.91,2.41,.61,5.02-.86,5.66-3.21,.46-1.69,.23-3.35-.87-4.73Zm-32.15-8.86c-.03-.14-.04-.25-.02-.3,.01,.11,.02,.21,.02,.3Z" style="fill:#fff;"/></g></g><g id="af"/><g id="ag"/><g id="ah"/><g id="ai"/><g id="aj"/><g id="ak"/><g id="al"/><g id="am"/><g id="an"><g id="ao"/><g id="ap"/><g id="aq"/></g><g id="ar"/><g id="as"/><g id="at"><g id="au"/></g><g id="av"/></svg>