<?xml version="1.0" encoding="UTF-8"?><svg xmlns="http://www.w3.org/2000/svg" viewBox="0 0 120.67 120.08"><g id="a"/><g id="b"/><g id="c"/><g id="d"/><g id="e"/><g id="f"/><g id="g"/><g id="h"/><g id="i"/><g id="j"/><g id="k"/><g id="l"><g id="m"/><g id="n"/><g id="o"/></g><g id="p"/><g id="q"/><g id="r"/><g id="s"/><g id="t"/><g id="u"/><g id="v"><g id="w"/></g><g id="x"/><g id="y"/><g id="a`"/><g id="aa"/><g id="ab"/><g id="ac"/><g id="ad"/><g id="ae"/><g id="af"/><g id="ag"/><g id="ah"/><g id="ai"/><g id="aj"/><g id="ak"/><g id="al"/><g id="am"/><g id="an"/><g id="ao"/><g id="ap"/><g id="aq"><g><ellipse cx="60.5" cy="59.49" rx="52.26" ry="52.29" style="fill:#E96A1D;"/><path d="M84.83,72.71c-1.43-1.79-3.1-3.4-4.66-5.1-1.51-1.64-3.04-3.25-4.5-4.93-.7-.8-.99-1.81-.98-2.89,0-1.07,.49-1.75,1.55-1.91,.71-.11,6.85-1.6,8.02-1.65l.08,.04s-.02-.03-.02-.05h0c-.71-1.55-1.95-2.24-3.47-2.9,.59-.05,.93-.08,1.47-.13-1.67-1.04-3.18-.89-4.79-.57-1.29,.15-2.52,1.23-2.86,1.89-1.13,2.24-.85,3.83-.77,6.05,.06,1.58,1.02,2.97,2.08,4.14,1.66,1.84,3.42,3.6,5.15,5.38,1.7,1.75,3.37,3.5,3.81,6.06,.34,1.98-.32,3.77-1.97,4.9-1.86,1.28-3.88,1.09-6.03-.53-.45-.34-.61-.72-.62-1.29-.02-1.24,0-2.5-.22-3.71-1.06-5.9-4.35-10.44-8.89-14.16-1.45-1.19-2.68-2.54-3.63-4.14-.53-.9-.7-1.86-.75-2.9-.06-1.09-.33-2.18-.53-3.26-.04-.23-.16-.46-.24-.68l.11-.07c.35,.31,.7,.63,1.19,1.07-.33-2.76-1.89-4.57-3.83-6.28,1.08,.01,2.03,.14,2.83-.54-1.95-.57-3.12-2.03-4.32-3.53-1.93-1.55-2.45-2.91-4.4-4.31-1.08-.77-2.28-1.23-3.63-1.06-.57,.07-1.12,.22-1.92,.38,.55-.5,.93-.85,1.4-1.28-.2,0-.32-.03-.44-.02-.15,.01-.3,.04-.45,.07-1.6,.33-2.77,1.31-3.45,2.73-.49,1.01-1.18,1.57-2.2,1.9-.38,.12-.84,.4-.99,.72-.19,.43-.48,.53-.84,.62-1.3,.32-2.47,.91-3.46,1.82-.18,.17-.37,.48-.34,.69,.14,.83,.25,1.7,.6,2.45,.32,.69,.35,1.29,.19,2-.24,1.1,.38,1.81,1.5,1.72,.72-.06,1.42-.33,2.14-.48,.22-.05,.61-.1,.65-.01,.12,.24,.23,.61,.13,.83-.18,.4-.51,.75-.8,1.1-1.17,1.37-1.65,3.03-2.24,4.88,.51-.42,.84-.7,1.17-.97-.56,1.84-.22,5.78,.72,8.37,.19,.87,.73,1.97,2.21,4.05,.03-.57,.05-.97,.06-1.19,.83,.97,1.55,2.18,2.6,2.92,1.15,.81,1.73,1.71,1.95,3.04,.24,1.44,.82,2.83,.97,4.27,.16,1.56,.23,3.2-.77,4.62-.32,.46-.61,.72-1.29,.6-1.59-.29-2.73,.37-3.11,1.63-.24,.79-.06,1.31,.73,1.45,.82,.14,1.69,.04,2.53,.04,.19,0,.46-.16,.57-.08,1.11,.82,2.38,.58,3.6,.54,1.34-.05,2.47-.58,3.11-1.83,.36-.72,.62-1.47,1.32-1.99,.26-.19,.35-.65,.44-1.01,.22-.93,.35-1.89,.61-2.82,.33-1.17,.74-2.31,1.12-3.46,.1,1.59,.57,3.01,1.32,4.31,.75,1.3,1.64,2.52,2.49,3.82-.32-.04-.62-.08-.92-.11-1.25-.14-2.31,.37-2.77,1.3-.67,1.37-.07,2.33,1.44,2.3,.25,0,.5-.05,.75-.09,1.86-.33,3.72-.81,5.59-.95,2.32-.17,4.66-.05,6.99-.06,.4,0,.82,.01,1.21-.06,.9-.16,1.14-.56,.95-1.46-.05-.23-.06-.46-.09-.7,1.17,.44,2.23,.95,3.34,1.23,3.26,.83,6.81-1.17,7.66-4.35,.62-2.29,.31-4.54-1.18-6.41Zm-43.56-12.02c-.04-.18-.06-.34-.03-.41,.02,.15,.03,.28,.03,.41Z" style="fill:#fff;"/></g></g></svg>