<?xml version="1.0" encoding="UTF-8"?><svg xmlns="http://www.w3.org/2000/svg" viewBox="0 0 120.67 120.08"><g id="a"/><g id="b"/><g id="c"/><g id="d"/><g id="e"/><g id="f"/><g id="g"/><g id="h"/><g id="i"/><g id="j"/><g id="k"/><g id="l"><g id="m"/><g id="n"/><g id="o"/></g><g id="p"/><g id="q"/><g id="r"/><g id="s"/><g id="t"/><g id="u"/><g id="v"><g id="w"/></g><g id="x"/><g id="y"/><g id="a`"/><g id="aa"/><g id="ab"/><g id="ac"/><g id="ad"/><g id="ae"/><g id="af"/><g id="ag"/><g id="ah"/><g id="ai"/><g id="aj"/><g id="ak"/><g id="al"/><g id="am"/><g id="an"/><g id="ao"/><g id="ap"/><g id="aq"><g id="ar"><g><ellipse cx="60.79" cy="59.58" rx="52.37" ry="52.38" style="fill:#8E1B52;"/><path d="M73.45,46.41c.18,.32,.32,.58,.46,.84,1.78,3.04,3.46,6.12,4.68,9.44,.92,2.5,1.56,5.07,1.65,7.74,.17,4.75-1.6,8.68-4.98,11.95-1.84,1.78-3.93,3.19-6.28,4.2-.19,.08-.38,.17-.58,.25,.5,1.95-.44,3.22-1.94,4.19-1.7,1.11-3.62,1.48-5.62,1.49-1.83,.01-3.59-.32-5.22-1.18-.82-.43-1.54-.98-2.05-1.75-.47-.7-.7-1.47-.48-2.29,.11-.43-.07-.54-.39-.67-3.19-1.35-5.87-3.38-8.05-6.08-2.68-3.32-3.65-7.13-3.24-11.34,.38-3.86,1.72-7.42,3.46-10.84,.94-1.86,2-3.66,3-5.49,.07-.13,.14-.25,.25-.46-.21-.02-.36-.04-.51-.04-.86,0-1.73,0-2.59-.01-.51-.01-.89-.26-1.08-.73-.19-.46-.11-.92,.26-1.23,.24-.2,.61-.33,.92-.34,1.29-.04,2.59-.03,3.89-.01,.33,0,.55-.08,.63-.41,.21-.83,.49-1.65,.62-2.5,.1-.7-.13-1.36-.65-1.88-.25-.25-.45-.33-.77-.03-.98,.92-2.39,1.04-3.52,.37-1.13-.67-1.69-1.98-1.39-3.27,.29-1.25,1.36-2.17,2.66-2.29,.66-.06,1.26,.11,1.84,.44,.26,.15,.56,.26,.85,.31,2.48,.38,4.07,1.98,4.46,4.5,.2,1.31,.14,2.61-.06,3.92-.04,.25-.07,.49-.11,.78h14.43c-.07-.54-.14-1.04-.19-1.55-.14-1.19-.14-2.38,.12-3.56,.52-2.37,2.11-3.82,4.52-4.11,.21-.03,.43-.11,.61-.23,1.32-.87,3.03-.62,4.02,.6,.97,1.19,.85,2.95-.26,4.02-1.13,1.09-2.9,1.14-4.05,.07-.34-.31-.53-.24-.8,.02-.44,.44-.63,.97-.66,1.57-.05,1.05,.28,2.03,.73,2.96,.06,.13,.34,.22,.51,.22,1.34,.02,2.68,0,4.02,.02,.61,0,1.03,.36,1.14,.93,.1,.51-.16,1.05-.64,1.25-.21,.09-.46,.12-.7,.12-.79,.02-1.58,0-2.37,0-.16,0-.31,.02-.55,.03h-.02Zm-19.5,27.01c.06-.09,.08-.11,.09-.15,.02-.06,.02-.12,.03-.18,.21-1.5,.84-2.79,1.92-3.85,.26-.25,.35-.51,.35-.86-.01-3.65,0-7.3,0-10.95s0-7.03,.01-10.55c0-.4-.11-.52-.5-.5-.61,.03-1.22,.01-1.83,0-1.02,0-.99,.01-1.34,.93-1.05,2.75-2.15,5.49-3.2,8.25-.89,2.33-1.63,4.71-1.68,7.24-.07,3.48,1.02,6.5,3.61,8.9,.76,.7,1.62,1.26,2.56,1.71h-.01Zm13.62,.04c.23-.11,.39-.19,.54-.28,3.98-2.29,5.71-5.84,5.68-10.33-.02-2.52-.78-4.9-1.66-7.24-1.13-2.98-2.27-5.95-3.44-8.92-.05-.14-.3-.27-.46-.28-.82-.03-1.64,0-2.46-.02-.39-.01-.53,.08-.53,.51,.02,7.2,0,14.4,.02,21.6,0,.23,.13,.51,.3,.69,.93,.97,1.58,2.09,1.86,3.41,.06,.26,.1,.52,.16,.86h0Zm-10.79-4.96c.42-.23,.72-.46,1.06-.57,.52-.16,.6-.48,.6-.97-.02-6.49-.01-12.99-.01-19.48,0-.72-.36-1.08-1.07-1.08-.39,0-.58,.2-.58,.6v21.5h0Zm7.99-.02v-20.92c0-1.16,0-1.14-1.14-1.16-.42,0-.52,.12-.52,.53,.02,2.98,.01,5.96,.01,8.94,0,3.78,0,7.57,0,11.35,0,.17,.05,.43,.17,.49,.44,.27,.92,.48,1.48,.76h0Zm-5.88-.99c.43-.07,.76-.17,1.1-.17,.5,0,.56-.24,.56-.66-.01-6.4,0-12.81-.01-19.21,0-.69-.34-1.03-1.03-1.03-.41,0-.61,.2-.61,.6v20.47h0Zm3.77,0v-20.06c0-.67-.34-1.01-1.01-1.01-.42,0-.64,.21-.64,.62v18.81c0,.37-.02,.75,.01,1.12,.01,.11,.13,.28,.22,.3,.44,.09,.88,.14,1.41,.21h0Z" style="fill:#fff;"/></g></g></g></svg>