<?xml version="1.0" encoding="UTF-8"?><svg xmlns="http://www.w3.org/2000/svg" viewBox="0 0 120.67 120.08"><g id="a"/><g id="b"/><g id="c"/><g id="d"/><g id="e"/><g id="f"/><g id="g"/><g id="h"/><g id="i"/><g id="j"/><g id="k"/><g id="l"><g id="m"/><g id="n"/><g id="o"/></g><g id="p"/><g id="q"/><g id="r"/><g id="s"/><g id="t"/><g id="u"/><g id="v"><g id="w"/></g><g id="x"/><g id="y"/><g id="a`"/><g id="aa"/><g id="ab"/><g id="ac"/><g id="ad"/><g id="ae"/><g id="af"/><g id="ag"/><g id="ah"/><g id="ai"/><g id="aj"/><g id="ak"/><g id="al"/><g id="am"/><g id="an"/><g id="ao"/><g id="ap"/><g id="aq"><g id="ar"><circle cx="60.71" cy="59.64" r="52.45" style="fill:#8E1B52;"/><g><g><polygon points="58.57 71.41 58.56 60.38 58.57 71.41 58.57 71.41" style="fill:none;"/><path d="M56.53,78.3c.85,1.43,2.4,2.39,4.18,2.39s3.34-.97,4.19-2.4c-.04,0-.08,.01-.12,.02h-8.25Z" style="fill:none;"/><path d="M64.78,75.36h0c.09,0,.17,.02,.26,.04,.03,0,.05,.01,.08,.02,.06,.02,.11,.03,.17,.06,.03,.01,.05,.02,.08,.03,.07,.03,.14,.07,.21,.12-.07-1.92-1.23-3.56-2.89-4.3v4.03h2.1Z" style="fill:none;"/><path d="M61.03,58.92c0-2.34,0-15.04,0-18.1h-.8v18.1h.8Z" style="fill:none;"/><path d="M62.69,58.92c0-2.42,0-15.87,0-18.1h-.81v18.1h.8Z" style="fill:none;"/><rect x="58.57" y="40.82" width=".8" height="18.1" style="fill:none;"/><path d="M64.78,78.31s.08-.01,.12-.02h0s-.08,.01-.12,.02Z" style="fill:none;"/><path d="M65.04,75.39s.05,.01,.08,.02c-.03,0-.05-.01-.08-.02Z" style="fill:none;"/><path d="M65.29,75.47s.05,.02,.08,.03c-.03-.01-.05-.02-.08-.03Z" style="fill:none;"/><polygon points="56.53 78.3 56.53 78.3 64.78 78.31 56.53 78.3" style="fill:none;"/><polygon points="62.69 75.36 62.69 71.32 62.69 71.32 62.69 75.36" style="fill:none;"/><path d="M62.69,71.32v-10.94h-.8v10.67c.28,.07,.55,.16,.8,.27Z" style="fill:none;"/><path d="M59.36,71.11v-10.72h-.79v11.02c.25-.12,.52-.22,.79-.3Z" style="fill:none;"/><path d="M60.71,70.9c.11,0,.21,.01,.31,.02v-10.54h-.8v10.55c.16-.02,.33-.03,.49-.03Z" style="fill:none;"/><path d="M61.88,71.05v-10.67h-.86v10.54c.3,.02,.58,.06,.86,.13Z" style="fill:#fefafd;"/><path d="M60.23,70.93v-10.55h-.86v10.72c.27-.08,.56-.14,.86-.17Z" style="fill:#fefafd;"/><path d="M65.86,77.78s-.02,.03-.03,.04c.01-.01,.02-.03,.03-.04Z" style="fill:none;"/><path d="M65.82,75.84s.03,.04,.05,.06c-.02-.02-.03-.04-.05-.06Z" style="fill:none;"/><path d="M65.65,77.98h0Z" style="fill:none;"/><path d="M66.03,77.53s-.03,.06-.04,.08c.02-.03,.03-.06,.04-.08Z" style="fill:none;"/><path d="M66.15,77.23s-.03,.1-.04,.15c.02-.05,.03-.1,.04-.15Z" style="fill:none;"/><path d="M66.01,76.1s.03,.06,.05,.09c-.02-.03-.03-.06-.05-.09Z" style="fill:none;"/><path d="M66.14,76.4s.02,.06,.03,.1c0-.03-.02-.06-.03-.1Z" style="fill:none;"/><path d="M66.21,76.83c0,.1-.01,.19-.03,.28,.02-.09,.03-.19,.03-.28Z" style="fill:none;"/><path d="M65.59,75.8c0,.91-.25,1.76-.68,2.49,.27-.03,.53-.14,.73-.3h.01c.06-.06,.12-.11,.18-.17,.01-.01,.02-.03,.03-.04,.05-.05,.09-.11,.13-.17,.02-.03,.03-.06,.04-.08,.03-.05,.05-.1,.08-.15,.02-.05,.03-.1,.04-.15,.01-.04,.03-.08,.03-.11,.02-.09,.03-.19,.03-.28,0-.11-.02-.23-.04-.33,0-.03-.02-.06-.03-.1-.02-.07-.05-.15-.08-.22-.02-.03-.03-.06-.05-.09-.04-.07-.09-.13-.14-.2-.02-.02-.03-.04-.05-.06-.07-.08-.15-.15-.24-.22h0c0,.06,0,.12,0,.18Z" style="fill:none;"/><path d="M55.51,75.76s.04-.04,.07-.06c-.02,.02-.04,.04-.07,.06Z" style="fill:none;"/><polygon points="55.86 75.51 55.86 75.51 55.86 75.51 55.86 75.51" style="fill:none;"/><path d="M55.08,76.49c.01-.06,.03-.12,.05-.17-.02,.06-.04,.11-.05,.17Z" style="fill:none;"/><path d="M55.16,76.24c.03-.07,.07-.14,.11-.2-.04,.06-.07,.13-.11,.2Z" style="fill:none;"/><path d="M55.34,75.95s.05-.06,.07-.09c-.03,.03-.05,.06-.07,.09Z" style="fill:none;"/><path d="M55.04,76.83c0-.09,.01-.17,.03-.26-.02,.08-.03,.17-.03,.26Z" style="fill:none;"/><path d="M55.84,75.8c0-.1,0-.19,.01-.29h0c-.1,.05-.2,.12-.29,.19-.02,.02-.04,.04-.07,.06-.03,.03-.06,.06-.1,.1-.03,.03-.05,.06-.07,.09-.02,.03-.05,.06-.07,.09-.04,.06-.08,.13-.11,.2-.01,.03-.02,.05-.03,.08-.02,.06-.04,.11-.05,.17,0,.03-.01,.05-.02,.08-.01,.08-.03,.17-.03,.26,0,.8,.63,1.45,1.42,1.48h.08c-.44-.73-.69-1.59-.69-2.51Z" style="fill:none;"/><path d="M65.82,77.82c-.05,.06-.11,.11-.18,.16,.06-.05,.12-.1,.18-.16Z" style="fill:#010101;"/><path d="M65.98,77.61c-.04,.06-.08,.11-.13,.17,.05-.05,.09-.11,.13-.17Z" style="fill:#010101;"/><path d="M66.18,77.11s-.02,.08-.03,.11c.01-.04,.03-.08,.03-.11Z" style="fill:#010101;"/><path d="M66.17,76.5c.02,.11,.04,.22,.04,.33,0-.12-.02-.23-.04-.33Z" style="fill:#010101;"/><path d="M55.07,76.57s.01-.05,.02-.08c0,.03-.01,.05-.02,.08Z" style="fill:#010101;"/><path d="M66.1,77.38c-.02,.05-.05,.1-.08,.15,.03-.05,.05-.1,.08-.15Z" style="fill:#010101;"/><path d="M66.05,76.19c.03,.07,.06,.14,.08,.22-.02-.07-.05-.15-.08-.22Z" style="fill:#010101;"/><path d="M55.41,75.86s.06-.07,.1-.1c-.03,.03-.07,.06-.1,.1Z" style="fill:#010101;"/><path d="M65.58,75.62c.09,.06,.17,.14,.24,.22-.07-.08-.15-.15-.24-.22Z" style="fill:#010101;"/><path d="M64.9,78.29c.28-.03,.53-.13,.73-.3-.21,.16-.46,.27-.73,.3h0Z" style="fill:#010101;"/><path d="M55.13,76.32s.02-.05,.03-.08c-.01,.03-.02,.05-.03,.08Z" style="fill:#010101;"/><polygon points="62.69 71.32 62.68 60.38 62.69 71.32 62.69 71.32" style="fill:#010101;"/><path d="M55.27,76.04s.04-.06,.07-.09c-.02,.03-.05,.06-.07,.09Z" style="fill:#010101;"/><path d="M65.87,75.9c.05,.06,.1,.13,.14,.2-.04-.07-.09-.13-.14-.2Z" style="fill:#010101;"/><path d="M55.57,75.7c.09-.07,.18-.14,.29-.19-.1,.05-.2,.12-.29,.19Z" style="fill:#010101;"/><path d="M65.58,75.62h0c-.07-.05-.14-.08-.21-.12,.07,.03,.14,.07,.21,.12Z" style="fill:#010101;"/><path d="M64.78,75.36c.09,0,.17,.02,.26,.03-.08-.02-.17-.03-.26-.03Z" style="fill:#010101;"/><path d="M56.13,75.41h0Z" style="fill:#010101;"/><path d="M55.86,75.51c.09-.04,.18-.08,.28-.11-.1,.03-.19,.06-.28,.11Z" style="fill:#010101;"/><rect x="59.37" y="40.82" width=".86" height="19.68" style="fill:#fefafd;"/><path d="M61.03,60.72h.86v-19.89h-.85c0,3.36-.01,17.32,0,19.89Z" style="fill:#fefafd;"/><g><path d="M71.58,70.68c-1.69-4.12-4.23-7.82-7.44-10.85h-1.46v9.76c3.28,.58,5.75,3.1,5.75,6.13,0,3.46-3.21,6.26-7.18,6.26s-7.18-2.8-7.18-6.26c0-2.63,1.86-4.87,4.49-5.8v-10.09h-1.47c-.31,.29-.62,.58-.91,.88-3.04,3.11-5.4,6.85-6.93,10.97-2.61,6.61,2.23,14.29,9.18,14.53,1.53,.09,3.06,.08,4.58-.01,7.44-.4,11.9-8.77,8.55-15.51Z" style="fill:#fefafd;"/><g><path d="M58.57,72.51v-1.36c-1.49,.8-2.52,2.4-2.52,4.25,0,2.65,2.09,4.79,4.67,4.79s4.67-2.14,4.67-4.79c0-1.92-1.11-3.58-2.7-4.34v1.46h-4.12Z" style="fill:none;"/><path d="M60.72,70.6c.7,0,1.37,.16,1.97,.45v-1.47c-.46-.08-.94-.12-1.43-.12-.95,0-1.86,.16-2.69,.46v1.23c.64-.34,1.37-.54,2.15-.54Z" style="fill:none;"/><polygon points="58.57 69.92 58.57 71.09 58.57 69.92 58.57 69.92" style="fill:#010101;"/><path d="M66.17,76.29s-.02-.07-.03-.1c-.02-.08-.05-.15-.08-.22-.02-.03-.03-.06-.05-.09-.04-.07-.09-.14-.14-.2-.02-.02-.03-.04-.05-.07-.07-.08-.15-.16-.24-.22-.07-1.96-1.23-3.63-2.89-4.39v-1.42h0v1.47c1.59,.76,2.7,2.42,2.7,4.34,0,2.65-2.09,4.79-4.67,4.79s-4.67-2.14-4.67-4.79c0-1.85,1.02-3.45,2.52-4.25v-.05c-1.53,.77-2.61,2.35-2.71,4.19h0c-.1,.05-.2,.12-.29,.19-.02,.02-.04,.04-.07,.06-.03,.03-.07,.07-.1,.1-.03,.03-.05,.06-.07,.1-.02,.03-.05,.06-.07,.09-.04,.06-.07,.13-.11,.2-.01,.03-.02,.05-.03,.08-.02,.06-.04,.12-.05,.18,0,.03-.01,.05-.02,.08-.02,.09-.03,.17-.03,.26,0,.81,.63,1.48,1.42,1.51h.08c.85,1.46,2.4,2.44,4.18,2.44s3.34-.99,4.19-2.45c.28-.03,.53-.14,.73-.3h.01c.06-.06,.12-.12,.18-.18,.01-.01,.02-.03,.03-.04,.05-.05,.09-.11,.13-.17,.02-.03,.03-.06,.04-.09,.03-.05,.05-.1,.08-.15,.02-.05,.03-.1,.04-.15,.01-.04,.03-.08,.03-.12,.02-.09,.03-.19,.03-.29,0-.12-.02-.23-.04-.34Z" style="fill:#fff;"/></g><path d="M54.07,75.72c0,3.46,3.21,6.26,7.18,6.26s7.18-2.8,7.18-6.26c0-3.03-2.47-5.55-5.75-6.13v1.42c1.66,.75,2.82,2.43,2.89,4.39,.09,.06,.17,.14,.24,.22,.02,.02,.03,.04,.05,.07,.05,.06,.1,.13,.14,.2,.02,.03,.03,.06,.05,.09,.03,.07,.06,.14,.08,.22,0,.03,.02,.06,.03,.1,.02,.11,.04,.22,.04,.34,0,.1,0,.2-.03,.29,0,.04-.02,.08-.03,.12-.01,.05-.03,.1-.04,.15-.02,.05-.05,.1-.08,.15-.02,.03-.03,.06-.04,.09-.04,.06-.08,.12-.13,.17-.01,.01-.02,.03-.03,.04-.05,.06-.11,.12-.18,.17h-.01c-.21,.18-.46,.28-.73,.31-.85,1.47-2.4,2.45-4.19,2.45s-3.33-.98-4.18-2.44h-.08c-.79-.03-1.42-.69-1.42-1.51,0-.09,.01-.18,.03-.26,0-.03,.01-.05,.02-.08,.01-.06,.03-.12,.05-.18,0-.03,.02-.05,.03-.08,.03-.07,.07-.14,.11-.2,.02-.03,.04-.06,.07-.09,.02-.03,.05-.06,.07-.1,.03-.04,.06-.07,.1-.1,.02-.02,.04-.04,.07-.06,.09-.08,.18-.14,.29-.19h0c.1-1.84,1.18-3.42,2.71-4.19v-1.17c-2.63,.93-4.49,3.17-4.49,5.8Z" style="fill:#fefafd;"/></g></g><rect x="58.2" y="34.11" width="5.03" height="6.71" style="fill:#fefafd;"/></g></g></g></svg>