<?xml version="1.0" encoding="UTF-8"?><svg xmlns="http://www.w3.org/2000/svg" viewBox="0 0 120.67 120.08"><g id="a"/><g id="b"/><g id="c"/><g id="d"/><g id="e"/><g id="f"/><g id="g"/><g id="h"/><g id="i"/><g id="j"/><g id="k"/><g id="l"><g id="m"/><g id="n"/><g id="o"/></g><g id="p"/><g id="q"/><g id="r"/><g id="s"/><g id="t"/><g id="u"/><g id="v"><g id="w"/></g><g id="x"/><g id="y"/><g id="a`"/><g id="aa"/><g id="ab"/><g id="ac"/><g id="ad"/><g id="ae"/><g id="af"/><g id="ag"/><g id="ah"/><g id="ai"/><g id="aj"/><g id="ak"/><g id="al"/><g id="am"/><g id="an"/><g id="ao"/><g id="ap"/><g id="aq"><g><circle cx="60.95" cy="59.41" r="52.21" style="fill:#42B5E8;"/><g><path d="M65.88,56.11c-.18,.19-.27,.52-.4,.79l.23,.42c.29,0,.59,.05,.85,0,4.97-.84,9.82-1.97,14.27-4.03,1.61-.74,3.13-1.68,3.8-3.83,.21-.68,.21-1.93-.17-2.72-.32-.68-1.36-1.34-2.02-1.55-2.09-.69-3.69,.05-5.16,.97-4.23,2.63-7.91,6.16-11.42,9.96Z" style="fill:#fff;"/><path d="M60.52,53.84c.08,.24,.33,.47,.5,.7l.47-.02c.14-.25,.32-.49,.4-.74,1.6-4.69,2.9-9.4,3.21-14.18,.11-1.73,.02-3.47-1.53-5.01-.49-.49-1.57-1.05-2.43-1.08-.74-.03-1.79,.58-2.28,1.05-1.58,1.5-1.68,3.22-1.58,4.91,.29,4.84,1.6,9.62,3.24,14.37Z" style="fill:#fff;"/><ellipse cx="60.94" cy="59.78" rx="4.04" ry="4.14" style="fill:#fff;"/><path d="M56.5,56.11c.18,.19,.27,.52,.4,.79l-.23,.42c-.29,0-.59,.05-.85,0-4.97-.84-9.82-1.97-14.27-4.03-1.61-.74-3.13-1.68-3.8-3.83-.21-.68-.21-1.93,.17-2.72,.32-.68,1.36-1.34,2.02-1.55,2.09-.69,3.69,.05,5.16,.97,4.23,2.63,7.91,6.16,11.42,9.96Z" style="fill:#fff;"/><path d="M58.86,54.4c.05,.26-.04,.59-.07,.89l-.41,.23c-.24-.15-.52-.28-.73-.46-3.78-3.41-7.31-7-10.02-11.16-.98-1.5-1.79-3.12-1.24-5.31,.18-.69,.82-1.75,1.55-2.22,.63-.4,1.85-.4,2.51-.22,2.13,.55,3.1,2.05,3.87,3.62,2.22,4.53,3.53,9.51,4.53,14.64Z" style="fill:#fff;"/><path d="M63.52,54.4c-.05,.26,.04,.59,.07,.89l.41,.23c.24-.15,.52-.28,.73-.46,3.78-3.41,7.31-7,10.02-11.16,.98-1.5,1.79-3.12,1.24-5.31-.18-.69-.82-1.75-1.55-2.22-.63-.4-1.85-.4-2.51-.22-2.13,.55-3.1,2.05-3.87,3.62-2.22,4.53-3.53,9.51-4.53,14.64Z" style="fill:#fff;"/><path d="M60.52,65.6c.08-.24,.33-.47,.5-.7l.47,.02c.14,.25,.32,.49,.4,.74,1.6,4.69,2.9,9.4,3.21,14.18,.11,1.73,.02,3.47-1.53,5.01-.49,.49-1.57,1.05-2.43,1.08-.74,.03-1.79-.58-2.28-1.05-1.58-1.5-1.68-3.22-1.58-4.91,.29-4.84,1.6-9.62,3.24-14.37Z" style="fill:#fff;"/><path d="M56.5,63.33c.18-.19,.27-.52,.4-.79l-.23-.42c-.29,0-.59-.05-.85,0-4.97,.84-9.82,1.97-14.27,4.03-1.61,.74-3.13,1.68-3.8,3.83-.21,.68-.21,1.93,.17,2.72,.32,.68,1.36,1.34,2.02,1.55,2.09,.69,3.69-.05,5.16-.97,4.23-2.63,7.91-6.16,11.42-9.96Z" style="fill:#fff;"/><path d="M58.86,65.04c.05-.26-.04-.59-.07-.89l-.41-.23c-.24,.15-.52,.28-.73,.46-3.78,3.41-7.31,7-10.02,11.16-.98,1.5-1.79,3.12-1.24,5.31,.18,.69,.82,1.75,1.55,2.22,.63,.4,1.85,.4,2.51,.22,2.13-.55,3.1-2.05,3.87-3.62,2.22-4.53,3.53-9.51,4.53-14.64Z" style="fill:#fff;"/><path d="M65.88,63.33c-.18-.19-.27-.52-.4-.79l.23-.42c.29,0,.59-.05,.85,0,4.97,.84,9.82,1.97,14.27,4.03,1.61,.74,3.13,1.68,3.8,3.83,.21,.68,.21,1.93-.17,2.72-.32,.68-1.36,1.34-2.02,1.55-2.09,.69-3.69-.05-5.16-.97-4.23-2.63-7.91-6.16-11.42-9.96Z" style="fill:#fff;"/><path d="M63.52,65.04c-.05-.26,.04-.59,.07-.89l.41-.23c.24,.15,.52,.28,.73,.46,3.78,3.41,7.31,7,10.02,11.16,.98,1.5,1.79,3.12,1.24,5.31-.18,.69-.82,1.75-1.55,2.22-.63,.4-1.85,.4-2.51,.22-2.13-.55-3.1-2.05-3.87-3.62-2.22-4.53-3.53-9.51-4.53-14.64Z" style="fill:#fff;"/><path d="M55.35,59.09c.25,.09,.48,.33,.71,.51l-.02,.48c-.25,.14-.5,.32-.75,.41-4.78,1.64-9.58,2.97-14.45,3.29-1.76,.12-3.54,.02-5.11-1.56-.5-.5-1.07-1.6-1.1-2.49-.03-.75,.59-1.84,1.07-2.34,1.53-1.61,3.28-1.72,5-1.62,4.94,.3,9.81,1.64,14.65,3.32Z" style="fill:#fff;"/><path d="M66.55,59.09c-.25,.09-.48,.33-.71,.51l.02,.48c.25,.14,.5,.32,.75,.41,4.78,1.64,9.58,2.97,14.45,3.29,1.76,.12,3.54,.02,5.11-1.56,.5-.5,1.07-1.6,1.1-2.49,.03-.75-.59-1.84-1.07-2.34-1.53-1.61-3.28-1.72-5-1.62-4.94,.3-9.81,1.64-14.65,3.32Z" style="fill:#fff;"/></g></g></g></svg>