<?xml version="1.0" encoding="UTF-8"?><svg xmlns="http://www.w3.org/2000/svg" viewBox="0 0 87.32 83.49"><g id="a"/><g id="b"/><g id="c"/><g id="d"/><g id="e"/><g id="f"/><g id="g"/><g id="h"/><g id="i"/><g id="j"><g><circle cx="43.66" cy="41.74" r="38.57" style="fill:#7b1245;"/><g><path d="M47.44,38.78c-.13,.14-.19,.38-.29,.58l.17,.31c.21,0,.43,.03,.62,0,3.62-.62,7.14-1.45,10.38-2.96,1.17-.55,2.28-1.23,2.76-2.82,.15-.5,.15-1.42-.12-2-.23-.5-.99-.98-1.47-1.14-1.52-.51-2.68,.04-3.75,.71-3.07,1.93-5.75,4.52-8.3,7.32Z" style="fill:#fff;"/><path d="M43.54,37.12c.06,.18,.24,.34,.36,.51h.34c.1-.19,.23-.37,.29-.56,1.16-3.44,2.11-6.9,2.34-10.42,.08-1.27,.02-2.55-1.11-3.68-.36-.36-1.14-.77-1.77-.79-.54-.02-1.3,.43-1.66,.77-1.15,1.11-1.22,2.36-1.15,3.61,.21,3.56,1.17,7.07,2.36,10.56Z" style="fill:#fff;"/><ellipse cx="43.85" cy="41.48" rx="2.94" ry="3.04" style="fill:#fff;"/><path d="M40.62,38.78c.13,.14,.19,.38,.29,.58l-.17,.31c-.21,0-.43,.03-.62,0-3.62-.62-7.14-1.45-10.38-2.96-1.17-.55-2.28-1.23-2.76-2.82-.15-.5-.15-1.42,.12-2,.23-.5,.99-.98,1.47-1.14,1.52-.51,2.68,.04,3.75,.71,3.07,1.93,5.75,4.52,8.3,7.32Z" style="fill:#fff;"/><path d="M42.34,37.53c.04,.19-.03,.43-.05,.65l-.3,.17c-.18-.11-.38-.21-.53-.34-2.75-2.51-5.32-5.14-7.29-8.2-.71-1.1-1.3-2.29-.9-3.9,.13-.51,.6-1.29,1.13-1.63,.45-.29,1.34-.29,1.83-.16,1.55,.41,2.25,1.5,2.82,2.66,1.62,3.32,2.56,6.99,3.3,10.76Z" style="fill:#fff;"/><path d="M45.73,37.53c-.04,.19,.03,.43,.05,.65l.3,.17c.18-.11,.38-.21,.53-.34,2.75-2.51,5.32-5.14,7.29-8.2,.71-1.1,1.3-2.29,.9-3.9-.13-.51-.6-1.29-1.13-1.63-.45-.29-1.34-.29-1.83-.16-1.55,.41-2.25,1.5-2.82,2.66-1.62,3.32-2.56,6.99-3.3,10.76Z" style="fill:#fff;"/><path d="M43.54,45.76c.06-.18,.24-.34,.36-.51h.34c.1,.19,.23,.37,.29,.56,1.16,3.44,2.11,6.9,2.34,10.42,.08,1.27,.02,2.55-1.11,3.68-.36,.36-1.14,.77-1.77,.79-.54,.02-1.3-.43-1.66-.77-1.15-1.11-1.22-2.36-1.15-3.61,.21-3.56,1.17-7.07,2.36-10.56Z" style="fill:#fff;"/><path d="M40.62,44.09c.13-.14,.19-.38,.29-.58l-.17-.31c-.21,0-.43-.03-.62,0-3.62,.62-7.14,1.45-10.38,2.96-1.17,.55-2.28,1.23-2.76,2.82-.15,.5-.15,1.42,.12,2,.23,.5,.99,.98,1.47,1.14,1.52,.51,2.68-.04,3.75-.71,3.07-1.93,5.75-4.52,8.3-7.32Z" style="fill:#fff;"/><path d="M42.34,45.35c.04-.19-.03-.43-.05-.65l-.3-.17c-.18,.11-.38,.21-.53,.34-2.75,2.51-5.32,5.14-7.29,8.2-.71,1.1-1.3,2.29-.9,3.9,.13,.51,.6,1.29,1.13,1.63,.45,.29,1.34,.29,1.83,.16,1.55-.41,2.25-1.5,2.82-2.66,1.62-3.32,2.56-6.99,3.3-10.76Z" style="fill:#fff;"/><path d="M47.44,44.09c-.13-.14-.19-.38-.29-.58l.17-.31c.21,0,.43-.03,.62,0,3.62,.62,7.14,1.45,10.38,2.96,1.17,.55,2.28,1.23,2.76,2.82,.15,.5,.15,1.42-.12,2-.23,.5-.99,.98-1.47,1.14-1.52,.51-2.68-.04-3.75-.71-3.07-1.93-5.75-4.52-8.3-7.32Z" style="fill:#fff;"/><path d="M45.73,45.35c-.04-.19,.03-.43,.05-.65l.3-.17c.18,.11,.38,.21,.53,.34,2.75,2.51,5.32,5.14,7.29,8.2,.71,1.1,1.3,2.29,.9,3.9-.13,.51-.6,1.29-1.13,1.63-.45,.29-1.34,.29-1.83,.16-1.55-.41-2.25-1.5-2.82-2.66-1.62-3.32-2.56-6.99-3.3-10.76Z" style="fill:#fff;"/><path d="M39.79,40.98c.18,.06,.35,.25,.52,.37v.35c-.19,.1-.37,.24-.56,.3-3.47,1.21-6.97,2.18-10.51,2.42-1.28,.08-2.57,.02-3.71-1.15-.36-.37-.78-1.18-.8-1.83-.02-.55,.43-1.35,.78-1.72,1.12-1.19,2.39-1.26,3.64-1.19,3.59,.22,7.13,1.21,10.65,2.44Z" style="fill:#fff;"/><path d="M47.93,40.98c-.18,.06-.35,.25-.52,.37v.35c.19,.1,.37,.24,.56,.3,3.47,1.21,6.97,2.18,10.51,2.42,1.28,.08,2.57,.02,3.71-1.15,.36-.37,.78-1.18,.8-1.83,.02-.55-.43-1.35-.78-1.72-1.12-1.19-2.39-1.26-3.64-1.19-3.59,.22-7.13,1.21-10.65,2.44Z" style="fill:#fff;"/></g></g></g><g id="k"/><g id="l"/><g id="m"/><g id="n"/><g id="o"/><g id="p"/><g id="q"/><g id="r"/><g id="s"/><g id="t"><g id="u"/></g><g id="v"/><g id="w"/><g id="x"/><g id="y"/><g id="a`"/><g id="aa"/><g id="ab"/><g id="ac"/><g id="ad"/><g id="ae"/><g id="af"/><g id="ag"/><g id="ah"/><g id="ai"/><g id="aj"/><g id="ak"/><g id="al"/><g id="am"/><g id="an"><g id="ao"/><g id="ap"/><g id="aq"/></g><g id="ar"/><g id="as"/><g id="at"><g id="au"/></g><g id="av"/></svg>