<?xml version="1.0" encoding="UTF-8"?><svg xmlns="http://www.w3.org/2000/svg" viewBox="0 0 120.67 120.08"><g id="a"/><g id="b"/><g id="c"/><g id="d"/><g id="e"/><g id="f"/><g id="g"/><g id="h"/><g id="i"/><g id="j"/><g id="k"/><g id="l"><g id="m"/><g id="n"/><g id="o"/></g><g id="p"/><g id="q"/><g id="r"/><g id="s"/><g id="t"/><g id="u"/><g id="v"><g id="w"/></g><g id="x"/><g id="y"/><g id="a`"/><g id="aa"/><g id="ab"/><g id="ac"/><g id="ad"/><g id="ae"/><g id="af"/><g id="ag"/><g id="ah"/><g id="ai"/><g id="aj"/><g id="ak"/><g id="al"/><g id="am"/><g id="an"/><g id="ao"/><g id="ap"/><g id="aq"><g><ellipse cx="60.95" cy="59.42" rx="52.21" ry="52.2" style="fill:#42B5E8;"/><g><path d="M54.57,39.57c.96-2.95,4.1-4.63,6.59-5.59,5.23,2.13,6.65,4.44,7.01,6.1,.47,2.18-1.51,5.36-2.82,9.55-.36,1.14-.35,2.1-.9,7.83-.77,8.04-1.84,16.92-1.81,18.14,.06,2.93-.28,.97,0,3.89,.1,1.04,.33,2.84-.32,3.1-.57,.23-1.06,.48-1.24,.28-2.22-2.47-1.62-.25-1.63-5.62,0-2.6-1.48-25.84-2.15-27.52-1.99-5.01-3.74-7.13-2.74-10.18Z" style="fill:#fff;"/><path d="M46.06,43.17c-1-.02-2.8,.44-5.1,4-1.1,1.78-2.35,4.39-1.43,6.45,.84,1.86,2.85,1.94,5.95,3.64,3.08,1.69,4.81,3.64,7.97,7.22,2.91,3.29,5.69,7.41,7.26,11.14,1.55,3.7-.21,1.56,1.25,1.68,.66,.05-.33,1.64,0,.95,1.16-2.42,2.39,1.1-.61-5.39-1.2-2.59-2.73-7.84-4.21-11.91-2.61-7.18-6.44-17.71-11.08-17.78Z" style="fill:#fff;"/><path d="M76.26,43.17c1-.02,2.8,.44,5.1,4,1.1,1.78,2.35,4.39,1.43,6.45-.84,1.86-2.85,1.94-5.95,3.64-3.08,1.69-4.81,3.64-7.97,7.22-2.91,3.29-5.69,7.41-7.26,11.14-1.55,3.7,.21,1.56-1.25,1.68-.66,.05,.33,1.64,0,.95-1.16-2.42-2.39,1.1,.61-5.39,1.2-2.59,2.73-7.84,4.21-11.91,2.61-7.18,6.44-17.71,11.08-17.78Z" style="fill:#fff;"/><path d="M39.04,58.15c.07,.21-4.7,4.78-4.7,4.78,.7,2.99,1.88,6.47,3.89,6.76,.63,.09,1.11-.16,1.47-.32,3.13-1.32,7.28,.78,9.39,1.84,8.17,4.13,11.07,11.38,13.95,10.29,.09-.04-.53-.54-.33-1.29,.32-1.22,.08-2.49-.96-3.43-2.97-2.66-2.41-2.89-6.65-7.47-2.91-3.15-4.94-5.96-9.38-8.48-2.25-1.28-6.11-2.41-6.69-2.69" style="fill:#fff;"/><path d="M83.1,58.15c-.07,.21,4.7,4.78,4.7,4.78-.7,2.99-1.88,6.47-3.89,6.76-.63,.09-1.11-.16-1.47-.32-3.13-1.32-7.28,.78-9.39,1.84-8.17,4.13-11.07,11.38-13.95,10.29-.09-.04,.93-.97,.73-1.73-.32-1.22-.48-2.05,.56-2.99,2.97-2.66,2.41-2.89,6.65-7.47,2.91-3.15,4.94-5.96,9.38-8.48,2.25-1.28,6.11-2.41,6.69-2.69" style="fill:#fff;"/><path d="M39.27,73.18c.11,.13-1.88,4.69-1.88,4.69,1.37,1.98,3.21,4.19,4.7,3.88,.47-.1,.72-.41,.93-.61,1.79-1.78,5.31-1.34,7.09-1.12,6.92,.85,9.53,4.9,11.58,3.92,.5-.24,1.75-.66,1.66-1.25-.14-.97-1.84-1.4-2.77-1.94-2.77-1.62-2.36-1.76-6.23-3.72-2.97-1.5-5.8-2.97-9.63-3.63-1.94-.33-4.97-.14-5.46-.2" style="fill:#fff;"/><path d="M83.03,73.06c-.11,.13,1.88,4.69,1.88,4.69-1.37,1.98-3.21,4.19-4.7,3.88-.47-.1-.72-.41-.93-.61-1.79-1.78-5.31-1.34-7.09-1.12-6.92,.85-9.53,4.9-11.58,3.92-.5-.24-1.75-.66-1.66-1.25,.14-.97,1.84-1.4,2.77-1.94,2.77-1.62,2.36-1.76,6.23-3.72,2.97-1.5,5.8-2.97,9.63-3.63,1.94-.33,4.97-.14,5.46-.2" style="fill:#fff;"/></g></g></g></svg>