<?xml version="1.0" encoding="UTF-8"?><svg xmlns="http://www.w3.org/2000/svg" viewBox="0 0 87.32 83.49"><g id="a"/><g id="b"/><g id="c"/><g id="d"/><g id="e"/><g id="f"/><g id="g"/><g id="h"/><g id="i"/><g id="j"/><g id="k"/><g id="l"><g><circle cx="43.66" cy="41.74" r="38.57" style="fill:#7b1245;"/><g><path d="M38.59,27.33c.69-2.24,2.96-3.51,4.75-4.24,3.77,1.61,4.79,3.36,5.05,4.63,.34,1.65-1.09,4.07-2.03,7.24-.26,.87-.25,1.59-.65,5.94-.55,6.1-1.32,12.83-1.31,13.76,.04,2.22-.2,.74,0,2.95,.07,.79,.23,2.15-.23,2.35-.41,.18-.76,.36-.89,.21-1.6-1.88-1.17-.19-1.17-4.26,0-1.97-1.07-19.6-1.55-20.87-1.44-3.8-2.69-5.4-1.98-7.72Z" style="fill:#fff;"/><path d="M32.46,30.05c-.72-.01-2.02,.33-3.68,3.03-.8,1.35-1.69,3.33-1.03,4.89,.6,1.41,2.05,1.47,4.29,2.76,2.22,1.28,3.47,2.76,5.75,5.47,2.1,2.49,4.1,5.62,5.24,8.45,1.12,2.8-.15,1.19,.9,1.28,.48,.04-.24,1.25,0,.72,.84-1.83,1.72,.83-.44-4.09-.86-1.97-1.97-5.94-3.04-9.04-1.88-5.45-4.64-13.43-7.99-13.49Z" style="fill:#fff;"/><path d="M54.22,30.05c.72-.01,2.02,.33,3.68,3.03,.8,1.35,1.69,3.33,1.03,4.89-.6,1.41-2.05,1.47-4.29,2.76-2.22,1.28-3.47,2.76-5.75,5.47-2.1,2.49-4.1,5.62-5.24,8.45-1.12,2.8,.15,1.19-.9,1.28-.48,.04,.24,1.25,0,.72-.84-1.83-1.72,.83,.44-4.09,.86-1.97,1.97-5.94,3.04-9.04,1.88-5.45,4.64-13.43,7.99-13.49Z" style="fill:#fff;"/><path d="M27.4,41.42c.05,.16-3.39,3.62-3.39,3.62,.5,2.27,1.36,4.91,2.81,5.13,.45,.07,.8-.12,1.06-.24,2.25-1,5.25,.59,6.77,1.4,5.89,3.13,7.98,8.63,10.06,7.8,.07-.03-.38-.41-.24-.97,.23-.93,.06-1.89-.69-2.6-2.14-2.02-1.74-2.19-4.79-5.67-2.1-2.39-3.56-4.52-6.76-6.43-1.62-.97-4.41-1.82-4.82-2.04" style="fill:#fff;"/><path d="M59.15,41.42c-.05,.16,3.39,3.62,3.39,3.62-.5,2.27-1.36,4.91-2.81,5.13-.45,.07-.8-.12-1.06-.24-2.25-1-5.25,.59-6.77,1.4-5.89,3.13-7.98,8.63-10.06,7.8-.07-.03,.67-.74,.53-1.31-.23-.93-.35-1.56,.4-2.27,2.14-2.02,1.74-2.19,4.79-5.67,2.1-2.39,3.56-4.52,6.76-6.43,1.62-.97,4.41-1.82,4.82-2.04" style="fill:#fff;"/><path d="M27.57,52.81c.08,.1-1.35,3.56-1.35,3.56,.98,1.5,2.32,3.18,3.39,2.94,.34-.07,.52-.31,.67-.47,1.29-1.35,3.83-1.02,5.11-.85,4.98,.65,6.87,3.72,8.35,2.97,.36-.18,1.26-.5,1.2-.95-.1-.73-1.32-1.06-2-1.47-2-1.23-1.7-1.34-4.49-2.82-2.14-1.13-4.18-2.26-6.94-2.76-1.4-.25-3.58-.11-3.94-.15" style="fill:#fff;"/><path d="M59.11,52.72c-.08,.1,1.35,3.56,1.35,3.56-.98,1.5-2.32,3.18-3.39,2.94-.34-.07-.52-.31-.67-.47-1.29-1.35-3.83-1.02-5.11-.85-4.98,.65-6.87,3.72-8.35,2.97-.36-.18-1.26-.5-1.2-.95,.1-.73,1.32-1.06,2-1.47,2-1.23,1.7-1.34,4.49-2.82,2.14-1.13,4.18-2.26,6.94-2.76,1.4-.25,3.58-.11,3.94-.15" style="fill:#fff;"/></g></g></g><g id="m"/><g id="n"/><g id="o"/><g id="p"/><g id="q"/><g id="r"/><g id="s"/><g id="t"><g id="u"/></g><g id="v"/><g id="w"/><g id="x"/><g id="y"/><g id="a`"/><g id="aa"/><g id="ab"/><g id="ac"/><g id="ad"/><g id="ae"/><g id="af"/><g id="ag"/><g id="ah"/><g id="ai"/><g id="aj"/><g id="ak"/><g id="al"/><g id="am"/><g id="an"><g id="ao"/><g id="ap"/><g id="aq"/></g><g id="ar"/><g id="as"/><g id="at"><g id="au"/></g><g id="av"/></svg>