<?xml version="1.0" encoding="UTF-8"?><svg xmlns="http://www.w3.org/2000/svg" viewBox="0 0 120.67 120.08"><g id="a"/><g id="b"/><g id="c"/><g id="d"/><g id="e"/><g id="f"/><g id="g"/><g id="h"/><g id="i"/><g id="j"/><g id="k"/><g id="l"><g id="m"/><g id="n"/><g id="o"/></g><g id="p"/><g id="q"/><g id="r"/><g id="s"/><g id="t"/><g id="u"/><g id="v"><g id="w"/></g><g id="x"/><g id="y"/><g id="a`"/><g id="aa"/><g id="ab"/><g id="ac"/><g id="ad"/><g id="ae"/><g id="af"/><g id="ag"/><g id="ah"/><g id="ai"/><g id="aj"/><g id="ak"/><g id="al"/><g id="am"/><g id="an"/><g id="ao"/><g id="ap"/><g id="aq"><g><circle cx="60.9" cy="59.41" r="52.21" style="fill:#42B5E8;"/><path d="M70.34,40.4c.2-1.56,1.16-2.87,2.52-3.48,1.53-.38,2.42-.83,2.42-1.31,0-1.32-6.53-2.39-14.58-2.39-7.55,0-13.76,.93-14.5,2.14-.01,.04-.02,.08-.02,.12,0,.48,.89,.93,2.42,1.31,.41,.18,.79,.44,1.12,.75,.87,.7,1.47,1.74,1.61,2.93-6.13,3.18-10.29,9.31-10.29,16.36,0,2.28,.44,4.47,1.24,6.49,.08,.35,.17,.7,.28,1.06l.72,2.28c1.62,5.15,6.12,8.59,11.17,9.13,1.61,.85,2.7,2.6,2.64,4.61-.06,1.99-1.23,3.67-2.86,4.42v.78h13.44v-1.29c-1.74-.8-2.93-2.62-2.86-4.72,.06-1.99,1.23-3.65,2.86-4.41v-.04c4.83-.21,9.27-3.31,10.93-8.17l.71-2.08c.28-.82,.46-1.65,.56-2.48,.59-1.77,.91-3.65,.91-5.6,0-7.1-4.22-13.27-10.42-16.43Z" style="fill:#fff;"/><rect x="58.26" y="85.56" width="5.8" height="13.05" style="fill:#fff;"/></g></g></svg>