<?xml version="1.0" encoding="UTF-8"?><svg xmlns="http://www.w3.org/2000/svg" viewBox="0 0 87.32 83.49"><g id="a"/><g id="b"/><g id="c"/><g id="d"/><g id="e"/><g id="f"/><g id="g"/><g id="h"/><g id="i"/><g id="j"/><g id="k"/><g id="l"/><g id="m"/><g id="n"/><g id="o"/><g id="p"/><g id="q"/><g id="r"/><g id="s"><g><circle cx="43.66" cy="41.74" r="38.29" style="fill:#7b1245;"/><path d="M50.59,27.8c.14-1.14,.85-2.11,1.85-2.55,1.12-.28,1.78-.61,1.78-.96,0-.97-4.79-1.75-10.69-1.75-5.54,0-10.09,.69-10.64,1.57,0,.03-.01,.06-.01,.09,0,.35,.66,.69,1.78,.96,.3,.13,.58,.32,.82,.55,.64,.52,1.08,1.28,1.18,2.15-4.5,2.33-7.55,6.83-7.55,12,0,1.68,.32,3.28,.91,4.76,.06,.26,.13,.52,.21,.77l.53,1.67c1.19,3.78,4.49,6.3,8.19,6.7,1.18,.62,1.98,1.91,1.94,3.38-.05,1.46-.9,2.69-2.1,3.25v.57h9.85v-.94c-1.27-.58-2.15-1.92-2.1-3.46,.05-1.46,.9-2.68,2.1-3.23v-.03c3.55-.15,6.8-2.43,8.02-5.99l.52-1.52c.21-.6,.34-1.21,.41-1.82,.43-1.3,.67-2.68,.67-4.11,0-5.21-3.09-9.73-7.64-12.05Z" style="fill:#fff;"/><rect x="41.53" y="60.92" width="4.25" height="9.57" style="fill:#fff;"/></g></g><g id="t"><g id="u"/></g><g id="v"/><g id="w"/><g id="x"/><g id="y"/><g id="a`"/><g id="aa"/><g id="ab"/><g id="ac"/><g id="ad"/><g id="ae"/><g id="af"/><g id="ag"/><g id="ah"/><g id="ai"/><g id="aj"/><g id="ak"/><g id="al"/><g id="am"/><g id="an"><g id="ao"/><g id="ap"/><g id="aq"/></g><g id="ar"/><g id="as"/><g id="at"><g id="au"/></g><g id="av"/></svg>