<?xml version="1.0" encoding="UTF-8"?><svg xmlns="http://www.w3.org/2000/svg" viewBox="0 0 120.67 120.08"><g id="a"/><g id="b"/><g id="c"/><g id="d"/><g id="e"/><g id="f"/><g id="g"/><g id="h"/><g id="i"/><g id="j"/><g id="k"/><g id="l"><g id="m"/><g id="n"/><g id="o"/></g><g id="p"/><g id="q"/><g id="r"/><g id="s"/><g id="t"/><g id="u"/><g id="v"><g id="w"/></g><g id="x"/><g id="y"/><g id="a`"/><g id="aa"/><g id="ab"/><g id="ac"/><g id="ad"/><g id="ae"/><g id="af"/><g id="ag"/><g id="ah"/><g id="ai"/><g id="aj"/><g id="ak"/><g id="al"/><g id="am"/><g id="an"/><g id="ao"/><g id="ap"/><g id="aq"><g><ellipse cx="60.95" cy="59.55" rx="52.21" ry="52.06" style="fill:#42B5E8;"/><g><path d="M49.47,56.29c2.86-.26,5.64-1.4,9.11-2.36-2.76-2.28-4.77-4.19-7.05-5.69-.93-.61-3.26-.81-3.57-.33-1.12,1.78-2.11,3.9-2.2,5.93-.03,.82,2.48,2.56,3.7,2.45Z" style="fill:#fff;"/><path d="M70.22,45.19c.35-.5,.69-.99,1.04-1.49-1.28-1.62-2.57-3.24-3.99-5.04-1.78,1.33-3.09,2.3-5.19,3.87,3.24,1.06,5.7,1.86,8.15,2.66Z" style="fill:#fff;"/><path d="M78.35,76.4c-7.38-3.41-10.04,4.11-15.77,6.44,9.86,3.69,12.89,2.28,15.77-6.44Z" style="fill:#fff;"/><path d="M58.95,42.35c-2.45-1.54-3.82-2.4-5.43-3.41-1.32,1.8-2.4,3.27-3.48,4.75,.22,.5,.45,1.01,.67,1.51,2.45-.85,4.89-1.7,8.23-2.86Z" style="fill:#fff;"/><path d="M65.89,37.7c-4.99-3.86-6.62-3.75-10.24,.45,1.54,1.07,3.05,2.13,4.72,3.3,1.78-1.21,3.45-2.34,5.52-3.75Z" style="fill:#fff;"/><path d="M63.06,53.74c4,.19,7.67,5.84,11.47,.79,.92-1.23,.22-5.47-1-6.19-5.37-3.14-6.59,3.78-10.47,5.39Z" style="fill:#fff;"/><path d="M63.98,70.45c7.47,4.34,10.53,3.63,14.15-4.93,.74-1.76-.53-4.36-.88-6.58-1.78,.61-4.04,.73-5.23,1.92-2.94,2.94-5.39,6.36-8.03,9.59Z" style="fill:#fff;"/><path d="M60.44,69.26c3.94-3.51,7.51-6.7,11.37-10.14-8.04-4.68-15.13-4.68-22.69,.03,3.72,3.32,7.3,6.52,11.32,10.11Z" style="fill:#fff;"/><path d="M68.01,87.25c-5.65-3.24-9.81-3.62-14.72,0h14.72Z" style="fill:#fff;"/><path d="M67.69,46.77c-4.82-3.69-9.66-3.8-14.83,.19,7.6,7.02,8.93,6.98,14.83-.19Z" style="fill:#fff;"/><path d="M69.86,75.3c-6.29-4.57-12.56-5.24-18.8,.1,9.44,8.55,9.26,8.58,18.8-.1Z" style="fill:#fff;"/><path d="M56.59,70.52c-2.36-3.02-4.67-6.5-7.56-9.43-1.24-1.26-3.67-1.35-5.57-1.97-.23,2.24-1.37,4.91-.55,6.65,3.98,8.42,7.26,9.1,13.67,4.74Z" style="fill:#fff;"/><path d="M58.22,82.73c-5.83-2.2-8.36-9.93-15.75-6.29,2.95,8.99,5.87,10.31,15.75,6.29Z" style="fill:#fff;"/><path d="M71.81,59.12c-3.86,3.44-7.43,6.63-11.37,10.14-4.02-3.59-7.61-6.79-11.32-10.11,7.56-4.71,14.66-4.71,22.69-.03Z" style="fill:#fff;"/><path d="M63.98,70.45c2.65-3.23,5.1-6.66,8.03-9.59,1.19-1.19,3.46-1.31,5.23-1.92,.35,2.22,1.62,4.82,.88,6.58-3.62,8.56-6.67,9.28-14.15,4.93Z" style="fill:#fff;"/><path d="M56.59,70.52c-6.41,4.36-9.7,3.68-13.67-4.74-.82-1.74,.31-4.41,.55-6.65,1.89,.62,4.32,.71,5.57,1.97,2.89,2.92,5.2,6.41,7.56,9.43Z" style="fill:#fff;"/><path d="M69.86,75.3c-9.54,8.69-9.37,8.66-18.8,.1,6.25-5.35,12.51-4.67,18.8-.1Z" style="fill:#fff;"/><path d="M62.58,82.84c5.73-2.33,8.39-9.85,15.77-6.44-2.88,8.72-5.91,10.13-15.77,6.44Z" style="fill:#fff;"/><path d="M58.22,82.73c-9.88,4.02-12.8,2.7-15.75-6.29,7.39-3.64,9.92,4.09,15.75,6.29Z" style="fill:#fff;"/><path d="M52.85,46.96c5.17-3.99,10.01-3.88,14.83-.19-5.9,7.17-7.23,7.21-14.83,.19Z" style="fill:#fff;"/><path d="M63.06,53.74c3.88-1.62,5.1-8.54,10.47-5.39,1.22,.71,1.92,4.96,1,6.19-3.8,5.05-7.47-.6-11.47-.79Z" style="fill:#fff;"/><path d="M58.58,53.93c-3.47,.96-6.25,2.09-9.11,2.36-1.22,.11-3.73-1.63-3.7-2.45,.08-2.03,1.08-4.15,2.2-5.93,.31-.48,2.64-.28,3.57,.33,2.28,1.5,4.29,3.41,7.05,5.69Z" style="fill:#fff;"/><path d="M65.89,37.7c-2.06,1.4-3.74,2.54-5.52,3.75-1.67-1.17-3.19-2.23-4.72-3.3,3.62-4.2,5.25-4.31,10.24-.45Z" style="fill:#fff;"/><path d="M68.01,87.25h-14.72c4.91-3.62,9.07-3.24,14.72,0Z" style="fill:#fff;"/><path d="M70.22,45.19c-2.45-.8-4.9-1.6-8.15-2.66,2.11-1.57,3.41-2.54,5.19-3.87,1.43,1.8,2.71,3.42,3.99,5.04l-1.04,1.49Z" style="fill:#fff;"/><path d="M50.04,43.7c1.08-1.48,2.16-2.95,3.48-4.75,1.6,1.01,2.98,1.87,5.43,3.41l-8.23,2.86c-.22-.5-.45-1.01-.67-1.51Z" style="fill:#fff;"/></g></g></g></svg>