<?xml version="1.0" encoding="UTF-8"?><svg xmlns="http://www.w3.org/2000/svg" viewBox="0 0 120.67 120.08"><g id="a"/><g id="b"/><g id="c"/><g id="d"/><g id="e"/><g id="f"/><g id="g"/><g id="h"/><g id="i"/><g id="j"/><g id="k"/><g id="l"><g id="m"/><g id="n"/><g id="o"/></g><g id="p"/><g id="q"/><g id="r"/><g id="s"/><g id="t"/><g id="u"/><g id="v"><g id="w"/></g><g id="x"/><g id="y"/><g id="a`"/><g id="aa"/><g id="ab"/><g id="ac"/><g id="ad"/><g id="ae"/><g id="af"/><g id="ag"/><g id="ah"/><g id="ai"/><g id="aj"/><g id="ak"/><g id="al"/><g id="am"/><g id="an"/><g id="ao"/><g id="ap"/><g id="aq"><g id="ar"><g><circle cx="60.98" cy="59.41" r="52.21" style="fill:#42B5E8;"/><g><g><path d="M50.48,41.47c-.92,2.04-.31,5.56,1.42,7.29,.64,.64,2.92,3.06,6.92,3.06,1.06,0,.65,.84-1.87-3.32-.82-1.35-.98-3.4-.47-4.53,.32-.69,.71-2.83,5.5-2.77,.06,0-3.34-2.22-4.01-2.45-1.33-.46-2.22-.48-3.36-.37-2.53,.24-3.74,2.29-4.13,3.09" style="fill:#fff;"/><path d="M71.19,41.47c.92,2.04,.36,4.67-1.36,6.4-.64,.64-2.97,3.96-6.98,3.96-1.06,0-.65,.84,1.87-3.32,.82-1.35,.98-3.4,.47-4.53-.32-.69-.71-2.83-5.5-2.77-.06,0,3.34-2.22,4.01-2.45,1.33-.46,2.22-.48,3.36-.37,2.53,.24,3.74,2.29,4.13,3.09" style="fill:#fff;"/><path d="M52.85,63.95c.75,.09,5.5,1.83,7.47,2.73,.26,.12,.89-1.41,4.74-2.61,.04-.01,.04-.09,.02-.13-1.76-3.26-4.76-4.96-7.68-6.59-2.45-1.36-5.16-3.46-6.96-5.81-.24-.31-1.9-2.12-2.1-2.47-.17-.84-1.76,3.17-.37,8.77,0,.02,.49,2.08,.5,2.11,.65,1.81,1.04,2.6,1.47,3.28l1.56,.33" style="fill:#fff;"/><path d="M83.69,63.24c-2.44,.5-3.22,1.24-5.72,1.41-1.85,.12-6.14,.14-7.5,.24-4.17,.32-5.84,1.72-8,3.45,4.4,2.99,7.22,6.41,7.57,10.05,.23,2.35,.72,4.14-1.55,7.1,1.39-.36,3.61-.78,4.87-1.39,.93-.45,1.81-.98,2.67-1.6,2.16-1.57,4.34-3.76,5.14-6.26,1.43-4.44,1.46-5.28,2.2-10.74,0-.05,.37-2.26,.31-2.25Z" style="fill:#fff;"/><path d="M68.05,79.3c-.59-3.5-4.18-7.31-9.8-10.34-2.06-1.11-3.17-1.33-7.19-2.67-1.5-.5-3.61-.96-5.86-1.41-2.64-.53-5.66-1.14-8.5-2.09-.07-.02-.13,.01-.1,.06,2.23,3.65,.95,7.66,2.49,11.52,.87,2.17,3.48,4.25,6.09,5.82,1.03,.62,2.11,1.17,3.24,1.65,1.1,.47,2.25,.89,3.44,1.26,1.1,.34,2.23,.64,3.39,.91h0c2.35,.54,4.75,.95,7.17,1.22,.28-.03,.56-.05,.84-.08h0c.66-.08,1.31-.17,1.95-.28,2.01-1.24,3.24-3.31,2.86-5.57Z" style="fill:#fff;"/><path d="M46.69,62.77h0c-3.61-5.03-2.69-10.9-1.89-14.21,.2-.82,2.14-5.76,2.98-7.91,.86-2.19-10.88,7.29-11.99,9.41-1.43,2.73-1.6,5.49,.81,7.87,.02,.03,.04,.06,.06,.09,2.69,2.99,6.49,3.92,9.87,4.72,.05,.01,.1,.03,.15,.03Z" style="fill:#fff;"/><path d="M75.27,62.6h0c3.62-4.96,2.71-10.73,1.91-13.98-.2-.81-2.13-5.67-2.97-7.78-.86-2.15,10.86,7.15,11.97,9.24,1.43,2.69,1.59,5.4-.82,7.75-.02,.03-.04,.06-.06,.08-2.69,2.95-6.5,3.87-9.88,4.66-.05,.01-.1,.03-.15,.03Z" style="fill:#fff;"/><path d="M63.26,85.08c-.28,.06-.56,.1-.84,.15,.57,.06,1.15,.12,1.72,.15,.02,0,.04,0,.06-.01,.37-.23,.71-.48,1.03-.74-.65,.17-1.3,.33-1.97,.46h0Z" style="fill:#fff;"/><ellipse cx="60.8" cy="45.9" rx="2.04" ry="2.86" style="fill:#fff;"/></g><path d="M51.17,52.43c1.18,6.54,6.62,6.77,8.72,8.66,1.65,1.49,.52,2.55,1.28,3.57,.28,.38,7.37-.8,11.34-4.37,.38-.34,1.82-3.47,1.82-6.24,0-2.52-.64-4.34-.88-4.68-.16-.23-1.21,1.73-3.17,3.25-1.91,1.49-3.9,2.87-9.88,2.35" style="fill:#fff;"/></g></g></g></g></svg>