<?xml version="1.0" encoding="UTF-8"?><svg xmlns="http://www.w3.org/2000/svg" viewBox="0 0 87.32 83.49"><g id="a"/><g id="b"/><g id="c"/><g id="d"/><g id="e"/><g id="f"/><g id="g"/><g id="h"/><g id="i"/><g id="j"/><g id="k"/><g id="l"/><g id="m"/><g id="n"/><g id="o"/><g id="p"/><g id="q"/><g id="r"/><g id="s"/><g id="t"><g id="u"/><g><circle cx="43.66" cy="41.74" r="38.57" style="fill:#7b1245;"/><g><g><path d="M35.9,28.5c-.68,1.5-.23,4.11,1.05,5.38,.48,.47,2.15,2.26,5.11,2.26,.78,0,.48,.62-1.38-2.45-.6-1-.72-2.51-.35-3.35,.24-.51,.53-2.09,4.06-2.04,.04,0-2.47-1.64-2.96-1.81-.98-.34-1.64-.35-2.48-.27-1.87,.18-2.77,1.69-3.05,2.28" style="fill:#fff;"/><path d="M51.2,28.5c.68,1.5,.27,3.45-1.01,4.72-.48,.47-2.2,2.92-5.15,2.92-.78,0-.48,.62,1.38-2.45,.6-1,.72-2.51,.35-3.35-.24-.51-.53-2.09-4.06-2.04-.04,0,2.47-1.64,2.96-1.81,.98-.34,1.64-.35,2.48-.27,1.87,.18,2.77,1.69,3.05,2.28" style="fill:#fff;"/><path d="M37.65,45.1c.56,.07,4.06,1.35,5.52,2.01,.19,.09,.66-1.04,3.5-1.92,.03,0,.03-.07,.01-.09-1.3-2.41-3.52-3.67-5.68-4.87-1.81-1.01-3.81-2.56-5.14-4.29-.17-.23-1.4-1.56-1.55-1.82-.13-.62-1.3,2.34-.27,6.48,0,.02,.36,1.54,.37,1.56,.48,1.33,.77,1.92,1.09,2.43l1.15,.25" style="fill:#fff;"/><path d="M60.43,44.57c-1.8,.37-2.38,.92-4.22,1.04-1.37,.09-4.53,.1-5.54,.18-3.08,.23-4.31,1.27-5.91,2.55,3.25,2.21,5.33,4.73,5.59,7.43,.17,1.74,.53,3.06-1.14,5.25,1.03-.26,2.67-.57,3.6-1.03,.68-.33,1.34-.72,1.97-1.18,1.59-1.16,3.21-2.78,3.8-4.63,1.05-3.28,1.08-3.9,1.63-7.94,0-.04,.27-1.67,.23-1.66Z" style="fill:#fff;"/><path d="M48.88,56.44c-.44-2.59-3.09-5.4-7.24-7.64-1.52-.82-2.34-.98-5.31-1.98-1.11-.37-2.67-.71-4.33-1.04-1.95-.39-4.18-.84-6.28-1.54-.05-.02-.1,0-.08,.04,1.65,2.7,.7,5.66,1.84,8.51,.64,1.6,2.57,3.14,4.5,4.3,.76,.46,1.56,.86,2.4,1.22,.81,.35,1.66,.66,2.54,.93,.81,.25,1.65,.47,2.51,.67h0c1.73,.4,3.51,.7,5.3,.9,.21-.02,.41-.04,.62-.06h0c.49-.06,.97-.13,1.44-.21,1.49-.92,2.39-2.45,2.11-4.12Z" style="fill:#fff;"/><path d="M33.1,44.23h0c-2.67-3.72-1.99-8.05-1.4-10.5,.15-.61,1.58-4.26,2.2-5.84,.64-1.62-8.04,5.38-8.86,6.95-1.06,2.02-1.18,4.05,.6,5.82,.02,.02,.03,.04,.05,.06,1.99,2.21,4.8,2.89,7.29,3.49,.04,0,.07,.02,.11,.03Z" style="fill:#fff;"/><path d="M54.21,44.1h0c2.68-3.66,2-7.93,1.41-10.33-.15-.6-1.57-4.19-2.2-5.75-.64-1.59,8.03,5.29,8.84,6.82,1.06,1.99,1.18,3.99-.61,5.72-.02,.02-.03,.04-.05,.06-1.99,2.18-4.8,2.86-7.3,3.44-.04,0-.07,.02-.11,.03Z" style="fill:#fff;"/><path d="M45.34,60.71c-.21,.04-.42,.07-.62,.11,.42,.04,.85,.09,1.27,.11,.02,0,.03,0,.04-.01,.27-.17,.52-.35,.76-.55-.48,.13-.96,.24-1.46,.34h0Z" style="fill:#fff;"/><ellipse cx="43.52" cy="31.77" rx="1.5" ry="2.11" style="fill:#fff;"/></g><path d="M36.41,36.59c.87,4.83,4.89,5,6.45,6.4,1.22,1.1,.38,1.88,.95,2.64,.21,.28,5.44-.59,8.38-3.23,.28-.25,1.34-2.56,1.34-4.61,0-1.86-.47-3.21-.65-3.46-.12-.17-.9,1.27-2.34,2.4s-2.88,2.12-7.3,1.74" style="fill:#fff;"/></g></g></g><g id="v"/><g id="w"/><g id="x"/><g id="y"/><g id="a`"/><g id="aa"/><g id="ab"/><g id="ac"/><g id="ad"/><g id="ae"/><g id="af"/><g id="ag"/><g id="ah"/><g id="ai"/><g id="aj"/><g id="ak"/><g id="al"/><g id="am"/><g id="an"><g id="ao"/><g id="ap"/><g id="aq"/></g><g id="ar"/><g id="as"/><g id="at"><g id="au"/></g><g id="av"/></svg>