<?xml version="1.0" encoding="UTF-8"?><svg xmlns="http://www.w3.org/2000/svg" viewBox="0 0 120.67 120.08"><g id="a"/><g id="b"/><g id="c"/><g id="d"/><g id="e"/><g id="f"/><g id="g"/><g id="h"/><g id="i"/><g id="j"/><g id="k"/><g id="l"><g id="m"/><g id="n"/><g id="o"/></g><g id="p"/><g id="q"/><g id="r"/><g id="s"/><g id="t"/><g id="u"/><g id="v"><g id="w"/></g><g id="x"/><g id="y"/><g id="a`"/><g id="aa"/><g id="ab"/><g id="ac"/><g id="ad"/><g id="ae"/><g id="af"/><g id="ag"/><g id="ah"/><g id="ai"/><g id="aj"/><g id="ak"/><g id="al"/><g id="am"/><g id="an"/><g id="ao"/><g id="ap"/><g id="aq"><g><ellipse cx="60.7" cy="59.41" rx="52.46" ry="52.21" style="fill:#245E8A;"/><g><path d="M68.39,59.03c0-4.17-3.4-7.55-7.58-7.55s-7.58,3.38-7.58,7.55,3.4,7.55,7.58,7.55,7.58-3.38,7.58-7.55Zm-7.67,3.02c-1.68,0-3.03-1.35-3.03-3.02s1.36-3.02,3.03-3.02,3.03,1.35,3.03,3.02-1.36,3.02-3.03,3.02Z" style="fill:none;"/><path d="M46.04,55.27c.61,.69,1.47,1.04,2.33,1.04,.73,0,1.47-.26,2.06-.78l6.73-5.94c.62-.55,.99-1.31,1.04-2.13,.05-.83-.23-1.62-.78-2.24l-2.04-2.29c-1.14-1.28-3.11-1.4-4.4-.26l-6.73,5.94c-.62,.55-.99,1.31-1.04,2.13-.05,.83,.23,1.62,.78,2.24l2.04,2.29Zm-1.42-6.26l6.73-5.94c.49-.43,1.1-.64,1.71-.64,.71,0,1.42,.29,1.93,.86l2.04,2.29c.46,.51,.69,1.17,.64,1.86-.04,.68-.35,1.31-.86,1.77l-6.73,5.94c-1.06,.94-2.7,.84-3.64-.22l-2.04-2.29c-.46-.51-.69-1.17-.64-1.86,.04-.68,.35-1.31,.86-1.77Z"/><path d="M70.96,55.34c.59,.52,1.33,.78,2.06,.78,.86,0,1.72-.35,2.33-1.04l2.04-2.29c.55-.62,.83-1.42,.78-2.24-.05-.83-.42-1.58-1.04-2.13l-6.73-5.94c-1.29-1.13-3.26-1.01-4.4,.26l-2.04,2.29c-1.14,1.28-1.02,3.24,.26,4.38l6.73,5.94Zm-6.59-9.96l2.04-2.29c.51-.57,1.22-.86,1.93-.86,.61,0,1.22,.21,1.71,.64l6.73,5.94c.52,.45,.82,1.08,.86,1.77,.04,.68-.19,1.34-.64,1.86l-2.04,2.29c-.94,1.06-2.58,1.16-3.64,.22l-6.73-5.94c-1.06-.94-1.16-2.56-.22-3.62Z"/><path d="M75.36,63.17c-1.14-1.28-3.11-1.4-4.4-.26l-6.73,5.94c-1.28,1.13-1.4,3.1-.26,4.38l2.04,2.29c.61,.69,1.47,1.04,2.33,1.04,.73,0,1.47-.26,2.06-.78l6.73-5.94c.62-.55,.99-1.31,1.04-2.13,.05-.83-.23-1.62-.78-2.24l-2.04-2.29Z" style="fill:#fff;"/><g><path d="M60.72,56.01c-1.68,0-3.03,1.35-3.03,3.02s1.36,3.02,3.03,3.02,3.03-1.35,3.03-3.02-1.36-3.02-3.03-3.02Z" style="fill:#fff;"/><path d="M83.56,58.69c0-.31-.01-.62-.02-.92l3.44-1.41-.85-4.32h-3.56c-.32-1.04-.71-2.04-1.17-3.01l2.5-2.48-2.43-3.66-3.18,1.3c-.73-.87-1.53-1.69-2.38-2.44l1.29-3.11-3.68-2.42-2.33,2.32c-1.02-.52-2.09-.97-3.19-1.33v-3.21l-4.27-.85-1.23,2.96c-.56-.04-1.12-.07-1.69-.07-.6,0-1.2,.03-1.79,.08l-1.27-2.97-4.34,.85v3.28c-1.08,.37-2.12,.82-3.12,1.33l-2.4-2.39-3.68,2.42,1.34,3.25c-.82,.73-1.58,1.53-2.28,2.37l-3.33-1.37-2.43,3.66,2.64,2.63c-.43,.92-.8,1.87-1.1,2.86h-3.77l-.85,4.25,3.65,1.5c-.01,.3-.02,.6-.02,.9,0,.66,.03,1.32,.09,1.97l-3.72,1.58,.85,4.32h4.19c.31,.85,.68,1.66,1.09,2.46l-3.05,3.03,2.43,3.66,4.12-1.69c.59,.63,1.21,1.23,1.86,1.79l-1.72,4.15,3.68,2.42,3.22-3.2c.74,.35,1.51,.66,2.3,.93v4.5l4.27,.85,1.72-4.17c.46,.03,.93,.05,1.4,.05,.36,0,.71-.01,1.07-.03l1.72,4.15,4.34-.85v-4.41c.82-.27,1.61-.58,2.38-.93l3.13,3.12,3.68-2.42-1.64-3.97c.7-.59,1.36-1.22,1.99-1.89l3.93,1.61,2.43-3.66-2.86-2.85c.45-.85,.85-1.73,1.19-2.64h3.91l.85-4.25-3.46-1.42c.07-.72,.11-1.46,.11-2.2Zm-6.43,11.14l-6.4,5.65c-.16,.06-.32,.12-.48,.18-.61,.35-1.23,.64-1.85,.88-.02,0-.04,0-.05,0-.86,0-1.72-.35-2.33-1.04l-2.04-2.29c-1.14-1.28-1.02-3.24,.26-4.38l6.73-5.94c1.29-1.13,3.26-1.02,4.4,.26l2.04,2.29c.41,.46,.66,1.01,.75,1.6,.03,.47-.02,.94-.13,1.41-.17,.52-.46,1-.89,1.37Zm-23.9-10.8c0-4.17,3.4-7.55,7.58-7.55s7.58,3.38,7.58,7.55-3.4,7.55-7.58,7.55-7.58-3.38-7.58-7.55Z" style="fill:#fff;"/></g></g></g></g></svg>