<?xml version="1.0" encoding="UTF-8"?><svg xmlns="http://www.w3.org/2000/svg" viewBox="0 0 120.67 120.08"><g id="a"/><g id="b"/><g id="c"/><g id="d"/><g id="e"/><g id="f"/><g id="g"/><g id="h"/><g id="i"/><g id="j"/><g id="k"/><g id="l"><g id="m"/><g id="n"/><g id="o"/></g><g id="p"/><g id="q"/><g id="r"/><g id="s"/><g id="t"/><g id="u"/><g id="v"><g id="w"/></g><g id="x"/><g id="y"/><g id="a`"/><g id="aa"/><g id="ab"/><g id="ac"/><g id="ad"/><g id="ae"/><g id="af"/><g id="ag"/><g id="ah"/><g id="ai"/><g id="aj"/><g id="ak"/><g id="al"/><g id="am"/><g id="an"/><g id="ao"/><g id="ap"/><g id="aq"><g><ellipse cx="60.49" cy="59.66" rx="52.46" ry="52.08" style="fill:#245E8A;"/><g><g transform="translate(0,-952.36218)"><path d="M60.67,33.5l1.64,10.72,1.75,11.43c.05,.32,.3,.57,.62,.62l11.5,1.74,10.79,1.63-10.79,1.64h0l-11.5,1.74c-.32,.05-.57,.3-.62,.62l-1.75,11.43-1.64,10.72-1.65-10.72h0l-1.75-11.43c-.05-.32-.3-.57-.62-.62l-11.5-1.74h0l-10.79-1.64,10.79-1.63,11.5-1.74c.32-.05,.57-.3,.62-.62l1.75-11.43h0l1.65-10.72h0Z" style="fill:#fff; fill-rule:evenodd;"/></g><g transform="translate(0,-952.36218)"><path d="M42.1,40.31l8.78,6.45,9.36,6.87c.26,.19,.62,.19,.88,0l9.38-6.83,8.8-6.41-6.49,8.73h0l-6.91,9.3c-.19,.26-.19,.62,0,.88l6.88,9.32,6.45,8.75-8.78-6.44h0l-9.36-6.87c-.26-.19-.62-.19-.88,0l-9.38,6.83h0l-8.81,6.41,6.49-8.72,6.91-9.3c.19-.26,.19-.62,0-.88l-6.88-9.32h0l-6.45-8.75h0Z" style="fill:#fff; fill-rule:evenodd;"/></g></g></g></g></svg>