<?xml version="1.0" encoding="UTF-8"?><svg xmlns="http://www.w3.org/2000/svg" viewBox="0 0 87.32 83.49"><g id="a"/><g id="b"/><g id="c"/><g id="d"/><g id="e"/><g id="f"/><g id="g"/><g id="h"/><g id="i"/><g id="j"/><g id="k"/><g id="l"/><g id="m"><g><circle cx="43.66" cy="41.74" r="38.57" style="fill:#7b1245;"/><g><polygon points="43.79 22.37 43.79 22.37 43.79 22.37 43.79 22.37" style="fill:#fdfdfd;"/><polygon points="30.14 27.41 30.14 27.41 30.14 27.41 30.14 27.41" style="fill:#fdfdfd;"/><polygon points="49.37 43.83 55.2 42.94 63.14 41.73 55.2 40.52 48.6 39.52 52.73 33.93 57.5 27.47 51.02 32.22 45.86 36 45 30.31 43.79 22.37 42.58 30.31 42.58 30.31 41.72 35.98 36.6 32.19 30.14 27.41 34.89 33.9 34.89 33.9 39 39.51 32.38 40.52 24.45 41.73 32.38 42.94 38.19 43.82 34.86 48.33 30.09 54.79 36.56 50.05 41.56 46.39 42.58 53.15 42.58 53.15 43.79 61.09 45 53.15 46.02 46.41 50.99 50.08 50.99 50.08 57.45 54.85 52.7 48.37 49.37 43.83" style="fill:#fdfdfd;"/></g></g></g><g id="n"/><g id="o"/><g id="p"/><g id="q"/><g id="r"/><g id="s"/><g id="t"><g id="u"/></g><g id="v"/><g id="w"/><g id="x"/><g id="y"/><g id="a`"/><g id="aa"/><g id="ab"/><g id="ac"/><g id="ad"/><g id="ae"/><g id="af"/><g id="ag"/><g id="ah"/><g id="ai"/><g id="aj"/><g id="ak"/><g id="al"/><g id="am"/><g id="an"><g id="ao"/><g id="ap"/><g id="aq"/></g><g id="ar"/><g id="as"/><g id="at"><g id="au"/></g><g id="av"/></svg>