<?xml version="1.0" encoding="UTF-8"?><svg xmlns="http://www.w3.org/2000/svg" viewBox="0 0 87.32 83.49"><g id="a"/><g id="b"/><g id="c"/><g id="d"/><g id="e"/><g id="f"/><g id="g"/><g id="h"/><g id="i"/><g id="j"/><g id="k"/><g id="l"/><g id="m"/><g id="n"/><g id="o"/><g id="p"/><g id="q"/><g id="r"/><g id="s"/><g id="t"><g id="u"/></g><g id="v"/><g id="w"/><g id="x"/><g id="y"/><g id="a`"/><g id="aa"/><g id="ab"/><g id="ac"/><g id="ad"><g><circle cx="43.66" cy="41.74" r="38.57" style="fill:#7b1245;"/><g><path d="M38.16,50.56l.45-.05c.64-.37,.55-1.09,.47-1.4-.19,.01-.4-.03-.63-.14-.05,.01-.12,.03-.2,.04,.15,.27,.2,.55,.17,.83-.06,.6-.42,.97-.26,.71Z" style="fill:#fefafd;"/><path d="M37.6,51.48c-.23-.11-.54-.09-.91,.06,.06,.12,.1,.25,.14,.4,.11,.45-.15,.91-.33,1.17,.26,.14,.78,.33,1.29,0h0c.08-.14,.32-.61,.24-1.08h0c-.03-.09-.14-.41-.43-.55Z" style="fill:#fefafd;"/><path d="M36.54,51.18c.29-.13,.56-.19,.81-.19,0,0,.02-.03,.04-.04,0,0,.44-.36,.49-.86,.03-.26-.06-.53-.25-.78-.14-.02-.28-.06-.41-.13-.1,.02-.27,.03-.47-.02,.03,.52,0,1.43-.36,1.87,.05,.04,.1,.09,.15,.15Z" style="fill:#fefafd;"/><path d="M35.94,51.25h-.01c-.13-.06-.28-.07-.45-.05-.09,.02-.17,.09-.18,.18-.04,.43-.38,1.18-.54,1.53,.31,.18,1.01,.52,1.34,.13h0s0,0,0-.01c.13-.15,.47-.63,.39-.98-.05-.21-.12-.38-.21-.51-.09-.14-.21-.24-.34-.29Z" style="fill:#fefafd;"/><path d="M35.93,48.69c-.06,0-.14-.01-.24-.03,0,.42-.05,1.2-.48,1.66-.06,.06-.12,.11-.18,.16,.07,.23,.3,.29,.39,.3h.02c.13-.02,.33-.02,.54,.04,.31-.21,.38-1.15,.32-1.84-.12-.07-.24-.16-.38-.29Z" style="fill:#fefafd;"/><path d="M34.58,48.03l-.71,1.63c-.04,.45,.04,.56,.06,.58,.03,.03,.13,.02,.22,0,.06,0,.13-.02,.18-.02,.23,0,.42-.06,.56-.21,.33-.36,.37-1.1,.36-1.48-.24-.09-.49-.25-.68-.5Z" style="fill:#fefafd;"/><path d="M33.03,47.34h0c-.55,.63-.86,1.56-1,2.07,.16,.18,.59,.57,1.13,.41,.13-.04,.25-.15,.31-.29,0,0,0,0,0-.01l.84-1.95c-.18-.17-.63-.51-1.29-.22Z" style="fill:#fefafd;"/><path d="M32.2,52.76c.12,.05,.28,.02,.45-.08,.49-.85,.86-1.89,.63-2.05-.36-.24-.66-.29-.79-.23-.03,.01-.11,.05-.13,.24-.06,.53-.37,1.5-.47,1.78,.04,.09,.15,.27,.31,.33Z" style="fill:#fefafd;"/><path d="M31.52,46.9h0c-.39,.63-.93,1.71-.91,2.27,.1,.03,.21,.06,.31,.09h0c.21,.06,.42,.13,.65,.2,0-.01,0-.03,.01-.05,.12-.48,.42-1.47,1.01-2.22-.25-.19-.75-.49-1.06-.29Z" style="fill:#fefafd;"/><path d="M55.01,25.5s-3.9-2.5-7.85-3.15c-4.11-.68-7.57-.72-12.06,1.16-2.86,1.2-3.44,2.6-4,3.96-.33,.79-.63,1.54-1.36,2.19-1.6,1.42-1.63,2.53-1.65,3.35,0,.08,0,.16-.01,.24,.42-1,.9-1.76,.91-1.78,.51-.75,1.11-.76,2.21-.8,.22,0,.47-.02,.75-.03,.03,0,.06,0,.08,0,1.32,0,.93,2.9,1.13,3.81-.36,.46-1,1.85-1.56,3.13,0,.02-.01,.03-.02,.05l-.04,.09c-.48,.14-1.17,.33-1.33,.33s-.31-.02-.45-.03l-.15-.02c-.95-.08-1.59-.46-1.9-1.12-.2-.42-.25-.93-.21-1.45-.42,1.09-1.06,2.4-1.88,3.61-.57,.83-.67,1.62-.29,2.21,.36,.56,1.11,.87,1.77,.75,.51-.09,.92-.02,1.24,.21,.06,.05,.15,.23,.23,.44-.47,.99-1.02,2.45-1.12,2.88,.1,.03,.21,.09,.29,.16,.05-.04,.1-.06,.15-.07,.21-.05,.43,.03,.6,.13,.06-.1,.13-.15,.2-.18,.32-.13,.78,.19,1.06,.43,.14-.12,.31-.19,.5-.21,.49-.05,1.01,.27,1.24,.43,.57-.29,1.3,.21,1.57,.42,.86-.33,1.52,.12,1.78,.45,.03,.03,.05,.06,.06,.1,.12,.4,.44,.6,.72,.7h0s.03,.01,.05,.02c0,0,0,0,.01,0,.24,.06,.44,.07,.45,.07,.06,0,.11,.02,.15,.06,.15,.15,.28,.24,.4,.31h.03c.34,.18,.56,.11,.57,.1,.07-.03,.15-.02,.21,.03,.09,.07,.2,.1,.33,.11h.01s.04,0,.06,0c.21,0,.41-.04,.5-.07,.05-.02,.11-.01,.16,.01,.24,.12,.43,.16,.6,.12,0,0,.01,0,.02,0,.04-.01,.08-.03,.12-.05,.47-.24,.62-1.23,.7-1.81,.02-.13,.03-.24,.05-.34,.13-.66,.36-1.9,2.17-1.71,.6,.06,1.03-.01,1.52-.1,.76-.13,1.7-.3,3.65-.02,.95,.13,1.26,.56,1.34,.89,.1,.38-.36,1.35-.69,1.88h0c-.26,.36-.64,.7-1,.97-.73,.55-1.75,1-2.42,.6-.86-.51-.7-1.39-.59-2.04,.07-.36,.13-.7,0-.87-.06-.08-.16-.13-.32-.16-.14-.03-.26,0-.37,.09-.73,.56-.96,2.96-1.09,4.39-.03,.24-.05,.47-.07,.66-.15,1.43-1.95,2.57-2.87,2.79-.35,.08-.59,.03-.7-.15-.15-.23-.31-.25-.42-.25-.08,.08-.16,.15-.24,.21-.01,.01-.03,.03-.05,.03-.67,.46-1.4,.25-1.83,0-.58,.47-1.47,0-1.8-.2-.33,.22-.67,.3-1,.25-.34-.06-.59-.24-.73-.38-.26,.12-.49,.13-.72,.05-.25-.09-.41-.29-.5-.45-.34,.07-.7-.14-.93-.36-.21,.09-.41,.1-.6,.04-.21-.08-.35-.24-.42-.36-.41,.06-.72-.11-.9-.29-.22,.08-.33,.06-.54,.06-.5-.06-.4-.06-.57-.19l-.65,.24s-.08,.03-.12,.03c-.14-.01-.26,0-.34,.02-.05,.01-.08,.03-.11,.06-.06,.06-.05,.14-.05,.14,.15,1.13-.07,3.55-1.31,5.25-.31,.43-.43,.83-.34,1.19,.12,.52,.63,.85,.74,.91,.56,.11,7.99,1.51,10.67,.66,2.97-.95,4.32-1.14,5.63-1.32,1.37-.19,1.75-.37,2.97-1.12,.53-.33,.9-1.69,1.29-3.12,.06-.21,.12-.42,.18-.64,.09-.31,.18-.62,.28-.93,.85,.37,3.03,1.17,6.09,1.17,4.38,0,10.63-10.31,10.63-17.51s-7.83-11.3-7.92-11.36Zm-21.69,11.15c.26,0,.46,.27,.6,.78,.4,1.43,.44,4.1-.28,4.55-.03,.02-.06,.03-.1,.05-.04,.01-.09,.02-.14,.02-.12,0-.27-.05-.44-.19-.17-.15-.32-.28-.45-.4-.25-.23-.51-.46-.57-.47-.01,.01-.06,.08-.1,.38-.05,.33-.2,.43-.32,.46-.06,.01-.12,0-.18-.01-.11-.03-.21-.11-.3-.24-.14-.2-.23-.49-.17-.77h0c.06-.13,.11-.26,.17-.39,0,0,0-.02,.01-.03,.41-.68,1.11-2.25,1.15-2.34,.09-.25,.57-1.45,1.11-1.42Zm12.58,2.14c-1,1.01-2.91,1.49-4.45,1.49-.75,0-1.41-.11-1.83-.33-.88-.45-3-1.74-3.47-3.76-.27-1.15,.03-2.34,.91-3.54,.57-.78,1.5-1.2,2.45-1.1,1.8,.18,5.06,.94,6.65,3.89,.89,1.65,.35,2.74-.26,3.35Z" style="fill:#fefafd;"/><path d="M30.34,49.54c-.1-.03-.19-.05-.29-.08-.07,.25-.18,.76-.18,1.45,0,.26,.02,.54,.06,.84,.04,.07,.12,.21,.25,.25,.08,.03,.17,.02,.27-.02-.06-.83,.11-1.91,.18-2.35-.1-.03-.19-.06-.29-.09Z" style="fill:#fefafd;"/><path d="M29.82,46.69s0,0,0,.01c-.24,.38-.79,1.42-.73,2.09,.27,.05,.56,.12,.88,.2h.02c.07,.02,.14,.04,.21,.06,.05-.75,.63-1.81,.89-2.24-.22-.15-.6-.36-.91-.32-.14,.02-.25,.08-.35,.2Z" style="fill:#fefafd;"/><path d="M28.84,49.18c-.08,.4-.25,1.48,.09,2.18,0,0,0,0,0,.01h0c.05,.07,.22,.26,.54,.24-.12-1.08,.05-1.88,.16-2.26-.29-.07-.55-.13-.79-.17Z" style="fill:#fefafd;"/><path d="M28.72,46.37s-.01,.08-.03,.12c-.37,.57-.9,1.6-.87,2.11,.24,.02,.51,.06,.83,.11-.01-.77,.5-1.72,.72-2.09-.26-.22-.55-.4-.62-.39,0,0-.02,.03-.02,.15Z" style="fill:#fefafd;"/><path d="M27.88,49.12c-.34,.96-.37,2.04,.11,2.23h0c.22,.05,.45,.08,.62,.09-.59-.81-.23-1.83-.04-2.25-.25-.03-.49-.05-.7-.07Z" style="fill:#fefafd;"/><path d="M27.83,46.35s0,0,0,.01c0,0,0,.01,0,.02h0c-.4,.69-.86,1.75-.7,2.18,.08,0,.18,0,.27,0,0-.69,.57-1.71,.82-2.13-.14-.09-.28-.15-.35-.13,0,0-.02,0-.03,.04Z" style="fill:#fefafd;"/><path d="M27.16,51.5l.24-.13c-.23-.84,.05-1.81,.11-2.24-.11,0-.37-.08-.43-.08-.15,.35-.63,1.59-.19,2.46,.08-.01,.17-.01,.27,0Z" style="fill:#fefafd;"/><path d="M33.38,53.07c.14,.06,.32,.06,.53-.02,.66-.78,1.2-1.77,.95-1.95-.38-.29-.72-.37-.88-.33-.03,0-.13,.04-.18,.22-.13,.52-.6,1.44-.74,1.71,.04,.1,.14,.28,.32,.37Z" style="fill:#fefafd;"/><path d="M31.1,52.29c.14,.03,.29-.02,.46-.15,.38-.92,.61-2.01,.34-2.13-.41-.18-.73-.18-.86-.1-.02,.02-.11,.07-.1,.26,.02,.54-.16,1.54-.22,1.84,.06,.08,.19,.24,.38,.28Z" style="fill:#fefafd;"/></g></g></g><g id="ae"/><g id="af"/><g id="ag"/><g id="ah"/><g id="ai"/><g id="aj"/><g id="ak"/><g id="al"/><g id="am"/><g id="an"><g id="ao"/><g id="ap"/><g id="aq"/></g><g id="ar"/><g id="as"/><g id="at"><g id="au"/></g><g id="av"/></svg>