<?xml version="1.0" encoding="UTF-8"?><svg xmlns="http://www.w3.org/2000/svg" viewBox="0 0 120.67 120.08"><g id="a"/><g id="b"/><g id="c"/><g id="d"/><g id="e"/><g id="f"/><g id="g"/><g id="h"/><g id="i"/><g id="j"/><g id="k"/><g id="l"><g id="m"/><g id="n"/><g id="o"/></g><g id="p"/><g id="q"/><g id="r"/><g id="s"/><g id="t"/><g id="u"/><g id="v"><g id="w"/></g><g id="x"/><g id="y"/><g id="a`"/><g id="aa"/><g id="ab"/><g id="ac"/><g id="ad"/><g id="ae"/><g id="af"/><g id="ag"/><g id="ah"/><g id="ai"/><g id="aj"/><g id="ak"/><g id="al"/><g id="am"/><g id="an"/><g id="ao"/><g id="ap"/><g id="aq"><g id="ar"><g><circle cx="60.57" cy="59.23" r="52.21" style="fill:#245E8A;"/><g><path d="M65.16,68.21c-.99,.74-2.37,1.35-3.28,.81-1.16-.69-.95-1.89-.8-2.76,.09-.49,.17-.95,.01-1.18-.08-.11-.21-.18-.43-.21-.19-.03-.35,0-.51,.13-.99,.75-1.3,4-1.48,5.95-.03,.33-.06,.63-.09,.9-.21,1.93-2.64,3.48-3.88,3.77-.48,.11-.8,.04-.95-.2-.2-.31-.42-.34-.57-.34-.1,.11-.21,.2-.33,.28-.02,.02-.04,.03-.06,.05-.91,.63-1.9,.34-2.48,0-.79,.64-1.99,0-2.44-.27-.45,.3-.91,.41-1.35,.34-.46-.08-.8-.33-.99-.52-.35,.16-.67,.17-.97,.06-.34-.12-.55-.39-.67-.6-.46,.1-.95-.19-1.25-.48-.28,.12-.56,.14-.81,.05-.28-.1-.47-.32-.57-.49-.56,.08-.98-.15-1.22-.39-.3,.1-.44,.08-.73,.08-.67-.09-.54-.09-.77-.26l-.88,.33c-.05,.03-.11,.04-.17,.03-.19-.02-.35,0-.46,.03-.06,.02-.11,.05-.15,.08-.08,.08-.07,.19-.07,.19,.2,1.53-.1,4.81-1.78,7.1-.42,.58-.58,1.12-.46,1.61,.17,.71,.85,1.14,1,1.23,.76,.15,10.82,2.05,14.44,.89,4.02-1.28,5.85-1.54,7.63-1.79,1.85-.26,2.38-.5,4.02-1.52,.71-.45,1.22-2.29,1.75-4.23,.08-.28,.16-.57,.24-.87,.53-1.9,1.17-3.87,2.18-4.99,.99-1.09,1.36-1.98,1.71-2.84,.15-.37,.3-.73,.49-1.08l-1.51-.21c-.35,.49-.86,.94-1.36,1.32Z" style="fill:#fff;"/><path d="M53.12,71.16l.62-.06c.87-.5,.74-1.48,.63-1.9-.26,.02-.55-.05-.85-.19-.07,.02-.16,.03-.27,.06,.2,.37,.27,.74,.23,1.13-.09,.81-.57,1.31-.35,.96Z" style="fill:#fff;"/><path d="M52.37,72.42c-.31-.15-.73-.12-1.23,.08,.08,.16,.14,.34,.19,.54,.15,.6-.2,1.24-.45,1.59,.35,.19,1.06,.45,1.74,0,0,0,0,0,0,0,.1-.18,.44-.82,.32-1.45v-.02c-.04-.11-.19-.53-.59-.73Z" style="fill:#fff;"/><path d="M50.94,72.01c.39-.18,.76-.26,1.09-.26,0,0,.03-.04,.05-.06,0,0,.59-.49,.66-1.17,.03-.35-.08-.71-.34-1.06-.19-.02-.38-.08-.55-.17-.14,.03-.36,.05-.63-.02,.03,.71,.01,1.93-.49,2.53,.07,.06,.14,.13,.2,.21Z" style="fill:#fff;"/><path d="M50.12,72.1s-.01,0-.02,0c-.18-.07-.38-.09-.6-.06-.13,.02-.23,.12-.24,.24-.06,.58-.51,1.6-.73,2.07,.42,.24,1.36,.71,1.81,.18h0s0-.01,0-.02c.18-.21,.64-.86,.52-1.32-.07-.28-.17-.51-.29-.69-.13-.19-.28-.32-.46-.39Z" style="fill:#fff;"/><path d="M50.11,68.63c-.08,0-.19-.02-.33-.05,0,.57-.07,1.63-.64,2.24-.08,.08-.16,.15-.24,.21,.1,.31,.4,.39,.52,.41h.02c.18-.02,.45-.03,.74,.05,.42-.28,.51-1.56,.44-2.49-.16-.09-.33-.22-.51-.39Z" style="fill:#fff;"/><path d="M48.28,67.74l-.96,2.21c-.06,.62,.05,.76,.08,.78,.04,.05,.18,.02,.3,.01,.09-.01,.17-.02,.25-.02,.31,.01,.57-.08,.76-.29,.45-.49,.51-1.49,.48-2.01-.33-.13-.66-.34-.92-.68Z" style="fill:#fff;"/><g><path d="M49.35,48.54c.23-.44,.8-4.03,.62-4.37-.08-.14-1.05,1.13-.91,1.06,.15-.08,.32-.02,.39,.12,.27,.52,.24,1.12-.08,1.72-.28,.52-.76,1-1.27,1.37-.01,0-.02,.02-.03,.02-.52,.37-1.09,.62-1.52,.67-.06,.02-.14,.1-.23,.21,.01,.05,.02,.11,.04,.15,.33-.28,2.82-.63,2.99-.96Z" style="fill:#fff;"/><path d="M45.13,52.03c.08-.21-.75,1.35-1.63,3.18-.2,.47-.41,.93-.61,1.38,.8-1.33,2.15-4.39,2.24-4.56Z" style="fill:#fff;"/><path d="M70.02,64.64c.78-.58,1.53-.79,2.21-.62,1.02,.26,1.5,1.26,1.52,1.3,.07,.15,0,.32-.14,.39s.23,.43,.17,.28c1.29-.4,.89-2.49,.14-2.68-.51-.13-2.41-1.48-3.04-1-1.13,.84-2.03,1.39-2.41,2.34-.15,.37-.34,.99-.59,1.67l.6,.08c.32-.6,.76-1.18,1.55-1.77Z" style="fill:#fff;"/><path d="M41.74,60.5c.51,.02,3.28-1.34,3.56-.33,.78,2.79,4.04-1.38,2.64-.49-.12,.08-.28,.14-.48,.14-.17,0-.36-.05-.58-.18-.06,.02-.12,.03-.19,.03-.17,0-.36-.06-.59-.26-.23-.2-.44-.38-.61-.54-.34-.31-.69-.62-.77-.63-.02,.02-.08,.11-.14,.52-.07,.45-.27,.58-.43,.62-.08,.02-.16,0-.24-.02-.04,.02-.07,.03-.1,.04-.32,.08-.67-.11-.94-.49-.27-.39-.44-.95-.33-1.5-.06,.13-.12,.25-.18,.36-.62,1.5-1,2.71-.62,2.74Z" style="fill:#fff;"/><path d="M75.94,37.25c-.05-.03-5.28-3.38-10.63-4.27-5.57-.92-10.24-.98-16.33,1.57-3.87,1.62-4.66,3.53-5.41,5.37-.44,1.07-.85,2.08-1.85,2.96-2.17,1.92-2.21,3.43-2.24,4.53,0,.11,0,.22-.02,.32,.57-1.35,1.22-2.39,1.23-2.41,.69-1.01,1.5-1.03,2.99-1.08,.3-.01,.64-.02,1.01-.04,.03,0,.08,0,.11,0,1.79,0,1.26,3.93,1.52,5.16,.09-.11,.17-.19,.23-.21,.43-.05,1-.3,1.52-.67,.01,0,.02-.01,.03-.02,.52-.37,.99-.85,1.27-1.37,.32-.6,.34-1.2,.08-1.72-.08-.15-.25-.2-.39-.12-.14,.07,.84-1.2,.91-1.06,.18,.35-.39,3.94-.62,4.37-.17,.33-2.67,.69-2.99,.96-.01-.04-.03-.1-.04-.15-.49,.63-1.35,2.5-2.12,4.24,0,.02-.02,.05-.03,.07-.15,.35-.3,.69-.44,1-.08,.19-.16,.37-.24,.55,.88-1.84,1.71-3.4,1.63-3.18-.08,.17-1.43,3.23-2.24,4.56,.2-.45,.4-.91,.61-1.38-.4,.84-.81,1.73-1.15,2.54,.06-.11,.12-.23,.18-.36-.11,.55,.06,1.11,.33,1.5,.27,.38,.62,.57,.94,.49,.03,0,.07-.02,.1-.04-.15-.05-.29-.15-.41-.32-.19-.27-.31-.66-.23-1.04h0c.08-.17,.15-.35,.23-.52,0-.01,.01-.02,.02-.04,.56-.92,1.5-3.05,1.55-3.17,.13-.34,.78-1.97,1.51-1.92,.35,.01,.63,.36,.82,1.06,.54,1.94,.59,5.55-.38,6.17-.04,.02-.09,.05-.14,.06,.22,.13,.41,.18,.58,.18,.19,0,.35-.06,.48-.14,1.39-.89-1.86,3.28-2.64,.49-.28-1.01-3.05,.35-3.56,.33-.39-.03,0-1.24,.62-2.74-.76,1.42-1.58,1.49-2.12,2-.01,.01,.26-.03,.25-.02-.67,1.21-1.71,3.92-1.87,4.61,.14,.05,.28,.13,.39,.21,.07-.05,.14-.08,.2-.1,.28-.07,.59,.05,.82,.18,.08-.13,.17-.2,.27-.24,.43-.18,1.06,.26,1.44,.59,.19-.16,.42-.26,.67-.28,.67-.07,1.37,.36,1.68,.58,.78-.39,1.75,.28,2.12,.57,1.17-.45,2.06,.17,2.41,.61,.04,.03,.07,.09,.09,.14,.17,.55,.6,.81,.98,.95h.01s.05,.02,.07,.02c0,0,.01,0,.02,0,.33,.09,.59,.09,.62,.09,.08,0,.15,.03,.2,.09,.2,.2,.38,.33,.55,.42h0s.02,0,.03,.01c.46,.24,.76,.13,.77,.13,.1-.03,.2-.02,.28,.04,.13,.1,.27,.14,.44,.15h.02s.05,0,.08,0c.28,0,.55-.05,.68-.09,.07-.02,.15-.02,.21,.02,.32,.16,.59,.21,.81,.17,.01,0,.02,0,.03,0,.06-.02,.11-.03,.16-.06,.64-.33,.84-1.66,.95-2.45,.02-.17,.05-.33,.07-.46,.17-.89,.49-2.57,2.94-2.31,.81,.08,1.39-.02,2.06-.13,1.03-.18,2.31-.4,4.94-.03,1.29,.18,1.7,.75,1.82,1.2,.15,.57-.65,2.16-1.09,2.77l1.45,.3c.25-.68,.51-2.41,.66-2.78,.38-.94,1.28-1.49,2.41-2.34,.63-.48,2.53,.87,3.04,1,.75,.19,1.15,2.28-.14,2.68,.07,.15-.31-.21-.17-.28s.21-.24,.14-.39c-.02-.04-.5-1.05-1.52-1.3-.69-.17-1.43,.03-2.21,.62-.79,.59-1.23,1.17-1.55,1.77l-.6-.08c-.34,.93-.8,1.96-1.41,2.63-.89,.98-2.39,3.83-2.89,5.6,.59,.28,3.81,1.78,8.69,1.78,5.92,0,14.4-13.96,14.4-23.71s-10.6-15.3-10.73-15.37Zm-12.32,17.99c-1.35,1.37-3.94,2.02-6.03,2.02-1.01,0-1.9-.15-2.47-.45-1.2-.62-4.06-2.35-4.7-5.09-.37-1.55,.04-3.17,1.23-4.8,.77-1.06,2.03-1.63,3.32-1.49,2.44,.25,6.85,1.27,9,5.27,1.2,2.24,.48,3.71-.35,4.54Z" style="fill:#fff;"/></g><path d="M46.17,66.81h0c-.74,.85-1.17,2.11-1.35,2.8,.21,.24,.8,.78,1.53,.55,.18-.06,.34-.2,.42-.39,0,0,0-.01,.01-.02l1.14-2.64c-.24-.23-.85-.69-1.75-.3Z" style="fill:#fff;"/><path d="M45.06,74.15c.17,.06,.38,.03,.62-.1,.66-1.15,1.16-2.56,.85-2.78-.48-.33-.89-.39-1.07-.31-.03,.02-.15,.07-.18,.33-.08,.72-.51,2.03-.63,2.42,.06,.12,.2,.36,.42,.45Z" style="fill:#fff;"/><path d="M44.14,66.22s0,0,0,0c-.53,.84-1.26,2.31-1.24,3.06,.14,.03,.28,.08,.42,.12h0c.28,.08,.57,.17,.88,.27,0-.02,.01-.04,.02-.06,.17-.65,.58-1.99,1.36-3-.34-.26-1.01-.67-1.44-.39Z" style="fill:#fff;"/><path d="M40.59,61.72c.78-1.07,2.37-4.13,3.37-6.45,.06-.13,.68-1.55,.74-1.67-.41,.13-2.08,.62-2.37,.62-.22,0-.42-.02-.6-.04l-.2-.02c-1.28-.1-2.15-.62-2.58-1.52-.27-.57-.34-1.25-.28-1.96-.56,1.47-1.43,3.25-2.54,4.88-.77,1.13-.91,2.19-.39,3,.49,.75,1.5,1.18,2.4,1.02,.69-.12,1.25-.03,1.67,.28,.23,.17,.69,1.69,.78,1.87Z" style="fill:#fff;"/><path d="M42.54,69.78c-.13-.03-.26-.07-.39-.1-.09,.34-.25,1.02-.25,1.96,0,.35,.02,.73,.08,1.13,.06,.1,.17,.28,.34,.34,.1,.04,.23,.03,.37-.02-.08-1.12,.15-2.59,.25-3.18-.13-.04-.26-.08-.39-.12Z" style="fill:#fff;"/><path d="M41.83,65.93s0,.01-.01,.02c-.33,.51-1.07,1.92-.99,2.83,.36,.07,.76,.16,1.18,.27,0,0,.02,0,.03,0,.09,.02,.19,.05,.28,.08,.06-1.01,.85-2.45,1.2-3.03-.3-.21-.81-.48-1.23-.44-.19,.02-.34,.11-.47,.27Z" style="fill:#fff;"/><path d="M40.51,69.3c-.1,.54-.34,2,.12,2.94,0,0,.01,.01,.01,.02h0c.06,.1,.3,.35,.73,.33-.16-1.46,.07-2.55,.21-3.05-.39-.09-.74-.17-1.07-.23Z" style="fill:#fff;"/><path d="M40.34,65.5c0,.05-.02,.11-.05,.16-.51,.78-1.22,2.17-1.18,2.85,.33,.03,.7,.08,1.13,.15-.02-1.05,.67-2.33,.97-2.83-.35-.3-.74-.54-.84-.52,0,0-.03,.05-.03,.2Z" style="fill:#fff;"/><path d="M39.21,69.23c-.46,1.31-.51,2.76,.15,3.01h.01c.3,.07,.61,.11,.84,.12-.8-1.1-.31-2.48-.05-3.04-.34-.04-.66-.07-.95-.1Z" style="fill:#fff;"/><path d="M39.15,65.47s0,.01-.01,.02c0,.01,0,.02-.01,.03,0,0,0,.01-.01,.02-.55,.92-1.16,2.35-.94,2.93,.11,0,.24,0,.37,.01,0-.94,.77-2.32,1.12-2.89-.19-.12-.38-.2-.47-.17,0,0-.02,0-.04,.06Z" style="fill:#fff;"/><path d="M38.24,72.44l.33-.18c-.31-1.13,.07-2.45,.15-3.03-.15,0-.51-.11-.58-.11-.21,.48-.86,2.15-.26,3.33,.11-.02,.23-.02,.36-.01Z" style="fill:#fff;"/><path d="M46.65,74.56c.19,.09,.43,.08,.72-.02,.89-1.05,1.62-2.39,1.29-2.65-.51-.39-.97-.5-1.19-.45-.04,.01-.18,.05-.24,.3-.18,.7-.81,1.95-1,2.32,.05,.13,.18,.38,.43,.5Z" style="fill:#fff;"/></g></g><path d="M43.6,73.43c-.18-.02-.35-.16-.49-.39-.03-1.33,.21-2.8,.59-2.84,.58-.06,.97,.09,1.09,.25,.02,.03,.1,.13,0,.37-.27,.67-.53,2.03-.6,2.42-.11,.08-.35,.22-.59,.19Z" style="fill:#fff;"/></g></g></svg>