<?xml version="1.0" encoding="UTF-8"?><svg xmlns="http://www.w3.org/2000/svg" viewBox="0 0 120.67 120.08"><g id="a"/><g id="b"/><g id="c"/><g id="d"/><g id="e"/><g id="f"/><g id="g"/><g id="h"/><g id="i"/><g id="j"/><g id="k"/><g id="l"><g id="m"/><g id="n"/><g id="o"/></g><g id="p"/><g id="q"/><g id="r"/><g id="s"/><g id="t"/><g id="u"/><g id="v"><g id="w"/></g><g id="x"/><g id="y"/><g id="a`"/><g id="aa"/><g id="ab"/><g id="ac"/><g id="ad"/><g id="ae"/><g id="af"/><g id="ag"/><g id="ah"/><g id="ai"/><g id="aj"/><g id="ak"/><g id="al"/><g id="am"/><g id="an"/><g id="ao"/><g id="ap"/><g id="aq"><g><ellipse cx="60.95" cy="59.37" rx="52.21" ry="52.16" style="fill:#245E8A;"/><g><rect x="50.4" y="56.26" width="19.18" height="6.36" rx="1.07" ry="1.07" style="fill:#fff;"/><path d="M64.62,63.82h-11.5c.34,7.09,.68,14.17,1.01,21.26h11.4c.34-7.09,.68-14.17,1.01-21.26h-1.92Z" style="fill:#fff;"/><path d="M57.32,60.11s-13.17-5.88-5.33-18c0,0,.27,2.76,2.28,3.83,0,0-.3-11.83,10.13-13.38h0s-1.71,2.94-.23,5.95c1.48,3.01,1.98,3.71,1.98,7.36,0,0,1.87-.44,3.18-3.55,0,0,1.73,2.67,2.07,5.21,.88,4.24-1.81,10.92-9.01,12.75" style="fill:#fff; fill-rule:evenodd;"/></g></g></g></svg>