<?xml version="1.0" encoding="UTF-8"?><svg xmlns="http://www.w3.org/2000/svg" viewBox="0 0 87.32 83.49"><g id="a"/><g id="b"/><g id="c"/><g id="d"/><g id="e"/><g id="f"/><g id="g"/><g id="h"/><g id="i"><g><circle cx="43.66" cy="41.74" r="38.57" style="fill:#7b1245;"/><g><path d="M50.33,39.96c1.7-2.01,2.28-4.56,1.89-6.45-.25-1.86-1.52-3.82-1.52-3.82-.96,2.28-2.33,2.6-2.33,2.6,0-2.67-.36-3.19-1.45-5.39-1.08-2.2,.17-4.36,.17-4.36h0c-7.63,1.14-7.41,9.8-7.41,9.8-1.47-.79-1.67-2.81-1.67-2.81-3.07,4.75-1.74,8.19,.17,10.37h-.55c-.43,0-.79,.35-.79,.79v3.09c0,.43,.35,.79,.79,.79h12.46c.43,0,.79-.35,.79-.79v-3.09c0-.35-.23-.64-.55-.74Z" style="fill:#fefafd; fill-rule:evenodd;"/><path d="M46.19,45.45h-7.36c.25,5.19,.49,10.38,.74,15.57h8.34c.25-5.19,.49-10.38,.74-15.57h-2.47Z" style="fill:#fefafd; fill-rule:evenodd;"/></g></g></g><g id="j"/><g id="k"/><g id="l"/><g id="m"/><g id="n"/><g id="o"/><g id="p"/><g id="q"/><g id="r"/><g id="s"/><g id="t"><g id="u"/></g><g id="v"/><g id="w"/><g id="x"/><g id="y"/><g id="a`"/><g id="aa"/><g id="ab"/><g id="ac"/><g id="ad"/><g id="ae"/><g id="af"/><g id="ag"/><g id="ah"/><g id="ai"/><g id="aj"/><g id="ak"/><g id="al"/><g id="am"/><g id="an"><g id="ao"/><g id="ap"/><g id="aq"/></g><g id="ar"/><g id="as"/><g id="at"><g id="au"/></g><g id="av"/></svg>