<?xml version="1.0" encoding="UTF-8"?><svg xmlns="http://www.w3.org/2000/svg" viewBox="0 0 87.32 83.49"><g id="a"/><g id="b"/><g id="c"/><g id="d"/><g id="e"/><g id="f"/><g id="g"/><g id="h"/><g id="i"/><g id="j"/><g id="k"><g><circle cx="43.66" cy="41.74" r="38.57" style="fill:#7b1245;"/><path d="M62.7,42.85c-.7-2.74-4.12-4.72-8.55-4.94-2.27-.18-5.07,.58-7.64,1.6,2.18-1.72,4.23-3.77,5.21-5.82,2.03-3.95,2.03-7.9,0-9.87-2.03-1.97-6.08-1.97-8.1,.11-2.03-2.08-6.08-2.08-8.11-.11-2.03,1.97-2.03,5.92,0,9.87,.98,2.05,3.03,4.1,5.21,5.82-2.58-1.02-5.38-1.77-7.64-1.6-4.43,.22-7.85,2.19-8.55,4.94-.7,2.74,1.33,6.25,4.15,6.97-.79,2.79,1.23,6.31,3.96,7.07,2.72,.77,6.14-1.21,8.55-4.94,.9-1.32,1.54-3.1,1.98-5v13.98h.91v-13.98c.44,1.9,1.08,3.68,1.98,5,2.41,3.73,5.83,5.7,8.55,4.94,2.72-.77,4.75-4.28,3.96-7.07,2.82-.71,4.84-4.22,4.15-6.97Z" style="fill:#fff;"/></g></g><g id="l"/><g id="m"/><g id="n"/><g id="o"/><g id="p"/><g id="q"/><g id="r"/><g id="s"/><g id="t"><g id="u"/></g><g id="v"/><g id="w"/><g id="x"/><g id="y"/><g id="a`"/><g id="aa"/><g id="ab"/><g id="ac"/><g id="ad"/><g id="ae"/><g id="af"/><g id="ag"/><g id="ah"/><g id="ai"/><g id="aj"/><g id="ak"/><g id="al"/><g id="am"/><g id="an"><g id="ao"/><g id="ap"/><g id="aq"/></g><g id="ar"/><g id="as"/><g id="at"><g id="au"/></g><g id="av"/></svg>