<?xml version="1.0" encoding="UTF-8"?><svg xmlns="http://www.w3.org/2000/svg" viewBox="0 0 120.67 120.08"><g id="a"/><g id="b"/><g id="c"/><g id="d"/><g id="e"/><g id="f"/><g id="g"/><g id="h"/><g id="i"/><g id="j"/><g id="k"/><g id="l"><g id="m"/><g id="n"/><g id="o"/></g><g id="p"/><g id="q"/><g id="r"/><g id="s"/><g id="t"/><g id="u"/><g id="v"><g id="w"/></g><g id="x"/><g id="y"/><g id="a`"/><g id="aa"/><g id="ab"/><g id="ac"/><g id="ad"/><g id="ae"/><g id="af"/><g id="ag"/><g id="ah"/><g id="ai"/><g id="aj"/><g id="ak"/><g id="al"/><g id="am"/><g id="an"/><g id="ao"/><g id="ap"/><g id="aq"><g><circle cx="60.95" cy="59.41" r="52.33" style="fill:#42B5E8;"/><path d="M86.79,60.91c-.95-3.72-5.59-6.4-11.6-6.7-3.07-.24-6.87,.78-10.37,2.17,2.95-2.34,5.73-5.12,7.06-7.9,2.75-5.36,2.75-10.72,0-13.4-2.75-2.68-8.25-2.68-11,.15-2.75-2.82-8.25-2.82-11-.15-2.75,2.68-2.75,8.04,0,13.4,1.33,2.78,4.11,5.56,7.06,7.9-3.5-1.39-7.3-2.4-10.37-2.17-6.01,.3-10.65,2.98-11.6,6.7-.95,3.72,1.8,8.48,5.63,9.45-1.07,3.79,1.68,8.56,5.37,9.6,3.7,1.04,8.34-1.64,11.6-6.7,1.23-1.79,2.09-4.21,2.69-6.78v18.97h1.23v-18.97c.6,2.57,1.46,4.99,2.69,6.78,3.27,5.06,7.91,7.74,11.6,6.7,3.69-1.04,6.44-5.8,5.37-9.6,3.82-.97,6.57-5.73,5.63-9.45Z" style="fill:#fff;"/></g></g></svg>