<?xml version="1.0" encoding="UTF-8"?><svg xmlns="http://www.w3.org/2000/svg" viewBox="0 0 120.67 120.08"><g id="a"/><g id="b"/><g id="c"/><g id="d"/><g id="e"/><g id="f"/><g id="g"/><g id="h"/><g id="i"/><g id="j"/><g id="k"/><g id="l"><g id="m"/><g id="n"/><g id="o"/></g><g id="p"/><g id="q"/><g id="r"/><g id="s"/><g id="t"/><g id="u"/><g id="v"><g id="w"/></g><g id="x"/><g id="y"/><g id="a`"/><g id="aa"/><g id="ab"/><g id="ac"/><g id="ad"/><g id="ae"/><g id="af"/><g id="ag"/><g id="ah"/><g id="ai"/><g id="aj"/><g id="ak"/><g id="al"/><g id="am"/><g id="an"/><g id="ao"/><g id="ap"/><g id="aq"><g id="ar"><circle cx="60.75" cy="59.7" r="52.48" style="fill:#8E1B52;"/><g><path d="M60.56,33.75c-.07,0-.14,0-.2,0h-.05s-.02,0-.04,0c0,0-.02,0-.03,0-7.74,.02-13.96,.7-13.96,1.54,0,.39,1.33,.74,3.51,1.01,1.98,1.18,3.28,2.02,4.75,4.44,.59,.9,1.62,2.62,2.02,3.67,.55,1.44,.53,1.37,1.05,2.96,.22,.69,.4,1.28,.55,1.82,.27,1.52,.62,3.08,.7,4.53l1.45-.1,1.45,.1c.08-1.45,.44-3.02,.71-4.55,.15-.53,.33-1.12,.55-1.8,.51-1.6,.5-1.52,1.05-2.96,.4-1.05,1.43-2.77,2.02-3.67,1.44-2.37,2.71-3.22,4.62-4.37,2.55-.28,4.12-.66,4.12-1.08,0-.85-6.39-1.54-14.27-1.54Z" style="fill:#fff;"/><rect x="58.87" y="53.51" width="2.89" height="33.36" style="fill:#fff;"/><polygon points="61.85 86.87 58.79 86.87 57.66 84.73 62.96 84.73 61.85 86.87" style="fill:#fff;"/></g></g></g></svg>