<?xml version="1.0" encoding="UTF-8"?><svg xmlns="http://www.w3.org/2000/svg" viewBox="0 0 120.67 120.08"><g id="a"/><g id="b"/><g id="c"/><g id="d"/><g id="e"/><g id="f"/><g id="g"/><g id="h"/><g id="i"/><g id="j"/><g id="k"/><g id="l"><g id="m"/><g id="n"/><g id="o"/></g><g id="p"/><g id="q"/><g id="r"/><g id="s"/><g id="t"/><g id="u"/><g id="v"><g id="w"/></g><g id="x"/><g id="y"/><g id="a`"/><g id="aa"/><g id="ab"/><g id="ac"/><g id="ad"/><g id="ae"/><g id="af"/><g id="ag"/><g id="ah"/><g id="ai"/><g id="aj"/><g id="ak"/><g id="al"/><g id="am"/><g id="an"/><g id="ao"/><g id="ap"/><g id="aq"><g><circle cx="60.96" cy="58.87" r="52.19" style="fill:#42B5E8;"/><g><ellipse cx="60.68" cy="63.17" rx="3.32" ry="4.24" transform="translate(-26.91 64.1) rotate(-46.76)" style="fill:#fff;"/><ellipse cx="64.07" cy="36.98" rx="3.32" ry="4.24" transform="translate(-6.76 58.32) rotate(-46.76)" style="fill:#fff;"/><g><path d="M64.74,38.04c.51,.32,1.12,.81,1.63,1.51,1.43,1.94,1.1,4.11,.96,4.81" style="fill:#fff;"/><path d="M68.06,44.5l-1.19-.24c.18-.91,.06-2.73-1.09-4.28-.38-.51-.86-.96-1.44-1.33l.79-1.24c.73,.47,1.35,1.04,1.83,1.69,1.48,2.01,1.32,4.24,1.09,5.39Z" style="fill:#fff;"/></g><g><path d="M67.94,44.08c.36-.62,.57-1.06,.57-1.06h0l-.88-.39c-1.38,3.27-3.48,6.01-5.7,8.91l-.5,.65c-.58,.76-1.11,1.55-1.61,2.35,.03,.14,.04,.22,.04,.22l1.03-1.55c.51,.3,1.11,.44,1.75,.42,.07-.1,.14-.21,.22-.31l.5-.65c1.91-2.5,3.88-5.07,5.33-7.99-.18-.2-.37-.39-.6-.53-.05-.03-.1-.05-.15-.07Z" style="fill:#fff;"/><path d="M57.77,85.38c.18,0,.34,.02,.5,.05,.06,0,.11-.01,.17-.01,.1,0,.21,0,.3,.02,.13-.02,.27-.03,.41-.03,.1,0,.2,0,.3,.02-1.02-2.84-1.73-5.64-2.15-8.38-.65-.08-1.25,.09-1.77,.4,.4,2.6,1.07,5.26,1.99,7.95,.08,0,.16-.01,.24-.01Z" style="fill:#fff;"/><path d="M58.89,56.13c-2.97,5.43-4.22,11.63-3.71,18.26,.05-.19,.08-.47,0-.86-.09-.45,0-1.63,.08-2.66,.53,.07,1.09-.02,1.63-.29,.14-5,1.38-9.68,3.72-13.85h-.01c-.5-.34-1.11-.56-1.72-.6Z" style="fill:#fff;"/><path d="M55.27,70.87c-.09,1.03-.17,2.21-.08,2.66,.07,.39,.04,.67,0,.86,.08,1,.2,2.02,.36,3.04,.52-.31,1.12-.48,1.77-.4-.33-2.2-.47-4.35-.41-6.45-.54,.27-1.1,.36-1.63,.29Z" style="fill:#fff;"/><path d="M59.87,54.76s-.01-.08-.04-.22c-.33,.52-.64,1.05-.94,1.59,.61,.05,1.22,.26,1.72,.62h.01c.6-1.09,1.28-2.12,2.03-3.12-.64,.02-1.25-.11-1.75-.42l-1.03,1.55Z" style="fill:#fff;"/><path d="M68.52,43.01h0s-.21,.44-.57,1.06c.05,.03,.1,.04,.15,.07,.23,.14,.42,.32,.6,.53,.21-.43,.42-.87,.61-1.32l-.79-.34Z" style="fill:#fff;"/></g><path d="M56.46,76.13c2.25-1.27,14.41-1.39,20.85-9.92-8.75-1.55-21.62,5.82-20.85,9.92Z" style="fill:#fff;"/><path d="M56.43,78.44c-1.81-1.43-6.56-10.99-15.41-13.73,2.2,7.33,12.65,15.46,15.41,13.73Z" style="fill:#fff;"/><path d="M60.23,56.22c-1.45-1.53-4.47-10.78-12.07-14.44,1.02,6.89,9.36,15.62,12.07,14.44Z" style="fill:#fff;"/><path d="M61.16,54.18c2.09,0,10.77,4.13,18.62,1.04-5.62-3.99-17.59-3.86-18.62-1.04Z" style="fill:#fff;"/><path d="M67.64,44.66c1.46-1.33,10.58-3.37,13.81-10.91-6.87,.22-15.16,7.91-13.81,10.91Z" style="fill:#fff;"/></g></g></g></svg>