<?xml version="1.0" encoding="UTF-8"?><svg xmlns="http://www.w3.org/2000/svg" viewBox="0 0 87.32 83.49"><g id="a"/><g id="b"/><g id="c"/><g id="d"/><g id="e"/><g id="f"/><g id="g"/><g id="h"/><g id="i"/><g id="j"/><g id="k"/><g id="l"/><g id="m"/><g id="n"/><g id="o"/><g id="p"/><g id="q"/><g id="r"/><g id="s"/><g id="t"><g id="u"/></g><g id="v"/><g id="w"/><g id="x"/><g id="y"/><g id="a`"/><g id="aa"/><g id="ab"/><g id="ac"/><g id="ad"/><g id="ae"/><g id="af"/><g id="ag"/><g id="ah"/><g id="ai"/><g id="aj"/><g id="ak"/><g id="al"/><g id="am"><g><circle cx="43.66" cy="41.74" r="38.57" style="fill:#7b1245;"/><g><path d="M36.49,55.54l-.04,.03s.04,.02,.07,.02c0,0,0,.02-.02-.05Z" style="fill:#fff;"/><path d="M54.77,27.35s-.02-.03-.02-.04c0-.03,0-.05,0-.08l.03,.12h0Z" style="fill:#fff;"/><g><polygon points="28.88 32.27 28.88 32.27 28.89 32.27 28.88 32.27" style="fill:#fff;"/><path d="M28.91,32.24v0h0Z" style="fill:#fff;"/><path d="M32.33,57.86c1.32,.9,2.88,1.59,4.61,2.03l-2.84-1.03c-.61-.29-1.2-.63-1.77-.99Z" style="fill:#fff;"/><g><path d="M50.78,54.6c-.24,.15-.49,.3-.74,.44,.25-.14,.5-.28,.74-.44Z" style="fill:#fff;"/><path d="M36.1,56.01h.01c.34,.13,.68,.25,1.02,.36,.35,.1,.7,.19,1.06,.27,.09,.02,.22,.04,.54,.09-1.97-.4-3.79-1.16-5.42-2.19,.88,.59,1.81,1.09,2.79,1.47Z" style="fill:#fff;"/><path d="M48.26,55.88c-.32,.13-.66,.24-.99,.35,.34-.11,.67-.22,.99-.35Z" style="fill:#fff;"/><path d="M46.1,56.56h0Z" style="fill:#fff;"/><path d="M49.6,27.56c-1.31-.69-2.71-1.2-4.15-1.49h.01c-.06-.01-.12-.02-.18-.03h0c-.64-.13-1.24-.24-1.67-.27-.2-.02-.4-.03-.59-.03-.08,0-.15,0-.23,.01-.04,0-.13,.01-.2,0-.09,0-.1,0-.23,0-.03,0-.11,0-.13,0-.2-.02-.05,0-.25-.02-.29,.01-.58,.04-.87,.07,.33-.02,.66-.05,.99-.05,2.71,0,5.27,.66,7.51,1.8Z" style="fill:#fff;"/><path d="M49.68,55.23c-.39,.2-.78,.38-1.18,.55,.41-.17,.8-.35,1.18-.55Z" style="fill:#fff;"/><path d="M50.07,27.81c.15,.08,.29,.17,.43,.26-.14-.09-.29-.17-.43-.26Z" style="fill:#fff;"/><path d="M49.6,27.56c.16,.08,.31,.16,.47,.25-.16-.09-.31-.17-.47-.25Z" style="fill:#fff;"/><path d="M50.03,55.03c-.12,.07-.24,.13-.36,.2,.12-.06,.24-.13,.36-.2Z" style="fill:#fff;"/><path d="M48.5,55.78c-.08,.03-.16,.07-.23,.1,.08-.03,.16-.06,.23-.1Z" style="fill:#fff;"/><path d="M47.27,56.23c-.38,.12-.77,.24-1.17,.33,.4-.1,.79-.21,1.17-.33Z" style="fill:#fff;"/><path d="M42.13,61.15c13.42,0,21.37-9.31,21.37-19.54,0-10.8-8.63-19.54-19.56-19.54-1.6,0-3.14,.21-4.63,.56-.02,0-.05,0-.07,.01-.67,.12-1.34,.28-2,.47-1.87,.53-3.72,1.13-5.49,1.92-1.07,.48-2.14,.97-3.19,1.48-.2,.1-.38,.21-.54,.34-.4,.32-.68,.73-.88,1.21-.04,.1-.08,.2-.11,.3-.04,.1-.07,.21-.11,.31-.07,.18-.15,.36-.23,.53-.24,.53-.52,1.04-.76,1.57-.02,.05-.04,.09-.07,.14-.05,.09-.09,.18-.14,.27-.02,.05-.04,.09-.06,.14-.14,.39-.01,.54,.42,.52,.2,0,.41-.02,.61-.03,.06,0,.11,0,.17,0,.15,0,.29,0,.44,0,.07,0,.13,.02,.19,.03,.19,.04,.37,.09,.55,.16,.08,.03,.16,.07,.23,.1,.09,.04,.17,.09,.26,.14,.09,.05,.17,.1,.25,.15,0,0,.04-.05,.04-.06l.04-.06h0l.03-.04h0s.04-.06,.06-.09h0v-.02h0c.6-.86,1.28-1.67,2.03-2.39,.09,.01,.17,.05,.25,.12h0c.08,.07,.14,.17,.21,.3,.15,.31,.23,.63,.23,.95,0,.42-.12,.84-.35,1.2-.06,.09-.12,.18-.19,.26-.04,.04-.08,.09-.12,.13-.1,.1-.2,.18-.31,.26-.13,.09-.27,.17-.42,.24,.25,.09,.52,.12,.78,.08,.1-.01,.21-.04,.31-.07,.1-.03,.2-.07,.29-.12s.19-.11,.27-.18c.22-.17,.4-.39,.54-.65,.09-.18,.18-.37,.27-.55,.06-.14,.13-.28,.19-.42,.19-.42,.37-.84,.58-1.25,.07-.15,.15-.29,.23-.44,.24-.43,.5-.86,.76-1.28,.32-.51,.73-.91,1.23-1.2,.3-.17,.63-.31,.99-.42,1.44-.42,2.89-.75,4.37-.88,.29-.03,.58-.06,.87-.07,.2,.02,.05,0,.25,.02,.03,0,.1,0,.13,0,.13,0,.15,0,.23,0,.07,0,.16-.01,.2,0,.08,0,.15,0,.23-.01,.2,0,.4,.02,.59,.03,.43,.03,1.02,.14,1.67,.27h0c.06,.01,.12,.03,.18,.04h-.01c1.44,.28,2.84,.79,4.15,1.48,.16,.08,.31,.17,.47,.25,.15,.08,.29,.17,.43,.26,4.63,2.75,7.74,7.69,7.74,13.34s-2.98,10.4-7.46,13.18c-.24,.16-.49,.3-.74,.44-.12,.07-.24,.13-.36,.2-.38,.2-.78,.38-1.18,.55-.08,.03-.16,.06-.23,.1-.32,.13-.65,.25-.99,.35-.38,.13-.77,.23-1.17,.33h-.02c-1.28,.32-2.61,.51-3.98,.51-1.15,0-2.2-.07-3.29-.29-.31-.05-.52-.12-.61-.14-.36-.08-.71-.17-1.06-.27-.35-.1-.69-.22-1.02-.35h-.01c-.98-.39-1.91-.89-2.79-1.48-2.25-1.51-4.13-3.65-5.42-6.21h0c-1.07-2.14-1.7-4.58-1.7-7.17,0-1.09,.11-2.16,.31-3.19,.06-.4,.14-.8,.22-1.21,.14-.66,.29-1.32,.4-2.01-.08,.11-.17,.21-.23,.32-1.18,2.16-1.99,4.44-2.27,6.86-.13,1.16-.14,2.34-.07,3.5,0,.08,0,.17,0,.25,.07,1.07,.31,2.13,.67,3.15,1.28,4.67,4.5,7.64,7.01,9.45,.24,.17,.68,.45,1.16,.72,.83,.48,4.2,2.21,8.74,2.13" style="fill:#fff;"/></g></g></g></g></g><g id="an"><g id="ao"/><g id="ap"/><g id="aq"/></g><g id="ar"/><g id="as"/><g id="at"><g id="au"/></g><g id="av"/></svg>