<?xml version="1.0" encoding="UTF-8"?><svg xmlns="http://www.w3.org/2000/svg" viewBox="0 0 120.67 120.08"><g id="a"/><g id="b"/><g id="c"/><g id="d"/><g id="e"/><g id="f"/><g id="g"/><g id="h"/><g id="i"/><g id="j"/><g id="k"/><g id="l"><g id="m"/><g id="n"/><g id="o"/></g><g id="p"/><g id="q"/><g id="r"/><g id="s"/><g id="t"/><g id="u"/><g id="v"><g id="w"/></g><g id="x"/><g id="y"/><g id="a`"/><g id="aa"/><g id="ab"/><g id="ac"/><g id="ad"/><g id="ae"/><g id="af"/><g id="ag"/><g id="ah"/><g id="ai"/><g id="aj"/><g id="ak"/><g id="al"/><g id="am"/><g id="an"/><g id="ao"/><g id="ap"/><g id="aq"><g id="ar"><g><circle cx="61.16" cy="58.79" r="52.24" style="fill:#E96A1D;"/><g><path d="M51.44,77.48l-.06,.04s.06,.02,.09,.03c.01,0,.01,.03-.03-.07Z" style="fill:#fff;"/><path d="M76.2,39.29s-.02-.04-.03-.06c-.01-.03-.01-.07,0-.11l.05,.17h-.01Z" style="fill:#fff;"/><g><polygon points="41.14 45.96 41.14 45.96 41.14 45.96 41.14 45.96" style="fill:#fff;"/><path d="M41.18,45.91l-.02,.03,.02-.03h0Z" style="fill:#fff;"/><path d="M45.81,80.63c1.79,1.21,3.91,2.16,6.24,2.75l-3.84-1.4c-.83-.39-1.63-.85-2.39-1.35Z" style="fill:#fff;"/><g><path d="M70.8,76.2c-.33,.2-.66,.4-1.01,.59,.34-.19,.68-.38,1.01-.59Z" style="fill:#fff;"/><path d="M50.92,78.11h.02c.45,.18,.91,.34,1.38,.48,.47,.14,.95,.26,1.43,.36,.12,.03,.3,.06,.73,.12-2.66-.55-5.14-1.57-7.35-2.96,1.19,.8,2.45,1.48,3.78,1.99Z" style="fill:#fff;"/><path d="M67.39,77.94c-.44,.18-.89,.33-1.34,.48,.46-.14,.91-.3,1.34-.48Z" style="fill:#fff;"/><path d="M64.46,78.86h0Z" style="fill:#fff;"/><path d="M69.21,39.58c-1.78-.94-3.67-1.63-5.62-2.01h.02c-.08-.01-.16-.03-.24-.05h-.01c-.87-.18-1.68-.32-2.26-.37-.27-.02-.54-.03-.8-.04-.1,0-.21,0-.31,.01-.06,0-.18,.01-.27,.01-.12,0-.14,.01-.32,0-.04,0-.14,0-.18,0-.26-.03-.07,0-.34-.02-.4,.01-.79,.06-1.18,.09,.45-.03,.89-.07,1.35-.07,3.67,0,7.13,.89,10.17,2.44Z" style="fill:#fff;"/><path d="M69.31,77.06c-.52,.27-1.06,.52-1.6,.75,.55-.23,1.09-.48,1.6-.75Z" style="fill:#fff;"/><path d="M69.84,39.92c.2,.11,.39,.23,.59,.35-.19-.12-.39-.23-.59-.35Z" style="fill:#fff;"/><path d="M69.21,39.58c.21,.11,.43,.22,.63,.34-.21-.12-.42-.23-.63-.34Z" style="fill:#fff;"/><path d="M69.79,76.79c-.16,.09-.32,.18-.48,.27,.16-.08,.32-.18,.48-.27Z" style="fill:#fff;"/><path d="M67.71,77.81c-.11,.04-.21,.09-.32,.13,.11-.04,.21-.09,.32-.13Z" style="fill:#fff;"/><path d="M66.05,78.41c-.52,.16-1.04,.32-1.59,.45,.54-.13,1.07-.28,1.59-.45Z" style="fill:#fff;"/><path d="M59.09,85.08c18.18,.01,28.94-12.61,28.94-26.47,0-14.63-11.69-26.47-26.49-26.47-2.17,0-4.26,.28-6.28,.76-.03,0-.07,0-.1,.02-.91,.17-1.82,.38-2.71,.63-2.54,.71-5.03,1.53-7.43,2.6-1.45,.64-2.89,1.31-4.32,2-.27,.13-.51,.28-.73,.45-.54,.43-.92,.98-1.19,1.64-.05,.13-.11,.27-.15,.41-.05,.14-.1,.28-.15,.42-.09,.24-.2,.48-.31,.72-.32,.71-.7,1.41-1.03,2.12-.03,.06-.06,.12-.09,.18-.06,.12-.13,.24-.19,.37-.03,.06-.05,.12-.08,.19-.19,.53-.02,.73,.57,.71,.27,0,.55-.03,.83-.04,.08,0,.15,0,.23,0,.2,0,.4-.01,.59,.01,.09,0,.18,.02,.26,.04,.26,.05,.51,.12,.75,.22,.11,.04,.21,.09,.31,.14,.12,.06,.24,.12,.35,.18,.12,.06,.23,.13,.34,.2,0,0,.06-.07,.05-.08l.06-.09h0s.02-.03,.04-.05h0s.06-.08,.09-.13v-.02h.02c.81-1.18,1.73-2.28,2.75-3.25,.13,.01,.24,.07,.34,.16h0c.1,.1,.19,.24,.28,.41,.21,.41,.31,.85,.31,1.28,0,.58-.16,1.14-.48,1.63-.08,.12-.17,.24-.26,.35-.05,.06-.11,.12-.16,.17-.13,.13-.27,.25-.42,.36-.18,.12-.37,.23-.57,.32,.34,.12,.7,.16,1.05,.11,.14-.02,.28-.05,.42-.09,.14-.04,.27-.1,.4-.17s.25-.15,.37-.24c.29-.23,.54-.52,.73-.88,.13-.25,.25-.5,.36-.75,.09-.19,.17-.38,.26-.57,.26-.57,.51-1.14,.79-1.69,.1-.2,.21-.4,.31-.59,.33-.59,.68-1.16,1.03-1.74,.43-.7,.99-1.23,1.67-1.62,.41-.24,.85-.42,1.34-.57,1.94-.57,3.91-1.01,5.91-1.2,.39-.04,.78-.08,1.18-.09,.27,.02,.07,0,.34,.02,.04,0,.14,0,.18,0,.18,0,.2,0,.32,0,.09,0,.22-.02,.27-.01,.1,0,.21-.01,.31-.01,.27,0,.54,.02,.8,.04,.58,.05,1.39,.19,2.26,.36h.01c.08,.02,.16,.03,.24,.05h-.02c1.95,.38,3.85,1.07,5.62,2.01,.21,.11,.42,.23,.63,.34,.2,.11,.39,.23,.59,.35,6.28,3.73,10.48,10.42,10.48,18.07s-4.04,14.09-10.11,17.86c-.33,.21-.67,.4-1.01,.59-.16,.09-.32,.18-.48,.27-.52,.27-1.05,.52-1.6,.75-.11,.04-.21,.09-.32,.13-.44,.17-.88,.33-1.34,.48-.52,.17-1.05,.32-1.59,.45h-.03c-1.73,.43-3.53,.68-5.39,.68-1.56,0-2.98-.1-4.45-.4-.43-.06-.71-.16-.83-.19-.48-.1-.96-.22-1.43-.36-.47-.14-.93-.3-1.38-.48h-.02c-1.33-.52-2.59-1.2-3.78-2-3.05-2.05-5.59-4.94-7.35-8.41h0c-1.45-2.9-2.3-6.2-2.3-9.71,0-1.48,.15-2.92,.43-4.32,.09-.55,.19-1.09,.3-1.63,.18-.9,.4-1.79,.54-2.72-.1,.15-.23,.28-.31,.44-1.6,2.93-2.7,6.02-3.08,9.3-.18,1.57-.19,3.16-.1,4.74,0,.11,0,.23,0,.34,.1,1.45,.42,2.89,.91,4.27,1.73,6.32,6.09,10.36,9.49,12.8,.33,.23,.92,.6,1.57,.98,1.13,.64,5.69,2.99,11.84,2.89" style="fill:#fff;"/></g></g></g></g></g></g></svg>