<?xml version="1.0" encoding="UTF-8"?><svg xmlns="http://www.w3.org/2000/svg" viewBox="0 0 120.67 120.08"><g id="a"/><g id="b"/><g id="c"/><g id="d"/><g id="e"/><g id="f"/><g id="g"/><g id="h"/><g id="i"/><g id="j"/><g id="k"/><g id="l"><g id="m"/><g id="n"/><g id="o"/></g><g id="p"/><g id="q"/><g id="r"/><g id="s"/><g id="t"/><g id="u"/><g id="v"><g id="w"/></g><g id="x"/><g id="y"/><g id="a`"/><g id="aa"/><g id="ab"/><g id="ac"/><g id="ad"/><g id="ae"/><g id="af"/><g id="ag"/><g id="ah"/><g id="ai"/><g id="aj"/><g id="ak"/><g id="al"/><g id="am"/><g id="an"/><g id="ao"/><g id="ap"/><g id="aq"><g><ellipse cx="60.87" cy="59.49" rx="52.21" ry="52.06" style="fill:#42B5E8;"/><g><path d="M55.22,42.37c-.59-.35-1.22-.65-1.89-.9,.16-.25,.33-.52,.45-.69,.16-.21,.24-.31,.38-.48,.08-.1,.19-.22,.34-.41,.43-.52,.55-.89,.61-1.09l.03-.07c.21-.57,.03-1.09-.14-1.54-.35-.98-.99-1.6-1.38-1.98-.09-.09-.17-.17-.24-.26-.28-.31-.58-.63-1.4-1.03h0c-1.2,.36-2.04,.91-2.48,1.62-.1,.17-.18,.32-.25,.48-.13,.28-.26,.56-.59,.93-.16,.18-.54,.6-1.16,.87-.64,.28-1.24,.28-1.5,.28h-.06c-1.24,0-2.8,1.16-4.75,3.52h0c.64,1.83,1.77,2.66,2.44,3.16,.09,.07,.17,.12,.24,.18,.55,.43,1.62,.81,3.25,1.17,.14,.06,.5,.63,.71,.97,.32,.51,.53,.83,.7,.93,.49,.29,.88,.43,1.22,.56,.39,.14,.74,.27,1.19,.59,.04,.03,.1,.05,.18,.05,.04,0,.08-.01,.13-.03,.64-.25,2.66-2.33,2.84-3.16h0c.07-.26,.26-1.18-.08-2.08-.11-.28-.38-.94-.65-1.47,.44,.19,.87,.4,1.27,.64,1.01,.61,2.94,2.65,3.61,3.54l-.12-1.75c-.74-.99-1.81-1.86-2.93-2.53Z" style="fill:#fff;"/><path d="M61.57,55.3l-.62,3.15c.63-1.25,3.84-5.38,4.96-6.33,.44-.38,.93-.72,1.44-1.04-.21,.72-.4,1.6-.46,1.97-.21,1.2,.26,2.32,.41,2.63h0c.43,1,3.47,3.22,4.33,3.41,.07,.02,.13,.02,.18,.02,.11,0,.18-.05,.22-.09,.49-.49,.89-.71,1.35-.97,.4-.22,.85-.47,1.39-.93,.19-.16,.37-.6,.65-1.3,.19-.47,.5-1.25,.66-1.35,1.96-.76,3.21-1.45,3.8-2.09,.07-.08,.16-.17,.26-.27,.72-.75,1.94-2.01,2.29-4.42h0c-3.02-2.59-5.25-3.74-6.81-3.51h-.07c-.32,.06-1.07,.18-1.95-.05-.84-.22-1.42-.68-1.67-.87-.5-.4-.74-.73-.97-1.05-.13-.18-.26-.36-.43-.55-.73-.81-1.91-1.33-3.51-1.56h0c-.94,.67-1.23,1.13-1.5,1.57-.08,.12-.15,.24-.24,.37-.39,.54-1.04,1.45-1.25,2.75-.1,.6-.2,1.28,.2,1.96l.05,.09c.13,.24,.38,.68,1.04,1.24,.24,.2,.4,.34,.53,.44,.23,.19,.35,.29,.6,.53,.19,.18,.47,.49,.73,.78-.78,.44-1.5,.94-2.15,1.5-1.24,1.06-2.76,2.62-3.46,4Z" style="fill:#fff;"/><path d="M60.65,59.98c.57,6.57-.29,10.76-1.28,15.61-.67,3.25-1.24,6.46-1.58,10.81,1.36-.04,2.19,.02,3.26,0,.32-3.87,.94-6.79,1.55-9.79,1.03-5.02,1.89-9.75,1.37-17.09-.2-2.9,.02-1.03-.45-5.45-.15-1.37-.43-1.98-.62-2.68-1.32-.34-2.32,.85-3.56,1.23,.14,.68,.28,1.28,.41,1.84,.38,1.66,.68,2.96,.9,5.51Z" style="fill:#fff;"/><path d="M61.08,33.92c-.48,.01-.56-.02-.89,0l-.93,.03c-.47,.02-.7,0-1.12,0-.51,5.41-.52,4.61-.36,7.63,.21,3.96,.44,7.45,1.63,11.24l3.51-1.35c-1.07-3.44-1.71-6.99-1.9-10.57-.12-2.36-.29-4.38,.06-6.97Z" style="fill:#fff;"/><path d="M65.42,72.38c.43,.1,.89,.17,1.35,.19-.05,.19-.1,.39-.15,.52-.06,.16-.09,.24-.14,.37-.03,.08-.07,.18-.13,.32-.16,.4-.17,.66-.17,.8v.05c-.02,.4,.2,.68,.39,.93,.41,.54,.93,.8,1.24,.96,.07,.04,.14,.07,.2,.11,.24,.14,.48,.28,1.07,.37h0c.68-.46,1.09-.96,1.23-1.49,.03-.12,.05-.24,.06-.35,.02-.2,.05-.4,.18-.69,.07-.14,.22-.48,.55-.77,.34-.3,.72-.42,.88-.47h.03c.77-.26,1.51-1.28,2.26-3.13h0c-.75-1.01-1.62-1.31-2.13-1.49-.07-.02-.13-.04-.18-.06-.43-.16-1.17-.19-2.25-.09-.1-.01-.43-.29-.63-.46-.3-.25-.49-.41-.62-.44-.36-.09-.63-.1-.87-.11-.27-.01-.51-.02-.85-.13-.03,0-.07-.01-.12,0-.02,0-.05,.02-.08,.05-.35,.28-1.2,1.97-1.15,2.52h0c0,.18,.07,.79,.46,1.28,.12,.15,.42,.51,.69,.79-.31-.03-.62-.07-.92-.15-.75-.18-1.43-.49-2.02-.91l-.42,.47c.66,.47,1.41,.81,2.24,1.01Z" style="fill:#fff;"/><path d="M59.86,80.08l.62,3.15c-.63-1.25-3.84-5.38-4.96-6.33-.44-.38-.93-.72-1.44-1.04,.21,.72,.4,1.6,.46,1.97,.21,1.2-.26,2.32-.41,2.63h0c-.43,1-3.47,3.22-4.33,3.41-.07,.02-.13,.02-.18,.02-.11,0-.18-.05-.22-.09-.49-.49-.89-.71-1.35-.97-.4-.22-.85-.47-1.39-.93-.19-.16-.37-.6-.65-1.3-.19-.47-.5-1.25-.66-1.35-1.96-.76-3.21-1.45-3.8-2.09-.07-.08-.16-.17-.26-.27-.72-.75-1.94-2.01-2.29-4.42h0c3.02-2.59,5.25-3.74,6.81-3.51h.07c.32,.06,1.07,.18,1.95-.05,.84-.22,1.42-.68,1.67-.87,.5-.4,.74-.73,.97-1.05,.13-.18,.26-.36,.43-.55,.73-.81,1.91-1.33,3.51-1.56h0c.94,.67,1.23,1.13,1.5,1.57,.08,.12,.15,.24,.24,.37,.39,.54,1.04,1.45,1.25,2.75,.1,.6,.2,1.28-.2,1.96l-.05,.09c-.13,.24-.38,.68-1.04,1.24-.24,.2-.4,.34-.53,.44-.23,.19-.35,.29-.6,.53-.19,.18-.47,.49-.73,.78,.78,.44,1.5,.94,2.15,1.5,1.24,1.06,2.76,2.62,3.46,4Z" style="fill:#fff;"/></g></g><g id="ar"><g><circle cx="61.54" cy="58.47" r="52.26" style="fill:#42B5E8;"/><g><g><path d="M53.45,71.61c1.62-.53,2.5-2.12,4.02-1.91,.14,.02,.31,.27,.5,.44-.75,.25-1.48,.34-2.17,.67-.67,.32-1.3,.91-2.08,1.31,.04,.11,.08,.22,.13,.34,.41-.05,.8-.17,1.18-.19,.59-.04,1.16-.15,1.71-.06,.34,.05,1,.06,.9,.98,0,.07,.36,.24,.49,.42,.16,.22,.26,.49,.36,.75,.06,.15,.04,.36,.12,.44,1.17,1.03,.51,2.37,1.82,3.56-1.46-.05-2.62,.03-3.83-.16-.39-.06-.81-.7-1.19-1.08-.33-.32-.66-.65-.99-.97-.12,.07-.25,.13-.37,.2,.24,.41,.42,.86,.75,1.22,.81,.9,1.39,1.84,1.4,2.88,0,.21-.37,.32-.54,.51-.32,.35-.62,.72-.83,.95-1.29,.56-2.62,.99-4.18,1.36-.27-.42-.51-.88-.83-1.33-.23-.33-.58-.64-.85-.96-.16-.2-.34-.41-.42-.61-.17-.45,.36-.91-.63-1.35-.04-.02,.08-.52,.27-.7,.51-.51,1.13-.95,1.54-1.5,.15-.2-.07-.61-.12-.93-.3,.09-.68,.12-.9,.28-.26,.18-.4,.46-.56,.72-.7,1.11-1,1.32-2.83,1.52-.12-.2-.23-.39-.34-.59-.81-.17-1.83,.4-2.35-.7-.01-.03-.18-.09-.25-.08-1.05,.07-1.6-.69-2.4-1.06-.87-.4-1.82-.7-2.92-1.14,.6-.35,1.14-.63,1.56-.97,.26-.21,.33-.52,.51-.78,.08-.11,.19-.24,.35-.28,.63-.15,1.4-.16,1.09-.92-.03-.08,.95-.27,1.52-.44-.07-.14-.15-.32-.24-.53,1.19-.27,2.25-.21,3.3,.27,.33,.15,.68,.27,1.03,.39,.49,.17,1.06,.52,1.3-.1,.05-.13-.63-.56-1.05-.72-.44-.16-1.03-.1-1.49-.28-.51-.2-1.56-.18-1.11-1,.04-.08-.24-.27-.38-.4-.32-.3-.74-.56-.22-.99,.1-.09-.05-.35-.11-.52-.12-.35-.25-.68-.36-1.1,1.11-.09,2.16-.02,3.04-.34,.86-.31,1.34-.18,1.93,.06,.1,.04,.42-.25,.62-.39,1.68,.41,1.15,2.17,1.98,3.31,.12-.05,.24-.09,.35-.14-.05-.39-.07-.78-.14-1.15-.21-1.09,.17-1.66,1.05-2.46,.32-.29,.54-.76,.87-1.28,.15,1.04,1.23,.99,1.43,2.21,.89-.11,.45,1.25,1.02,1.65,.36,.25-.1,1.85-.77,2.46-.31,.28-.56,.64-.86,.96,.07,.09,.14,.18,.21,.27Z" style="fill:#fff;"/><g><g><path d="M61.83,59.4l-1.1-.05c.01-.28,.05-.6,.09-.95,.13-1.14,.3-2.55-.25-3.91-.24-.6-1.74-3.27-2.08-3.82l.94-.58c.26,.43,1.86,3.24,2.16,3.99,.64,1.62,.45,3.25,.31,4.44-.04,.32-.07,.62-.08,.87Z" style="fill:#fff;"/><path d="M61.21,73.57c-1.71-2.58-1.97-5.75-.69-8.29,1.33-2.62,3.88-3.68,4.92-4.01,1.29-.41,2.7-.51,4.06-.28l-.16,.99c-1.21-.2-2.46-.12-3.6,.25-.92,.29-3.17,1.22-4.33,3.51-1.12,2.21-.88,5.01,.63,7.28l-.83,.55Z" style="fill:#fff;"/></g><path d="M63.21,84.67c-6.15-12.47-5.42-24.35,.4-32.74l2.29-.22c-8.3,10.94-3.4,24.91,.59,32.99l-3.28-.02Z" style="fill:#fff;"/></g><path d="M61.49,74.39s-.04-.06-.09-.13c-.73-1.07-2.65-3.54-4.85-3.35-1.92,.17-4.46,.94-4.78,1.15l-.19-.29-.57-.34c.34-.57,3.91-1.38,5.45-1.52,2.63-.23,4.74,2.27,5.77,3.78l-.73,.69Z" style="fill:#fff;"/><path d="M81.89,58.37c-.64-.16-1-.73-1.9-.5-.06,.02-.2,0-.2-.03-.29-.91-1.24-.27-1.9-.34-.06-.15-.13-.3-.19-.45-1.56,.31-1.84,.42-2.68,1.29-.19,.2-.38,.42-.64,.55-.23,.11-.56,.11-.83,.16,.03-.26-.05-.6,.12-.74,.48-.39,1.1-.7,1.63-1.08,.19-.14,.39-.51,.36-.53-.72-.31-.18-.65-.23-.96-.02-.14-.12-.28-.21-.41-.14-.21-.35-.41-.46-.62-.15-.28-.23-.56-.34-.81-1.26,.21-2.4,.34-3.59,.43-.23,.09-.59,.24-.95,.37-.19,.07-.53,.04-.59,.16-.31,.58-.1,1.27,.35,2.07,.18,.32,.22,.67,.32,1.02-.12,.01-.24,.03-.36,.04-.2-.32-.4-.64-.6-.95-.23-.36-.41-.88-.72-1.03-.98-.49-1.99-.87-3.12-1.42,.62,1.01-.36,1.38,.34,2.52,.05,.09-.04,.19-.03,.3,.02,.19,.02,.4,.09,.61,.06,.17,.35,.49,.32,.52-.38,.47,.26,.9,.57,1.15,.52,.41,1.11,.69,1.67,.95,.36,.17,.74,.25,1.11,.36,0,.11,.02,.21,.02,.32-.77,.03-1.53,.14-2.29-.08-.18-.05-.35-.13-.53-.21,.04,.18,.08,.37,.11,.55,.92,.24,1.84,.15,2.8,.26,.04,.1,.08,.2,.11,.3-.35,.15-.68,.34-1.03,.42-.77,.17-1.69,1.08-1.43,1.54,.42,.74-.4,1.65,.45,2.18-.16,1.3,.85,2.04,.76,3.43,.44-.37,.76-.78,1.13-.92,1.02-.4,1.5-.99,1.59-2.26,.03-.43,.12-.84,.18-1.26,.12,0,.24-.02,.36-.02,.45,1.44-.38,3.52,.91,4.49,.21-.11,.56-.41,.63-.33,.42,.43,.77,.68,1.61,.39,.85-.3,1.77-.13,2.9-.17-.03-.6-.06-1.05-.08-1.5,0-.22-.07-.56,.04-.66,.59-.54,.27-.85,.06-1.2-.09-.15-.29-.37-.24-.46,.6-.97-.33-.91-.72-1.13-.36-.2-.88-.15-1.23-.36-.34-.21-.86-.77-.8-.9,.33-.63,.78-.18,1.18,.02,.28,.14,.56,.29,.82,.46,.81,.53,1.72,.55,2.86,.12-.04-.23-.08-.43-.11-.58,.55-.25,1.48-.61,1.47-.69-.16-.81,.55-.93,1.16-1.22,.15-.07,.27-.24,.36-.38,.2-.32,.31-.67,.56-.96,.42-.48,.92-.93,1.45-1.51-.93-.08-1.7-.12-2.39-.3Z" style="fill:#fff;"/><path d="M59.35,51.66c.67,.64,1.5,.88,1.68,1.99,.02,.11-.04,.26-.07,.41-.22-.48-.4-.97-.69-1.32-.28-.34-.68-.54-1.06-.81-.03,.05-.07,.1-.1,.15,.14,.18,.29,.35,.4,.55,.17,.31,.35,.62,.45,.98,.06,.21,.2,.62-.13,.71-.03,0,0,.24-.03,.35-.04,.12-.1,.22-.16,.31-.03,.05-.11,.07-.11,.13-.05,.77-.63,.61-.68,1.32-.35-.66-.71-1.2-1-1.77-.1-.18,0-.49,.02-.74,.01-.22,.02-.43,.04-.65-.06-.04-.12-.08-.19-.11-.07,.2-.18,.37-.2,.59-.06,.53-.21,.94-.56,1.11-.07,.03-.23-.1-.34-.13-.22-.07-.44-.12-.58-.15-.61-.37-1.2-.71-1.88-1.05,.03-.16,.09-.32,.12-.51,.02-.14-.01-.31,0-.46,0-.09,0-.19,.04-.27,.08-.16,.46-.14,.22-.54,0-.01,.22-.13,.36-.13,.39,0,.79,.07,1.16,.05,.13,0,.21-.2,.32-.31-.15-.08-.31-.19-.46-.22-.17-.03-.34,.01-.5,.04-.7,.13-.88,.08-1.74-.31,.02-.09,.04-.19,.07-.28-.29-.27-.97-.29-.79-.83,0-.02-.05-.07-.09-.09-.51-.2-.49-.6-.74-.9-.27-.32-.63-.61-1.05-.97,.46-.1,.86-.14,1.23-.22,.22-.05,.4-.19,.61-.27,.09-.04,.21-.07,.31-.06,.39,.07,.77,.26,.98-.18,.02-.05,.6,.11,.95,.19,.04-.08,.09-.19,.15-.32,.7,.21,1.14,.56,1.35,1.12,.07,.18,.15,.35,.24,.52,.12,.24,.18,.61,.57,.45,.08-.03,.02-.48-.07-.71-.09-.23-.37-.41-.48-.64-.12-.25-.59-.58,.04-.82,.06-.02,.04-.21,.04-.32,.02-.25-.03-.53,.45-.57,.09,0,.18-.2,.25-.31,.14-.23,.28-.47,.48-.76,.56,.38,.95,.81,1.47,.98,.51,.17,.6,.44,.66,.82,.01,.06,.29,.05,.43,.07,.3,.99-.83,1.67-1.13,2.52,.06,.04,.12,.08,.18,.11,.17-.18,.37-.35,.53-.54,.49-.58,.93-.69,1.55-.53,.23,.06,.52-.02,.86-.05-.54,.63-.34,1.34-.88,1.91,.21,.55-.49,.71-.55,1.2-.04,.31-.8,.43-1.23,.25-.2-.09-.42-.11-.64-.16-.02,.06-.04,.12-.05,.18Z" style="fill:#fff;"/><path d="M67.97,43.59c.05,.9,.62,1.96,0,2.89-.06,.09-.22,.13-.36,.21,.15-.53,.33-1.08,.33-1.62,0-.52-.18-.97-.27-1.42-.06,0-.13,.01-.19,.02-.03,.22-.04,.43-.1,.65-.09,.35-.16,.74-.33,1.1-.1,.22-.27,.65-.62,.45-.03-.02-.18,.19-.27,.25-.12,.07-.25,.09-.37,.12-.07,.02-.15-.03-.19,.01-.62,.53-.99,.03-1.61,.43,.25-.62,.38-1.33,.58-2.03,.06-.22,.36-.42,.56-.61,.17-.17,.34-.33,.51-.48l-.06-.22c-.2,.09-.41,.15-.59,.31-.44,.39-.86,.64-1.24,.61-.08,0-.09-.21-.14-.29-.1-.17-.21-.31-.27-.4-.11-.59-.2-1.06-.36-1.72,.15-.09,.31-.18,.46-.32,.12-.1,.22-.25,.34-.37,.07-.08,.15-.16,.22-.2,.17-.1,.37,.07,.52-.36,0-.02,.22-.02,.3,.04,.23,.16,.43,.39,.69,.59,.09,.07,.29,0,.45,0-.05-.15-.07-.34-.15-.45-.09-.13-.23-.19-.35-.25-.53-.26-.59-.31-.81-1.03,.08-.07,.16-.14,.23-.21,.02-.35-.36-.7,.1-1.06,.01-.01,.02-.09,0-.11-.17-.41,.11-.74,.16-1.11,.05-.4,.02-.82-.01-1.36,.35,.21,.62,.41,.91,.57,.17,.09,.37,.1,.56,.17,.08,.03,.18,.08,.23,.14,.2,.28,.31,.61,.76,.5,.05-.01,.31,.46,.49,.74,.09-.02,.2-.04,.33-.06,.33,.6,.37,1.08,.12,1.54-.08,.14-.14,.31-.21,.47-.09,.24-.3,.54,.09,.72,.08,.04,.35-.31,.45-.51,.1-.21,.03-.5,.13-.7,.11-.21,0-.72,.63-.38,.06,.03,.18-.08,.26-.13,.2-.11,.35-.31,.72,.03,.07,.07,.27,.02,.4,0,.26-.03,.52-.07,.85-.14,.16,.73,.13,1.27,.38,1.78,.25,.5,.13,.73-.09,.98-.04,.04,.18,.28,.27,.43-.44,.82-1.79,.17-2.61,.46l.06,.23c.26,.04,.53,.12,.8,.16,.79,.11,1.22,.52,1.64,1.27,.15,.27,.46,.51,.74,.77-.84-.03-1.13,.62-1.98,.44-.19,.56-.91-.06-1.32,.17-.25,.14-1.02-.63-1.24-1.15-.1-.24-.26-.45-.39-.64-.06,.02-.12,.05-.17,.07Z" style="fill:#fff;"/><path d="M63.6,55.41l-1.59-.9,.84-1.45c3.07-4.67,2.01-2.71,4.35-6.11l1.28-.96-.25,1.11c-.15,.66-.38,1.3-.69,1.9l-.31,.61c-.29,.54-.93,1.6-1.3,2.07-.17,.21-.31,.45-.45,.68l-1.88,3.05Z" style="fill:#fff;"/><path d="M67.2,49.66l-.95-.56c.3-.5,.55-1.03,.74-1.57,.18-.51,.39-1.08,.45-1.85,.05-.66-.03-1.32-.22-1.98l1.06-.31c.23,.78,.32,1.58,.26,2.37-.07,.92-.31,1.6-.51,2.14-.22,.61-.5,1.21-.83,1.77Z" style="fill:#fff;"/></g><g><path d="M51.09,38.02h.02s-.01,0-.02,0Z" style="fill:#fff;"/><path d="M72.87,44.23c-.13-.06-.12,.15,0,0h0Z" style="fill:#fff;"/><path d="M71.02,40.18s.06-.06,0,0h0Z" style="fill:#fff;"/></g><g><path d="M67.03,35.06c.16,.11,.31,.21,.48,.32" style="fill:#fff;"/><path d="M61.72,32.62h-.1s.07,0,.1,0h0Z" style="fill:#fff;"/><path d="M72.87,44.23c-.13-.06-.12,.15,0,0h0Z" style="fill:#fff;"/></g></g><path d="M86.87,55.19s-.01,0-.02-.01v.07s.02-.04,.02-.06Z"/></g></g></g></svg>