<?xml version="1.0" encoding="UTF-8"?><svg xmlns="http://www.w3.org/2000/svg" viewBox="0 0 87.32 83.49"><g id="a"/><g id="b"/><g id="c"/><g id="d"/><g id="e"/><g id="f"/><g id="g"/><g id="h"/><g id="i"/><g id="j"/><g id="k"/><g id="l"/><g id="m"/><g id="n"/><g id="o"/><g id="p"/><g id="q"/><g id="r"/><g id="s"/><g id="t"><g id="u"/></g><g id="v"><g><circle cx="43.66" cy="41.74" r="38.57" style="fill:#7b1245;"/><g><path d="M43.28,49.88c-.26,.21-.51,.03-.83,.23-.35,.22-.43,.67-.5,1.18-.2,1.37-.14,1.67-.23,2.17-.34,1.76-2.09,2.79-2.94,3.29-.57,.33-.95,.45-1.01,.37-.08-.12,.64-.64,.5-.95-.09-.22-.57-.21-.62-.21-.57,.02-.75,.4-1.47,.75-.5,.24-1.23,.46-1.37,.25-.18-.25,.62-.91,.43-1.24-.07-.12-.26-.18-1.22-.08-1.32,.15-2.03,.39-2.17,.15-.1-.16,.19-.36,.14-.68-.08-.41-.67-.63-1.02-.75-2.09-.73-3.05-.76-3.13-1.14-.04-.19,.16-.3,1.14-1.24,1.13-1.08,1.29-1.33,1.22-1.49-.13-.32-1.11-.15-1.12-.27-.01-.11,.89-.2,1.84-.79,.32-.2,.72-.46,.7-.75-.03-.39-.78-.53-.75-.7,.04-.2,1.11-.12,2.36-.17,2.45-.11,2.8-.59,2.88-.73,.18-.31,.21-.75,.02-1.02-.21-.31-.65-.36-1.41-.35-1.8,.03-2.04,.37-3.04,.29-.86-.07-1.45-.39-2.44-.91-1-.53-1.9-1.23-1.8-1.47,.06-.13,.35-.02,.73-.27,.09-.06,.42-.28,.43-.54,0-.32-.46-.36-1.14-.99-.36-.33-.56-.66-.95-1.33-.05-.09-.19-.33-.12-.41,.07-.07,.24,.06,.52,.08,.28,.02,.67-.07,.75-.27,.07-.18-.15-.33-.62-.97-.13-.17-.58-.79-.7-1.51-.01-.06-.04-.27,.04-.31,.09-.05,.24,.16,.58,.27,.16,.05,.31,.1,.39,.04,.19-.15-.27-.88-.62-1.95-.3-.91-.51-1.57-.23-1.84,.39-.38,1.65,.06,2.4,.5,.39,.23,.76,.53,1.35,.56,.18,.01,.56,.03,.73-.19,.23-.3-.08-.83,.06-.91,.09-.05,.26,.17,.6,.44,.51,.42,.59,.33,1.01,.68,.56,.48,.62,.83,.89,.81,.23-.02,.45-.29,.5-.54,.06-.32-.15-.52-.08-.6,.11-.12,.77,.18,1.26,.72,.57,.63,.38,1.02,.83,2.07,.59,1.39,1.5,2.09,2.03,2.49,.78,.6,1.05,.52,1.14,.48,.4-.17,.48-.93,.41-1.43-.03-.19-.1-.48-.58-1.2-.42-.63-.66-.84-1.2-1.51-.6-.75-.91-1.12-1.14-1.61-.36-.73-.45-1.35-.54-1.9-.11-.68-.15-1.47,0-1.51,.09-.02,.15,.29,.48,.52,.29,.2,.76,.33,1.01,.14,.08-.06,.17-.18,.15-.99-.01-.63-.07-.99-.06-1.64,.01-.58,.07-.7,.14-.72,.13-.03,.21,.38,.6,.6,.32,.18,.79,.19,.97-.02,.17-.2-.04-.48-.08-.99-.07-1.04,.68-1.95,.85-1.9,.09,.03,0,.28,.19,.46,.14,.13,.36,.16,.5,.14,.35-.07,.45-.52,.77-1.2,.35-.73,.71-1.21,1.2-1.86,.48-.64,.72-.95,.83-.93,.47,.11,.02,3.04-.21,7.25-.07,1.33-.1,3.41-.15,7.56-.03,2.09-.17,4.18-.1,6.27,.04,1.26,.13,2.89-.08,2.92-.16,.02,.15,0-.63-1.03-.4-.53-1.57-1.25-2.35-1.79-.94-.66-1.68-1.1-3.57-2.1-1.61-.85-1.84-.83-3.17-1.99-.78-.68-1.49-1.63-1.55-1.42-.15,.55,.02,.67,1.07,1.73,1.01,1.03,2.36,2.13,4.76,3.27,.68,.32,1.28,.75,2.49,1.59,.12,.08,.88,.61,1.7,1.49,.67,.71,.67,.89,.64,.99-.13,.37-.22-.09-1.57,.28-1.12,.31-1.01,.1-2.33,.83-.48,.26-1.43,.92-2.13,1.83-.55,.72-1.95,1.55-2.66,1.86-.57,.24-1.05,.13-1.06,.23-.02,.15-.1,.28,1.04,.1,1.08-.17,2.12-.44,3.56-1.91,1.09-1.12,1.9-1.38,2.44-1.62,.94-.41,1.41-.55,2.11-.59,.22-.01,1.13-.07,1.31,.05,.36,.22,.39,1.14-.02,1.47Z" style="fill:#fff;"/><path d="M44.11,49.84c.26,.21,.51,.03,.83,.23,.35,.22,.43,.67,.5,1.18,.2,1.37,.14,1.67,.23,2.17,.34,1.76,2.09,2.79,2.94,3.29,.57,.33,.95,.45,1.01,.37,.08-.12-.64-.64-.5-.95,.09-.22,.57-.21,.62-.21,.57,.02,.75,.4,1.47,.75,.5,.24,1.23,.46,1.37,.25,.18-.25-.62-.91-.43-1.24,.07-.12,.26-.18,1.22-.08,1.32,.15,2.03,.39,2.17,.15,.1-.16-.19-.36-.14-.68,.08-.41,.67-.63,1.02-.75,2.09-.73,3.05-.76,3.13-1.14,.04-.19-.16-.3-1.14-1.24-1.13-1.08-1.29-1.33-1.22-1.49,.13-.32,1.11-.15,1.12-.27,.01-.11-.89-.2-1.84-.79-.32-.2-.72-.46-.7-.75,.03-.39,.78-.53,.75-.7-.04-.2-1.11-.12-2.36-.17-2.45-.11-2.8-.59-2.88-.73-.18-.31-.21-.75-.02-1.02,.21-.31,.65-.36,1.41-.35,1.8,.03,2.04,.37,3.04,.29,.86-.07,1.45-.39,2.44-.91,1-.53,1.9-1.23,1.8-1.47-.06-.13-.35-.02-.73-.27-.09-.06-.42-.28-.43-.54,0-.32,.46-.36,1.14-.99,.36-.33,.56-.66,.95-1.33,.05-.09,.19-.33,.12-.41-.07-.07-.24,.06-.52,.08-.28,.02-.67-.07-.75-.27-.07-.18,.15-.33,.62-.97,.13-.17,.58-.79,.7-1.51,.01-.06,.04-.27-.04-.31-.09-.05-.24,.16-.58,.27-.16,.05-.31,.1-.39,.04-.19-.15,.27-.88,.62-1.95,.3-.91,.51-1.57,.23-1.84-.39-.38-1.65,.06-2.4,.5-.39,.23-.76,.53-1.35,.56-.18,.01-.56,.03-.73-.19-.23-.3,.08-.83-.06-.91-.09-.05-.26,.17-.6,.44-.51,.42-.59,.33-1.01,.68-.56,.48-.62,.83-.89,.81-.23-.02-.45-.29-.5-.54-.06-.32,.15-.52,.08-.6-.11-.12-.77,.18-1.26,.72-.57,.63-.38,1.02-.83,2.07-.59,1.39-1.5,2.09-2.03,2.49-.78,.6-1.05,.52-1.14,.48-.4-.17-.48-.93-.41-1.43,.03-.19,.1-.48,.58-1.2,.42-.63,.66-.84,1.2-1.51,.6-.75,.91-1.12,1.14-1.61,.36-.73,.45-1.35,.54-1.9,.11-.68,.15-1.47,0-1.51-.09-.02-.15,.29-.48,.52-.29,.2-.76,.33-1.01,.14-.08-.06-.17-.18-.15-.99,.01-.63,.07-.99,.06-1.64-.01-.58-.07-.7-.14-.72-.13-.03-.21,.38-.6,.6-.32,.18-.79,.19-.97-.02-.17-.2,.04-.48,.08-.99,.07-1.04-.68-1.95-.85-1.9-.09,.03,0,.28-.19,.46-.14,.13-.36,.16-.5,.14-.35-.07-.45-.52-.77-1.2-.35-.73-.71-1.21-1.2-1.86-.48-.64-.72-.95-.83-.93-.47,.11-.02,3.04,.21,7.25,.07,1.33,.1,3.41,.15,7.56,.03,2.09,.17,4.18,.1,6.27-.04,1.26-.13,2.89,.08,2.92,.16,.02-.15,0,.63-1.03,.4-.53,1.57-1.25,2.35-1.79,.94-.66,1.68-1.1,3.57-2.1,1.61-.85,1.84-.83,3.17-1.99,.78-.68,1.49-1.63,1.55-1.42,.15,.55-.02,.67-1.07,1.73-1.01,1.03-2.36,2.13-4.76,3.27-.68,.32-1.28,.75-2.49,1.59-.12,.08-.88,.61-1.7,1.49-.67,.71-.67,.89-.64,.99,.13,.37,.22-.09,1.57,.28,1.12,.31,1.01,.1,2.33,.83,.48,.26,1.43,.92,2.13,1.83,.55,.72,1.95,1.55,2.66,1.86,.57,.24,1.05,.13,1.06,.23,.02,.15,.1,.28-1.04,.1-1.08-.17-2.12-.44-3.56-1.91-1.09-1.12-1.9-1.38-2.44-1.62-.94-.41-1.41-.55-2.11-.59-.22-.01-1.13-.07-1.31,.05-.36,.22-.39,1.14,.02,1.47Z" style="fill:#fff;"/><path d="M42.66,48.39c.12,.75,.7,3.03,.75,4.33,.07,2.25-.07,3.3-.35,4.29-.92,3.31-2.28,2.32-2.2,3.36,0,.12,.04,.5,.27,.62,.14,.07,.33,0,.7-.12,.23-.08,.48-.18,.58-.23,.89-.47,1.31-2.24,1.31-2.24,.47-1.94,.46-3.56,.46-3.64,0-1.27,.03-3.98,.13-6.43" style="fill:#fff;"/></g></g></g><g id="w"/><g id="x"/><g id="y"/><g id="a`"/><g id="aa"/><g id="ab"/><g id="ac"/><g id="ad"/><g id="ae"/><g id="af"/><g id="ag"/><g id="ah"/><g id="ai"/><g id="aj"/><g id="ak"/><g id="al"/><g id="am"/><g id="an"><g id="ao"/><g id="ap"/><g id="aq"/></g><g id="ar"/><g id="as"/><g id="at"><g id="au"/></g><g id="av"/></svg>