<svg xmlns="http://www.w3.org/2000/svg" viewBox="0 0 1200 900" role="img" aria-labelledby="title desc">
  <title id="title">Viale alberato</title>
  <desc id="desc">Una prospettiva con viale centrale, alberi e quinte architettoniche laterali.</desc>
  <defs>
    <linearGradient id="bg" x1="0" x2="0" y1="0" y2="1">
      <stop offset="0%" stop-color="#ece0cd"/>
      <stop offset="100%" stop-color="#b89d7d"/>
    </linearGradient>
    <linearGradient id="path" x1="0" x2="0" y1="0" y2="1">
      <stop offset="0%" stop-color="#6e604f"/>
      <stop offset="100%" stop-color="#43372c"/>
    </linearGradient>
  </defs>
  <rect width="1200" height="900" fill="url(#bg)"/>
  <path d="M0 670C140 612 278 585 434 580C603 574 768 608 901 624C1041 640 1128 642 1200 622V900H0Z" fill="#51624d"/>
  <path d="M500 470h200l144 430H356Z" fill="url(#path)"/>
  <path d="M360 900l140-430h32L405 900Z" fill="#7a6b5a" opacity=".55"/>
  <path d="M840 900L700 470h-32l127 430Z" fill="#7a6b5a" opacity=".55"/>
  <g fill="#cbbcab" opacity=".88">
    <rect x="96" y="482" width="122" height="262" rx="18"/>
    <rect x="208" y="462" width="82" height="282" rx="18"/>
    <rect x="910" y="462" width="82" height="282" rx="18"/>
    <rect x="984" y="482" width="122" height="262" rx="18"/>
  </g>
  <g fill="#203126">
    <path d="M166 516l44-248l48 248Z"/>
    <path d="M244 486l36-208l38 208Z"/>
    <path d="M930 486l36-208l38 208Z"/>
    <path d="M996 516l44-248l48 248Z"/>
    <path d="M340 466l56-308l58 308Z"/>
    <path d="M792 466l56-308l58 308Z"/>
  </g>
  <path d="M600 308l44 98H556Z" fill="#876f5a" opacity=".9"/>
  <rect x="572" y="404" width="56" height="64" rx="8" fill="#d4c5b2"/>
</svg>
