<svg xmlns="http://www.w3.org/2000/svg" viewBox="0 0 1200 900" role="img" aria-labelledby="title desc">
  <title id="title">Cappella monumentale</title>
  <desc id="desc">Una composizione con cappella frontale, scalinata e vegetazione scura.</desc>
  <defs>
    <linearGradient id="sky" x1="0" x2="0" y1="0" y2="1">
      <stop offset="0%" stop-color="#efe5d2"/>
      <stop offset="100%" stop-color="#c8b194"/>
    </linearGradient>
    <linearGradient id="stone" x1="0" x2="1" y1="0" y2="1">
      <stop offset="0%" stop-color="#d7cbbb"/>
      <stop offset="100%" stop-color="#8d7763"/>
    </linearGradient>
  </defs>
  <rect width="1200" height="900" fill="url(#sky)"/>
  <path d="M0 690C174 620 316 612 480 592C643 572 778 590 922 630C1039 662 1104 679 1200 663V900H0Z" fill="#4a5a46"/>
  <g transform="translate(250 190)">
    <path d="M150 120h150l108 106v302H42V226Z" fill="url(#stone)"/>
    <path d="M274 120l34-78l34 78Z" fill="#7f6753"/>
    <path d="M124 264h80v216h-80Z" fill="#7d6758"/>
    <path d="M244 264h92v216h-92Z" fill="#59483d"/>
    <path d="M108 212h236v34H108Z" fill="#ad9984"/>
    <path d="M152 530h146v66H152Z" fill="#6d594b"/>
    <rect x="0" y="596" width="452" height="38" rx="10" fill="#cdbcab"/>
    <rect x="26" y="634" width="400" height="30" rx="10" fill="#b19d89"/>
  </g>
  <g fill="#1d281f">
    <path d="M180 740l56-338l60 338Z"/>
    <path d="M936 740l56-338l60 338Z"/>
    <path d="M108 790l40-220l42 220Z"/>
    <path d="M1010 790l40-220l42 220Z"/>
  </g>
</svg>
