<svg xmlns="http://www.w3.org/2000/svg" viewBox="0 0 1600 900" role="img" aria-labelledby="title desc">
  <title id="title">Illustrazione monumentale d'apertura</title>
  <desc id="desc">Un fondale con cielo caldo, cipressi, archi e silhouette architettoniche.</desc>
  <defs>
    <linearGradient id="sky" x1="0" x2="0" y1="0" y2="1">
      <stop offset="0%" stop-color="#f7e8c8"/>
      <stop offset="48%" stop-color="#ddc39a"/>
      <stop offset="100%" stop-color="#a58a6a"/>
    </linearGradient>
    <linearGradient id="ground" x1="0" x2="1" y1="0" y2="0">
      <stop offset="0%" stop-color="#283228"/>
      <stop offset="100%" stop-color="#465642"/>
    </linearGradient>
    <linearGradient id="stone" x1="0" x2="1" y1="0" y2="1">
      <stop offset="0%" stop-color="#d9cfbf"/>
      <stop offset="100%" stop-color="#8f7d6a"/>
    </linearGradient>
    <radialGradient id="sun" cx="50%" cy="25%" r="28%">
      <stop offset="0%" stop-color="#fff1c7" stop-opacity="0.95"/>
      <stop offset="100%" stop-color="#fff1c7" stop-opacity="0"/>
    </radialGradient>
  </defs>
  <rect width="1600" height="900" fill="url(#sky)"/>
  <rect width="1600" height="900" fill="url(#sun)"/>
  <path d="M0 640C180 610 320 620 480 560C650 500 760 520 950 490C1170 455 1360 520 1600 470V900H0Z" fill="#66745f"/>
  <path d="M0 710C180 690 400 730 560 675C740 612 930 638 1150 598C1310 569 1460 600 1600 575V900H0Z" fill="url(#ground)"/>
  <g opacity=".95">
    <path d="M220 660h190c24-128 38-206 120-271c82 65 97 143 121 271h192v118H220Z" fill="url(#stone)"/>
    <path d="M320 660h78c6-84 18-132 64-183c48 51 60 99 66 183h75v118H320Z" fill="#b7a491"/>
    <path d="M452 660h84c6-94 18-146 44-176c25 30 35 82 42 176h83v118H452Z" fill="#7f6c5b"/>
  </g>
  <g fill="#1f291f">
    <path d="M1130 730l55-310l55 310Z"/>
    <path d="M1220 745l44-275l45 275Z"/>
    <path d="M1300 736l53-330l58 330Z"/>
    <path d="M980 748l41-242l42 242Z"/>
  </g>
  <g fill="#cabca8" opacity=".85">
    <rect x="985" y="595" width="190" height="100" rx="16"/>
    <rect x="1015" y="545" width="128" height="50" rx="12"/>
    <rect x="1071" y="500" width="18" height="44"/>
  </g>
  <path d="M0 798C120 782 214 761 346 766C488 772 624 835 764 833C954 831 1158 745 1337 741C1440 739 1517 760 1600 772V900H0Z" fill="#182019" opacity=".55"/>
</svg>
